M48
; DRILL file {KiCad (5.1.6)-1} date 08/17/20 10:20:07
; FORMAT={-:-/ absolute / metric / decimal}
; #@! TF.CreationDate,2020-08-17T10:20:07+09:00
; #@! TF.GenerationSoftware,Kicad,Pcbnew,(5.1.6)-1
FMAT,2
METRIC
T1C0.400
T2C0.700
T3C0.750
T4C0.800
T5C1.000
T6C2.000
T7C3.200
%
G90
G05
T1
X16.0Y49.5
X16.0Y47.5
X16.5Y41.0
X18.0Y44.5
X18.0Y41.5
X19.5Y33.0
X19.5Y30.5
X22.0Y48.5
X22.0Y46.5
X22.0Y44.0
X22.0Y33.0
X22.0Y30.5
X23.6Y45.5
X24.0Y40.5
X24.5Y37.5
X24.5Y35.0
X25.0Y44.5
X25.0Y30.5
X26.0Y46.5
X26.0Y35.0
X27.0Y44.0
X27.0Y42.0
X27.5Y30.5
X29.0Y46.5
X29.0Y44.5
X30.5Y30.5
X31.0Y41.0
X31.0Y37.0
X31.0Y35.0
X31.5Y46.5
X31.5Y44.5
X32.5Y32.5
X32.5Y30.5
X33.0Y41.0
X33.5Y46.5
X33.5Y35.0
X35.0Y37.0
X35.0Y30.5
X36.0Y33.0
X36.35Y45.75
X37.0Y50.0
X37.0Y43.0
X37.2Y46.65
X37.5Y30.5
X38.0Y37.0
X38.0Y35.0
X38.5Y50.0
X39.0Y33.0
X40.0Y50.0
X40.5Y30.5
X41.5Y50.0
X41.6Y41.2
X42.0Y43.2
X43.5Y30.5
X44.75Y37.0
X45.0Y48.5
X45.0Y44.5
X45.0Y38.5
X45.5Y32.0
X46.2Y37.5
X46.8Y42.5
X47.4Y32.8
X47.4Y31.4
X47.5Y48.5
X49.5Y46.5
X51.4Y36.8
X53.2Y32.25
X53.2Y31.0
X55.0Y41.0
X55.0Y30.0
X55.5Y38.5
X55.5Y36.5
X55.5Y34.5
X55.5Y32.0
X57.0Y30.0
X81.0Y49.6
X81.0Y47.1
X81.1Y29.9
X81.1Y27.2
X81.1Y23.6
X81.1Y20.8
X81.1Y14.1
X81.2Y44.4
X81.2Y11.0
X81.3Y8.0
X81.3Y4.7
X81.3Y2.1
X82.1Y35.5
X83.0Y10.8
X83.5Y35.5
X84.2Y31.45
X84.5Y38.9
X84.8Y9.6
X85.0Y23.4
X86.0Y37.0
X86.0Y30.52
X86.0Y2.3
X86.1Y21.6
X86.1Y8.2
X86.56Y32.96
X86.65Y44.3
X87.0Y41.7
X87.08Y46.32
X87.1Y47.5
X87.125Y14.775
X87.125Y13.65
X87.18Y34.07
X87.225Y40.3
X87.3Y10.0
X87.3Y0.8
X87.4Y38.5
X87.4Y28.94
X87.41Y6.7
X87.56Y27.84
X87.575Y44.975
X87.625Y12.325
X87.72Y34.92
X87.76Y26.78
X87.8Y24.3
X87.8Y22.5
X88.1Y7.8
X88.3Y49.8
X88.4Y41.7
X88.4Y13.1
X88.6Y40.0
X88.85Y10.575
X88.9Y8.9
X89.61Y41.58
X90.4Y49.9
X90.4Y48.6
X91.9Y23.4
X91.9Y20.775
X92.0Y8.5
X92.04Y4.61
X92.1Y25.42
X92.2Y22.13
X92.45Y16.275
X92.8Y13.3
X93.1Y3.5
X93.2Y11.0
X93.25Y24.83
X93.36Y29.98
X93.42Y22.08
X93.55Y8.2
X93.68Y36.47
X93.7Y9.75
X93.7Y5.5
X93.72Y42.43
X93.725Y45.15
X93.8Y38.2
X93.81Y39.89
X93.81Y35.4
X93.82Y41.12
X93.84Y46.4
X93.92Y33.02
X94.09Y27.92
X94.71Y33.92
X95.11Y46.38
X95.28Y31.97
X95.65Y3.55
X95.7Y36.8
X95.8Y18.1
X95.95Y12.4
X95.96Y42.17
X96.05Y15.25
X96.2Y47.6
X96.275Y16.775
X96.75Y33.25
X97.125Y39.45
X97.19Y40.67
X97.25Y11.35
X97.25Y4.6
X97.3Y17.9
X97.85Y31.75
X97.85Y27.56
X98.3Y18.8
X98.4Y5.6
X98.6Y17.55
X98.9Y16.4
X99.2Y32.95
X99.33Y25.31
X99.8Y46.5
X99.9Y17.75
X100.0Y3.4
X100.3Y10.7
X100.51Y26.34
X100.6Y8.8
X100.6Y7.7
X100.67Y43.27
X100.75Y12.15
X100.8Y13.2
X100.825Y15.5
X100.875Y14.3
X100.9Y5.6
X101.0Y32.5
X101.2Y1.9
X101.44Y27.15
X101.65Y46.475
X101.7Y10.7
X101.75Y42.7
X102.15Y26.23
X102.4Y3.5
X102.5Y41.8
X102.5Y24.8
X102.6Y18.125
X102.75Y31.75
X102.79Y8.38
X102.9Y43.2
X103.175Y37.375
X103.7Y33.575
X103.7Y2.2
X103.85Y18.0
X103.85Y15.5
X103.85Y14.2
X103.9Y46.5
X103.9Y12.9
X103.9Y10.4
X104.03Y40.49
X104.3Y4.9
X104.5Y31.8
X104.65Y22.85
X104.9Y16.0
X105.325Y8.2
X105.4Y46.5
X105.5Y2.0
X105.6Y6.2
X105.6Y3.7
X106.25Y39.225
X106.71Y47.66
X107.37Y42.64
X107.5Y15.0
X107.5Y13.75
X107.75Y17.0
X108.13Y44.97
X108.17Y32.16
X108.2Y47.6
X108.29Y31.09
X108.3Y41.15
X108.35Y28.23
X108.4Y37.9
X108.5Y27.0
X108.59Y15.87
X108.8Y22.3
X109.25Y24.82
X109.75Y20.56
X109.77Y23.08
X110.0Y18.25
X110.0Y16.25
X111.025Y14.1
X111.3Y9.4
X111.7Y50.1
X111.7Y48.7
X111.85Y11.65
X112.0Y46.8
X112.0Y13.075
X112.07Y41.15
X112.12Y36.21
X112.23Y45.46
X112.33Y42.36
X112.68Y37.52
X113.3Y3.4
X113.72Y42.19
X113.77Y37.6
X113.87Y33.36
X113.9Y1.6
X114.0Y21.2
X114.175Y9.225
X114.25Y29.75
X114.3Y12.1
X114.4Y25.9
X114.4Y14.6
X114.5Y27.8
X114.6Y4.025
X114.782Y31.107
X114.79Y37.54
X115.2Y48.9
X115.3Y33.6
X115.6Y50.2
X115.6Y35.1
X115.75Y24.75
X116.1Y44.6
X116.7Y32.9
X116.8Y42.2
X117.2Y39.6
X117.25Y21.0
X117.3Y14.5
X117.3Y12.1
X117.5Y26.0
X117.5Y23.75
X117.5Y18.75
X117.5Y0.875
X118.0Y42.2
X118.9Y32.3
X119.0Y39.6
X119.0Y21.0
X119.625Y18.975
X120.5Y39.525
X120.575Y26.525
X120.6Y14.5
X120.6Y12.0
X120.675Y23.45
X120.725Y17.675
X121.0Y1.0
X121.1Y44.7
X121.1Y38.1
X121.1Y36.3
X121.1Y34.2
X121.1Y32.2
X121.1Y4.5
X121.2Y29.9
T2
X115.7Y22.0
X115.7Y17.0
X83.0Y49.4
X83.0Y47.9
X83.0Y46.4
X83.0Y44.9
X83.0Y20.0
X83.0Y18.5
X83.0Y17.0
X83.0Y15.5
X83.0Y14.0
X83.0Y12.5
X10.6Y48.65
X10.6Y35.95
X83.0Y33.8
X83.0Y32.3
X83.0Y30.8
X83.0Y29.3
X83.0Y27.8
X83.0Y26.3
X83.0Y24.8
X83.0Y23.3
X83.0Y41.6
X83.0Y40.1
X83.0Y38.6
X83.0Y37.1
X94.2Y2.0
X95.7Y2.0
X97.2Y2.0
X98.7Y2.0
X34.7Y48.4
X36.2Y48.4
X37.7Y48.4
X39.2Y48.4
X40.7Y48.4
X42.2Y48.4
X83.0Y9.0
X83.0Y7.5
X83.0Y6.0
X83.0Y4.5
X83.0Y3.0
X83.0Y1.5
X15.3Y2.8
X19.3Y5.8
X119.1Y30.7
X119.1Y29.2
X119.1Y27.7
X107.0Y2.0
X108.5Y2.0
X110.0Y2.0
X111.5Y2.0
X119.1Y37.2
X119.1Y35.7
X119.1Y34.2
T3
X16.5Y45.47
X16.5Y42.93
X118.0Y3.7
X118.0Y1.9
X112.8Y47.7
X114.6Y47.7
T4
X33.1Y13.2
X33.1Y5.2
X40.1Y13.2
X40.1Y5.2
T5
X107.0Y24.9
X107.0Y22.36
X107.0Y19.82
X96.84Y24.9
X96.84Y22.36
X96.84Y19.82
X24.5Y42.6
X24.5Y22.6
X29.5Y42.6
X39.5Y42.6
X44.5Y42.6
X44.5Y22.6
X26.9Y16.9
X26.9Y1.9
X17.1Y37.75
X17.1Y35.21
X17.1Y25.05
X17.1Y17.43
X46.2Y17.0
X46.2Y2.0
X9.9Y32.0
X9.9Y17.0
X12.4Y10.5
X19.4Y10.5
T6
X3.0Y39.0
X3.0Y21.0
X3.0Y12.0
X3.0Y31.0
T7
X54.0Y45.5
X119.0Y48.0
X54.0Y5.5
X119.0Y8.0
X4.0Y5.5
X4.0Y45.5
T0
M30
