M48
; DRILL file {KiCad (5.1.6)-1} date 12/26/20 11:57:47
; FORMAT={-:-/ absolute / metric / decimal}
; #@! TF.CreationDate,2020-12-26T11:57:47+09:00
; #@! TF.GenerationSoftware,Kicad,Pcbnew,(5.1.6)-1
FMAT,2
METRIC
T1C0.600
T2C0.750
T3C0.950
T4C1.100
T5C4.200
%
G90
G05
T1
X90.3Y-93.5
X90.3Y-96.7
X96.05Y-95.05
X102.6Y-89.1
X104.75Y-95.05
X109.6Y-99.6
X109.6Y-105.3
X109.9Y-89.2
T2
X94.8Y-90.46
X94.8Y-91.73
X94.8Y-93.0
X106.4Y-90.66
X106.4Y-91.93
X106.4Y-93.2
T3
X93.6Y-99.7
X96.1Y-99.7
X98.6Y-99.7
X101.1Y-99.7
X103.6Y-99.7
X106.1Y-99.7
T4
X104.76Y-87.1
X107.3Y-87.1
X109.84Y-87.1
X88.2Y-95.14
X88.2Y-105.3
X111.7Y-95.14
X111.7Y-105.3
X90.16Y-87.1
X92.7Y-87.1
X95.24Y-87.1
T5
X107.3Y-70.7
X92.7Y-70.7
T0
M30
