%FSLAX45Y45*%
G04 Gerber Fmt 4.5, Leading zero omitted, Abs format (unit mm)*
G04 Created by KiCad (PCBNEW (5.1.6)-1) date 2020-08-17 10:20:08*
%MOMM*%
%LPD*%
G01*
G04 APERTURE LIST*
%TA.AperFunction,Profile*%
%ADD10C,0.050000*%
%TD*%
%ADD11C,0.200000*%
%ADD12C,0.300000*%
G04 APERTURE END LIST*
D10*
X12200000Y5100000D02*
X12200000Y0D01*
X12200000Y5100000D02*
X8000000Y5100000D01*
X8000000Y0D02*
X8000000Y5100000D01*
X8000000Y0D02*
X12200000Y0D01*
X5800000Y5100000D02*
X5800000Y0D01*
X0Y5100000D02*
X5800000Y5100000D01*
X0Y0D02*
X0Y5100000D01*
X0Y0D02*
X5800000Y0D01*
D11*
X1580000Y4970000D02*
X1620000Y4930000D01*
X1620000Y4970000D02*
X1580000Y4930000D01*
X1580000Y4770000D02*
X1620000Y4730000D01*
X1620000Y4770000D02*
X1580000Y4730000D01*
X1630000Y4120000D02*
X1670000Y4080000D01*
X1670000Y4120000D02*
X1630000Y4080000D01*
X1780000Y4470000D02*
X1820000Y4430000D01*
X1820000Y4470000D02*
X1780000Y4430000D01*
X1780000Y4170000D02*
X1820000Y4130000D01*
X1820000Y4170000D02*
X1780000Y4130000D01*
X1930000Y3320000D02*
X1970000Y3280000D01*
X1970000Y3320000D02*
X1930000Y3280000D01*
X1930000Y3070000D02*
X1970000Y3030000D01*
X1970000Y3070000D02*
X1930000Y3030000D01*
X2180000Y4870000D02*
X2220000Y4830000D01*
X2220000Y4870000D02*
X2180000Y4830000D01*
X2180000Y4670000D02*
X2220000Y4630000D01*
X2220000Y4670000D02*
X2180000Y4630000D01*
X2180000Y4420000D02*
X2220000Y4380000D01*
X2220000Y4420000D02*
X2180000Y4380000D01*
X2180000Y3320000D02*
X2220000Y3280000D01*
X2220000Y3320000D02*
X2180000Y3280000D01*
X2180000Y3070000D02*
X2220000Y3030000D01*
X2220000Y3070000D02*
X2180000Y3030000D01*
X2340000Y4570000D02*
X2380000Y4530000D01*
X2380000Y4570000D02*
X2340000Y4530000D01*
X2380000Y4070000D02*
X2420000Y4030000D01*
X2420000Y4070000D02*
X2380000Y4030000D01*
X2430000Y3770000D02*
X2470000Y3730000D01*
X2470000Y3770000D02*
X2430000Y3730000D01*
X2430000Y3520000D02*
X2470000Y3480000D01*
X2470000Y3520000D02*
X2430000Y3480000D01*
X2480000Y4470000D02*
X2520000Y4430000D01*
X2520000Y4470000D02*
X2480000Y4430000D01*
X2480000Y3070000D02*
X2520000Y3030000D01*
X2520000Y3070000D02*
X2480000Y3030000D01*
X2580000Y4670000D02*
X2620000Y4630000D01*
X2620000Y4670000D02*
X2580000Y4630000D01*
X2580000Y3520000D02*
X2620000Y3480000D01*
X2620000Y3520000D02*
X2580000Y3480000D01*
X2680000Y4420000D02*
X2720000Y4380000D01*
X2720000Y4420000D02*
X2680000Y4380000D01*
X2680000Y4220000D02*
X2720000Y4180000D01*
X2720000Y4220000D02*
X2680000Y4180000D01*
X2730000Y3070000D02*
X2770000Y3030000D01*
X2770000Y3070000D02*
X2730000Y3030000D01*
X2880000Y4670000D02*
X2920000Y4630000D01*
X2920000Y4670000D02*
X2880000Y4630000D01*
X2880000Y4470000D02*
X2920000Y4430000D01*
X2920000Y4470000D02*
X2880000Y4430000D01*
X3030000Y3070000D02*
X3070000Y3030000D01*
X3070000Y3070000D02*
X3030000Y3030000D01*
X3080000Y4120000D02*
X3120000Y4080000D01*
X3120000Y4120000D02*
X3080000Y4080000D01*
X3080000Y3720000D02*
X3120000Y3680000D01*
X3120000Y3720000D02*
X3080000Y3680000D01*
X3080000Y3520000D02*
X3120000Y3480000D01*
X3120000Y3520000D02*
X3080000Y3480000D01*
X3130000Y4670000D02*
X3170000Y4630000D01*
X3170000Y4670000D02*
X3130000Y4630000D01*
X3130000Y4470000D02*
X3170000Y4430000D01*
X3170000Y4470000D02*
X3130000Y4430000D01*
X3230000Y3270000D02*
X3270000Y3230000D01*
X3270000Y3270000D02*
X3230000Y3230000D01*
X3230000Y3070000D02*
X3270000Y3030000D01*
X3270000Y3070000D02*
X3230000Y3030000D01*
X3280000Y4120000D02*
X3320000Y4080000D01*
X3320000Y4120000D02*
X3280000Y4080000D01*
X3330000Y4670000D02*
X3370000Y4630000D01*
X3370000Y4670000D02*
X3330000Y4630000D01*
X3330000Y3520000D02*
X3370000Y3480000D01*
X3370000Y3520000D02*
X3330000Y3480000D01*
X3480000Y3720000D02*
X3520000Y3680000D01*
X3520000Y3720000D02*
X3480000Y3680000D01*
X3480000Y3070000D02*
X3520000Y3030000D01*
X3520000Y3070000D02*
X3480000Y3030000D01*
X3580000Y3320000D02*
X3620000Y3280000D01*
X3620000Y3320000D02*
X3580000Y3280000D01*
X3615000Y4595000D02*
X3655000Y4555000D01*
X3655000Y4595000D02*
X3615000Y4555000D01*
X3680000Y5020000D02*
X3720000Y4980000D01*
X3720000Y5020000D02*
X3680000Y4980000D01*
X3680000Y4320000D02*
X3720000Y4280000D01*
X3720000Y4320000D02*
X3680000Y4280000D01*
X3700000Y4685000D02*
X3740000Y4645000D01*
X3740000Y4685000D02*
X3700000Y4645000D01*
X3730000Y3070000D02*
X3770000Y3030000D01*
X3770000Y3070000D02*
X3730000Y3030000D01*
X3780000Y3720000D02*
X3820000Y3680000D01*
X3820000Y3720000D02*
X3780000Y3680000D01*
X3780000Y3520000D02*
X3820000Y3480000D01*
X3820000Y3520000D02*
X3780000Y3480000D01*
X3830000Y5020000D02*
X3870000Y4980000D01*
X3870000Y5020000D02*
X3830000Y4980000D01*
X3880000Y3320000D02*
X3920000Y3280000D01*
X3920000Y3320000D02*
X3880000Y3280000D01*
X3980000Y5020000D02*
X4020000Y4980000D01*
X4020000Y5020000D02*
X3980000Y4980000D01*
X4030000Y3070000D02*
X4070000Y3030000D01*
X4070000Y3070000D02*
X4030000Y3030000D01*
X4130000Y5020000D02*
X4170000Y4980000D01*
X4170000Y5020000D02*
X4130000Y4980000D01*
X4140000Y4140000D02*
X4180000Y4100000D01*
X4180000Y4140000D02*
X4140000Y4100000D01*
X4180000Y4340000D02*
X4220000Y4300000D01*
X4220000Y4340000D02*
X4180000Y4300000D01*
X4330000Y3070000D02*
X4370000Y3030000D01*
X4370000Y3070000D02*
X4330000Y3030000D01*
X4455000Y3720000D02*
X4495000Y3680000D01*
X4495000Y3720000D02*
X4455000Y3680000D01*
X4480000Y4870000D02*
X4520000Y4830000D01*
X4520000Y4870000D02*
X4480000Y4830000D01*
X4480000Y4470000D02*
X4520000Y4430000D01*
X4520000Y4470000D02*
X4480000Y4430000D01*
X4480000Y3870000D02*
X4520000Y3830000D01*
X4520000Y3870000D02*
X4480000Y3830000D01*
X4530000Y3220000D02*
X4570000Y3180000D01*
X4570000Y3220000D02*
X4530000Y3180000D01*
X4600000Y3770000D02*
X4640000Y3730000D01*
X4640000Y3770000D02*
X4600000Y3730000D01*
X4660000Y4270000D02*
X4700000Y4230000D01*
X4700000Y4270000D02*
X4660000Y4230000D01*
X4720000Y3300000D02*
X4760000Y3260000D01*
X4760000Y3300000D02*
X4720000Y3260000D01*
X4720000Y3160000D02*
X4760000Y3120000D01*
X4760000Y3160000D02*
X4720000Y3120000D01*
X4730000Y4870000D02*
X4770000Y4830000D01*
X4770000Y4870000D02*
X4730000Y4830000D01*
X4930000Y4670000D02*
X4970000Y4630000D01*
X4970000Y4670000D02*
X4930000Y4630000D01*
X5120000Y3700000D02*
X5160000Y3660000D01*
X5160000Y3700000D02*
X5120000Y3660000D01*
X5300000Y3245000D02*
X5340000Y3205000D01*
X5340000Y3245000D02*
X5300000Y3205000D01*
X5300000Y3120000D02*
X5340000Y3080000D01*
X5340000Y3120000D02*
X5300000Y3080000D01*
X5480000Y4120000D02*
X5520000Y4080000D01*
X5520000Y4120000D02*
X5480000Y4080000D01*
X5480000Y3020000D02*
X5520000Y2980000D01*
X5520000Y3020000D02*
X5480000Y2980000D01*
X5530000Y3870000D02*
X5570000Y3830000D01*
X5570000Y3870000D02*
X5530000Y3830000D01*
X5530000Y3670000D02*
X5570000Y3630000D01*
X5570000Y3670000D02*
X5530000Y3630000D01*
X5530000Y3470000D02*
X5570000Y3430000D01*
X5570000Y3470000D02*
X5530000Y3430000D01*
X5530000Y3220000D02*
X5570000Y3180000D01*
X5570000Y3220000D02*
X5530000Y3180000D01*
X5680000Y3020000D02*
X5720000Y2980000D01*
X5720000Y3020000D02*
X5680000Y2980000D01*
X8080000Y4980000D02*
X8120000Y4940000D01*
X8120000Y4980000D02*
X8080000Y4940000D01*
X8080000Y4730000D02*
X8120000Y4690000D01*
X8120000Y4730000D02*
X8080000Y4690000D01*
X8090000Y3010000D02*
X8130000Y2970000D01*
X8130000Y3010000D02*
X8090000Y2970000D01*
X8090000Y2740000D02*
X8130000Y2700000D01*
X8130000Y2740000D02*
X8090000Y2700000D01*
X8090000Y2380000D02*
X8130000Y2340000D01*
X8130000Y2380000D02*
X8090000Y2340000D01*
X8090000Y2100000D02*
X8130000Y2060000D01*
X8130000Y2100000D02*
X8090000Y2060000D01*
X8090000Y1430000D02*
X8130000Y1390000D01*
X8130000Y1430000D02*
X8090000Y1390000D01*
X8100000Y4460000D02*
X8140000Y4420000D01*
X8140000Y4460000D02*
X8100000Y4420000D01*
X8100000Y1120000D02*
X8140000Y1080000D01*
X8140000Y1120000D02*
X8100000Y1080000D01*
X8110000Y820000D02*
X8150000Y780000D01*
X8150000Y820000D02*
X8110000Y780000D01*
X8110000Y490000D02*
X8150000Y450000D01*
X8150000Y490000D02*
X8110000Y450000D01*
X8110000Y230000D02*
X8150000Y190000D01*
X8150000Y230000D02*
X8110000Y190000D01*
X8190000Y3570000D02*
X8230000Y3530000D01*
X8230000Y3570000D02*
X8190000Y3530000D01*
X8280000Y1100000D02*
X8320000Y1060000D01*
X8320000Y1100000D02*
X8280000Y1060000D01*
X8330000Y3570000D02*
X8370000Y3530000D01*
X8370000Y3570000D02*
X8330000Y3530000D01*
X8400000Y3165000D02*
X8440000Y3125000D01*
X8440000Y3165000D02*
X8400000Y3125000D01*
X8430000Y3910000D02*
X8470000Y3870000D01*
X8470000Y3910000D02*
X8430000Y3870000D01*
X8460000Y980000D02*
X8500000Y940000D01*
X8500000Y980000D02*
X8460000Y940000D01*
X8480000Y2360000D02*
X8520000Y2320000D01*
X8520000Y2360000D02*
X8480000Y2320000D01*
X8580000Y3720000D02*
X8620000Y3680000D01*
X8620000Y3720000D02*
X8580000Y3680000D01*
X8580000Y3072000D02*
X8620000Y3032000D01*
X8620000Y3072000D02*
X8580000Y3032000D01*
X8580000Y250000D02*
X8620000Y210000D01*
X8620000Y250000D02*
X8580000Y210000D01*
X8590000Y2180000D02*
X8630000Y2140000D01*
X8630000Y2180000D02*
X8590000Y2140000D01*
X8590000Y840000D02*
X8630000Y800000D01*
X8630000Y840000D02*
X8590000Y800000D01*
X8636000Y3316000D02*
X8676000Y3276000D01*
X8676000Y3316000D02*
X8636000Y3276000D01*
X8645000Y4450000D02*
X8685000Y4410000D01*
X8685000Y4450000D02*
X8645000Y4410000D01*
X8680000Y4190000D02*
X8720000Y4150000D01*
X8720000Y4190000D02*
X8680000Y4150000D01*
X8688000Y4652000D02*
X8728000Y4612000D01*
X8728000Y4652000D02*
X8688000Y4612000D01*
X8690000Y4770000D02*
X8730000Y4730000D01*
X8730000Y4770000D02*
X8690000Y4730000D01*
X8692500Y1497500D02*
X8732500Y1457500D01*
X8732500Y1497500D02*
X8692500Y1457500D01*
X8692500Y1385000D02*
X8732500Y1345000D01*
X8732500Y1385000D02*
X8692500Y1345000D01*
X8698000Y3427000D02*
X8738000Y3387000D01*
X8738000Y3427000D02*
X8698000Y3387000D01*
X8702500Y4050000D02*
X8742500Y4010000D01*
X8742500Y4050000D02*
X8702500Y4010000D01*
X8710000Y1020000D02*
X8750000Y980000D01*
X8750000Y1020000D02*
X8710000Y980000D01*
X8710000Y100000D02*
X8750000Y60000D01*
X8750000Y100000D02*
X8710000Y60000D01*
X8720000Y3870000D02*
X8760000Y3830000D01*
X8760000Y3870000D02*
X8720000Y3830000D01*
X8720000Y2914000D02*
X8760000Y2874000D01*
X8760000Y2914000D02*
X8720000Y2874000D01*
X8721000Y690000D02*
X8761000Y650000D01*
X8761000Y690000D02*
X8721000Y650000D01*
X8736000Y2804000D02*
X8776000Y2764000D01*
X8776000Y2804000D02*
X8736000Y2764000D01*
X8737500Y4517500D02*
X8777500Y4477500D01*
X8777500Y4517500D02*
X8737500Y4477500D01*
X8742500Y1252500D02*
X8782500Y1212500D01*
X8782500Y1252500D02*
X8742500Y1212500D01*
X8752000Y3512000D02*
X8792000Y3472000D01*
X8792000Y3512000D02*
X8752000Y3472000D01*
X8756000Y2698000D02*
X8796000Y2658000D01*
X8796000Y2698000D02*
X8756000Y2658000D01*
X8760000Y2450000D02*
X8800000Y2410000D01*
X8800000Y2450000D02*
X8760000Y2410000D01*
X8760000Y2270000D02*
X8800000Y2230000D01*
X8800000Y2270000D02*
X8760000Y2230000D01*
X8790000Y800000D02*
X8830000Y760000D01*
X8830000Y800000D02*
X8790000Y760000D01*
X8810000Y5000000D02*
X8850000Y4960000D01*
X8850000Y5000000D02*
X8810000Y4960000D01*
X8820000Y4190000D02*
X8860000Y4150000D01*
X8860000Y4190000D02*
X8820000Y4150000D01*
X8820000Y1330000D02*
X8860000Y1290000D01*
X8860000Y1330000D02*
X8820000Y1290000D01*
X8840000Y4020000D02*
X8880000Y3980000D01*
X8880000Y4020000D02*
X8840000Y3980000D01*
X8865000Y1077500D02*
X8905000Y1037500D01*
X8905000Y1077500D02*
X8865000Y1037500D01*
X8870000Y910000D02*
X8910000Y870000D01*
X8910000Y910000D02*
X8870000Y870000D01*
X8941000Y4178000D02*
X8981000Y4138000D01*
X8981000Y4178000D02*
X8941000Y4138000D01*
X9020000Y5010000D02*
X9060000Y4970000D01*
X9060000Y5010000D02*
X9020000Y4970000D01*
X9020000Y4880000D02*
X9060000Y4840000D01*
X9060000Y4880000D02*
X9020000Y4840000D01*
X9170000Y2360000D02*
X9210000Y2320000D01*
X9210000Y2360000D02*
X9170000Y2320000D01*
X9170000Y2097500D02*
X9210000Y2057500D01*
X9210000Y2097500D02*
X9170000Y2057500D01*
X9180000Y870000D02*
X9220000Y830000D01*
X9220000Y870000D02*
X9180000Y830000D01*
X9184000Y481000D02*
X9224000Y441000D01*
X9224000Y481000D02*
X9184000Y441000D01*
X9190000Y2562000D02*
X9230000Y2522000D01*
X9230000Y2562000D02*
X9190000Y2522000D01*
X9200000Y2233000D02*
X9240000Y2193000D01*
X9240000Y2233000D02*
X9200000Y2193000D01*
X9225000Y1647500D02*
X9265000Y1607500D01*
X9265000Y1647500D02*
X9225000Y1607500D01*
X9260000Y1350000D02*
X9300000Y1310000D01*
X9300000Y1350000D02*
X9260000Y1310000D01*
X9290000Y370000D02*
X9330000Y330000D01*
X9330000Y370000D02*
X9290000Y330000D01*
X9300000Y1120000D02*
X9340000Y1080000D01*
X9340000Y1120000D02*
X9300000Y1080000D01*
X9305000Y2503000D02*
X9345000Y2463000D01*
X9345000Y2503000D02*
X9305000Y2463000D01*
X9316000Y3018000D02*
X9356000Y2978000D01*
X9356000Y3018000D02*
X9316000Y2978000D01*
X9322000Y2228000D02*
X9362000Y2188000D01*
X9362000Y2228000D02*
X9322000Y2188000D01*
X9335000Y840000D02*
X9375000Y800000D01*
X9375000Y840000D02*
X9335000Y800000D01*
X9348000Y3667000D02*
X9388000Y3627000D01*
X9388000Y3667000D02*
X9348000Y3627000D01*
X9350000Y995000D02*
X9390000Y955000D01*
X9390000Y995000D02*
X9350000Y955000D01*
X9350000Y570000D02*
X9390000Y530000D01*
X9390000Y570000D02*
X9350000Y530000D01*
X9352000Y4263000D02*
X9392000Y4223000D01*
X9392000Y4263000D02*
X9352000Y4223000D01*
X9352500Y4535000D02*
X9392500Y4495000D01*
X9392500Y4535000D02*
X9352500Y4495000D01*
X9360000Y3840000D02*
X9400000Y3800000D01*
X9400000Y3840000D02*
X9360000Y3800000D01*
X9361000Y4009000D02*
X9401000Y3969000D01*
X9401000Y4009000D02*
X9361000Y3969000D01*
X9361000Y3560000D02*
X9401000Y3520000D01*
X9401000Y3560000D02*
X9361000Y3520000D01*
X9362000Y4132000D02*
X9402000Y4092000D01*
X9402000Y4132000D02*
X9362000Y4092000D01*
X9364000Y4660000D02*
X9404000Y4620000D01*
X9404000Y4660000D02*
X9364000Y4620000D01*
X9372000Y3322000D02*
X9412000Y3282000D01*
X9412000Y3322000D02*
X9372000Y3282000D01*
X9389000Y2812000D02*
X9429000Y2772000D01*
X9429000Y2812000D02*
X9389000Y2772000D01*
X9451000Y3412000D02*
X9491000Y3372000D01*
X9491000Y3412000D02*
X9451000Y3372000D01*
X9491000Y4658000D02*
X9531000Y4618000D01*
X9531000Y4658000D02*
X9491000Y4618000D01*
X9508000Y3217000D02*
X9548000Y3177000D01*
X9548000Y3217000D02*
X9508000Y3177000D01*
X9545000Y375000D02*
X9585000Y335000D01*
X9585000Y375000D02*
X9545000Y335000D01*
X9550000Y3700000D02*
X9590000Y3660000D01*
X9590000Y3700000D02*
X9550000Y3660000D01*
X9560000Y1830000D02*
X9600000Y1790000D01*
X9600000Y1830000D02*
X9560000Y1790000D01*
X9575000Y1260000D02*
X9615000Y1220000D01*
X9615000Y1260000D02*
X9575000Y1220000D01*
X9576000Y4237000D02*
X9616000Y4197000D01*
X9616000Y4237000D02*
X9576000Y4197000D01*
X9585000Y1545000D02*
X9625000Y1505000D01*
X9625000Y1545000D02*
X9585000Y1505000D01*
X9600000Y4780000D02*
X9640000Y4740000D01*
X9640000Y4780000D02*
X9600000Y4740000D01*
X9607500Y1697500D02*
X9647500Y1657500D01*
X9647500Y1697500D02*
X9607500Y1657500D01*
X9655000Y3345000D02*
X9695000Y3305000D01*
X9695000Y3345000D02*
X9655000Y3305000D01*
X9692500Y3965000D02*
X9732500Y3925000D01*
X9732500Y3965000D02*
X9692500Y3925000D01*
X9699000Y4087000D02*
X9739000Y4047000D01*
X9739000Y4087000D02*
X9699000Y4047000D01*
X9705000Y1155000D02*
X9745000Y1115000D01*
X9745000Y1155000D02*
X9705000Y1115000D01*
X9705000Y480000D02*
X9745000Y440000D01*
X9745000Y480000D02*
X9705000Y440000D01*
X9710000Y1810000D02*
X9750000Y1770000D01*
X9750000Y1810000D02*
X9710000Y1770000D01*
X9765000Y3195000D02*
X9805000Y3155000D01*
X9805000Y3195000D02*
X9765000Y3155000D01*
X9765000Y2776000D02*
X9805000Y2736000D01*
X9805000Y2776000D02*
X9765000Y2736000D01*
X9810000Y1900000D02*
X9850000Y1860000D01*
X9850000Y1900000D02*
X9810000Y1860000D01*
X9820000Y580000D02*
X9860000Y540000D01*
X9860000Y580000D02*
X9820000Y540000D01*
X9840000Y1775000D02*
X9880000Y1735000D01*
X9880000Y1775000D02*
X9840000Y1735000D01*
X9870000Y1660000D02*
X9910000Y1620000D01*
X9910000Y1660000D02*
X9870000Y1620000D01*
X9900000Y3315000D02*
X9940000Y3275000D01*
X9940000Y3315000D02*
X9900000Y3275000D01*
X9913000Y2551000D02*
X9953000Y2511000D01*
X9953000Y2551000D02*
X9913000Y2511000D01*
X9960000Y4670000D02*
X10000000Y4630000D01*
X10000000Y4670000D02*
X9960000Y4630000D01*
X9970000Y1795000D02*
X10010000Y1755000D01*
X10010000Y1795000D02*
X9970000Y1755000D01*
X9980000Y360000D02*
X10020000Y320000D01*
X10020000Y360000D02*
X9980000Y320000D01*
X10010000Y1090000D02*
X10050000Y1050000D01*
X10050000Y1090000D02*
X10010000Y1050000D01*
X10031000Y2654000D02*
X10071000Y2614000D01*
X10071000Y2654000D02*
X10031000Y2614000D01*
X10040000Y900000D02*
X10080000Y860000D01*
X10080000Y900000D02*
X10040000Y860000D01*
X10040000Y790000D02*
X10080000Y750000D01*
X10080000Y790000D02*
X10040000Y750000D01*
X10047000Y4347000D02*
X10087000Y4307000D01*
X10087000Y4347000D02*
X10047000Y4307000D01*
X10055000Y1235000D02*
X10095000Y1195000D01*
X10095000Y1235000D02*
X10055000Y1195000D01*
X10060000Y1340000D02*
X10100000Y1300000D01*
X10100000Y1340000D02*
X10060000Y1300000D01*
X10062500Y1570000D02*
X10102500Y1530000D01*
X10102500Y1570000D02*
X10062500Y1530000D01*
X10067500Y1450000D02*
X10107500Y1410000D01*
X10107500Y1450000D02*
X10067500Y1410000D01*
X10070000Y580000D02*
X10110000Y540000D01*
X10110000Y580000D02*
X10070000Y540000D01*
X10080000Y3270000D02*
X10120000Y3230000D01*
X10120000Y3270000D02*
X10080000Y3230000D01*
X10100000Y210000D02*
X10140000Y170000D01*
X10140000Y210000D02*
X10100000Y170000D01*
X10124000Y2735000D02*
X10164000Y2695000D01*
X10164000Y2735000D02*
X10124000Y2695000D01*
X10145000Y4667500D02*
X10185000Y4627500D01*
X10185000Y4667500D02*
X10145000Y4627500D01*
X10150000Y1090000D02*
X10190000Y1050000D01*
X10190000Y1090000D02*
X10150000Y1050000D01*
X10155000Y4290000D02*
X10195000Y4250000D01*
X10195000Y4290000D02*
X10155000Y4250000D01*
X10195000Y2643000D02*
X10235000Y2603000D01*
X10235000Y2643000D02*
X10195000Y2603000D01*
X10220000Y370000D02*
X10260000Y330000D01*
X10260000Y370000D02*
X10220000Y330000D01*
X10230000Y4200000D02*
X10270000Y4160000D01*
X10270000Y4200000D02*
X10230000Y4160000D01*
X10230000Y2500000D02*
X10270000Y2460000D01*
X10270000Y2500000D02*
X10230000Y2460000D01*
X10240000Y1832500D02*
X10280000Y1792500D01*
X10280000Y1832500D02*
X10240000Y1792500D01*
X10255000Y3195000D02*
X10295000Y3155000D01*
X10295000Y3195000D02*
X10255000Y3155000D01*
X10259000Y858000D02*
X10299000Y818000D01*
X10299000Y858000D02*
X10259000Y818000D01*
X10270000Y4340000D02*
X10310000Y4300000D01*
X10310000Y4340000D02*
X10270000Y4300000D01*
X10297500Y3757500D02*
X10337500Y3717500D01*
X10337500Y3757500D02*
X10297500Y3717500D01*
X10350000Y3377500D02*
X10390000Y3337500D01*
X10390000Y3377500D02*
X10350000Y3337500D01*
X10350000Y240000D02*
X10390000Y200000D01*
X10390000Y240000D02*
X10350000Y200000D01*
X10365000Y1820000D02*
X10405000Y1780000D01*
X10405000Y1820000D02*
X10365000Y1780000D01*
X10365000Y1570000D02*
X10405000Y1530000D01*
X10405000Y1570000D02*
X10365000Y1530000D01*
X10365000Y1440000D02*
X10405000Y1400000D01*
X10405000Y1440000D02*
X10365000Y1400000D01*
X10370000Y4670000D02*
X10410000Y4630000D01*
X10410000Y4670000D02*
X10370000Y4630000D01*
X10370000Y1310000D02*
X10410000Y1270000D01*
X10410000Y1310000D02*
X10370000Y1270000D01*
X10370000Y1060000D02*
X10410000Y1020000D01*
X10410000Y1060000D02*
X10370000Y1020000D01*
X10383000Y4069000D02*
X10423000Y4029000D01*
X10423000Y4069000D02*
X10383000Y4029000D01*
X10410000Y510000D02*
X10450000Y470000D01*
X10450000Y510000D02*
X10410000Y470000D01*
X10430000Y3200000D02*
X10470000Y3160000D01*
X10470000Y3200000D02*
X10430000Y3160000D01*
X10445000Y2305000D02*
X10485000Y2265000D01*
X10485000Y2305000D02*
X10445000Y2265000D01*
X10470000Y1620000D02*
X10510000Y1580000D01*
X10510000Y1620000D02*
X10470000Y1580000D01*
X10512500Y840000D02*
X10552500Y800000D01*
X10552500Y840000D02*
X10512500Y800000D01*
X10520000Y4670000D02*
X10560000Y4630000D01*
X10560000Y4670000D02*
X10520000Y4630000D01*
X10530000Y220000D02*
X10570000Y180000D01*
X10570000Y220000D02*
X10530000Y180000D01*
X10540000Y640000D02*
X10580000Y600000D01*
X10580000Y640000D02*
X10540000Y600000D01*
X10540000Y390000D02*
X10580000Y350000D01*
X10580000Y390000D02*
X10540000Y350000D01*
X10605000Y3942500D02*
X10645000Y3902500D01*
X10645000Y3942500D02*
X10605000Y3902500D01*
X10651000Y4786000D02*
X10691000Y4746000D01*
X10691000Y4786000D02*
X10651000Y4746000D01*
X10717000Y4284000D02*
X10757000Y4244000D01*
X10757000Y4284000D02*
X10717000Y4244000D01*
X10730000Y1520000D02*
X10770000Y1480000D01*
X10770000Y1520000D02*
X10730000Y1480000D01*
X10730000Y1395000D02*
X10770000Y1355000D01*
X10770000Y1395000D02*
X10730000Y1355000D01*
X10755000Y1720000D02*
X10795000Y1680000D01*
X10795000Y1720000D02*
X10755000Y1680000D01*
X10793000Y4517000D02*
X10833000Y4477000D01*
X10833000Y4517000D02*
X10793000Y4477000D01*
X10797000Y3236000D02*
X10837000Y3196000D01*
X10837000Y3236000D02*
X10797000Y3196000D01*
X10800000Y4780000D02*
X10840000Y4740000D01*
X10840000Y4780000D02*
X10800000Y4740000D01*
X10809000Y3129000D02*
X10849000Y3089000D01*
X10849000Y3129000D02*
X10809000Y3089000D01*
X10810000Y4135000D02*
X10850000Y4095000D01*
X10850000Y4135000D02*
X10810000Y4095000D01*
X10815000Y2843000D02*
X10855000Y2803000D01*
X10855000Y2843000D02*
X10815000Y2803000D01*
X10820000Y3810000D02*
X10860000Y3770000D01*
X10860000Y3810000D02*
X10820000Y3770000D01*
X10830000Y2720000D02*
X10870000Y2680000D01*
X10870000Y2720000D02*
X10830000Y2680000D01*
X10839000Y1607000D02*
X10879000Y1567000D01*
X10879000Y1607000D02*
X10839000Y1567000D01*
X10860000Y2250000D02*
X10900000Y2210000D01*
X10900000Y2250000D02*
X10860000Y2210000D01*
X10905000Y2502000D02*
X10945000Y2462000D01*
X10945000Y2502000D02*
X10905000Y2462000D01*
X10955000Y2076000D02*
X10995000Y2036000D01*
X10995000Y2076000D02*
X10955000Y2036000D01*
X10957000Y2328000D02*
X10997000Y2288000D01*
X10997000Y2328000D02*
X10957000Y2288000D01*
X10980000Y1845000D02*
X11020000Y1805000D01*
X11020000Y1845000D02*
X10980000Y1805000D01*
X10980000Y1645000D02*
X11020000Y1605000D01*
X11020000Y1645000D02*
X10980000Y1605000D01*
X11082500Y1430000D02*
X11122500Y1390000D01*
X11122500Y1430000D02*
X11082500Y1390000D01*
X11110000Y960000D02*
X11150000Y920000D01*
X11150000Y960000D02*
X11110000Y920000D01*
X11150000Y5030000D02*
X11190000Y4990000D01*
X11190000Y5030000D02*
X11150000Y4990000D01*
X11150000Y4890000D02*
X11190000Y4850000D01*
X11190000Y4890000D02*
X11150000Y4850000D01*
X11165000Y1185000D02*
X11205000Y1145000D01*
X11205000Y1185000D02*
X11165000Y1145000D01*
X11180000Y4700000D02*
X11220000Y4660000D01*
X11220000Y4700000D02*
X11180000Y4660000D01*
X11180000Y1327500D02*
X11220000Y1287500D01*
X11220000Y1327500D02*
X11180000Y1287500D01*
X11187000Y4135000D02*
X11227000Y4095000D01*
X11227000Y4135000D02*
X11187000Y4095000D01*
X11192000Y3641000D02*
X11232000Y3601000D01*
X11232000Y3641000D02*
X11192000Y3601000D01*
X11203000Y4566000D02*
X11243000Y4526000D01*
X11243000Y4566000D02*
X11203000Y4526000D01*
X11213000Y4256000D02*
X11253000Y4216000D01*
X11253000Y4256000D02*
X11213000Y4216000D01*
X11248000Y3772000D02*
X11288000Y3732000D01*
X11288000Y3772000D02*
X11248000Y3732000D01*
X11310000Y360000D02*
X11350000Y320000D01*
X11350000Y360000D02*
X11310000Y320000D01*
X11352000Y4239000D02*
X11392000Y4199000D01*
X11392000Y4239000D02*
X11352000Y4199000D01*
X11357000Y3780000D02*
X11397000Y3740000D01*
X11397000Y3780000D02*
X11357000Y3740000D01*
X11367000Y3356000D02*
X11407000Y3316000D01*
X11407000Y3356000D02*
X11367000Y3316000D01*
X11370000Y180000D02*
X11410000Y140000D01*
X11410000Y180000D02*
X11370000Y140000D01*
X11380000Y2140000D02*
X11420000Y2100000D01*
X11420000Y2140000D02*
X11380000Y2100000D01*
X11397500Y942500D02*
X11437500Y902500D01*
X11437500Y942500D02*
X11397500Y902500D01*
X11405000Y2995000D02*
X11445000Y2955000D01*
X11445000Y2995000D02*
X11405000Y2955000D01*
X11410000Y1230000D02*
X11450000Y1190000D01*
X11450000Y1230000D02*
X11410000Y1190000D01*
X11420000Y2610000D02*
X11460000Y2570000D01*
X11460000Y2610000D02*
X11420000Y2570000D01*
X11420000Y1480000D02*
X11460000Y1440000D01*
X11460000Y1480000D02*
X11420000Y1440000D01*
X11430000Y2800000D02*
X11470000Y2760000D01*
X11470000Y2800000D02*
X11430000Y2760000D01*
X11440000Y422500D02*
X11480000Y382500D01*
X11480000Y422500D02*
X11440000Y382500D01*
X11458250Y3130750D02*
X11498250Y3090750D01*
X11498250Y3130750D02*
X11458250Y3090750D01*
X11459000Y3774000D02*
X11499000Y3734000D01*
X11499000Y3774000D02*
X11459000Y3734000D01*
X11500000Y4910000D02*
X11540000Y4870000D01*
X11540000Y4910000D02*
X11500000Y4870000D01*
X11510000Y3380000D02*
X11550000Y3340000D01*
X11550000Y3380000D02*
X11510000Y3340000D01*
X11540000Y5040000D02*
X11580000Y5000000D01*
X11580000Y5040000D02*
X11540000Y5000000D01*
X11540000Y3530000D02*
X11580000Y3490000D01*
X11580000Y3530000D02*
X11540000Y3490000D01*
X11555000Y2495000D02*
X11595000Y2455000D01*
X11595000Y2495000D02*
X11555000Y2455000D01*
X11590000Y4480000D02*
X11630000Y4440000D01*
X11630000Y4480000D02*
X11590000Y4440000D01*
X11650000Y3310000D02*
X11690000Y3270000D01*
X11690000Y3310000D02*
X11650000Y3270000D01*
X11660000Y4240000D02*
X11700000Y4200000D01*
X11700000Y4240000D02*
X11660000Y4200000D01*
X11700000Y3980000D02*
X11740000Y3940000D01*
X11740000Y3980000D02*
X11700000Y3940000D01*
X11705000Y2120000D02*
X11745000Y2080000D01*
X11745000Y2120000D02*
X11705000Y2080000D01*
X11710000Y1470000D02*
X11750000Y1430000D01*
X11750000Y1470000D02*
X11710000Y1430000D01*
X11710000Y1230000D02*
X11750000Y1190000D01*
X11750000Y1230000D02*
X11710000Y1190000D01*
X11730000Y2620000D02*
X11770000Y2580000D01*
X11770000Y2620000D02*
X11730000Y2580000D01*
X11730000Y2395000D02*
X11770000Y2355000D01*
X11770000Y2395000D02*
X11730000Y2355000D01*
X11730000Y1895000D02*
X11770000Y1855000D01*
X11770000Y1895000D02*
X11730000Y1855000D01*
X11730000Y107500D02*
X11770000Y67500D01*
X11770000Y107500D02*
X11730000Y67500D01*
X11780000Y4240000D02*
X11820000Y4200000D01*
X11820000Y4240000D02*
X11780000Y4200000D01*
X11870000Y3250000D02*
X11910000Y3210000D01*
X11910000Y3250000D02*
X11870000Y3210000D01*
X11880000Y3980000D02*
X11920000Y3940000D01*
X11920000Y3980000D02*
X11880000Y3940000D01*
X11880000Y2120000D02*
X11920000Y2080000D01*
X11920000Y2120000D02*
X11880000Y2080000D01*
X11942500Y1917500D02*
X11982500Y1877500D01*
X11982500Y1917500D02*
X11942500Y1877500D01*
X12030000Y3972500D02*
X12070000Y3932500D01*
X12070000Y3972500D02*
X12030000Y3932500D01*
X12037500Y2672500D02*
X12077500Y2632500D01*
X12077500Y2672500D02*
X12037500Y2632500D01*
X12040000Y1470000D02*
X12080000Y1430000D01*
X12080000Y1470000D02*
X12040000Y1430000D01*
X12040000Y1220000D02*
X12080000Y1180000D01*
X12080000Y1220000D02*
X12040000Y1180000D01*
X12047500Y2365000D02*
X12087500Y2325000D01*
X12087500Y2365000D02*
X12047500Y2325000D01*
X12052500Y1787500D02*
X12092500Y1747500D01*
X12092500Y1787500D02*
X12052500Y1747500D01*
X12080000Y120000D02*
X12120000Y80000D01*
X12120000Y120000D02*
X12080000Y80000D01*
X12090000Y4490000D02*
X12130000Y4450000D01*
X12130000Y4490000D02*
X12090000Y4450000D01*
X12090000Y3830000D02*
X12130000Y3790000D01*
X12130000Y3830000D02*
X12090000Y3790000D01*
X12090000Y3650000D02*
X12130000Y3610000D01*
X12130000Y3650000D02*
X12090000Y3610000D01*
X12090000Y3440000D02*
X12130000Y3400000D01*
X12130000Y3440000D02*
X12090000Y3400000D01*
X12090000Y3240000D02*
X12130000Y3200000D01*
X12130000Y3240000D02*
X12090000Y3200000D01*
X12090000Y470000D02*
X12130000Y430000D01*
X12130000Y470000D02*
X12090000Y430000D01*
X12100000Y3010000D02*
X12140000Y2970000D01*
X12140000Y3010000D02*
X12100000Y2970000D01*
X11605000Y2200000D02*
G75*
G03*
X11605000Y2200000I-35000J0D01*
G01*
X11605000Y1700000D02*
G75*
G03*
X11605000Y1700000I-35000J0D01*
G01*
X8335000Y4940000D02*
G75*
G03*
X8335000Y4940000I-35000J0D01*
G01*
X8335000Y4790000D02*
G75*
G03*
X8335000Y4790000I-35000J0D01*
G01*
X8335000Y4640000D02*
G75*
G03*
X8335000Y4640000I-35000J0D01*
G01*
X8335000Y4490000D02*
G75*
G03*
X8335000Y4490000I-35000J0D01*
G01*
X8335000Y2000000D02*
G75*
G03*
X8335000Y2000000I-35000J0D01*
G01*
X8335000Y1850000D02*
G75*
G03*
X8335000Y1850000I-35000J0D01*
G01*
X8335000Y1700000D02*
G75*
G03*
X8335000Y1700000I-35000J0D01*
G01*
X8335000Y1550000D02*
G75*
G03*
X8335000Y1550000I-35000J0D01*
G01*
X8335000Y1400000D02*
G75*
G03*
X8335000Y1400000I-35000J0D01*
G01*
X8335000Y1250000D02*
G75*
G03*
X8335000Y1250000I-35000J0D01*
G01*
X1095000Y4865000D02*
G75*
G03*
X1095000Y4865000I-35000J0D01*
G01*
X1095000Y3595000D02*
G75*
G03*
X1095000Y3595000I-35000J0D01*
G01*
X8335000Y3380000D02*
G75*
G03*
X8335000Y3380000I-35000J0D01*
G01*
X8335000Y3230000D02*
G75*
G03*
X8335000Y3230000I-35000J0D01*
G01*
X8335000Y3080000D02*
G75*
G03*
X8335000Y3080000I-35000J0D01*
G01*
X8335000Y2930000D02*
G75*
G03*
X8335000Y2930000I-35000J0D01*
G01*
X8335000Y2780000D02*
G75*
G03*
X8335000Y2780000I-35000J0D01*
G01*
X8335000Y2630000D02*
G75*
G03*
X8335000Y2630000I-35000J0D01*
G01*
X8335000Y2480000D02*
G75*
G03*
X8335000Y2480000I-35000J0D01*
G01*
X8335000Y2330000D02*
G75*
G03*
X8335000Y2330000I-35000J0D01*
G01*
X8335000Y4160000D02*
G75*
G03*
X8335000Y4160000I-35000J0D01*
G01*
X8335000Y4010000D02*
G75*
G03*
X8335000Y4010000I-35000J0D01*
G01*
X8335000Y3860000D02*
G75*
G03*
X8335000Y3860000I-35000J0D01*
G01*
X8335000Y3710000D02*
G75*
G03*
X8335000Y3710000I-35000J0D01*
G01*
X9455000Y200000D02*
G75*
G03*
X9455000Y200000I-35000J0D01*
G01*
X9605000Y200000D02*
G75*
G03*
X9605000Y200000I-35000J0D01*
G01*
X9755000Y200000D02*
G75*
G03*
X9755000Y200000I-35000J0D01*
G01*
X9905000Y200000D02*
G75*
G03*
X9905000Y200000I-35000J0D01*
G01*
X3505000Y4840000D02*
G75*
G03*
X3505000Y4840000I-35000J0D01*
G01*
X3655000Y4840000D02*
G75*
G03*
X3655000Y4840000I-35000J0D01*
G01*
X3805000Y4840000D02*
G75*
G03*
X3805000Y4840000I-35000J0D01*
G01*
X3955000Y4840000D02*
G75*
G03*
X3955000Y4840000I-35000J0D01*
G01*
X4105000Y4840000D02*
G75*
G03*
X4105000Y4840000I-35000J0D01*
G01*
X4255000Y4840000D02*
G75*
G03*
X4255000Y4840000I-35000J0D01*
G01*
X8335000Y900000D02*
G75*
G03*
X8335000Y900000I-35000J0D01*
G01*
X8335000Y750000D02*
G75*
G03*
X8335000Y750000I-35000J0D01*
G01*
X8335000Y600000D02*
G75*
G03*
X8335000Y600000I-35000J0D01*
G01*
X8335000Y450000D02*
G75*
G03*
X8335000Y450000I-35000J0D01*
G01*
X8335000Y300000D02*
G75*
G03*
X8335000Y300000I-35000J0D01*
G01*
X8335000Y150000D02*
G75*
G03*
X8335000Y150000I-35000J0D01*
G01*
X1565000Y280000D02*
G75*
G03*
X1565000Y280000I-35000J0D01*
G01*
X1965000Y580000D02*
G75*
G03*
X1965000Y580000I-35000J0D01*
G01*
X11945000Y3070000D02*
G75*
G03*
X11945000Y3070000I-35000J0D01*
G01*
X11945000Y2920000D02*
G75*
G03*
X11945000Y2920000I-35000J0D01*
G01*
X11945000Y2770000D02*
G75*
G03*
X11945000Y2770000I-35000J0D01*
G01*
X10735000Y200000D02*
G75*
G03*
X10735000Y200000I-35000J0D01*
G01*
X10885000Y200000D02*
G75*
G03*
X10885000Y200000I-35000J0D01*
G01*
X11035000Y200000D02*
G75*
G03*
X11035000Y200000I-35000J0D01*
G01*
X11185000Y200000D02*
G75*
G03*
X11185000Y200000I-35000J0D01*
G01*
X11945000Y3720000D02*
G75*
G03*
X11945000Y3720000I-35000J0D01*
G01*
X11945000Y3570000D02*
G75*
G03*
X11945000Y3570000I-35000J0D01*
G01*
X11945000Y3420000D02*
G75*
G03*
X11945000Y3420000I-35000J0D01*
G01*
X1650000Y4584500D02*
X1650000Y4509500D01*
X1612500Y4547000D02*
X1687500Y4547000D01*
X1650000Y4330500D02*
X1650000Y4255500D01*
X1612500Y4293000D02*
X1687500Y4293000D01*
X11800000Y407500D02*
X11800000Y332500D01*
X11762500Y370000D02*
X11837500Y370000D01*
X11800000Y227500D02*
X11800000Y152500D01*
X11762500Y190000D02*
X11837500Y190000D01*
X11280000Y4807500D02*
X11280000Y4732500D01*
X11242500Y4770000D02*
X11317500Y4770000D01*
X11460000Y4807500D02*
X11460000Y4732500D01*
X11422500Y4770000D02*
X11497500Y4770000D01*
X3338284Y1291716D02*
X3338284Y1348285D01*
X3281715Y1348285D01*
X3281715Y1291716D01*
X3338284Y1291716D01*
X3338284Y491715D02*
X3338284Y548285D01*
X3281715Y548285D01*
X3281715Y491715D01*
X3338284Y491715D01*
X4038284Y1291716D02*
X4038284Y1348285D01*
X3981715Y1348285D01*
X3981715Y1291716D01*
X4038284Y1291716D01*
X4038284Y491715D02*
X4038284Y548285D01*
X3981715Y548285D01*
X3981715Y491715D01*
X4038284Y491715D01*
X10700000Y2440000D02*
X10750000Y2490000D01*
X10700000Y2540000D01*
X10650000Y2490000D01*
X10700000Y2440000D01*
X10700000Y2186000D02*
X10750000Y2236000D01*
X10700000Y2286000D01*
X10650000Y2236000D01*
X10700000Y2186000D01*
X10700000Y1932000D02*
X10750000Y1982000D01*
X10700000Y2032000D01*
X10650000Y1982000D01*
X10700000Y1932000D01*
X9684000Y2440000D02*
X9734000Y2490000D01*
X9684000Y2540000D01*
X9634000Y2490000D01*
X9684000Y2440000D01*
X9684000Y2186000D02*
X9734000Y2236000D01*
X9684000Y2286000D01*
X9634000Y2236000D01*
X9684000Y2186000D01*
X9684000Y1932000D02*
X9734000Y1982000D01*
X9684000Y2032000D01*
X9634000Y1982000D01*
X9684000Y1932000D01*
X2450000Y4210000D02*
X2500000Y4260000D01*
X2450000Y4310000D01*
X2400000Y4260000D01*
X2450000Y4210000D01*
X2450000Y2210000D02*
X2500000Y2260000D01*
X2450000Y2310000D01*
X2400000Y2260000D01*
X2450000Y2210000D01*
X2950000Y4210000D02*
X3000000Y4260000D01*
X2950000Y4310000D01*
X2900000Y4260000D01*
X2950000Y4210000D01*
X3950000Y4210000D02*
X4000000Y4260000D01*
X3950000Y4310000D01*
X3900000Y4260000D01*
X3950000Y4210000D01*
X4450000Y4210000D02*
X4500000Y4260000D01*
X4450000Y4310000D01*
X4400000Y4260000D01*
X4450000Y4210000D01*
X4450000Y2210000D02*
X4500000Y2260000D01*
X4450000Y2310000D01*
X4400000Y2260000D01*
X4450000Y2210000D01*
X2690000Y1640000D02*
X2740000Y1690000D01*
X2690000Y1740000D01*
X2640000Y1690000D01*
X2690000Y1640000D01*
X2690000Y140000D02*
X2740000Y190000D01*
X2690000Y240000D01*
X2640000Y190000D01*
X2690000Y140000D01*
X1710000Y3725000D02*
X1760000Y3775000D01*
X1710000Y3825000D01*
X1660000Y3775000D01*
X1710000Y3725000D01*
X1710000Y3471000D02*
X1760000Y3521000D01*
X1710000Y3571000D01*
X1660000Y3521000D01*
X1710000Y3471000D01*
X1710000Y2455000D02*
X1760000Y2505000D01*
X1710000Y2555000D01*
X1660000Y2505000D01*
X1710000Y2455000D01*
X1710000Y1693000D02*
X1760000Y1743000D01*
X1710000Y1793000D01*
X1660000Y1743000D01*
X1710000Y1693000D01*
X4620000Y1650000D02*
X4670000Y1700000D01*
X4620000Y1750000D01*
X4570000Y1700000D01*
X4620000Y1650000D01*
X4620000Y150000D02*
X4670000Y200000D01*
X4620000Y250000D01*
X4570000Y200000D01*
X4620000Y150000D01*
X990000Y3150000D02*
X1040000Y3200000D01*
X990000Y3250000D01*
X940000Y3200000D01*
X990000Y3150000D01*
X990000Y1650000D02*
X1040000Y1700000D01*
X990000Y1750000D01*
X940000Y1700000D01*
X990000Y1650000D01*
X1240000Y1000000D02*
X1290000Y1050000D01*
X1240000Y1100000D01*
X1190000Y1050000D01*
X1240000Y1000000D01*
X1940000Y1000000D02*
X1990000Y1050000D01*
X1940000Y1100000D01*
X1890000Y1050000D01*
X1940000Y1000000D01*
X200000Y4000000D02*
X400000Y3800000D01*
X400000Y4000000D02*
X200000Y3800000D01*
X400000Y3900000D02*
G75*
G03*
X400000Y3900000I-100000J0D01*
G01*
X200000Y2200000D02*
X400000Y2000000D01*
X400000Y2200000D02*
X200000Y2000000D01*
X400000Y2100000D02*
G75*
G03*
X400000Y2100000I-100000J0D01*
G01*
X200000Y1300000D02*
X400000Y1100000D01*
X400000Y1300000D02*
X200000Y1100000D01*
X400000Y1200000D02*
G75*
G03*
X400000Y1200000I-100000J0D01*
G01*
X200000Y3200000D02*
X400000Y3000000D01*
X400000Y3200000D02*
X200000Y3000000D01*
X400000Y3100000D02*
G75*
G03*
X400000Y3100000I-100000J0D01*
G01*
X5240000Y4710000D02*
X5560000Y4390000D01*
X5560000Y4710000D02*
X5240000Y4390000D01*
X5400000Y4710000D02*
X5400000Y4390000D01*
X5240000Y4550000D02*
X5560000Y4550000D01*
X11740000Y4960000D02*
X12060000Y4640000D01*
X12060000Y4960000D02*
X11740000Y4640000D01*
X11900000Y4960000D02*
X11900000Y4640000D01*
X11740000Y4800000D02*
X12060000Y4800000D01*
X5240000Y710000D02*
X5560000Y390000D01*
X5560000Y710000D02*
X5240000Y390000D01*
X5400000Y710000D02*
X5400000Y390000D01*
X5240000Y550000D02*
X5560000Y550000D01*
X11740000Y960000D02*
X12060000Y640000D01*
X12060000Y960000D02*
X11740000Y640000D01*
X11900000Y960000D02*
X11900000Y640000D01*
X11740000Y800000D02*
X12060000Y800000D01*
X240000Y710000D02*
X560000Y390000D01*
X560000Y710000D02*
X240000Y390000D01*
X400000Y710000D02*
X400000Y390000D01*
X240000Y550000D02*
X560000Y550000D01*
X240000Y4710000D02*
X560000Y4390000D01*
X560000Y4710000D02*
X240000Y4390000D01*
X400000Y4710000D02*
X400000Y4390000D01*
X240000Y4550000D02*
X560000Y4550000D01*
D12*
X283928Y-468214D02*
X283928Y-168214D01*
X355357Y-168214D01*
X398214Y-182500D01*
X426786Y-211071D01*
X441071Y-239643D01*
X455357Y-296786D01*
X455357Y-339643D01*
X441071Y-396786D01*
X426786Y-425357D01*
X398214Y-453929D01*
X355357Y-468214D01*
X283928Y-468214D01*
X583928Y-468214D02*
X583928Y-268214D01*
X583928Y-325357D02*
X598214Y-296786D01*
X612500Y-282500D01*
X641071Y-268214D01*
X669643Y-268214D01*
X769643Y-468214D02*
X769643Y-268214D01*
X769643Y-168214D02*
X755357Y-182500D01*
X769643Y-196786D01*
X783928Y-182500D01*
X769643Y-168214D01*
X769643Y-196786D01*
X955357Y-468214D02*
X926786Y-453929D01*
X912500Y-425357D01*
X912500Y-168214D01*
X1112500Y-468214D02*
X1083928Y-453929D01*
X1069643Y-425357D01*
X1069643Y-168214D01*
X1455357Y-468214D02*
X1455357Y-168214D01*
X1555357Y-382500D01*
X1655357Y-168214D01*
X1655357Y-468214D01*
X1926786Y-468214D02*
X1926786Y-311072D01*
X1912500Y-282500D01*
X1883928Y-268214D01*
X1826786Y-268214D01*
X1798214Y-282500D01*
X1926786Y-453929D02*
X1898214Y-468214D01*
X1826786Y-468214D01*
X1798214Y-453929D01*
X1783928Y-425357D01*
X1783928Y-396786D01*
X1798214Y-368214D01*
X1826786Y-353929D01*
X1898214Y-353929D01*
X1926786Y-339643D01*
X2069643Y-268214D02*
X2069643Y-568214D01*
X2069643Y-282500D02*
X2098214Y-268214D01*
X2155357Y-268214D01*
X2183928Y-282500D01*
X2198214Y-296786D01*
X2212500Y-325357D01*
X2212500Y-411071D01*
X2198214Y-439643D01*
X2183928Y-453929D01*
X2155357Y-468214D01*
X2098214Y-468214D01*
X2069643Y-453929D01*
X2341071Y-439643D02*
X2355357Y-453929D01*
X2341071Y-468214D01*
X2326786Y-453929D01*
X2341071Y-439643D01*
X2341071Y-468214D01*
X2341071Y-282500D02*
X2355357Y-296786D01*
X2341071Y-311072D01*
X2326786Y-296786D01*
X2341071Y-282500D01*
X2341071Y-311072D01*
X-42500Y-942500D02*
X-2500Y-982500D01*
X-2500Y-942500D02*
X-42500Y-982500D01*
X341071Y-798214D02*
X369643Y-798214D01*
X398214Y-812500D01*
X412500Y-826786D01*
X426786Y-855357D01*
X441071Y-912500D01*
X441071Y-983929D01*
X426786Y-1041071D01*
X412500Y-1069643D01*
X398214Y-1083929D01*
X369643Y-1098214D01*
X341071Y-1098214D01*
X312500Y-1083929D01*
X298214Y-1069643D01*
X283928Y-1041071D01*
X269643Y-983929D01*
X269643Y-912500D01*
X283928Y-855357D01*
X298214Y-826786D01*
X312500Y-812500D01*
X341071Y-798214D01*
X569643Y-1069643D02*
X583928Y-1083929D01*
X569643Y-1098214D01*
X555357Y-1083929D01*
X569643Y-1069643D01*
X569643Y-1098214D01*
X841071Y-898214D02*
X841071Y-1098214D01*
X769643Y-783929D02*
X698214Y-998214D01*
X883928Y-998214D01*
X1055357Y-798214D02*
X1083928Y-798214D01*
X1112500Y-812500D01*
X1126786Y-826786D01*
X1141071Y-855357D01*
X1155357Y-912500D01*
X1155357Y-983929D01*
X1141071Y-1041071D01*
X1126786Y-1069643D01*
X1112500Y-1083929D01*
X1083928Y-1098214D01*
X1055357Y-1098214D01*
X1026786Y-1083929D01*
X1012500Y-1069643D01*
X998214Y-1041071D01*
X983928Y-983929D01*
X983928Y-912500D01*
X998214Y-855357D01*
X1012500Y-826786D01*
X1026786Y-812500D01*
X1055357Y-798214D01*
X1283928Y-1098214D02*
X1283928Y-898214D01*
X1283928Y-926786D02*
X1298214Y-912500D01*
X1326786Y-898214D01*
X1369643Y-898214D01*
X1398214Y-912500D01*
X1412500Y-941071D01*
X1412500Y-1098214D01*
X1412500Y-941071D02*
X1426786Y-912500D01*
X1455357Y-898214D01*
X1498214Y-898214D01*
X1526786Y-912500D01*
X1541071Y-941071D01*
X1541071Y-1098214D01*
X1683928Y-1098214D02*
X1683928Y-898214D01*
X1683928Y-926786D02*
X1698214Y-912500D01*
X1726786Y-898214D01*
X1769643Y-898214D01*
X1798214Y-912500D01*
X1812500Y-941071D01*
X1812500Y-1098214D01*
X1812500Y-941071D02*
X1826786Y-912500D01*
X1855357Y-898214D01*
X1898214Y-898214D01*
X1926786Y-912500D01*
X1941071Y-941071D01*
X1941071Y-1098214D01*
X2526786Y-783929D02*
X2269643Y-1169643D01*
X2912500Y-798214D02*
X2941071Y-798214D01*
X2969643Y-812500D01*
X2983928Y-826786D01*
X2998214Y-855357D01*
X3012500Y-912500D01*
X3012500Y-983929D01*
X2998214Y-1041071D01*
X2983928Y-1069643D01*
X2969643Y-1083929D01*
X2941071Y-1098214D01*
X2912500Y-1098214D01*
X2883928Y-1083929D01*
X2869643Y-1069643D01*
X2855357Y-1041071D01*
X2841071Y-983929D01*
X2841071Y-912500D01*
X2855357Y-855357D01*
X2869643Y-826786D01*
X2883928Y-812500D01*
X2912500Y-798214D01*
X3141071Y-1069643D02*
X3155357Y-1083929D01*
X3141071Y-1098214D01*
X3126786Y-1083929D01*
X3141071Y-1069643D01*
X3141071Y-1098214D01*
X3341071Y-798214D02*
X3369643Y-798214D01*
X3398214Y-812500D01*
X3412500Y-826786D01*
X3426786Y-855357D01*
X3441071Y-912500D01*
X3441071Y-983929D01*
X3426786Y-1041071D01*
X3412500Y-1069643D01*
X3398214Y-1083929D01*
X3369643Y-1098214D01*
X3341071Y-1098214D01*
X3312500Y-1083929D01*
X3298214Y-1069643D01*
X3283928Y-1041071D01*
X3269643Y-983929D01*
X3269643Y-912500D01*
X3283928Y-855357D01*
X3298214Y-826786D01*
X3312500Y-812500D01*
X3341071Y-798214D01*
X3726786Y-1098214D02*
X3555357Y-1098214D01*
X3641071Y-1098214D02*
X3641071Y-798214D01*
X3612500Y-841071D01*
X3583928Y-869643D01*
X3555357Y-883929D01*
X3983928Y-798214D02*
X3926786Y-798214D01*
X3898214Y-812500D01*
X3883928Y-826786D01*
X3855357Y-869643D01*
X3841071Y-926786D01*
X3841071Y-1041071D01*
X3855357Y-1069643D01*
X3869643Y-1083929D01*
X3898214Y-1098214D01*
X3955357Y-1098214D01*
X3983928Y-1083929D01*
X3998214Y-1069643D01*
X4012500Y-1041071D01*
X4012500Y-969643D01*
X3998214Y-941071D01*
X3983928Y-926786D01*
X3955357Y-912500D01*
X3898214Y-912500D01*
X3869643Y-926786D01*
X3855357Y-941071D01*
X3841071Y-969643D01*
X4126786Y-798214D02*
X4126786Y-855357D01*
X4241071Y-798214D02*
X4241071Y-855357D01*
X4683928Y-1212500D02*
X4669643Y-1198214D01*
X4641071Y-1155357D01*
X4626786Y-1126786D01*
X4612500Y-1083929D01*
X4598214Y-1012500D01*
X4598214Y-955357D01*
X4612500Y-883929D01*
X4626786Y-841071D01*
X4641071Y-812500D01*
X4669643Y-769643D01*
X4683928Y-755357D01*
X4769643Y-798214D02*
X4955357Y-798214D01*
X4855357Y-912500D01*
X4898214Y-912500D01*
X4926786Y-926786D01*
X4941071Y-941071D01*
X4955357Y-969643D01*
X4955357Y-1041071D01*
X4941071Y-1069643D01*
X4926786Y-1083929D01*
X4898214Y-1098214D01*
X4812500Y-1098214D01*
X4783928Y-1083929D01*
X4769643Y-1069643D01*
X5241071Y-1098214D02*
X5069643Y-1098214D01*
X5155357Y-1098214D02*
X5155357Y-798214D01*
X5126786Y-841071D01*
X5098214Y-869643D01*
X5069643Y-883929D01*
X5426786Y-798214D02*
X5455357Y-798214D01*
X5483928Y-812500D01*
X5498214Y-826786D01*
X5512500Y-855357D01*
X5526786Y-912500D01*
X5526786Y-983929D01*
X5512500Y-1041071D01*
X5498214Y-1069643D01*
X5483928Y-1083929D01*
X5455357Y-1098214D01*
X5426786Y-1098214D01*
X5398214Y-1083929D01*
X5383928Y-1069643D01*
X5369643Y-1041071D01*
X5355357Y-983929D01*
X5355357Y-912500D01*
X5369643Y-855357D01*
X5383928Y-826786D01*
X5398214Y-812500D01*
X5426786Y-798214D01*
X5883928Y-1098214D02*
X5883928Y-798214D01*
X6012500Y-1098214D02*
X6012500Y-941071D01*
X5998214Y-912500D01*
X5969643Y-898214D01*
X5926786Y-898214D01*
X5898214Y-912500D01*
X5883928Y-926786D01*
X6198214Y-1098214D02*
X6169643Y-1083929D01*
X6155357Y-1069643D01*
X6141071Y-1041071D01*
X6141071Y-955357D01*
X6155357Y-926786D01*
X6169643Y-912500D01*
X6198214Y-898214D01*
X6241071Y-898214D01*
X6269643Y-912500D01*
X6283928Y-926786D01*
X6298214Y-955357D01*
X6298214Y-1041071D01*
X6283928Y-1069643D01*
X6269643Y-1083929D01*
X6241071Y-1098214D01*
X6198214Y-1098214D01*
X6469643Y-1098214D02*
X6441071Y-1083929D01*
X6426786Y-1055357D01*
X6426786Y-798214D01*
X6698214Y-1083929D02*
X6669643Y-1098214D01*
X6612500Y-1098214D01*
X6583928Y-1083929D01*
X6569643Y-1055357D01*
X6569643Y-941071D01*
X6583928Y-912500D01*
X6612500Y-898214D01*
X6669643Y-898214D01*
X6698214Y-912500D01*
X6712500Y-941071D01*
X6712500Y-969643D01*
X6569643Y-998214D01*
X6826786Y-1083929D02*
X6855357Y-1098214D01*
X6912500Y-1098214D01*
X6941071Y-1083929D01*
X6955357Y-1055357D01*
X6955357Y-1041071D01*
X6941071Y-1012500D01*
X6912500Y-998214D01*
X6869643Y-998214D01*
X6841071Y-983929D01*
X6826786Y-955357D01*
X6826786Y-941071D01*
X6841071Y-912500D01*
X6869643Y-898214D01*
X6912500Y-898214D01*
X6941071Y-912500D01*
X7055357Y-1212500D02*
X7069643Y-1198214D01*
X7098214Y-1155357D01*
X7112500Y-1126786D01*
X7126786Y-1083929D01*
X7141071Y-1012500D01*
X7141071Y-955357D01*
X7126786Y-883929D01*
X7112500Y-841071D01*
X7098214Y-812500D01*
X7069643Y-769643D01*
X7055357Y-755357D01*
X-2500Y-1358500D02*
G75*
G03*
X-2500Y-1358500I-35000J0D01*
G01*
X341071Y-1194214D02*
X369643Y-1194214D01*
X398214Y-1208500D01*
X412500Y-1222786D01*
X426786Y-1251357D01*
X441071Y-1308500D01*
X441071Y-1379929D01*
X426786Y-1437071D01*
X412500Y-1465643D01*
X398214Y-1479929D01*
X369643Y-1494214D01*
X341071Y-1494214D01*
X312500Y-1479929D01*
X298214Y-1465643D01*
X283928Y-1437071D01*
X269643Y-1379929D01*
X269643Y-1308500D01*
X283928Y-1251357D01*
X298214Y-1222786D01*
X312500Y-1208500D01*
X341071Y-1194214D01*
X569643Y-1465643D02*
X583928Y-1479929D01*
X569643Y-1494214D01*
X555357Y-1479929D01*
X569643Y-1465643D01*
X569643Y-1494214D01*
X683928Y-1194214D02*
X883928Y-1194214D01*
X755357Y-1494214D01*
X1055357Y-1194214D02*
X1083928Y-1194214D01*
X1112500Y-1208500D01*
X1126786Y-1222786D01*
X1141071Y-1251357D01*
X1155357Y-1308500D01*
X1155357Y-1379929D01*
X1141071Y-1437071D01*
X1126786Y-1465643D01*
X1112500Y-1479929D01*
X1083928Y-1494214D01*
X1055357Y-1494214D01*
X1026786Y-1479929D01*
X1012500Y-1465643D01*
X998214Y-1437071D01*
X983928Y-1379929D01*
X983928Y-1308500D01*
X998214Y-1251357D01*
X1012500Y-1222786D01*
X1026786Y-1208500D01*
X1055357Y-1194214D01*
X1283928Y-1494214D02*
X1283928Y-1294214D01*
X1283928Y-1322786D02*
X1298214Y-1308500D01*
X1326786Y-1294214D01*
X1369643Y-1294214D01*
X1398214Y-1308500D01*
X1412500Y-1337072D01*
X1412500Y-1494214D01*
X1412500Y-1337072D02*
X1426786Y-1308500D01*
X1455357Y-1294214D01*
X1498214Y-1294214D01*
X1526786Y-1308500D01*
X1541071Y-1337072D01*
X1541071Y-1494214D01*
X1683928Y-1494214D02*
X1683928Y-1294214D01*
X1683928Y-1322786D02*
X1698214Y-1308500D01*
X1726786Y-1294214D01*
X1769643Y-1294214D01*
X1798214Y-1308500D01*
X1812500Y-1337072D01*
X1812500Y-1494214D01*
X1812500Y-1337072D02*
X1826786Y-1308500D01*
X1855357Y-1294214D01*
X1898214Y-1294214D01*
X1926786Y-1308500D01*
X1941071Y-1337072D01*
X1941071Y-1494214D01*
X2526786Y-1179929D02*
X2269643Y-1565643D01*
X2912500Y-1194214D02*
X2941071Y-1194214D01*
X2969643Y-1208500D01*
X2983928Y-1222786D01*
X2998214Y-1251357D01*
X3012500Y-1308500D01*
X3012500Y-1379929D01*
X2998214Y-1437071D01*
X2983928Y-1465643D01*
X2969643Y-1479929D01*
X2941071Y-1494214D01*
X2912500Y-1494214D01*
X2883928Y-1479929D01*
X2869643Y-1465643D01*
X2855357Y-1437071D01*
X2841071Y-1379929D01*
X2841071Y-1308500D01*
X2855357Y-1251357D01*
X2869643Y-1222786D01*
X2883928Y-1208500D01*
X2912500Y-1194214D01*
X3141071Y-1465643D02*
X3155357Y-1479929D01*
X3141071Y-1494214D01*
X3126786Y-1479929D01*
X3141071Y-1465643D01*
X3141071Y-1494214D01*
X3341071Y-1194214D02*
X3369643Y-1194214D01*
X3398214Y-1208500D01*
X3412500Y-1222786D01*
X3426786Y-1251357D01*
X3441071Y-1308500D01*
X3441071Y-1379929D01*
X3426786Y-1437071D01*
X3412500Y-1465643D01*
X3398214Y-1479929D01*
X3369643Y-1494214D01*
X3341071Y-1494214D01*
X3312500Y-1479929D01*
X3298214Y-1465643D01*
X3283928Y-1437071D01*
X3269643Y-1379929D01*
X3269643Y-1308500D01*
X3283928Y-1251357D01*
X3298214Y-1222786D01*
X3312500Y-1208500D01*
X3341071Y-1194214D01*
X3555357Y-1222786D02*
X3569643Y-1208500D01*
X3598214Y-1194214D01*
X3669643Y-1194214D01*
X3698214Y-1208500D01*
X3712500Y-1222786D01*
X3726786Y-1251357D01*
X3726786Y-1279929D01*
X3712500Y-1322786D01*
X3541071Y-1494214D01*
X3726786Y-1494214D01*
X3898214Y-1322786D02*
X3869643Y-1308500D01*
X3855357Y-1294214D01*
X3841071Y-1265643D01*
X3841071Y-1251357D01*
X3855357Y-1222786D01*
X3869643Y-1208500D01*
X3898214Y-1194214D01*
X3955357Y-1194214D01*
X3983928Y-1208500D01*
X3998214Y-1222786D01*
X4012500Y-1251357D01*
X4012500Y-1265643D01*
X3998214Y-1294214D01*
X3983928Y-1308500D01*
X3955357Y-1322786D01*
X3898214Y-1322786D01*
X3869643Y-1337072D01*
X3855357Y-1351357D01*
X3841071Y-1379929D01*
X3841071Y-1437071D01*
X3855357Y-1465643D01*
X3869643Y-1479929D01*
X3898214Y-1494214D01*
X3955357Y-1494214D01*
X3983928Y-1479929D01*
X3998214Y-1465643D01*
X4012500Y-1437071D01*
X4012500Y-1379929D01*
X3998214Y-1351357D01*
X3983928Y-1337072D01*
X3955357Y-1322786D01*
X4126786Y-1194214D02*
X4126786Y-1251357D01*
X4241071Y-1194214D02*
X4241071Y-1251357D01*
X4683928Y-1608500D02*
X4669643Y-1594214D01*
X4641071Y-1551357D01*
X4626786Y-1522786D01*
X4612500Y-1479929D01*
X4598214Y-1408500D01*
X4598214Y-1351357D01*
X4612500Y-1279929D01*
X4626786Y-1237072D01*
X4641071Y-1208500D01*
X4669643Y-1165643D01*
X4683928Y-1151357D01*
X4941071Y-1194214D02*
X4798214Y-1194214D01*
X4783928Y-1337072D01*
X4798214Y-1322786D01*
X4826786Y-1308500D01*
X4898214Y-1308500D01*
X4926786Y-1322786D01*
X4941071Y-1337072D01*
X4955357Y-1365643D01*
X4955357Y-1437071D01*
X4941071Y-1465643D01*
X4926786Y-1479929D01*
X4898214Y-1494214D01*
X4826786Y-1494214D01*
X4798214Y-1479929D01*
X4783928Y-1465643D01*
X5212500Y-1294214D02*
X5212500Y-1494214D01*
X5141071Y-1179929D02*
X5069643Y-1394214D01*
X5255357Y-1394214D01*
X5598214Y-1494214D02*
X5598214Y-1194214D01*
X5726786Y-1494214D02*
X5726786Y-1337072D01*
X5712500Y-1308500D01*
X5683928Y-1294214D01*
X5641071Y-1294214D01*
X5612500Y-1308500D01*
X5598214Y-1322786D01*
X5912500Y-1494214D02*
X5883928Y-1479929D01*
X5869643Y-1465643D01*
X5855357Y-1437071D01*
X5855357Y-1351357D01*
X5869643Y-1322786D01*
X5883928Y-1308500D01*
X5912500Y-1294214D01*
X5955357Y-1294214D01*
X5983928Y-1308500D01*
X5998214Y-1322786D01*
X6012500Y-1351357D01*
X6012500Y-1437071D01*
X5998214Y-1465643D01*
X5983928Y-1479929D01*
X5955357Y-1494214D01*
X5912500Y-1494214D01*
X6183928Y-1494214D02*
X6155357Y-1479929D01*
X6141071Y-1451357D01*
X6141071Y-1194214D01*
X6412500Y-1479929D02*
X6383928Y-1494214D01*
X6326786Y-1494214D01*
X6298214Y-1479929D01*
X6283928Y-1451357D01*
X6283928Y-1337072D01*
X6298214Y-1308500D01*
X6326786Y-1294214D01*
X6383928Y-1294214D01*
X6412500Y-1308500D01*
X6426786Y-1337072D01*
X6426786Y-1365643D01*
X6283928Y-1394214D01*
X6541071Y-1479929D02*
X6569643Y-1494214D01*
X6626786Y-1494214D01*
X6655357Y-1479929D01*
X6669643Y-1451357D01*
X6669643Y-1437071D01*
X6655357Y-1408500D01*
X6626786Y-1394214D01*
X6583928Y-1394214D01*
X6555357Y-1379929D01*
X6541071Y-1351357D01*
X6541071Y-1337072D01*
X6555357Y-1308500D01*
X6583928Y-1294214D01*
X6626786Y-1294214D01*
X6655357Y-1308500D01*
X6769643Y-1608500D02*
X6783928Y-1594214D01*
X6812500Y-1551357D01*
X6826786Y-1522786D01*
X6841071Y-1479929D01*
X6855357Y-1408500D01*
X6855357Y-1351357D01*
X6841071Y-1279929D01*
X6826786Y-1237072D01*
X6812500Y-1208500D01*
X6783928Y-1165643D01*
X6769643Y-1151357D01*
X-40000Y-1717000D02*
X-40000Y-1792000D01*
X-77500Y-1754500D02*
X-2500Y-1754500D01*
X341071Y-1590214D02*
X369643Y-1590214D01*
X398214Y-1604500D01*
X412500Y-1618786D01*
X426786Y-1647357D01*
X441071Y-1704500D01*
X441071Y-1775929D01*
X426786Y-1833071D01*
X412500Y-1861643D01*
X398214Y-1875929D01*
X369643Y-1890214D01*
X341071Y-1890214D01*
X312500Y-1875929D01*
X298214Y-1861643D01*
X283928Y-1833071D01*
X269643Y-1775929D01*
X269643Y-1704500D01*
X283928Y-1647357D01*
X298214Y-1618786D01*
X312500Y-1604500D01*
X341071Y-1590214D01*
X569643Y-1861643D02*
X583928Y-1875929D01*
X569643Y-1890214D01*
X555357Y-1875929D01*
X569643Y-1861643D01*
X569643Y-1890214D01*
X683928Y-1590214D02*
X883928Y-1590214D01*
X755357Y-1890214D01*
X1141071Y-1590214D02*
X998214Y-1590214D01*
X983928Y-1733071D01*
X998214Y-1718786D01*
X1026786Y-1704500D01*
X1098214Y-1704500D01*
X1126786Y-1718786D01*
X1141071Y-1733071D01*
X1155357Y-1761643D01*
X1155357Y-1833071D01*
X1141071Y-1861643D01*
X1126786Y-1875929D01*
X1098214Y-1890214D01*
X1026786Y-1890214D01*
X998214Y-1875929D01*
X983928Y-1861643D01*
X1283928Y-1890214D02*
X1283928Y-1690214D01*
X1283928Y-1718786D02*
X1298214Y-1704500D01*
X1326786Y-1690214D01*
X1369643Y-1690214D01*
X1398214Y-1704500D01*
X1412500Y-1733071D01*
X1412500Y-1890214D01*
X1412500Y-1733071D02*
X1426786Y-1704500D01*
X1455357Y-1690214D01*
X1498214Y-1690214D01*
X1526786Y-1704500D01*
X1541071Y-1733071D01*
X1541071Y-1890214D01*
X1683928Y-1890214D02*
X1683928Y-1690214D01*
X1683928Y-1718786D02*
X1698214Y-1704500D01*
X1726786Y-1690214D01*
X1769643Y-1690214D01*
X1798214Y-1704500D01*
X1812500Y-1733071D01*
X1812500Y-1890214D01*
X1812500Y-1733071D02*
X1826786Y-1704500D01*
X1855357Y-1690214D01*
X1898214Y-1690214D01*
X1926786Y-1704500D01*
X1941071Y-1733071D01*
X1941071Y-1890214D01*
X2526786Y-1575929D02*
X2269643Y-1961643D01*
X2912500Y-1590214D02*
X2941071Y-1590214D01*
X2969643Y-1604500D01*
X2983928Y-1618786D01*
X2998214Y-1647357D01*
X3012500Y-1704500D01*
X3012500Y-1775929D01*
X2998214Y-1833071D01*
X2983928Y-1861643D01*
X2969643Y-1875929D01*
X2941071Y-1890214D01*
X2912500Y-1890214D01*
X2883928Y-1875929D01*
X2869643Y-1861643D01*
X2855357Y-1833071D01*
X2841071Y-1775929D01*
X2841071Y-1704500D01*
X2855357Y-1647357D01*
X2869643Y-1618786D01*
X2883928Y-1604500D01*
X2912500Y-1590214D01*
X3141071Y-1861643D02*
X3155357Y-1875929D01*
X3141071Y-1890214D01*
X3126786Y-1875929D01*
X3141071Y-1861643D01*
X3141071Y-1890214D01*
X3341071Y-1590214D02*
X3369643Y-1590214D01*
X3398214Y-1604500D01*
X3412500Y-1618786D01*
X3426786Y-1647357D01*
X3441071Y-1704500D01*
X3441071Y-1775929D01*
X3426786Y-1833071D01*
X3412500Y-1861643D01*
X3398214Y-1875929D01*
X3369643Y-1890214D01*
X3341071Y-1890214D01*
X3312500Y-1875929D01*
X3298214Y-1861643D01*
X3283928Y-1833071D01*
X3269643Y-1775929D01*
X3269643Y-1704500D01*
X3283928Y-1647357D01*
X3298214Y-1618786D01*
X3312500Y-1604500D01*
X3341071Y-1590214D01*
X3541071Y-1590214D02*
X3726786Y-1590214D01*
X3626786Y-1704500D01*
X3669643Y-1704500D01*
X3698214Y-1718786D01*
X3712500Y-1733071D01*
X3726786Y-1761643D01*
X3726786Y-1833071D01*
X3712500Y-1861643D01*
X3698214Y-1875929D01*
X3669643Y-1890214D01*
X3583928Y-1890214D01*
X3555357Y-1875929D01*
X3541071Y-1861643D01*
X3912500Y-1590214D02*
X3941071Y-1590214D01*
X3969643Y-1604500D01*
X3983928Y-1618786D01*
X3998214Y-1647357D01*
X4012500Y-1704500D01*
X4012500Y-1775929D01*
X3998214Y-1833071D01*
X3983928Y-1861643D01*
X3969643Y-1875929D01*
X3941071Y-1890214D01*
X3912500Y-1890214D01*
X3883928Y-1875929D01*
X3869643Y-1861643D01*
X3855357Y-1833071D01*
X3841071Y-1775929D01*
X3841071Y-1704500D01*
X3855357Y-1647357D01*
X3869643Y-1618786D01*
X3883928Y-1604500D01*
X3912500Y-1590214D01*
X4126786Y-1590214D02*
X4126786Y-1647357D01*
X4241071Y-1590214D02*
X4241071Y-1647357D01*
X4683928Y-2004500D02*
X4669643Y-1990214D01*
X4641071Y-1947357D01*
X4626786Y-1918786D01*
X4612500Y-1875929D01*
X4598214Y-1804500D01*
X4598214Y-1747357D01*
X4612500Y-1675929D01*
X4626786Y-1633071D01*
X4641071Y-1604500D01*
X4669643Y-1561643D01*
X4683928Y-1547357D01*
X4926786Y-1590214D02*
X4869643Y-1590214D01*
X4841071Y-1604500D01*
X4826786Y-1618786D01*
X4798214Y-1661643D01*
X4783928Y-1718786D01*
X4783928Y-1833071D01*
X4798214Y-1861643D01*
X4812500Y-1875929D01*
X4841071Y-1890214D01*
X4898214Y-1890214D01*
X4926786Y-1875929D01*
X4941071Y-1861643D01*
X4955357Y-1833071D01*
X4955357Y-1761643D01*
X4941071Y-1733071D01*
X4926786Y-1718786D01*
X4898214Y-1704500D01*
X4841071Y-1704500D01*
X4812500Y-1718786D01*
X4798214Y-1733071D01*
X4783928Y-1761643D01*
X5312500Y-1890214D02*
X5312500Y-1590214D01*
X5441071Y-1890214D02*
X5441071Y-1733071D01*
X5426786Y-1704500D01*
X5398214Y-1690214D01*
X5355357Y-1690214D01*
X5326786Y-1704500D01*
X5312500Y-1718786D01*
X5626786Y-1890214D02*
X5598214Y-1875929D01*
X5583928Y-1861643D01*
X5569643Y-1833071D01*
X5569643Y-1747357D01*
X5583928Y-1718786D01*
X5598214Y-1704500D01*
X5626786Y-1690214D01*
X5669643Y-1690214D01*
X5698214Y-1704500D01*
X5712500Y-1718786D01*
X5726786Y-1747357D01*
X5726786Y-1833071D01*
X5712500Y-1861643D01*
X5698214Y-1875929D01*
X5669643Y-1890214D01*
X5626786Y-1890214D01*
X5898214Y-1890214D02*
X5869643Y-1875929D01*
X5855357Y-1847357D01*
X5855357Y-1590214D01*
X6126786Y-1875929D02*
X6098214Y-1890214D01*
X6041071Y-1890214D01*
X6012500Y-1875929D01*
X5998214Y-1847357D01*
X5998214Y-1733071D01*
X6012500Y-1704500D01*
X6041071Y-1690214D01*
X6098214Y-1690214D01*
X6126786Y-1704500D01*
X6141071Y-1733071D01*
X6141071Y-1761643D01*
X5998214Y-1790214D01*
X6255357Y-1875929D02*
X6283928Y-1890214D01*
X6341071Y-1890214D01*
X6369643Y-1875929D01*
X6383928Y-1847357D01*
X6383928Y-1833071D01*
X6369643Y-1804500D01*
X6341071Y-1790214D01*
X6298214Y-1790214D01*
X6269643Y-1775929D01*
X6255357Y-1747357D01*
X6255357Y-1733071D01*
X6269643Y-1704500D01*
X6298214Y-1690214D01*
X6341071Y-1690214D01*
X6369643Y-1704500D01*
X6483928Y-2004500D02*
X6498214Y-1990214D01*
X6526786Y-1947357D01*
X6541071Y-1918786D01*
X6555357Y-1875929D01*
X6569643Y-1804500D01*
X6569643Y-1747357D01*
X6555357Y-1675929D01*
X6541071Y-1633071D01*
X6526786Y-1604500D01*
X6498214Y-1561643D01*
X6483928Y-1547357D01*
X-14216Y-2178785D02*
X-14216Y-2122216D01*
X-70785Y-2122216D01*
X-70785Y-2178785D01*
X-14216Y-2178785D01*
X341071Y-1986214D02*
X369643Y-1986214D01*
X398214Y-2000500D01*
X412500Y-2014786D01*
X426786Y-2043357D01*
X441071Y-2100500D01*
X441071Y-2171929D01*
X426786Y-2229072D01*
X412500Y-2257643D01*
X398214Y-2271929D01*
X369643Y-2286214D01*
X341071Y-2286214D01*
X312500Y-2271929D01*
X298214Y-2257643D01*
X283928Y-2229072D01*
X269643Y-2171929D01*
X269643Y-2100500D01*
X283928Y-2043357D01*
X298214Y-2014786D01*
X312500Y-2000500D01*
X341071Y-1986214D01*
X569643Y-2257643D02*
X583928Y-2271929D01*
X569643Y-2286214D01*
X555357Y-2271929D01*
X569643Y-2257643D01*
X569643Y-2286214D01*
X755357Y-2114786D02*
X726786Y-2100500D01*
X712500Y-2086214D01*
X698214Y-2057643D01*
X698214Y-2043357D01*
X712500Y-2014786D01*
X726786Y-2000500D01*
X755357Y-1986214D01*
X812500Y-1986214D01*
X841071Y-2000500D01*
X855357Y-2014786D01*
X869643Y-2043357D01*
X869643Y-2057643D01*
X855357Y-2086214D01*
X841071Y-2100500D01*
X812500Y-2114786D01*
X755357Y-2114786D01*
X726786Y-2129072D01*
X712500Y-2143357D01*
X698214Y-2171929D01*
X698214Y-2229072D01*
X712500Y-2257643D01*
X726786Y-2271929D01*
X755357Y-2286214D01*
X812500Y-2286214D01*
X841071Y-2271929D01*
X855357Y-2257643D01*
X869643Y-2229072D01*
X869643Y-2171929D01*
X855357Y-2143357D01*
X841071Y-2129072D01*
X812500Y-2114786D01*
X1055357Y-1986214D02*
X1083928Y-1986214D01*
X1112500Y-2000500D01*
X1126786Y-2014786D01*
X1141071Y-2043357D01*
X1155357Y-2100500D01*
X1155357Y-2171929D01*
X1141071Y-2229072D01*
X1126786Y-2257643D01*
X1112500Y-2271929D01*
X1083928Y-2286214D01*
X1055357Y-2286214D01*
X1026786Y-2271929D01*
X1012500Y-2257643D01*
X998214Y-2229072D01*
X983928Y-2171929D01*
X983928Y-2100500D01*
X998214Y-2043357D01*
X1012500Y-2014786D01*
X1026786Y-2000500D01*
X1055357Y-1986214D01*
X1283928Y-2286214D02*
X1283928Y-2086214D01*
X1283928Y-2114786D02*
X1298214Y-2100500D01*
X1326786Y-2086214D01*
X1369643Y-2086214D01*
X1398214Y-2100500D01*
X1412500Y-2129072D01*
X1412500Y-2286214D01*
X1412500Y-2129072D02*
X1426786Y-2100500D01*
X1455357Y-2086214D01*
X1498214Y-2086214D01*
X1526786Y-2100500D01*
X1541071Y-2129072D01*
X1541071Y-2286214D01*
X1683928Y-2286214D02*
X1683928Y-2086214D01*
X1683928Y-2114786D02*
X1698214Y-2100500D01*
X1726786Y-2086214D01*
X1769643Y-2086214D01*
X1798214Y-2100500D01*
X1812500Y-2129072D01*
X1812500Y-2286214D01*
X1812500Y-2129072D02*
X1826786Y-2100500D01*
X1855357Y-2086214D01*
X1898214Y-2086214D01*
X1926786Y-2100500D01*
X1941071Y-2129072D01*
X1941071Y-2286214D01*
X2526786Y-1971929D02*
X2269643Y-2357643D01*
X2912500Y-1986214D02*
X2941071Y-1986214D01*
X2969643Y-2000500D01*
X2983928Y-2014786D01*
X2998214Y-2043357D01*
X3012500Y-2100500D01*
X3012500Y-2171929D01*
X2998214Y-2229072D01*
X2983928Y-2257643D01*
X2969643Y-2271929D01*
X2941071Y-2286214D01*
X2912500Y-2286214D01*
X2883928Y-2271929D01*
X2869643Y-2257643D01*
X2855357Y-2229072D01*
X2841071Y-2171929D01*
X2841071Y-2100500D01*
X2855357Y-2043357D01*
X2869643Y-2014786D01*
X2883928Y-2000500D01*
X2912500Y-1986214D01*
X3141071Y-2257643D02*
X3155357Y-2271929D01*
X3141071Y-2286214D01*
X3126786Y-2271929D01*
X3141071Y-2257643D01*
X3141071Y-2286214D01*
X3341071Y-1986214D02*
X3369643Y-1986214D01*
X3398214Y-2000500D01*
X3412500Y-2014786D01*
X3426786Y-2043357D01*
X3441071Y-2100500D01*
X3441071Y-2171929D01*
X3426786Y-2229072D01*
X3412500Y-2257643D01*
X3398214Y-2271929D01*
X3369643Y-2286214D01*
X3341071Y-2286214D01*
X3312500Y-2271929D01*
X3298214Y-2257643D01*
X3283928Y-2229072D01*
X3269643Y-2171929D01*
X3269643Y-2100500D01*
X3283928Y-2043357D01*
X3298214Y-2014786D01*
X3312500Y-2000500D01*
X3341071Y-1986214D01*
X3541071Y-1986214D02*
X3726786Y-1986214D01*
X3626786Y-2100500D01*
X3669643Y-2100500D01*
X3698214Y-2114786D01*
X3712500Y-2129072D01*
X3726786Y-2157643D01*
X3726786Y-2229072D01*
X3712500Y-2257643D01*
X3698214Y-2271929D01*
X3669643Y-2286214D01*
X3583928Y-2286214D01*
X3555357Y-2271929D01*
X3541071Y-2257643D01*
X4012500Y-2286214D02*
X3841071Y-2286214D01*
X3926786Y-2286214D02*
X3926786Y-1986214D01*
X3898214Y-2029071D01*
X3869643Y-2057643D01*
X3841071Y-2071929D01*
X4126786Y-1986214D02*
X4126786Y-2043357D01*
X4241071Y-1986214D02*
X4241071Y-2043357D01*
X4683928Y-2400500D02*
X4669643Y-2386214D01*
X4641071Y-2343357D01*
X4626786Y-2314786D01*
X4612500Y-2271929D01*
X4598214Y-2200500D01*
X4598214Y-2143357D01*
X4612500Y-2071929D01*
X4626786Y-2029071D01*
X4641071Y-2000500D01*
X4669643Y-1957643D01*
X4683928Y-1943357D01*
X4926786Y-2086214D02*
X4926786Y-2286214D01*
X4855357Y-1971929D02*
X4783928Y-2186214D01*
X4969643Y-2186214D01*
X5312500Y-2286214D02*
X5312500Y-1986214D01*
X5441071Y-2286214D02*
X5441071Y-2129072D01*
X5426786Y-2100500D01*
X5398214Y-2086214D01*
X5355357Y-2086214D01*
X5326786Y-2100500D01*
X5312500Y-2114786D01*
X5626786Y-2286214D02*
X5598214Y-2271929D01*
X5583928Y-2257643D01*
X5569643Y-2229072D01*
X5569643Y-2143357D01*
X5583928Y-2114786D01*
X5598214Y-2100500D01*
X5626786Y-2086214D01*
X5669643Y-2086214D01*
X5698214Y-2100500D01*
X5712500Y-2114786D01*
X5726786Y-2143357D01*
X5726786Y-2229072D01*
X5712500Y-2257643D01*
X5698214Y-2271929D01*
X5669643Y-2286214D01*
X5626786Y-2286214D01*
X5898214Y-2286214D02*
X5869643Y-2271929D01*
X5855357Y-2243357D01*
X5855357Y-1986214D01*
X6126786Y-2271929D02*
X6098214Y-2286214D01*
X6041071Y-2286214D01*
X6012500Y-2271929D01*
X5998214Y-2243357D01*
X5998214Y-2129072D01*
X6012500Y-2100500D01*
X6041071Y-2086214D01*
X6098214Y-2086214D01*
X6126786Y-2100500D01*
X6141071Y-2129072D01*
X6141071Y-2157643D01*
X5998214Y-2186214D01*
X6255357Y-2271929D02*
X6283928Y-2286214D01*
X6341071Y-2286214D01*
X6369643Y-2271929D01*
X6383928Y-2243357D01*
X6383928Y-2229072D01*
X6369643Y-2200500D01*
X6341071Y-2186214D01*
X6298214Y-2186214D01*
X6269643Y-2171929D01*
X6255357Y-2143357D01*
X6255357Y-2129072D01*
X6269643Y-2100500D01*
X6298214Y-2086214D01*
X6341071Y-2086214D01*
X6369643Y-2100500D01*
X6483928Y-2400500D02*
X6498214Y-2386214D01*
X6526786Y-2343357D01*
X6541071Y-2314786D01*
X6555357Y-2271929D01*
X6569643Y-2200500D01*
X6569643Y-2143357D01*
X6555357Y-2071929D01*
X6541071Y-2029071D01*
X6526786Y-2000500D01*
X6498214Y-1957643D01*
X6483928Y-1943357D01*
X-52500Y-2596500D02*
X-2500Y-2546500D01*
X-52500Y-2496500D01*
X-102500Y-2546500D01*
X-52500Y-2596500D01*
X441071Y-2682214D02*
X269643Y-2682214D01*
X355357Y-2682214D02*
X355357Y-2382214D01*
X326786Y-2425072D01*
X298214Y-2453643D01*
X269643Y-2467929D01*
X569643Y-2653643D02*
X583928Y-2667929D01*
X569643Y-2682214D01*
X555357Y-2667929D01*
X569643Y-2653643D01*
X569643Y-2682214D01*
X769643Y-2382214D02*
X798214Y-2382214D01*
X826786Y-2396500D01*
X841071Y-2410786D01*
X855357Y-2439357D01*
X869643Y-2496500D01*
X869643Y-2567929D01*
X855357Y-2625072D01*
X841071Y-2653643D01*
X826786Y-2667929D01*
X798214Y-2682214D01*
X769643Y-2682214D01*
X741071Y-2667929D01*
X726786Y-2653643D01*
X712500Y-2625072D01*
X698214Y-2567929D01*
X698214Y-2496500D01*
X712500Y-2439357D01*
X726786Y-2410786D01*
X741071Y-2396500D01*
X769643Y-2382214D01*
X1055357Y-2382214D02*
X1083928Y-2382214D01*
X1112500Y-2396500D01*
X1126786Y-2410786D01*
X1141071Y-2439357D01*
X1155357Y-2496500D01*
X1155357Y-2567929D01*
X1141071Y-2625072D01*
X1126786Y-2653643D01*
X1112500Y-2667929D01*
X1083928Y-2682214D01*
X1055357Y-2682214D01*
X1026786Y-2667929D01*
X1012500Y-2653643D01*
X998214Y-2625072D01*
X983928Y-2567929D01*
X983928Y-2496500D01*
X998214Y-2439357D01*
X1012500Y-2410786D01*
X1026786Y-2396500D01*
X1055357Y-2382214D01*
X1283928Y-2682214D02*
X1283928Y-2482214D01*
X1283928Y-2510786D02*
X1298214Y-2496500D01*
X1326786Y-2482214D01*
X1369643Y-2482214D01*
X1398214Y-2496500D01*
X1412500Y-2525072D01*
X1412500Y-2682214D01*
X1412500Y-2525072D02*
X1426786Y-2496500D01*
X1455357Y-2482214D01*
X1498214Y-2482214D01*
X1526786Y-2496500D01*
X1541071Y-2525072D01*
X1541071Y-2682214D01*
X1683928Y-2682214D02*
X1683928Y-2482214D01*
X1683928Y-2510786D02*
X1698214Y-2496500D01*
X1726786Y-2482214D01*
X1769643Y-2482214D01*
X1798214Y-2496500D01*
X1812500Y-2525072D01*
X1812500Y-2682214D01*
X1812500Y-2525072D02*
X1826786Y-2496500D01*
X1855357Y-2482214D01*
X1898214Y-2482214D01*
X1926786Y-2496500D01*
X1941071Y-2525072D01*
X1941071Y-2682214D01*
X2526786Y-2367929D02*
X2269643Y-2753643D01*
X2912500Y-2382214D02*
X2941071Y-2382214D01*
X2969643Y-2396500D01*
X2983928Y-2410786D01*
X2998214Y-2439357D01*
X3012500Y-2496500D01*
X3012500Y-2567929D01*
X2998214Y-2625072D01*
X2983928Y-2653643D01*
X2969643Y-2667929D01*
X2941071Y-2682214D01*
X2912500Y-2682214D01*
X2883928Y-2667929D01*
X2869643Y-2653643D01*
X2855357Y-2625072D01*
X2841071Y-2567929D01*
X2841071Y-2496500D01*
X2855357Y-2439357D01*
X2869643Y-2410786D01*
X2883928Y-2396500D01*
X2912500Y-2382214D01*
X3141071Y-2653643D02*
X3155357Y-2667929D01*
X3141071Y-2682214D01*
X3126786Y-2667929D01*
X3141071Y-2653643D01*
X3141071Y-2682214D01*
X3341071Y-2382214D02*
X3369643Y-2382214D01*
X3398214Y-2396500D01*
X3412500Y-2410786D01*
X3426786Y-2439357D01*
X3441071Y-2496500D01*
X3441071Y-2567929D01*
X3426786Y-2625072D01*
X3412500Y-2653643D01*
X3398214Y-2667929D01*
X3369643Y-2682214D01*
X3341071Y-2682214D01*
X3312500Y-2667929D01*
X3298214Y-2653643D01*
X3283928Y-2625072D01*
X3269643Y-2567929D01*
X3269643Y-2496500D01*
X3283928Y-2439357D01*
X3298214Y-2410786D01*
X3312500Y-2396500D01*
X3341071Y-2382214D01*
X3541071Y-2382214D02*
X3726786Y-2382214D01*
X3626786Y-2496500D01*
X3669643Y-2496500D01*
X3698214Y-2510786D01*
X3712500Y-2525072D01*
X3726786Y-2553643D01*
X3726786Y-2625072D01*
X3712500Y-2653643D01*
X3698214Y-2667929D01*
X3669643Y-2682214D01*
X3583928Y-2682214D01*
X3555357Y-2667929D01*
X3541071Y-2653643D01*
X3869643Y-2682214D02*
X3926786Y-2682214D01*
X3955357Y-2667929D01*
X3969643Y-2653643D01*
X3998214Y-2610786D01*
X4012500Y-2553643D01*
X4012500Y-2439357D01*
X3998214Y-2410786D01*
X3983928Y-2396500D01*
X3955357Y-2382214D01*
X3898214Y-2382214D01*
X3869643Y-2396500D01*
X3855357Y-2410786D01*
X3841071Y-2439357D01*
X3841071Y-2510786D01*
X3855357Y-2539357D01*
X3869643Y-2553643D01*
X3898214Y-2567929D01*
X3955357Y-2567929D01*
X3983928Y-2553643D01*
X3998214Y-2539357D01*
X4012500Y-2510786D01*
X4126786Y-2382214D02*
X4126786Y-2439357D01*
X4241071Y-2382214D02*
X4241071Y-2439357D01*
X4683928Y-2796500D02*
X4669643Y-2782214D01*
X4641071Y-2739357D01*
X4626786Y-2710786D01*
X4612500Y-2667929D01*
X4598214Y-2596500D01*
X4598214Y-2539357D01*
X4612500Y-2467929D01*
X4626786Y-2425072D01*
X4641071Y-2396500D01*
X4669643Y-2353643D01*
X4683928Y-2339357D01*
X4783928Y-2410786D02*
X4798214Y-2396500D01*
X4826786Y-2382214D01*
X4898214Y-2382214D01*
X4926786Y-2396500D01*
X4941071Y-2410786D01*
X4955357Y-2439357D01*
X4955357Y-2467929D01*
X4941071Y-2510786D01*
X4769643Y-2682214D01*
X4955357Y-2682214D01*
X5212500Y-2482214D02*
X5212500Y-2682214D01*
X5141071Y-2367929D02*
X5069643Y-2582214D01*
X5255357Y-2582214D01*
X5598214Y-2682214D02*
X5598214Y-2382214D01*
X5726786Y-2682214D02*
X5726786Y-2525072D01*
X5712500Y-2496500D01*
X5683928Y-2482214D01*
X5641071Y-2482214D01*
X5612500Y-2496500D01*
X5598214Y-2510786D01*
X5912500Y-2682214D02*
X5883928Y-2667929D01*
X5869643Y-2653643D01*
X5855357Y-2625072D01*
X5855357Y-2539357D01*
X5869643Y-2510786D01*
X5883928Y-2496500D01*
X5912500Y-2482214D01*
X5955357Y-2482214D01*
X5983928Y-2496500D01*
X5998214Y-2510786D01*
X6012500Y-2539357D01*
X6012500Y-2625072D01*
X5998214Y-2653643D01*
X5983928Y-2667929D01*
X5955357Y-2682214D01*
X5912500Y-2682214D01*
X6183928Y-2682214D02*
X6155357Y-2667929D01*
X6141071Y-2639357D01*
X6141071Y-2382214D01*
X6412500Y-2667929D02*
X6383928Y-2682214D01*
X6326786Y-2682214D01*
X6298214Y-2667929D01*
X6283928Y-2639357D01*
X6283928Y-2525072D01*
X6298214Y-2496500D01*
X6326786Y-2482214D01*
X6383928Y-2482214D01*
X6412500Y-2496500D01*
X6426786Y-2525072D01*
X6426786Y-2553643D01*
X6283928Y-2582214D01*
X6541071Y-2667929D02*
X6569643Y-2682214D01*
X6626786Y-2682214D01*
X6655357Y-2667929D01*
X6669643Y-2639357D01*
X6669643Y-2625072D01*
X6655357Y-2596500D01*
X6626786Y-2582214D01*
X6583928Y-2582214D01*
X6555357Y-2567929D01*
X6541071Y-2539357D01*
X6541071Y-2525072D01*
X6555357Y-2496500D01*
X6583928Y-2482214D01*
X6626786Y-2482214D01*
X6655357Y-2496500D01*
X6769643Y-2796500D02*
X6783928Y-2782214D01*
X6812500Y-2739357D01*
X6826786Y-2710786D01*
X6841071Y-2667929D01*
X6855357Y-2596500D01*
X6855357Y-2539357D01*
X6841071Y-2467929D01*
X6826786Y-2425072D01*
X6812500Y-2396500D01*
X6783928Y-2353643D01*
X6769643Y-2339357D01*
X-202500Y-2842500D02*
X-2500Y-3042500D01*
X-2500Y-2842500D02*
X-202500Y-3042500D01*
X-2500Y-2942500D02*
G75*
G03*
X-2500Y-2942500I-100000J0D01*
G01*
X269643Y-2806786D02*
X283928Y-2792500D01*
X312500Y-2778214D01*
X383928Y-2778214D01*
X412500Y-2792500D01*
X426786Y-2806786D01*
X441071Y-2835357D01*
X441071Y-2863929D01*
X426786Y-2906786D01*
X255357Y-3078214D01*
X441071Y-3078214D01*
X569643Y-3049643D02*
X583928Y-3063929D01*
X569643Y-3078214D01*
X555357Y-3063929D01*
X569643Y-3049643D01*
X569643Y-3078214D01*
X769643Y-2778214D02*
X798214Y-2778214D01*
X826786Y-2792500D01*
X841071Y-2806786D01*
X855357Y-2835357D01*
X869643Y-2892500D01*
X869643Y-2963929D01*
X855357Y-3021071D01*
X841071Y-3049643D01*
X826786Y-3063929D01*
X798214Y-3078214D01*
X769643Y-3078214D01*
X741071Y-3063929D01*
X726786Y-3049643D01*
X712500Y-3021071D01*
X698214Y-2963929D01*
X698214Y-2892500D01*
X712500Y-2835357D01*
X726786Y-2806786D01*
X741071Y-2792500D01*
X769643Y-2778214D01*
X1055357Y-2778214D02*
X1083928Y-2778214D01*
X1112500Y-2792500D01*
X1126786Y-2806786D01*
X1141071Y-2835357D01*
X1155357Y-2892500D01*
X1155357Y-2963929D01*
X1141071Y-3021071D01*
X1126786Y-3049643D01*
X1112500Y-3063929D01*
X1083928Y-3078214D01*
X1055357Y-3078214D01*
X1026786Y-3063929D01*
X1012500Y-3049643D01*
X998214Y-3021071D01*
X983928Y-2963929D01*
X983928Y-2892500D01*
X998214Y-2835357D01*
X1012500Y-2806786D01*
X1026786Y-2792500D01*
X1055357Y-2778214D01*
X1283928Y-3078214D02*
X1283928Y-2878214D01*
X1283928Y-2906786D02*
X1298214Y-2892500D01*
X1326786Y-2878214D01*
X1369643Y-2878214D01*
X1398214Y-2892500D01*
X1412500Y-2921071D01*
X1412500Y-3078214D01*
X1412500Y-2921071D02*
X1426786Y-2892500D01*
X1455357Y-2878214D01*
X1498214Y-2878214D01*
X1526786Y-2892500D01*
X1541071Y-2921071D01*
X1541071Y-3078214D01*
X1683928Y-3078214D02*
X1683928Y-2878214D01*
X1683928Y-2906786D02*
X1698214Y-2892500D01*
X1726786Y-2878214D01*
X1769643Y-2878214D01*
X1798214Y-2892500D01*
X1812500Y-2921071D01*
X1812500Y-3078214D01*
X1812500Y-2921071D02*
X1826786Y-2892500D01*
X1855357Y-2878214D01*
X1898214Y-2878214D01*
X1926786Y-2892500D01*
X1941071Y-2921071D01*
X1941071Y-3078214D01*
X2526786Y-2763929D02*
X2269643Y-3149643D01*
X2912500Y-2778214D02*
X2941071Y-2778214D01*
X2969643Y-2792500D01*
X2983928Y-2806786D01*
X2998214Y-2835357D01*
X3012500Y-2892500D01*
X3012500Y-2963929D01*
X2998214Y-3021071D01*
X2983928Y-3049643D01*
X2969643Y-3063929D01*
X2941071Y-3078214D01*
X2912500Y-3078214D01*
X2883928Y-3063929D01*
X2869643Y-3049643D01*
X2855357Y-3021071D01*
X2841071Y-2963929D01*
X2841071Y-2892500D01*
X2855357Y-2835357D01*
X2869643Y-2806786D01*
X2883928Y-2792500D01*
X2912500Y-2778214D01*
X3141071Y-3049643D02*
X3155357Y-3063929D01*
X3141071Y-3078214D01*
X3126786Y-3063929D01*
X3141071Y-3049643D01*
X3141071Y-3078214D01*
X3341071Y-2778214D02*
X3369643Y-2778214D01*
X3398214Y-2792500D01*
X3412500Y-2806786D01*
X3426786Y-2835357D01*
X3441071Y-2892500D01*
X3441071Y-2963929D01*
X3426786Y-3021071D01*
X3412500Y-3049643D01*
X3398214Y-3063929D01*
X3369643Y-3078214D01*
X3341071Y-3078214D01*
X3312500Y-3063929D01*
X3298214Y-3049643D01*
X3283928Y-3021071D01*
X3269643Y-2963929D01*
X3269643Y-2892500D01*
X3283928Y-2835357D01*
X3298214Y-2806786D01*
X3312500Y-2792500D01*
X3341071Y-2778214D01*
X3541071Y-2778214D02*
X3741071Y-2778214D01*
X3612500Y-3078214D01*
X3869643Y-3078214D02*
X3926786Y-3078214D01*
X3955357Y-3063929D01*
X3969643Y-3049643D01*
X3998214Y-3006786D01*
X4012500Y-2949643D01*
X4012500Y-2835357D01*
X3998214Y-2806786D01*
X3983928Y-2792500D01*
X3955357Y-2778214D01*
X3898214Y-2778214D01*
X3869643Y-2792500D01*
X3855357Y-2806786D01*
X3841071Y-2835357D01*
X3841071Y-2906786D01*
X3855357Y-2935357D01*
X3869643Y-2949643D01*
X3898214Y-2963929D01*
X3955357Y-2963929D01*
X3983928Y-2949643D01*
X3998214Y-2935357D01*
X4012500Y-2906786D01*
X4126786Y-2778214D02*
X4126786Y-2835357D01*
X4241071Y-2778214D02*
X4241071Y-2835357D01*
X4683928Y-3192500D02*
X4669643Y-3178214D01*
X4641071Y-3135357D01*
X4626786Y-3106786D01*
X4612500Y-3063929D01*
X4598214Y-2992500D01*
X4598214Y-2935357D01*
X4612500Y-2863929D01*
X4626786Y-2821071D01*
X4641071Y-2792500D01*
X4669643Y-2749643D01*
X4683928Y-2735357D01*
X4926786Y-2878214D02*
X4926786Y-3078214D01*
X4855357Y-2763929D02*
X4783928Y-2978214D01*
X4969643Y-2978214D01*
X5312500Y-3078214D02*
X5312500Y-2778214D01*
X5441071Y-3078214D02*
X5441071Y-2921071D01*
X5426786Y-2892500D01*
X5398214Y-2878214D01*
X5355357Y-2878214D01*
X5326786Y-2892500D01*
X5312500Y-2906786D01*
X5626786Y-3078214D02*
X5598214Y-3063929D01*
X5583928Y-3049643D01*
X5569643Y-3021071D01*
X5569643Y-2935357D01*
X5583928Y-2906786D01*
X5598214Y-2892500D01*
X5626786Y-2878214D01*
X5669643Y-2878214D01*
X5698214Y-2892500D01*
X5712500Y-2906786D01*
X5726786Y-2935357D01*
X5726786Y-3021071D01*
X5712500Y-3049643D01*
X5698214Y-3063929D01*
X5669643Y-3078214D01*
X5626786Y-3078214D01*
X5898214Y-3078214D02*
X5869643Y-3063929D01*
X5855357Y-3035357D01*
X5855357Y-2778214D01*
X6126786Y-3063929D02*
X6098214Y-3078214D01*
X6041071Y-3078214D01*
X6012500Y-3063929D01*
X5998214Y-3035357D01*
X5998214Y-2921071D01*
X6012500Y-2892500D01*
X6041071Y-2878214D01*
X6098214Y-2878214D01*
X6126786Y-2892500D01*
X6141071Y-2921071D01*
X6141071Y-2949643D01*
X5998214Y-2978214D01*
X6255357Y-3063929D02*
X6283928Y-3078214D01*
X6341071Y-3078214D01*
X6369643Y-3063929D01*
X6383928Y-3035357D01*
X6383928Y-3021071D01*
X6369643Y-2992500D01*
X6341071Y-2978214D01*
X6298214Y-2978214D01*
X6269643Y-2963929D01*
X6255357Y-2935357D01*
X6255357Y-2921071D01*
X6269643Y-2892500D01*
X6298214Y-2878214D01*
X6341071Y-2878214D01*
X6369643Y-2892500D01*
X6483928Y-3192500D02*
X6498214Y-3178214D01*
X6526786Y-3135357D01*
X6541071Y-3106786D01*
X6555357Y-3063929D01*
X6569643Y-2992500D01*
X6569643Y-2935357D01*
X6555357Y-2863929D01*
X6541071Y-2821071D01*
X6526786Y-2792500D01*
X6498214Y-2749643D01*
X6483928Y-2735357D01*
X-322500Y-3178500D02*
X-2500Y-3498500D01*
X-2500Y-3178500D02*
X-322500Y-3498500D01*
X-162500Y-3178500D02*
X-162500Y-3498500D01*
X-322500Y-3338500D02*
X-2500Y-3338500D01*
X255357Y-3174214D02*
X441071Y-3174214D01*
X341071Y-3288500D01*
X383928Y-3288500D01*
X412500Y-3302786D01*
X426786Y-3317071D01*
X441071Y-3345643D01*
X441071Y-3417071D01*
X426786Y-3445643D01*
X412500Y-3459929D01*
X383928Y-3474214D01*
X298214Y-3474214D01*
X269643Y-3459929D01*
X255357Y-3445643D01*
X569643Y-3445643D02*
X583928Y-3459929D01*
X569643Y-3474214D01*
X555357Y-3459929D01*
X569643Y-3445643D01*
X569643Y-3474214D01*
X698214Y-3202786D02*
X712500Y-3188500D01*
X741071Y-3174214D01*
X812500Y-3174214D01*
X841071Y-3188500D01*
X855357Y-3202786D01*
X869643Y-3231357D01*
X869643Y-3259929D01*
X855357Y-3302786D01*
X683928Y-3474214D01*
X869643Y-3474214D01*
X1055357Y-3174214D02*
X1083928Y-3174214D01*
X1112500Y-3188500D01*
X1126786Y-3202786D01*
X1141071Y-3231357D01*
X1155357Y-3288500D01*
X1155357Y-3359929D01*
X1141071Y-3417071D01*
X1126786Y-3445643D01*
X1112500Y-3459929D01*
X1083928Y-3474214D01*
X1055357Y-3474214D01*
X1026786Y-3459929D01*
X1012500Y-3445643D01*
X998214Y-3417071D01*
X983928Y-3359929D01*
X983928Y-3288500D01*
X998214Y-3231357D01*
X1012500Y-3202786D01*
X1026786Y-3188500D01*
X1055357Y-3174214D01*
X1283928Y-3474214D02*
X1283928Y-3274214D01*
X1283928Y-3302786D02*
X1298214Y-3288500D01*
X1326786Y-3274214D01*
X1369643Y-3274214D01*
X1398214Y-3288500D01*
X1412500Y-3317071D01*
X1412500Y-3474214D01*
X1412500Y-3317071D02*
X1426786Y-3288500D01*
X1455357Y-3274214D01*
X1498214Y-3274214D01*
X1526786Y-3288500D01*
X1541071Y-3317071D01*
X1541071Y-3474214D01*
X1683928Y-3474214D02*
X1683928Y-3274214D01*
X1683928Y-3302786D02*
X1698214Y-3288500D01*
X1726786Y-3274214D01*
X1769643Y-3274214D01*
X1798214Y-3288500D01*
X1812500Y-3317071D01*
X1812500Y-3474214D01*
X1812500Y-3317071D02*
X1826786Y-3288500D01*
X1855357Y-3274214D01*
X1898214Y-3274214D01*
X1926786Y-3288500D01*
X1941071Y-3317071D01*
X1941071Y-3474214D01*
X2526786Y-3159929D02*
X2269643Y-3545643D01*
X2912500Y-3174214D02*
X2941071Y-3174214D01*
X2969643Y-3188500D01*
X2983928Y-3202786D01*
X2998214Y-3231357D01*
X3012500Y-3288500D01*
X3012500Y-3359929D01*
X2998214Y-3417071D01*
X2983928Y-3445643D01*
X2969643Y-3459929D01*
X2941071Y-3474214D01*
X2912500Y-3474214D01*
X2883928Y-3459929D01*
X2869643Y-3445643D01*
X2855357Y-3417071D01*
X2841071Y-3359929D01*
X2841071Y-3288500D01*
X2855357Y-3231357D01*
X2869643Y-3202786D01*
X2883928Y-3188500D01*
X2912500Y-3174214D01*
X3141071Y-3445643D02*
X3155357Y-3459929D01*
X3141071Y-3474214D01*
X3126786Y-3459929D01*
X3141071Y-3445643D01*
X3141071Y-3474214D01*
X3441071Y-3474214D02*
X3269643Y-3474214D01*
X3355357Y-3474214D02*
X3355357Y-3174214D01*
X3326786Y-3217071D01*
X3298214Y-3245643D01*
X3269643Y-3259929D01*
X3555357Y-3202786D02*
X3569643Y-3188500D01*
X3598214Y-3174214D01*
X3669643Y-3174214D01*
X3698214Y-3188500D01*
X3712500Y-3202786D01*
X3726786Y-3231357D01*
X3726786Y-3259929D01*
X3712500Y-3302786D01*
X3541071Y-3474214D01*
X3726786Y-3474214D01*
X3983928Y-3174214D02*
X3926786Y-3174214D01*
X3898214Y-3188500D01*
X3883928Y-3202786D01*
X3855357Y-3245643D01*
X3841071Y-3302786D01*
X3841071Y-3417071D01*
X3855357Y-3445643D01*
X3869643Y-3459929D01*
X3898214Y-3474214D01*
X3955357Y-3474214D01*
X3983928Y-3459929D01*
X3998214Y-3445643D01*
X4012500Y-3417071D01*
X4012500Y-3345643D01*
X3998214Y-3317071D01*
X3983928Y-3302786D01*
X3955357Y-3288500D01*
X3898214Y-3288500D01*
X3869643Y-3302786D01*
X3855357Y-3317071D01*
X3841071Y-3345643D01*
X4126786Y-3174214D02*
X4126786Y-3231357D01*
X4241071Y-3174214D02*
X4241071Y-3231357D01*
X4683928Y-3588500D02*
X4669643Y-3574214D01*
X4641071Y-3531357D01*
X4626786Y-3502786D01*
X4612500Y-3459929D01*
X4598214Y-3388500D01*
X4598214Y-3331357D01*
X4612500Y-3259929D01*
X4626786Y-3217071D01*
X4641071Y-3188500D01*
X4669643Y-3145643D01*
X4683928Y-3131357D01*
X4926786Y-3174214D02*
X4869643Y-3174214D01*
X4841071Y-3188500D01*
X4826786Y-3202786D01*
X4798214Y-3245643D01*
X4783928Y-3302786D01*
X4783928Y-3417071D01*
X4798214Y-3445643D01*
X4812500Y-3459929D01*
X4841071Y-3474214D01*
X4898214Y-3474214D01*
X4926786Y-3459929D01*
X4941071Y-3445643D01*
X4955357Y-3417071D01*
X4955357Y-3345643D01*
X4941071Y-3317071D01*
X4926786Y-3302786D01*
X4898214Y-3288500D01*
X4841071Y-3288500D01*
X4812500Y-3302786D01*
X4798214Y-3317071D01*
X4783928Y-3345643D01*
X5312500Y-3474214D02*
X5312500Y-3174214D01*
X5441071Y-3474214D02*
X5441071Y-3317071D01*
X5426786Y-3288500D01*
X5398214Y-3274214D01*
X5355357Y-3274214D01*
X5326786Y-3288500D01*
X5312500Y-3302786D01*
X5626786Y-3474214D02*
X5598214Y-3459929D01*
X5583928Y-3445643D01*
X5569643Y-3417071D01*
X5569643Y-3331357D01*
X5583928Y-3302786D01*
X5598214Y-3288500D01*
X5626786Y-3274214D01*
X5669643Y-3274214D01*
X5698214Y-3288500D01*
X5712500Y-3302786D01*
X5726786Y-3331357D01*
X5726786Y-3417071D01*
X5712500Y-3445643D01*
X5698214Y-3459929D01*
X5669643Y-3474214D01*
X5626786Y-3474214D01*
X5898214Y-3474214D02*
X5869643Y-3459929D01*
X5855357Y-3431357D01*
X5855357Y-3174214D01*
X6126786Y-3459929D02*
X6098214Y-3474214D01*
X6041071Y-3474214D01*
X6012500Y-3459929D01*
X5998214Y-3431357D01*
X5998214Y-3317071D01*
X6012500Y-3288500D01*
X6041071Y-3274214D01*
X6098214Y-3274214D01*
X6126786Y-3288500D01*
X6141071Y-3317071D01*
X6141071Y-3345643D01*
X5998214Y-3374214D01*
X6255357Y-3459929D02*
X6283928Y-3474214D01*
X6341071Y-3474214D01*
X6369643Y-3459929D01*
X6383928Y-3431357D01*
X6383928Y-3417071D01*
X6369643Y-3388500D01*
X6341071Y-3374214D01*
X6298214Y-3374214D01*
X6269643Y-3359929D01*
X6255357Y-3331357D01*
X6255357Y-3317071D01*
X6269643Y-3288500D01*
X6298214Y-3274214D01*
X6341071Y-3274214D01*
X6369643Y-3288500D01*
X6483928Y-3588500D02*
X6498214Y-3574214D01*
X6526786Y-3531357D01*
X6541071Y-3502786D01*
X6555357Y-3459929D01*
X6569643Y-3388500D01*
X6569643Y-3331357D01*
X6555357Y-3259929D01*
X6541071Y-3217071D01*
X6526786Y-3188500D01*
X6498214Y-3145643D01*
X6483928Y-3131357D01*
M02*
