G04 #@! TF.GenerationSoftware,KiCad,Pcbnew,(5.1.6)-1*
G04 #@! TF.CreationDate,2020-08-17T10:20:03+09:00*
G04 #@! TF.ProjectId,spot,73706f74-2e6b-4696-9361-645f70636258,rev?*
G04 #@! TF.SameCoordinates,PX1312d00PYb532b80*
G04 #@! TF.FileFunction,Soldermask,Bot*
G04 #@! TF.FilePolarity,Negative*
%FSLAX46Y46*%
G04 Gerber Fmt 4.6, Leading zero omitted, Abs format (unit mm)*
G04 Created by KiCad (PCBNEW (5.1.6)-1) date 2020-08-17 10:20:03*
%MOMM*%
%LPD*%
G01*
G04 APERTURE LIST*
%ADD10C,0.010000*%
%ADD11C,3.800000*%
%ADD12R,1.400000X0.600000*%
%ADD13R,5.100000X0.900000*%
%ADD14C,1.100000*%
%ADD15C,1.300000*%
%ADD16C,1.800000*%
%ADD17C,3.000000*%
%ADD18R,0.600000X1.400000*%
%ADD19R,0.900000X5.100000*%
%ADD20C,1.900000*%
%ADD21C,1.050000*%
%ADD22C,0.550000*%
%ADD23O,1.500000X1.500000*%
%ADD24R,1.500000X1.500000*%
G04 APERTURE END LIST*
D10*
G36*
X92000000Y17100000D02*
G01*
X92800000Y17100000D01*
X93500000Y17600000D01*
X93500000Y18600000D01*
X92800000Y19100000D01*
X92000000Y19100000D01*
X91300000Y18600000D01*
X91300000Y17600000D01*
X92000000Y17100000D01*
G37*
X92000000Y17100000D02*
X92800000Y17100000D01*
X93500000Y17600000D01*
X93500000Y18600000D01*
X92800000Y19100000D01*
X92000000Y19100000D01*
X91300000Y18600000D01*
X91300000Y17600000D01*
X92000000Y17100000D01*
G36*
X50400000Y36400000D02*
G01*
X50400000Y37200000D01*
X49900000Y37900000D01*
X48900000Y37900000D01*
X48400000Y37200000D01*
X48400000Y36400000D01*
X48900000Y35700000D01*
X49900000Y35700000D01*
X50400000Y36400000D01*
G37*
X50400000Y36400000D02*
X50400000Y37200000D01*
X49900000Y37900000D01*
X48900000Y37900000D01*
X48400000Y37200000D01*
X48400000Y36400000D01*
X48900000Y35700000D01*
X49900000Y35700000D01*
X50400000Y36400000D01*
D11*
X3000000Y31000000D03*
X3000000Y12000000D03*
X3000000Y39000000D03*
X3000000Y21000000D03*
G36*
G01*
X90800000Y12031250D02*
X90800000Y11568750D01*
G75*
G02*
X90606250Y11375000I-193750J0D01*
G01*
X90218750Y11375000D01*
G75*
G02*
X90025000Y11568750I0J193750D01*
G01*
X90025000Y12031250D01*
G75*
G02*
X90218750Y12225000I193750J0D01*
G01*
X90606250Y12225000D01*
G75*
G02*
X90800000Y12031250I0J-193750D01*
G01*
G37*
G36*
G01*
X92375000Y12031250D02*
X92375000Y11568750D01*
G75*
G02*
X92181250Y11375000I-193750J0D01*
G01*
X91793750Y11375000D01*
G75*
G02*
X91600000Y11568750I0J193750D01*
G01*
X91600000Y12031250D01*
G75*
G02*
X91793750Y12225000I193750J0D01*
G01*
X92181250Y12225000D01*
G75*
G02*
X92375000Y12031250I0J-193750D01*
G01*
G37*
D12*
X90550000Y19600000D03*
X90550000Y16600000D03*
X94250000Y16600000D03*
X94250000Y19600000D03*
D13*
X92400000Y18100000D03*
G36*
G01*
X93045000Y20940000D02*
X93045000Y21260000D01*
G75*
G02*
X93180000Y21395000I135000J0D01*
G01*
X93450000Y21395000D01*
G75*
G02*
X93585000Y21260000I0J-135000D01*
G01*
X93585000Y20940000D01*
G75*
G02*
X93450000Y20805000I-135000J0D01*
G01*
X93180000Y20805000D01*
G75*
G02*
X93045000Y20940000I0J135000D01*
G01*
G37*
G36*
G01*
X94015000Y20940000D02*
X94015000Y21260000D01*
G75*
G02*
X94150000Y21395000I135000J0D01*
G01*
X94420000Y21395000D01*
G75*
G02*
X94555000Y21260000I0J-135000D01*
G01*
X94555000Y20940000D01*
G75*
G02*
X94420000Y20805000I-135000J0D01*
G01*
X94150000Y20805000D01*
G75*
G02*
X94015000Y20940000I0J135000D01*
G01*
G37*
D14*
X107000000Y2000000D03*
G36*
G01*
X112050000Y2275000D02*
X112050000Y1725000D01*
G75*
G02*
X111775000Y1450000I-275000J0D01*
G01*
X111225000Y1450000D01*
G75*
G02*
X110950000Y1725000I0J275000D01*
G01*
X110950000Y2275000D01*
G75*
G02*
X111225000Y2550000I275000J0D01*
G01*
X111775000Y2550000D01*
G75*
G02*
X112050000Y2275000I0J-275000D01*
G01*
G37*
X110000000Y2000000D03*
X108500000Y2000000D03*
G36*
G01*
X85637500Y18925000D02*
X85112500Y18925000D01*
G75*
G02*
X85025000Y19012500I0J87500D01*
G01*
X85025000Y19187500D01*
G75*
G02*
X85112500Y19275000I87500J0D01*
G01*
X85637500Y19275000D01*
G75*
G02*
X85725000Y19187500I0J-87500D01*
G01*
X85725000Y19012500D01*
G75*
G02*
X85637500Y18925000I-87500J0D01*
G01*
G37*
G36*
G01*
X85637500Y19725000D02*
X85112500Y19725000D01*
G75*
G02*
X85025000Y19812500I0J87500D01*
G01*
X85025000Y19987500D01*
G75*
G02*
X85112500Y20075000I87500J0D01*
G01*
X85637500Y20075000D01*
G75*
G02*
X85725000Y19987500I0J-87500D01*
G01*
X85725000Y19812500D01*
G75*
G02*
X85637500Y19725000I-87500J0D01*
G01*
G37*
G36*
G01*
X87487500Y18925000D02*
X86962500Y18925000D01*
G75*
G02*
X86875000Y19012500I0J87500D01*
G01*
X86875000Y19187500D01*
G75*
G02*
X86962500Y19275000I87500J0D01*
G01*
X87487500Y19275000D01*
G75*
G02*
X87575000Y19187500I0J-87500D01*
G01*
X87575000Y19012500D01*
G75*
G02*
X87487500Y18925000I-87500J0D01*
G01*
G37*
G36*
G01*
X87487500Y19725000D02*
X86962500Y19725000D01*
G75*
G02*
X86875000Y19812500I0J87500D01*
G01*
X86875000Y19987500D01*
G75*
G02*
X86962500Y20075000I87500J0D01*
G01*
X87487500Y20075000D01*
G75*
G02*
X87575000Y19987500I0J-87500D01*
G01*
X87575000Y19812500D01*
G75*
G02*
X87487500Y19725000I-87500J0D01*
G01*
G37*
G36*
G01*
X22450000Y34662500D02*
X22450000Y35037500D01*
G75*
G02*
X22637500Y35225000I187500J0D01*
G01*
X23362500Y35225000D01*
G75*
G02*
X23550000Y35037500I0J-187500D01*
G01*
X23550000Y34662500D01*
G75*
G02*
X23362500Y34475000I-187500J0D01*
G01*
X22637500Y34475000D01*
G75*
G02*
X22450000Y34662500I0J187500D01*
G01*
G37*
G36*
G01*
X23550000Y38537500D02*
X23550000Y38162500D01*
G75*
G02*
X23362500Y37975000I-187500J0D01*
G01*
X22637500Y37975000D01*
G75*
G02*
X22450000Y38162500I0J187500D01*
G01*
X22450000Y38537500D01*
G75*
G02*
X22637500Y38725000I187500J0D01*
G01*
X23362500Y38725000D01*
G75*
G02*
X23550000Y38537500I0J-187500D01*
G01*
G37*
G36*
G01*
X88368750Y18400000D02*
X88831250Y18400000D01*
G75*
G02*
X89025000Y18206250I0J-193750D01*
G01*
X89025000Y17818750D01*
G75*
G02*
X88831250Y17625000I-193750J0D01*
G01*
X88368750Y17625000D01*
G75*
G02*
X88175000Y17818750I0J193750D01*
G01*
X88175000Y18206250D01*
G75*
G02*
X88368750Y18400000I193750J0D01*
G01*
G37*
G36*
G01*
X88368750Y19975000D02*
X88831250Y19975000D01*
G75*
G02*
X89025000Y19781250I0J-193750D01*
G01*
X89025000Y19393750D01*
G75*
G02*
X88831250Y19200000I-193750J0D01*
G01*
X88368750Y19200000D01*
G75*
G02*
X88175000Y19393750I0J193750D01*
G01*
X88175000Y19781250D01*
G75*
G02*
X88368750Y19975000I193750J0D01*
G01*
G37*
G36*
G01*
X88870000Y21260000D02*
X88870000Y20940000D01*
G75*
G02*
X88735000Y20805000I-135000J0D01*
G01*
X88465000Y20805000D01*
G75*
G02*
X88330000Y20940000I0J135000D01*
G01*
X88330000Y21260000D01*
G75*
G02*
X88465000Y21395000I135000J0D01*
G01*
X88735000Y21395000D01*
G75*
G02*
X88870000Y21260000I0J-135000D01*
G01*
G37*
G36*
G01*
X87900000Y21260000D02*
X87900000Y20940000D01*
G75*
G02*
X87765000Y20805000I-135000J0D01*
G01*
X87495000Y20805000D01*
G75*
G02*
X87360000Y20940000I0J135000D01*
G01*
X87360000Y21260000D01*
G75*
G02*
X87495000Y21395000I135000J0D01*
G01*
X87765000Y21395000D01*
G75*
G02*
X87900000Y21260000I0J-135000D01*
G01*
G37*
G36*
G01*
X90345000Y13040000D02*
X90345000Y13360000D01*
G75*
G02*
X90480000Y13495000I135000J0D01*
G01*
X90750000Y13495000D01*
G75*
G02*
X90885000Y13360000I0J-135000D01*
G01*
X90885000Y13040000D01*
G75*
G02*
X90750000Y12905000I-135000J0D01*
G01*
X90480000Y12905000D01*
G75*
G02*
X90345000Y13040000I0J135000D01*
G01*
G37*
G36*
G01*
X91315000Y13040000D02*
X91315000Y13360000D01*
G75*
G02*
X91450000Y13495000I135000J0D01*
G01*
X91720000Y13495000D01*
G75*
G02*
X91855000Y13360000I0J-135000D01*
G01*
X91855000Y13040000D01*
G75*
G02*
X91720000Y12905000I-135000J0D01*
G01*
X91450000Y12905000D01*
G75*
G02*
X91315000Y13040000I0J135000D01*
G01*
G37*
G36*
G01*
X89987500Y14268750D02*
X89987500Y15131250D01*
G75*
G02*
X90206250Y15350000I218750J0D01*
G01*
X90643750Y15350000D01*
G75*
G02*
X90862500Y15131250I0J-218750D01*
G01*
X90862500Y14268750D01*
G75*
G02*
X90643750Y14050000I-218750J0D01*
G01*
X90206250Y14050000D01*
G75*
G02*
X89987500Y14268750I0J218750D01*
G01*
G37*
G36*
G01*
X91862500Y14268750D02*
X91862500Y15131250D01*
G75*
G02*
X92081250Y15350000I218750J0D01*
G01*
X92518750Y15350000D01*
G75*
G02*
X92737500Y15131250I0J-218750D01*
G01*
X92737500Y14268750D01*
G75*
G02*
X92518750Y14050000I-218750J0D01*
G01*
X92081250Y14050000D01*
G75*
G02*
X91862500Y14268750I0J218750D01*
G01*
G37*
X119100000Y37200000D03*
X119100000Y35700000D03*
G36*
G01*
X119375000Y33650000D02*
X118825000Y33650000D01*
G75*
G02*
X118550000Y33925000I0J275000D01*
G01*
X118550000Y34475000D01*
G75*
G02*
X118825000Y34750000I275000J0D01*
G01*
X119375000Y34750000D01*
G75*
G02*
X119650000Y34475000I0J-275000D01*
G01*
X119650000Y33925000D01*
G75*
G02*
X119375000Y33650000I-275000J0D01*
G01*
G37*
G36*
G01*
X119400000Y25131250D02*
X119400000Y24668750D01*
G75*
G02*
X119206250Y24475000I-193750J0D01*
G01*
X118818750Y24475000D01*
G75*
G02*
X118625000Y24668750I0J193750D01*
G01*
X118625000Y25131250D01*
G75*
G02*
X118818750Y25325000I193750J0D01*
G01*
X119206250Y25325000D01*
G75*
G02*
X119400000Y25131250I0J-193750D01*
G01*
G37*
G36*
G01*
X120975000Y25131250D02*
X120975000Y24668750D01*
G75*
G02*
X120781250Y24475000I-193750J0D01*
G01*
X120393750Y24475000D01*
G75*
G02*
X120200000Y24668750I0J193750D01*
G01*
X120200000Y25131250D01*
G75*
G02*
X120393750Y25325000I193750J0D01*
G01*
X120781250Y25325000D01*
G75*
G02*
X120975000Y25131250I0J-193750D01*
G01*
G37*
X34700000Y48400000D03*
X36200000Y48400000D03*
X37700000Y48400000D03*
G36*
G01*
X42750000Y48675000D02*
X42750000Y48125000D01*
G75*
G02*
X42475000Y47850000I-275000J0D01*
G01*
X41925000Y47850000D01*
G75*
G02*
X41650000Y48125000I0J275000D01*
G01*
X41650000Y48675000D01*
G75*
G02*
X41925000Y48950000I275000J0D01*
G01*
X42475000Y48950000D01*
G75*
G02*
X42750000Y48675000I0J-275000D01*
G01*
G37*
X40700000Y48400000D03*
X39200000Y48400000D03*
X119100000Y30700000D03*
X119100000Y29200000D03*
G36*
G01*
X119375000Y27150000D02*
X118825000Y27150000D01*
G75*
G02*
X118550000Y27425000I0J275000D01*
G01*
X118550000Y27975000D01*
G75*
G02*
X118825000Y28250000I275000J0D01*
G01*
X119375000Y28250000D01*
G75*
G02*
X119650000Y27975000I0J-275000D01*
G01*
X119650000Y27425000D01*
G75*
G02*
X119375000Y27150000I-275000J0D01*
G01*
G37*
D15*
X10600000Y35950000D03*
X10600000Y48650000D03*
D16*
X9900000Y17000000D03*
X9900000Y32000000D03*
G36*
G01*
X23925000Y47227500D02*
X23925000Y47502500D01*
G75*
G02*
X24062500Y47640000I137500J0D01*
G01*
X24737500Y47640000D01*
G75*
G02*
X24875000Y47502500I0J-137500D01*
G01*
X24875000Y47227500D01*
G75*
G02*
X24737500Y47090000I-137500J0D01*
G01*
X24062500Y47090000D01*
G75*
G02*
X23925000Y47227500I0J137500D01*
G01*
G37*
G36*
G01*
X16925000Y48497500D02*
X16925000Y48772500D01*
G75*
G02*
X17062500Y48910000I137500J0D01*
G01*
X17737500Y48910000D01*
G75*
G02*
X17875000Y48772500I0J-137500D01*
G01*
X17875000Y48497500D01*
G75*
G02*
X17737500Y48360000I-137500J0D01*
G01*
X17062500Y48360000D01*
G75*
G02*
X16925000Y48497500I0J137500D01*
G01*
G37*
G36*
G01*
X16925000Y47227500D02*
X16925000Y47502500D01*
G75*
G02*
X17062500Y47640000I137500J0D01*
G01*
X17737500Y47640000D01*
G75*
G02*
X17875000Y47502500I0J-137500D01*
G01*
X17875000Y47227500D01*
G75*
G02*
X17737500Y47090000I-137500J0D01*
G01*
X17062500Y47090000D01*
G75*
G02*
X16925000Y47227500I0J137500D01*
G01*
G37*
G36*
G01*
X23925000Y48497500D02*
X23925000Y48772500D01*
G75*
G02*
X24062500Y48910000I137500J0D01*
G01*
X24737500Y48910000D01*
G75*
G02*
X24875000Y48772500I0J-137500D01*
G01*
X24875000Y48497500D01*
G75*
G02*
X24737500Y48360000I-137500J0D01*
G01*
X24062500Y48360000D01*
G75*
G02*
X23925000Y48497500I0J137500D01*
G01*
G37*
G36*
G01*
X26960000Y47345000D02*
X26640000Y47345000D01*
G75*
G02*
X26505000Y47480000I0J135000D01*
G01*
X26505000Y47750000D01*
G75*
G02*
X26640000Y47885000I135000J0D01*
G01*
X26960000Y47885000D01*
G75*
G02*
X27095000Y47750000I0J-135000D01*
G01*
X27095000Y47480000D01*
G75*
G02*
X26960000Y47345000I-135000J0D01*
G01*
G37*
G36*
G01*
X26960000Y48315000D02*
X26640000Y48315000D01*
G75*
G02*
X26505000Y48450000I0J135000D01*
G01*
X26505000Y48720000D01*
G75*
G02*
X26640000Y48855000I135000J0D01*
G01*
X26960000Y48855000D01*
G75*
G02*
X27095000Y48720000I0J-135000D01*
G01*
X27095000Y48450000D01*
G75*
G02*
X26960000Y48315000I-135000J0D01*
G01*
G37*
D17*
X119000000Y48000000D03*
X119000000Y8000000D03*
X54000000Y5500000D03*
X4000000Y45500000D03*
X54000000Y45500000D03*
X4000000Y5500000D03*
G36*
G01*
X29475000Y38545000D02*
X29475000Y36455000D01*
G75*
G02*
X29245000Y36225000I-230000J0D01*
G01*
X28555000Y36225000D01*
G75*
G02*
X28325000Y36455000I0J230000D01*
G01*
X28325000Y38545000D01*
G75*
G02*
X28555000Y38775000I230000J0D01*
G01*
X29245000Y38775000D01*
G75*
G02*
X29475000Y38545000I0J-230000D01*
G01*
G37*
G36*
G01*
X26675000Y38545000D02*
X26675000Y36455000D01*
G75*
G02*
X26445000Y36225000I-230000J0D01*
G01*
X25755000Y36225000D01*
G75*
G02*
X25525000Y36455000I0J230000D01*
G01*
X25525000Y38545000D01*
G75*
G02*
X25755000Y38775000I230000J0D01*
G01*
X26445000Y38775000D01*
G75*
G02*
X26675000Y38545000I0J-230000D01*
G01*
G37*
G36*
G01*
X43475000Y36595000D02*
X43475000Y34505000D01*
G75*
G02*
X43245000Y34275000I-230000J0D01*
G01*
X42555000Y34275000D01*
G75*
G02*
X42325000Y34505000I0J230000D01*
G01*
X42325000Y36595000D01*
G75*
G02*
X42555000Y36825000I230000J0D01*
G01*
X43245000Y36825000D01*
G75*
G02*
X43475000Y36595000I0J-230000D01*
G01*
G37*
G36*
G01*
X40675000Y36595000D02*
X40675000Y34505000D01*
G75*
G02*
X40445000Y34275000I-230000J0D01*
G01*
X39755000Y34275000D01*
G75*
G02*
X39525000Y34505000I0J230000D01*
G01*
X39525000Y36595000D01*
G75*
G02*
X39755000Y36825000I230000J0D01*
G01*
X40445000Y36825000D01*
G75*
G02*
X40675000Y36595000I0J-230000D01*
G01*
G37*
D15*
X19300000Y5800000D03*
X15300000Y2800000D03*
G36*
G01*
X103950000Y36975000D02*
X103950000Y38175000D01*
G75*
G02*
X104050000Y38275000I100000J0D01*
G01*
X104250000Y38275000D01*
G75*
G02*
X104350000Y38175000I0J-100000D01*
G01*
X104350000Y36975000D01*
G75*
G02*
X104250000Y36875000I-100000J0D01*
G01*
X104050000Y36875000D01*
G75*
G02*
X103950000Y36975000I0J100000D01*
G01*
G37*
G36*
G01*
X104600000Y41375000D02*
X104600000Y42575000D01*
G75*
G02*
X104700000Y42675000I100000J0D01*
G01*
X104900000Y42675000D01*
G75*
G02*
X105000000Y42575000I0J-100000D01*
G01*
X105000000Y41375000D01*
G75*
G02*
X104900000Y41275000I-100000J0D01*
G01*
X104700000Y41275000D01*
G75*
G02*
X104600000Y41375000I0J100000D01*
G01*
G37*
G36*
G01*
X105250000Y41375000D02*
X105250000Y42575000D01*
G75*
G02*
X105350000Y42675000I100000J0D01*
G01*
X105550000Y42675000D01*
G75*
G02*
X105650000Y42575000I0J-100000D01*
G01*
X105650000Y41375000D01*
G75*
G02*
X105550000Y41275000I-100000J0D01*
G01*
X105350000Y41275000D01*
G75*
G02*
X105250000Y41375000I0J100000D01*
G01*
G37*
G36*
G01*
X105250000Y36975000D02*
X105250000Y38175000D01*
G75*
G02*
X105350000Y38275000I100000J0D01*
G01*
X105550000Y38275000D01*
G75*
G02*
X105650000Y38175000I0J-100000D01*
G01*
X105650000Y36975000D01*
G75*
G02*
X105550000Y36875000I-100000J0D01*
G01*
X105350000Y36875000D01*
G75*
G02*
X105250000Y36975000I0J100000D01*
G01*
G37*
G36*
G01*
X103950000Y41375000D02*
X103950000Y42575000D01*
G75*
G02*
X104050000Y42675000I100000J0D01*
G01*
X104250000Y42675000D01*
G75*
G02*
X104350000Y42575000I0J-100000D01*
G01*
X104350000Y41375000D01*
G75*
G02*
X104250000Y41275000I-100000J0D01*
G01*
X104050000Y41275000D01*
G75*
G02*
X103950000Y41375000I0J100000D01*
G01*
G37*
G36*
G01*
X105900000Y36975000D02*
X105900000Y38175000D01*
G75*
G02*
X106000000Y38275000I100000J0D01*
G01*
X106200000Y38275000D01*
G75*
G02*
X106300000Y38175000I0J-100000D01*
G01*
X106300000Y36975000D01*
G75*
G02*
X106200000Y36875000I-100000J0D01*
G01*
X106000000Y36875000D01*
G75*
G02*
X105900000Y36975000I0J100000D01*
G01*
G37*
G36*
G01*
X105900000Y41375000D02*
X105900000Y42575000D01*
G75*
G02*
X106000000Y42675000I100000J0D01*
G01*
X106200000Y42675000D01*
G75*
G02*
X106300000Y42575000I0J-100000D01*
G01*
X106300000Y41375000D01*
G75*
G02*
X106200000Y41275000I-100000J0D01*
G01*
X106000000Y41275000D01*
G75*
G02*
X105900000Y41375000I0J100000D01*
G01*
G37*
G36*
G01*
X104600000Y36975000D02*
X104600000Y38175000D01*
G75*
G02*
X104700000Y38275000I100000J0D01*
G01*
X104900000Y38275000D01*
G75*
G02*
X105000000Y38175000I0J-100000D01*
G01*
X105000000Y36975000D01*
G75*
G02*
X104900000Y36875000I-100000J0D01*
G01*
X104700000Y36875000D01*
G75*
G02*
X104600000Y36975000I0J100000D01*
G01*
G37*
G36*
G01*
X97230000Y37190000D02*
X97230000Y38390000D01*
G75*
G02*
X97330000Y38490000I100000J0D01*
G01*
X97530000Y38490000D01*
G75*
G02*
X97630000Y38390000I0J-100000D01*
G01*
X97630000Y37190000D01*
G75*
G02*
X97530000Y37090000I-100000J0D01*
G01*
X97330000Y37090000D01*
G75*
G02*
X97230000Y37190000I0J100000D01*
G01*
G37*
G36*
G01*
X97880000Y41590000D02*
X97880000Y42790000D01*
G75*
G02*
X97980000Y42890000I100000J0D01*
G01*
X98180000Y42890000D01*
G75*
G02*
X98280000Y42790000I0J-100000D01*
G01*
X98280000Y41590000D01*
G75*
G02*
X98180000Y41490000I-100000J0D01*
G01*
X97980000Y41490000D01*
G75*
G02*
X97880000Y41590000I0J100000D01*
G01*
G37*
G36*
G01*
X98530000Y41590000D02*
X98530000Y42790000D01*
G75*
G02*
X98630000Y42890000I100000J0D01*
G01*
X98830000Y42890000D01*
G75*
G02*
X98930000Y42790000I0J-100000D01*
G01*
X98930000Y41590000D01*
G75*
G02*
X98830000Y41490000I-100000J0D01*
G01*
X98630000Y41490000D01*
G75*
G02*
X98530000Y41590000I0J100000D01*
G01*
G37*
G36*
G01*
X98530000Y37190000D02*
X98530000Y38390000D01*
G75*
G02*
X98630000Y38490000I100000J0D01*
G01*
X98830000Y38490000D01*
G75*
G02*
X98930000Y38390000I0J-100000D01*
G01*
X98930000Y37190000D01*
G75*
G02*
X98830000Y37090000I-100000J0D01*
G01*
X98630000Y37090000D01*
G75*
G02*
X98530000Y37190000I0J100000D01*
G01*
G37*
G36*
G01*
X97230000Y41590000D02*
X97230000Y42790000D01*
G75*
G02*
X97330000Y42890000I100000J0D01*
G01*
X97530000Y42890000D01*
G75*
G02*
X97630000Y42790000I0J-100000D01*
G01*
X97630000Y41590000D01*
G75*
G02*
X97530000Y41490000I-100000J0D01*
G01*
X97330000Y41490000D01*
G75*
G02*
X97230000Y41590000I0J100000D01*
G01*
G37*
G36*
G01*
X99180000Y37190000D02*
X99180000Y38390000D01*
G75*
G02*
X99280000Y38490000I100000J0D01*
G01*
X99480000Y38490000D01*
G75*
G02*
X99580000Y38390000I0J-100000D01*
G01*
X99580000Y37190000D01*
G75*
G02*
X99480000Y37090000I-100000J0D01*
G01*
X99280000Y37090000D01*
G75*
G02*
X99180000Y37190000I0J100000D01*
G01*
G37*
G36*
G01*
X99180000Y41590000D02*
X99180000Y42790000D01*
G75*
G02*
X99280000Y42890000I100000J0D01*
G01*
X99480000Y42890000D01*
G75*
G02*
X99580000Y42790000I0J-100000D01*
G01*
X99580000Y41590000D01*
G75*
G02*
X99480000Y41490000I-100000J0D01*
G01*
X99280000Y41490000D01*
G75*
G02*
X99180000Y41590000I0J100000D01*
G01*
G37*
G36*
G01*
X97880000Y37190000D02*
X97880000Y38390000D01*
G75*
G02*
X97980000Y38490000I100000J0D01*
G01*
X98180000Y38490000D01*
G75*
G02*
X98280000Y38390000I0J-100000D01*
G01*
X98280000Y37190000D01*
G75*
G02*
X98180000Y37090000I-100000J0D01*
G01*
X97980000Y37090000D01*
G75*
G02*
X97880000Y37190000I0J100000D01*
G01*
G37*
G36*
G01*
X120737500Y19175000D02*
X121162500Y19175000D01*
G75*
G02*
X121275000Y19062500I0J-112500D01*
G01*
X121275000Y18837500D01*
G75*
G02*
X121162500Y18725000I-112500J0D01*
G01*
X120737500Y18725000D01*
G75*
G02*
X120625000Y18837500I0J112500D01*
G01*
X120625000Y19062500D01*
G75*
G02*
X120737500Y19175000I112500J0D01*
G01*
G37*
G36*
G01*
X120737500Y21075000D02*
X121162500Y21075000D01*
G75*
G02*
X121275000Y20962500I0J-112500D01*
G01*
X121275000Y20737500D01*
G75*
G02*
X121162500Y20625000I-112500J0D01*
G01*
X120737500Y20625000D01*
G75*
G02*
X120625000Y20737500I0J112500D01*
G01*
X120625000Y20962500D01*
G75*
G02*
X120737500Y21075000I112500J0D01*
G01*
G37*
G36*
G01*
X118237500Y20125000D02*
X118662500Y20125000D01*
G75*
G02*
X118775000Y20012500I0J-112500D01*
G01*
X118775000Y19787500D01*
G75*
G02*
X118662500Y19675000I-112500J0D01*
G01*
X118237500Y19675000D01*
G75*
G02*
X118125000Y19787500I0J112500D01*
G01*
X118125000Y20012500D01*
G75*
G02*
X118237500Y20125000I112500J0D01*
G01*
G37*
G36*
G01*
X89762500Y3425000D02*
X89337500Y3425000D01*
G75*
G02*
X89225000Y3537500I0J112500D01*
G01*
X89225000Y3762500D01*
G75*
G02*
X89337500Y3875000I112500J0D01*
G01*
X89762500Y3875000D01*
G75*
G02*
X89875000Y3762500I0J-112500D01*
G01*
X89875000Y3537500D01*
G75*
G02*
X89762500Y3425000I-112500J0D01*
G01*
G37*
G36*
G01*
X89762500Y1525000D02*
X89337500Y1525000D01*
G75*
G02*
X89225000Y1637500I0J112500D01*
G01*
X89225000Y1862500D01*
G75*
G02*
X89337500Y1975000I112500J0D01*
G01*
X89762500Y1975000D01*
G75*
G02*
X89875000Y1862500I0J-112500D01*
G01*
X89875000Y1637500D01*
G75*
G02*
X89762500Y1525000I-112500J0D01*
G01*
G37*
G36*
G01*
X92262500Y2475000D02*
X91837500Y2475000D01*
G75*
G02*
X91725000Y2587500I0J112500D01*
G01*
X91725000Y2812500D01*
G75*
G02*
X91837500Y2925000I112500J0D01*
G01*
X92262500Y2925000D01*
G75*
G02*
X92375000Y2812500I0J-112500D01*
G01*
X92375000Y2587500D01*
G75*
G02*
X92262500Y2475000I-112500J0D01*
G01*
G37*
G36*
G01*
X89762500Y7325000D02*
X89337500Y7325000D01*
G75*
G02*
X89225000Y7437500I0J112500D01*
G01*
X89225000Y7662500D01*
G75*
G02*
X89337500Y7775000I112500J0D01*
G01*
X89762500Y7775000D01*
G75*
G02*
X89875000Y7662500I0J-112500D01*
G01*
X89875000Y7437500D01*
G75*
G02*
X89762500Y7325000I-112500J0D01*
G01*
G37*
G36*
G01*
X89762500Y5425000D02*
X89337500Y5425000D01*
G75*
G02*
X89225000Y5537500I0J112500D01*
G01*
X89225000Y5762500D01*
G75*
G02*
X89337500Y5875000I112500J0D01*
G01*
X89762500Y5875000D01*
G75*
G02*
X89875000Y5762500I0J-112500D01*
G01*
X89875000Y5537500D01*
G75*
G02*
X89762500Y5425000I-112500J0D01*
G01*
G37*
G36*
G01*
X92262500Y6375000D02*
X91837500Y6375000D01*
G75*
G02*
X91725000Y6487500I0J112500D01*
G01*
X91725000Y6712500D01*
G75*
G02*
X91837500Y6825000I112500J0D01*
G01*
X92262500Y6825000D01*
G75*
G02*
X92375000Y6712500I0J-112500D01*
G01*
X92375000Y6487500D01*
G75*
G02*
X92262500Y6375000I-112500J0D01*
G01*
G37*
D18*
X47900000Y34950000D03*
X50900000Y34950000D03*
X50900000Y38650000D03*
X47900000Y38650000D03*
D19*
X49400000Y36800000D03*
D16*
X24500000Y42600000D03*
X44500000Y42600000D03*
X24500000Y22600000D03*
X39500000Y42600000D03*
X29500000Y42600000D03*
X44500000Y22600000D03*
X17100000Y37750000D03*
X17100000Y35210000D03*
X17100000Y25050000D03*
X17100000Y17430000D03*
D20*
X19400000Y10500000D03*
X12400000Y10500000D03*
D21*
X16500000Y42930000D03*
X16500000Y45470000D03*
D22*
X112800000Y47700000D03*
X114600000Y47700000D03*
X118000000Y3700000D03*
X118000000Y1900000D03*
G36*
G01*
X105260000Y45470000D02*
X105580000Y45470000D01*
G75*
G02*
X105715000Y45335000I0J-135000D01*
G01*
X105715000Y45065000D01*
G75*
G02*
X105580000Y44930000I-135000J0D01*
G01*
X105260000Y44930000D01*
G75*
G02*
X105125000Y45065000I0J135000D01*
G01*
X105125000Y45335000D01*
G75*
G02*
X105260000Y45470000I135000J0D01*
G01*
G37*
G36*
G01*
X105260000Y44500000D02*
X105580000Y44500000D01*
G75*
G02*
X105715000Y44365000I0J-135000D01*
G01*
X105715000Y44095000D01*
G75*
G02*
X105580000Y43960000I-135000J0D01*
G01*
X105260000Y43960000D01*
G75*
G02*
X105125000Y44095000I0J135000D01*
G01*
X105125000Y44365000D01*
G75*
G02*
X105260000Y44500000I135000J0D01*
G01*
G37*
G36*
G01*
X106580000Y43975000D02*
X106260000Y43975000D01*
G75*
G02*
X106125000Y44110000I0J135000D01*
G01*
X106125000Y44380000D01*
G75*
G02*
X106260000Y44515000I135000J0D01*
G01*
X106580000Y44515000D01*
G75*
G02*
X106715000Y44380000I0J-135000D01*
G01*
X106715000Y44110000D01*
G75*
G02*
X106580000Y43975000I-135000J0D01*
G01*
G37*
G36*
G01*
X106580000Y44945000D02*
X106260000Y44945000D01*
G75*
G02*
X106125000Y45080000I0J135000D01*
G01*
X106125000Y45350000D01*
G75*
G02*
X106260000Y45485000I135000J0D01*
G01*
X106580000Y45485000D01*
G75*
G02*
X106715000Y45350000I0J-135000D01*
G01*
X106715000Y45080000D01*
G75*
G02*
X106580000Y44945000I-135000J0D01*
G01*
G37*
G36*
G01*
X102580000Y43975000D02*
X102260000Y43975000D01*
G75*
G02*
X102125000Y44110000I0J135000D01*
G01*
X102125000Y44380000D01*
G75*
G02*
X102260000Y44515000I135000J0D01*
G01*
X102580000Y44515000D01*
G75*
G02*
X102715000Y44380000I0J-135000D01*
G01*
X102715000Y44110000D01*
G75*
G02*
X102580000Y43975000I-135000J0D01*
G01*
G37*
G36*
G01*
X102580000Y44945000D02*
X102260000Y44945000D01*
G75*
G02*
X102125000Y45080000I0J135000D01*
G01*
X102125000Y45350000D01*
G75*
G02*
X102260000Y45485000I135000J0D01*
G01*
X102580000Y45485000D01*
G75*
G02*
X102715000Y45350000I0J-135000D01*
G01*
X102715000Y45080000D01*
G75*
G02*
X102580000Y44945000I-135000J0D01*
G01*
G37*
G36*
G01*
X103580000Y43975000D02*
X103260000Y43975000D01*
G75*
G02*
X103125000Y44110000I0J135000D01*
G01*
X103125000Y44380000D01*
G75*
G02*
X103260000Y44515000I135000J0D01*
G01*
X103580000Y44515000D01*
G75*
G02*
X103715000Y44380000I0J-135000D01*
G01*
X103715000Y44110000D01*
G75*
G02*
X103580000Y43975000I-135000J0D01*
G01*
G37*
G36*
G01*
X103580000Y44945000D02*
X103260000Y44945000D01*
G75*
G02*
X103125000Y45080000I0J135000D01*
G01*
X103125000Y45350000D01*
G75*
G02*
X103260000Y45485000I135000J0D01*
G01*
X103580000Y45485000D01*
G75*
G02*
X103715000Y45350000I0J-135000D01*
G01*
X103715000Y45080000D01*
G75*
G02*
X103580000Y44945000I-135000J0D01*
G01*
G37*
G36*
G01*
X107340000Y34585000D02*
X107020000Y34585000D01*
G75*
G02*
X106885000Y34720000I0J135000D01*
G01*
X106885000Y34990000D01*
G75*
G02*
X107020000Y35125000I135000J0D01*
G01*
X107340000Y35125000D01*
G75*
G02*
X107475000Y34990000I0J-135000D01*
G01*
X107475000Y34720000D01*
G75*
G02*
X107340000Y34585000I-135000J0D01*
G01*
G37*
G36*
G01*
X107340000Y35555000D02*
X107020000Y35555000D01*
G75*
G02*
X106885000Y35690000I0J135000D01*
G01*
X106885000Y35960000D01*
G75*
G02*
X107020000Y36095000I135000J0D01*
G01*
X107340000Y36095000D01*
G75*
G02*
X107475000Y35960000I0J-135000D01*
G01*
X107475000Y35690000D01*
G75*
G02*
X107340000Y35555000I-135000J0D01*
G01*
G37*
G36*
G01*
X108020000Y36095000D02*
X108340000Y36095000D01*
G75*
G02*
X108475000Y35960000I0J-135000D01*
G01*
X108475000Y35690000D01*
G75*
G02*
X108340000Y35555000I-135000J0D01*
G01*
X108020000Y35555000D01*
G75*
G02*
X107885000Y35690000I0J135000D01*
G01*
X107885000Y35960000D01*
G75*
G02*
X108020000Y36095000I135000J0D01*
G01*
G37*
G36*
G01*
X108020000Y35125000D02*
X108340000Y35125000D01*
G75*
G02*
X108475000Y34990000I0J-135000D01*
G01*
X108475000Y34720000D01*
G75*
G02*
X108340000Y34585000I-135000J0D01*
G01*
X108020000Y34585000D01*
G75*
G02*
X107885000Y34720000I0J135000D01*
G01*
X107885000Y34990000D01*
G75*
G02*
X108020000Y35125000I135000J0D01*
G01*
G37*
G36*
G01*
X104020000Y36095000D02*
X104340000Y36095000D01*
G75*
G02*
X104475000Y35960000I0J-135000D01*
G01*
X104475000Y35690000D01*
G75*
G02*
X104340000Y35555000I-135000J0D01*
G01*
X104020000Y35555000D01*
G75*
G02*
X103885000Y35690000I0J135000D01*
G01*
X103885000Y35960000D01*
G75*
G02*
X104020000Y36095000I135000J0D01*
G01*
G37*
G36*
G01*
X104020000Y35125000D02*
X104340000Y35125000D01*
G75*
G02*
X104475000Y34990000I0J-135000D01*
G01*
X104475000Y34720000D01*
G75*
G02*
X104340000Y34585000I-135000J0D01*
G01*
X104020000Y34585000D01*
G75*
G02*
X103885000Y34720000I0J135000D01*
G01*
X103885000Y34990000D01*
G75*
G02*
X104020000Y35125000I135000J0D01*
G01*
G37*
G36*
G01*
X105020000Y36095000D02*
X105340000Y36095000D01*
G75*
G02*
X105475000Y35960000I0J-135000D01*
G01*
X105475000Y35690000D01*
G75*
G02*
X105340000Y35555000I-135000J0D01*
G01*
X105020000Y35555000D01*
G75*
G02*
X104885000Y35690000I0J135000D01*
G01*
X104885000Y35960000D01*
G75*
G02*
X105020000Y36095000I135000J0D01*
G01*
G37*
G36*
G01*
X105020000Y35125000D02*
X105340000Y35125000D01*
G75*
G02*
X105475000Y34990000I0J-135000D01*
G01*
X105475000Y34720000D01*
G75*
G02*
X105340000Y34585000I-135000J0D01*
G01*
X105020000Y34585000D01*
G75*
G02*
X104885000Y34720000I0J135000D01*
G01*
X104885000Y34990000D01*
G75*
G02*
X105020000Y35125000I135000J0D01*
G01*
G37*
G36*
G01*
X98645000Y45445000D02*
X98965000Y45445000D01*
G75*
G02*
X99100000Y45310000I0J-135000D01*
G01*
X99100000Y45040000D01*
G75*
G02*
X98965000Y44905000I-135000J0D01*
G01*
X98645000Y44905000D01*
G75*
G02*
X98510000Y45040000I0J135000D01*
G01*
X98510000Y45310000D01*
G75*
G02*
X98645000Y45445000I135000J0D01*
G01*
G37*
G36*
G01*
X98645000Y44475000D02*
X98965000Y44475000D01*
G75*
G02*
X99100000Y44340000I0J-135000D01*
G01*
X99100000Y44070000D01*
G75*
G02*
X98965000Y43935000I-135000J0D01*
G01*
X98645000Y43935000D01*
G75*
G02*
X98510000Y44070000I0J135000D01*
G01*
X98510000Y44340000D01*
G75*
G02*
X98645000Y44475000I135000J0D01*
G01*
G37*
G36*
G01*
X99965000Y43935000D02*
X99645000Y43935000D01*
G75*
G02*
X99510000Y44070000I0J135000D01*
G01*
X99510000Y44340000D01*
G75*
G02*
X99645000Y44475000I135000J0D01*
G01*
X99965000Y44475000D01*
G75*
G02*
X100100000Y44340000I0J-135000D01*
G01*
X100100000Y44070000D01*
G75*
G02*
X99965000Y43935000I-135000J0D01*
G01*
G37*
G36*
G01*
X99965000Y44905000D02*
X99645000Y44905000D01*
G75*
G02*
X99510000Y45040000I0J135000D01*
G01*
X99510000Y45310000D01*
G75*
G02*
X99645000Y45445000I135000J0D01*
G01*
X99965000Y45445000D01*
G75*
G02*
X100100000Y45310000I0J-135000D01*
G01*
X100100000Y45040000D01*
G75*
G02*
X99965000Y44905000I-135000J0D01*
G01*
G37*
G36*
G01*
X95965000Y43935000D02*
X95645000Y43935000D01*
G75*
G02*
X95510000Y44070000I0J135000D01*
G01*
X95510000Y44340000D01*
G75*
G02*
X95645000Y44475000I135000J0D01*
G01*
X95965000Y44475000D01*
G75*
G02*
X96100000Y44340000I0J-135000D01*
G01*
X96100000Y44070000D01*
G75*
G02*
X95965000Y43935000I-135000J0D01*
G01*
G37*
G36*
G01*
X95965000Y44905000D02*
X95645000Y44905000D01*
G75*
G02*
X95510000Y45040000I0J135000D01*
G01*
X95510000Y45310000D01*
G75*
G02*
X95645000Y45445000I135000J0D01*
G01*
X95965000Y45445000D01*
G75*
G02*
X96100000Y45310000I0J-135000D01*
G01*
X96100000Y45040000D01*
G75*
G02*
X95965000Y44905000I-135000J0D01*
G01*
G37*
G36*
G01*
X96965000Y43935000D02*
X96645000Y43935000D01*
G75*
G02*
X96510000Y44070000I0J135000D01*
G01*
X96510000Y44340000D01*
G75*
G02*
X96645000Y44475000I135000J0D01*
G01*
X96965000Y44475000D01*
G75*
G02*
X97100000Y44340000I0J-135000D01*
G01*
X97100000Y44070000D01*
G75*
G02*
X96965000Y43935000I-135000J0D01*
G01*
G37*
G36*
G01*
X96965000Y44905000D02*
X96645000Y44905000D01*
G75*
G02*
X96510000Y45040000I0J135000D01*
G01*
X96510000Y45310000D01*
G75*
G02*
X96645000Y45445000I135000J0D01*
G01*
X96965000Y45445000D01*
G75*
G02*
X97100000Y45310000I0J-135000D01*
G01*
X97100000Y45040000D01*
G75*
G02*
X96965000Y44905000I-135000J0D01*
G01*
G37*
G36*
G01*
X100865000Y34535000D02*
X100545000Y34535000D01*
G75*
G02*
X100410000Y34670000I0J135000D01*
G01*
X100410000Y34940000D01*
G75*
G02*
X100545000Y35075000I135000J0D01*
G01*
X100865000Y35075000D01*
G75*
G02*
X101000000Y34940000I0J-135000D01*
G01*
X101000000Y34670000D01*
G75*
G02*
X100865000Y34535000I-135000J0D01*
G01*
G37*
G36*
G01*
X100865000Y35505000D02*
X100545000Y35505000D01*
G75*
G02*
X100410000Y35640000I0J135000D01*
G01*
X100410000Y35910000D01*
G75*
G02*
X100545000Y36045000I135000J0D01*
G01*
X100865000Y36045000D01*
G75*
G02*
X101000000Y35910000I0J-135000D01*
G01*
X101000000Y35640000D01*
G75*
G02*
X100865000Y35505000I-135000J0D01*
G01*
G37*
G36*
G01*
X101545000Y36030000D02*
X101865000Y36030000D01*
G75*
G02*
X102000000Y35895000I0J-135000D01*
G01*
X102000000Y35625000D01*
G75*
G02*
X101865000Y35490000I-135000J0D01*
G01*
X101545000Y35490000D01*
G75*
G02*
X101410000Y35625000I0J135000D01*
G01*
X101410000Y35895000D01*
G75*
G02*
X101545000Y36030000I135000J0D01*
G01*
G37*
G36*
G01*
X101545000Y35060000D02*
X101865000Y35060000D01*
G75*
G02*
X102000000Y34925000I0J-135000D01*
G01*
X102000000Y34655000D01*
G75*
G02*
X101865000Y34520000I-135000J0D01*
G01*
X101545000Y34520000D01*
G75*
G02*
X101410000Y34655000I0J135000D01*
G01*
X101410000Y34925000D01*
G75*
G02*
X101545000Y35060000I135000J0D01*
G01*
G37*
G36*
G01*
X97545000Y36045000D02*
X97865000Y36045000D01*
G75*
G02*
X98000000Y35910000I0J-135000D01*
G01*
X98000000Y35640000D01*
G75*
G02*
X97865000Y35505000I-135000J0D01*
G01*
X97545000Y35505000D01*
G75*
G02*
X97410000Y35640000I0J135000D01*
G01*
X97410000Y35910000D01*
G75*
G02*
X97545000Y36045000I135000J0D01*
G01*
G37*
G36*
G01*
X97545000Y35075000D02*
X97865000Y35075000D01*
G75*
G02*
X98000000Y34940000I0J-135000D01*
G01*
X98000000Y34670000D01*
G75*
G02*
X97865000Y34535000I-135000J0D01*
G01*
X97545000Y34535000D01*
G75*
G02*
X97410000Y34670000I0J135000D01*
G01*
X97410000Y34940000D01*
G75*
G02*
X97545000Y35075000I135000J0D01*
G01*
G37*
G36*
G01*
X98545000Y36060000D02*
X98865000Y36060000D01*
G75*
G02*
X99000000Y35925000I0J-135000D01*
G01*
X99000000Y35655000D01*
G75*
G02*
X98865000Y35520000I-135000J0D01*
G01*
X98545000Y35520000D01*
G75*
G02*
X98410000Y35655000I0J135000D01*
G01*
X98410000Y35925000D01*
G75*
G02*
X98545000Y36060000I135000J0D01*
G01*
G37*
G36*
G01*
X98545000Y35090000D02*
X98865000Y35090000D01*
G75*
G02*
X99000000Y34955000I0J-135000D01*
G01*
X99000000Y34685000D01*
G75*
G02*
X98865000Y34550000I-135000J0D01*
G01*
X98545000Y34550000D01*
G75*
G02*
X98410000Y34685000I0J135000D01*
G01*
X98410000Y34955000D01*
G75*
G02*
X98545000Y35090000I135000J0D01*
G01*
G37*
G36*
G01*
X120455000Y22460000D02*
X120455000Y22140000D01*
G75*
G02*
X120320000Y22005000I-135000J0D01*
G01*
X120050000Y22005000D01*
G75*
G02*
X119915000Y22140000I0J135000D01*
G01*
X119915000Y22460000D01*
G75*
G02*
X120050000Y22595000I135000J0D01*
G01*
X120320000Y22595000D01*
G75*
G02*
X120455000Y22460000I0J-135000D01*
G01*
G37*
G36*
G01*
X119485000Y22460000D02*
X119485000Y22140000D01*
G75*
G02*
X119350000Y22005000I-135000J0D01*
G01*
X119080000Y22005000D01*
G75*
G02*
X118945000Y22140000I0J135000D01*
G01*
X118945000Y22460000D01*
G75*
G02*
X119080000Y22595000I135000J0D01*
G01*
X119350000Y22595000D01*
G75*
G02*
X119485000Y22460000I0J-135000D01*
G01*
G37*
G36*
G01*
X115960000Y18745000D02*
X115640000Y18745000D01*
G75*
G02*
X115505000Y18880000I0J135000D01*
G01*
X115505000Y19150000D01*
G75*
G02*
X115640000Y19285000I135000J0D01*
G01*
X115960000Y19285000D01*
G75*
G02*
X116095000Y19150000I0J-135000D01*
G01*
X116095000Y18880000D01*
G75*
G02*
X115960000Y18745000I-135000J0D01*
G01*
G37*
G36*
G01*
X115960000Y19715000D02*
X115640000Y19715000D01*
G75*
G02*
X115505000Y19850000I0J135000D01*
G01*
X115505000Y20120000D01*
G75*
G02*
X115640000Y20255000I135000J0D01*
G01*
X115960000Y20255000D01*
G75*
G02*
X116095000Y20120000I0J-135000D01*
G01*
X116095000Y19850000D01*
G75*
G02*
X115960000Y19715000I-135000J0D01*
G01*
G37*
G36*
G01*
X88355000Y3860000D02*
X88355000Y3540000D01*
G75*
G02*
X88220000Y3405000I-135000J0D01*
G01*
X87950000Y3405000D01*
G75*
G02*
X87815000Y3540000I0J135000D01*
G01*
X87815000Y3860000D01*
G75*
G02*
X87950000Y3995000I135000J0D01*
G01*
X88220000Y3995000D01*
G75*
G02*
X88355000Y3860000I0J-135000D01*
G01*
G37*
G36*
G01*
X87385000Y3860000D02*
X87385000Y3540000D01*
G75*
G02*
X87250000Y3405000I-135000J0D01*
G01*
X86980000Y3405000D01*
G75*
G02*
X86845000Y3540000I0J135000D01*
G01*
X86845000Y3860000D01*
G75*
G02*
X86980000Y3995000I135000J0D01*
G01*
X87250000Y3995000D01*
G75*
G02*
X87385000Y3860000I0J-135000D01*
G01*
G37*
G36*
G01*
X115945000Y31640000D02*
X115945000Y31960000D01*
G75*
G02*
X116080000Y32095000I135000J0D01*
G01*
X116350000Y32095000D01*
G75*
G02*
X116485000Y31960000I0J-135000D01*
G01*
X116485000Y31640000D01*
G75*
G02*
X116350000Y31505000I-135000J0D01*
G01*
X116080000Y31505000D01*
G75*
G02*
X115945000Y31640000I0J135000D01*
G01*
G37*
G36*
G01*
X116915000Y31640000D02*
X116915000Y31960000D01*
G75*
G02*
X117050000Y32095000I135000J0D01*
G01*
X117320000Y32095000D01*
G75*
G02*
X117455000Y31960000I0J-135000D01*
G01*
X117455000Y31640000D01*
G75*
G02*
X117320000Y31505000I-135000J0D01*
G01*
X117050000Y31505000D01*
G75*
G02*
X116915000Y31640000I0J135000D01*
G01*
G37*
G36*
G01*
X86255000Y3860000D02*
X86255000Y3540000D01*
G75*
G02*
X86120000Y3405000I-135000J0D01*
G01*
X85850000Y3405000D01*
G75*
G02*
X85715000Y3540000I0J135000D01*
G01*
X85715000Y3860000D01*
G75*
G02*
X85850000Y3995000I135000J0D01*
G01*
X86120000Y3995000D01*
G75*
G02*
X86255000Y3860000I0J-135000D01*
G01*
G37*
G36*
G01*
X85285000Y3860000D02*
X85285000Y3540000D01*
G75*
G02*
X85150000Y3405000I-135000J0D01*
G01*
X84880000Y3405000D01*
G75*
G02*
X84745000Y3540000I0J135000D01*
G01*
X84745000Y3860000D01*
G75*
G02*
X84880000Y3995000I135000J0D01*
G01*
X85150000Y3995000D01*
G75*
G02*
X85285000Y3860000I0J-135000D01*
G01*
G37*
G36*
G01*
X86255000Y5360000D02*
X86255000Y5040000D01*
G75*
G02*
X86120000Y4905000I-135000J0D01*
G01*
X85850000Y4905000D01*
G75*
G02*
X85715000Y5040000I0J135000D01*
G01*
X85715000Y5360000D01*
G75*
G02*
X85850000Y5495000I135000J0D01*
G01*
X86120000Y5495000D01*
G75*
G02*
X86255000Y5360000I0J-135000D01*
G01*
G37*
G36*
G01*
X85285000Y5360000D02*
X85285000Y5040000D01*
G75*
G02*
X85150000Y4905000I-135000J0D01*
G01*
X84880000Y4905000D01*
G75*
G02*
X84745000Y5040000I0J135000D01*
G01*
X84745000Y5360000D01*
G75*
G02*
X84880000Y5495000I135000J0D01*
G01*
X85150000Y5495000D01*
G75*
G02*
X85285000Y5360000I0J-135000D01*
G01*
G37*
G36*
G01*
X86255000Y6860000D02*
X86255000Y6540000D01*
G75*
G02*
X86120000Y6405000I-135000J0D01*
G01*
X85850000Y6405000D01*
G75*
G02*
X85715000Y6540000I0J135000D01*
G01*
X85715000Y6860000D01*
G75*
G02*
X85850000Y6995000I135000J0D01*
G01*
X86120000Y6995000D01*
G75*
G02*
X86255000Y6860000I0J-135000D01*
G01*
G37*
G36*
G01*
X85285000Y6860000D02*
X85285000Y6540000D01*
G75*
G02*
X85150000Y6405000I-135000J0D01*
G01*
X84880000Y6405000D01*
G75*
G02*
X84745000Y6540000I0J135000D01*
G01*
X84745000Y6860000D01*
G75*
G02*
X84880000Y6995000I135000J0D01*
G01*
X85150000Y6995000D01*
G75*
G02*
X85285000Y6860000I0J-135000D01*
G01*
G37*
G36*
G01*
X115945000Y30540000D02*
X115945000Y30860000D01*
G75*
G02*
X116080000Y30995000I135000J0D01*
G01*
X116350000Y30995000D01*
G75*
G02*
X116485000Y30860000I0J-135000D01*
G01*
X116485000Y30540000D01*
G75*
G02*
X116350000Y30405000I-135000J0D01*
G01*
X116080000Y30405000D01*
G75*
G02*
X115945000Y30540000I0J135000D01*
G01*
G37*
G36*
G01*
X116915000Y30540000D02*
X116915000Y30860000D01*
G75*
G02*
X117050000Y30995000I135000J0D01*
G01*
X117320000Y30995000D01*
G75*
G02*
X117455000Y30860000I0J-135000D01*
G01*
X117455000Y30540000D01*
G75*
G02*
X117320000Y30405000I-135000J0D01*
G01*
X117050000Y30405000D01*
G75*
G02*
X116915000Y30540000I0J135000D01*
G01*
G37*
G36*
G01*
X114365000Y20280000D02*
X114685000Y20280000D01*
G75*
G02*
X114820000Y20145000I0J-135000D01*
G01*
X114820000Y19875000D01*
G75*
G02*
X114685000Y19740000I-135000J0D01*
G01*
X114365000Y19740000D01*
G75*
G02*
X114230000Y19875000I0J135000D01*
G01*
X114230000Y20145000D01*
G75*
G02*
X114365000Y20280000I135000J0D01*
G01*
G37*
G36*
G01*
X114365000Y19310000D02*
X114685000Y19310000D01*
G75*
G02*
X114820000Y19175000I0J-135000D01*
G01*
X114820000Y18905000D01*
G75*
G02*
X114685000Y18770000I-135000J0D01*
G01*
X114365000Y18770000D01*
G75*
G02*
X114230000Y18905000I0J135000D01*
G01*
X114230000Y19175000D01*
G75*
G02*
X114365000Y19310000I135000J0D01*
G01*
G37*
G36*
G01*
X88355000Y5360000D02*
X88355000Y5040000D01*
G75*
G02*
X88220000Y4905000I-135000J0D01*
G01*
X87950000Y4905000D01*
G75*
G02*
X87815000Y5040000I0J135000D01*
G01*
X87815000Y5360000D01*
G75*
G02*
X87950000Y5495000I135000J0D01*
G01*
X88220000Y5495000D01*
G75*
G02*
X88355000Y5360000I0J-135000D01*
G01*
G37*
G36*
G01*
X87385000Y5360000D02*
X87385000Y5040000D01*
G75*
G02*
X87250000Y4905000I-135000J0D01*
G01*
X86980000Y4905000D01*
G75*
G02*
X86845000Y5040000I0J135000D01*
G01*
X86845000Y5360000D01*
G75*
G02*
X86980000Y5495000I135000J0D01*
G01*
X87250000Y5495000D01*
G75*
G02*
X87385000Y5360000I0J-135000D01*
G01*
G37*
G36*
G01*
X113340000Y46255000D02*
X113660000Y46255000D01*
G75*
G02*
X113795000Y46120000I0J-135000D01*
G01*
X113795000Y45850000D01*
G75*
G02*
X113660000Y45715000I-135000J0D01*
G01*
X113340000Y45715000D01*
G75*
G02*
X113205000Y45850000I0J135000D01*
G01*
X113205000Y46120000D01*
G75*
G02*
X113340000Y46255000I135000J0D01*
G01*
G37*
G36*
G01*
X113340000Y45285000D02*
X113660000Y45285000D01*
G75*
G02*
X113795000Y45150000I0J-135000D01*
G01*
X113795000Y44880000D01*
G75*
G02*
X113660000Y44745000I-135000J0D01*
G01*
X113340000Y44745000D01*
G75*
G02*
X113205000Y44880000I0J135000D01*
G01*
X113205000Y45150000D01*
G75*
G02*
X113340000Y45285000I135000J0D01*
G01*
G37*
G36*
G01*
X116655000Y1360000D02*
X116655000Y1040000D01*
G75*
G02*
X116520000Y905000I-135000J0D01*
G01*
X116250000Y905000D01*
G75*
G02*
X116115000Y1040000I0J135000D01*
G01*
X116115000Y1360000D01*
G75*
G02*
X116250000Y1495000I135000J0D01*
G01*
X116520000Y1495000D01*
G75*
G02*
X116655000Y1360000I0J-135000D01*
G01*
G37*
G36*
G01*
X115685000Y1360000D02*
X115685000Y1040000D01*
G75*
G02*
X115550000Y905000I-135000J0D01*
G01*
X115280000Y905000D01*
G75*
G02*
X115145000Y1040000I0J135000D01*
G01*
X115145000Y1360000D01*
G75*
G02*
X115280000Y1495000I135000J0D01*
G01*
X115550000Y1495000D01*
G75*
G02*
X115685000Y1360000I0J-135000D01*
G01*
G37*
G36*
G01*
X47145000Y40490000D02*
X47145000Y40810000D01*
G75*
G02*
X47280000Y40945000I135000J0D01*
G01*
X47550000Y40945000D01*
G75*
G02*
X47685000Y40810000I0J-135000D01*
G01*
X47685000Y40490000D01*
G75*
G02*
X47550000Y40355000I-135000J0D01*
G01*
X47280000Y40355000D01*
G75*
G02*
X47145000Y40490000I0J135000D01*
G01*
G37*
G36*
G01*
X48115000Y40490000D02*
X48115000Y40810000D01*
G75*
G02*
X48250000Y40945000I135000J0D01*
G01*
X48520000Y40945000D01*
G75*
G02*
X48655000Y40810000I0J-135000D01*
G01*
X48655000Y40490000D01*
G75*
G02*
X48520000Y40355000I-135000J0D01*
G01*
X48250000Y40355000D01*
G75*
G02*
X48115000Y40490000I0J135000D01*
G01*
G37*
G36*
G01*
X25245000Y39840000D02*
X25245000Y40160000D01*
G75*
G02*
X25380000Y40295000I135000J0D01*
G01*
X25650000Y40295000D01*
G75*
G02*
X25785000Y40160000I0J-135000D01*
G01*
X25785000Y39840000D01*
G75*
G02*
X25650000Y39705000I-135000J0D01*
G01*
X25380000Y39705000D01*
G75*
G02*
X25245000Y39840000I0J135000D01*
G01*
G37*
G36*
G01*
X26215000Y39840000D02*
X26215000Y40160000D01*
G75*
G02*
X26350000Y40295000I135000J0D01*
G01*
X26620000Y40295000D01*
G75*
G02*
X26755000Y40160000I0J-135000D01*
G01*
X26755000Y39840000D01*
G75*
G02*
X26620000Y39705000I-135000J0D01*
G01*
X26350000Y39705000D01*
G75*
G02*
X26215000Y39840000I0J135000D01*
G01*
G37*
G36*
G01*
X40145000Y37890000D02*
X40145000Y38210000D01*
G75*
G02*
X40280000Y38345000I135000J0D01*
G01*
X40550000Y38345000D01*
G75*
G02*
X40685000Y38210000I0J-135000D01*
G01*
X40685000Y37890000D01*
G75*
G02*
X40550000Y37755000I-135000J0D01*
G01*
X40280000Y37755000D01*
G75*
G02*
X40145000Y37890000I0J135000D01*
G01*
G37*
G36*
G01*
X41115000Y37890000D02*
X41115000Y38210000D01*
G75*
G02*
X41250000Y38345000I135000J0D01*
G01*
X41520000Y38345000D01*
G75*
G02*
X41655000Y38210000I0J-135000D01*
G01*
X41655000Y37890000D01*
G75*
G02*
X41520000Y37755000I-135000J0D01*
G01*
X41250000Y37755000D01*
G75*
G02*
X41115000Y37890000I0J135000D01*
G01*
G37*
G36*
G01*
X34300000Y42468750D02*
X34300000Y42931250D01*
G75*
G02*
X34493750Y43125000I193750J0D01*
G01*
X34881250Y43125000D01*
G75*
G02*
X35075000Y42931250I0J-193750D01*
G01*
X35075000Y42468750D01*
G75*
G02*
X34881250Y42275000I-193750J0D01*
G01*
X34493750Y42275000D01*
G75*
G02*
X34300000Y42468750I0J193750D01*
G01*
G37*
G36*
G01*
X32725000Y42468750D02*
X32725000Y42931250D01*
G75*
G02*
X32918750Y43125000I193750J0D01*
G01*
X33306250Y43125000D01*
G75*
G02*
X33500000Y42931250I0J-193750D01*
G01*
X33500000Y42468750D01*
G75*
G02*
X33306250Y42275000I-193750J0D01*
G01*
X32918750Y42275000D01*
G75*
G02*
X32725000Y42468750I0J193750D01*
G01*
G37*
G36*
G01*
X32255000Y48560000D02*
X32255000Y48240000D01*
G75*
G02*
X32120000Y48105000I-135000J0D01*
G01*
X31850000Y48105000D01*
G75*
G02*
X31715000Y48240000I0J135000D01*
G01*
X31715000Y48560000D01*
G75*
G02*
X31850000Y48695000I135000J0D01*
G01*
X32120000Y48695000D01*
G75*
G02*
X32255000Y48560000I0J-135000D01*
G01*
G37*
G36*
G01*
X31285000Y48560000D02*
X31285000Y48240000D01*
G75*
G02*
X31150000Y48105000I-135000J0D01*
G01*
X30880000Y48105000D01*
G75*
G02*
X30745000Y48240000I0J135000D01*
G01*
X30745000Y48560000D01*
G75*
G02*
X30880000Y48695000I135000J0D01*
G01*
X31150000Y48695000D01*
G75*
G02*
X31285000Y48560000I0J-135000D01*
G01*
G37*
D15*
X115700000Y22000000D03*
X115700000Y17000000D03*
D23*
X107000000Y22360000D03*
D24*
X107000000Y24900000D03*
D23*
X107000000Y19820000D03*
X96840000Y22360000D03*
D24*
X96840000Y24900000D03*
D23*
X96840000Y19820000D03*
D14*
X94200000Y2000000D03*
G36*
G01*
X99250000Y2275000D02*
X99250000Y1725000D01*
G75*
G02*
X98975000Y1450000I-275000J0D01*
G01*
X98425000Y1450000D01*
G75*
G02*
X98150000Y1725000I0J275000D01*
G01*
X98150000Y2275000D01*
G75*
G02*
X98425000Y2550000I275000J0D01*
G01*
X98975000Y2550000D01*
G75*
G02*
X99250000Y2275000I0J-275000D01*
G01*
G37*
X97200000Y2000000D03*
X95700000Y2000000D03*
X83000000Y1500000D03*
X83000000Y3000000D03*
X83000000Y4500000D03*
G36*
G01*
X82725000Y9550000D02*
X83275000Y9550000D01*
G75*
G02*
X83550000Y9275000I0J-275000D01*
G01*
X83550000Y8725000D01*
G75*
G02*
X83275000Y8450000I-275000J0D01*
G01*
X82725000Y8450000D01*
G75*
G02*
X82450000Y8725000I0J275000D01*
G01*
X82450000Y9275000D01*
G75*
G02*
X82725000Y9550000I275000J0D01*
G01*
G37*
X83000000Y7500000D03*
X83000000Y6000000D03*
X83000000Y24800000D03*
X83000000Y23300000D03*
X83000000Y26300000D03*
X83000000Y27800000D03*
X83000000Y29300000D03*
G36*
G01*
X82725000Y34350000D02*
X83275000Y34350000D01*
G75*
G02*
X83550000Y34075000I0J-275000D01*
G01*
X83550000Y33525000D01*
G75*
G02*
X83275000Y33250000I-275000J0D01*
G01*
X82725000Y33250000D01*
G75*
G02*
X82450000Y33525000I0J275000D01*
G01*
X82450000Y34075000D01*
G75*
G02*
X82725000Y34350000I275000J0D01*
G01*
G37*
X83000000Y32300000D03*
X83000000Y30800000D03*
X83000000Y44900000D03*
G36*
G01*
X82725000Y49950000D02*
X83275000Y49950000D01*
G75*
G02*
X83550000Y49675000I0J-275000D01*
G01*
X83550000Y49125000D01*
G75*
G02*
X83275000Y48850000I-275000J0D01*
G01*
X82725000Y48850000D01*
G75*
G02*
X82450000Y49125000I0J275000D01*
G01*
X82450000Y49675000D01*
G75*
G02*
X82725000Y49950000I275000J0D01*
G01*
G37*
X83000000Y47900000D03*
X83000000Y46400000D03*
X83000000Y37100000D03*
G36*
G01*
X82725000Y42150000D02*
X83275000Y42150000D01*
G75*
G02*
X83550000Y41875000I0J-275000D01*
G01*
X83550000Y41325000D01*
G75*
G02*
X83275000Y41050000I-275000J0D01*
G01*
X82725000Y41050000D01*
G75*
G02*
X82450000Y41325000I0J275000D01*
G01*
X82450000Y41875000D01*
G75*
G02*
X82725000Y42150000I275000J0D01*
G01*
G37*
X83000000Y40100000D03*
X83000000Y38600000D03*
X83000000Y12500000D03*
X83000000Y14000000D03*
X83000000Y15500000D03*
G36*
G01*
X82725000Y20550000D02*
X83275000Y20550000D01*
G75*
G02*
X83550000Y20275000I0J-275000D01*
G01*
X83550000Y19725000D01*
G75*
G02*
X83275000Y19450000I-275000J0D01*
G01*
X82725000Y19450000D01*
G75*
G02*
X82450000Y19725000I0J275000D01*
G01*
X82450000Y20275000D01*
G75*
G02*
X82725000Y20550000I275000J0D01*
G01*
G37*
X83000000Y18500000D03*
X83000000Y17000000D03*
G36*
G01*
X33425000Y4550000D02*
X32775000Y4550000D01*
G75*
G02*
X32450000Y4875000I0J325000D01*
G01*
X32450000Y5525000D01*
G75*
G02*
X32775000Y5850000I325000J0D01*
G01*
X33425000Y5850000D01*
G75*
G02*
X33750000Y5525000I0J-325000D01*
G01*
X33750000Y4875000D01*
G75*
G02*
X33425000Y4550000I-325000J0D01*
G01*
G37*
D15*
X40100000Y5200000D03*
X33100000Y13200000D03*
X40100000Y13200000D03*
G36*
G01*
X23487500Y33150000D02*
X23862500Y33150000D01*
G75*
G02*
X24050000Y32962500I0J-187500D01*
G01*
X24050000Y32237500D01*
G75*
G02*
X23862500Y32050000I-187500J0D01*
G01*
X23487500Y32050000D01*
G75*
G02*
X23300000Y32237500I0J187500D01*
G01*
X23300000Y32962500D01*
G75*
G02*
X23487500Y33150000I187500J0D01*
G01*
G37*
G36*
G01*
X26912500Y32050000D02*
X26537500Y32050000D01*
G75*
G02*
X26350000Y32237500I0J187500D01*
G01*
X26350000Y32962500D01*
G75*
G02*
X26537500Y33150000I187500J0D01*
G01*
X26912500Y33150000D01*
G75*
G02*
X27100000Y32962500I0J-187500D01*
G01*
X27100000Y32237500D01*
G75*
G02*
X26912500Y32050000I-187500J0D01*
G01*
G37*
G36*
G01*
X107440000Y40185000D02*
X107120000Y40185000D01*
G75*
G02*
X106985000Y40320000I0J135000D01*
G01*
X106985000Y40590000D01*
G75*
G02*
X107120000Y40725000I135000J0D01*
G01*
X107440000Y40725000D01*
G75*
G02*
X107575000Y40590000I0J-135000D01*
G01*
X107575000Y40320000D01*
G75*
G02*
X107440000Y40185000I-135000J0D01*
G01*
G37*
G36*
G01*
X107440000Y41155000D02*
X107120000Y41155000D01*
G75*
G02*
X106985000Y41290000I0J135000D01*
G01*
X106985000Y41560000D01*
G75*
G02*
X107120000Y41695000I135000J0D01*
G01*
X107440000Y41695000D01*
G75*
G02*
X107575000Y41560000I0J-135000D01*
G01*
X107575000Y41290000D01*
G75*
G02*
X107440000Y41155000I-135000J0D01*
G01*
G37*
G36*
G01*
X101260000Y45485000D02*
X101580000Y45485000D01*
G75*
G02*
X101715000Y45350000I0J-135000D01*
G01*
X101715000Y45080000D01*
G75*
G02*
X101580000Y44945000I-135000J0D01*
G01*
X101260000Y44945000D01*
G75*
G02*
X101125000Y45080000I0J135000D01*
G01*
X101125000Y45350000D01*
G75*
G02*
X101260000Y45485000I135000J0D01*
G01*
G37*
G36*
G01*
X101260000Y44515000D02*
X101580000Y44515000D01*
G75*
G02*
X101715000Y44380000I0J-135000D01*
G01*
X101715000Y44110000D01*
G75*
G02*
X101580000Y43975000I-135000J0D01*
G01*
X101260000Y43975000D01*
G75*
G02*
X101125000Y44110000I0J135000D01*
G01*
X101125000Y44380000D01*
G75*
G02*
X101260000Y44515000I135000J0D01*
G01*
G37*
G36*
G01*
X102835000Y38770000D02*
X102515000Y38770000D01*
G75*
G02*
X102380000Y38905000I0J135000D01*
G01*
X102380000Y39175000D01*
G75*
G02*
X102515000Y39310000I135000J0D01*
G01*
X102835000Y39310000D01*
G75*
G02*
X102970000Y39175000I0J-135000D01*
G01*
X102970000Y38905000D01*
G75*
G02*
X102835000Y38770000I-135000J0D01*
G01*
G37*
G36*
G01*
X102835000Y39740000D02*
X102515000Y39740000D01*
G75*
G02*
X102380000Y39875000I0J135000D01*
G01*
X102380000Y40145000D01*
G75*
G02*
X102515000Y40280000I135000J0D01*
G01*
X102835000Y40280000D01*
G75*
G02*
X102970000Y40145000I0J-135000D01*
G01*
X102970000Y39875000D01*
G75*
G02*
X102835000Y39740000I-135000J0D01*
G01*
G37*
G36*
G01*
X104580000Y43975000D02*
X104260000Y43975000D01*
G75*
G02*
X104125000Y44110000I0J135000D01*
G01*
X104125000Y44380000D01*
G75*
G02*
X104260000Y44515000I135000J0D01*
G01*
X104580000Y44515000D01*
G75*
G02*
X104715000Y44380000I0J-135000D01*
G01*
X104715000Y44110000D01*
G75*
G02*
X104580000Y43975000I-135000J0D01*
G01*
G37*
G36*
G01*
X104580000Y44945000D02*
X104260000Y44945000D01*
G75*
G02*
X104125000Y45080000I0J135000D01*
G01*
X104125000Y45350000D01*
G75*
G02*
X104260000Y45485000I135000J0D01*
G01*
X104580000Y45485000D01*
G75*
G02*
X104715000Y45350000I0J-135000D01*
G01*
X104715000Y45080000D01*
G75*
G02*
X104580000Y44945000I-135000J0D01*
G01*
G37*
G36*
G01*
X107440000Y36785000D02*
X107120000Y36785000D01*
G75*
G02*
X106985000Y36920000I0J135000D01*
G01*
X106985000Y37190000D01*
G75*
G02*
X107120000Y37325000I135000J0D01*
G01*
X107440000Y37325000D01*
G75*
G02*
X107575000Y37190000I0J-135000D01*
G01*
X107575000Y36920000D01*
G75*
G02*
X107440000Y36785000I-135000J0D01*
G01*
G37*
G36*
G01*
X107440000Y37755000D02*
X107120000Y37755000D01*
G75*
G02*
X106985000Y37890000I0J135000D01*
G01*
X106985000Y38160000D01*
G75*
G02*
X107120000Y38295000I135000J0D01*
G01*
X107440000Y38295000D01*
G75*
G02*
X107575000Y38160000I0J-135000D01*
G01*
X107575000Y37890000D01*
G75*
G02*
X107440000Y37755000I-135000J0D01*
G01*
G37*
G36*
G01*
X103340000Y34585000D02*
X103020000Y34585000D01*
G75*
G02*
X102885000Y34720000I0J135000D01*
G01*
X102885000Y34990000D01*
G75*
G02*
X103020000Y35125000I135000J0D01*
G01*
X103340000Y35125000D01*
G75*
G02*
X103475000Y34990000I0J-135000D01*
G01*
X103475000Y34720000D01*
G75*
G02*
X103340000Y34585000I-135000J0D01*
G01*
G37*
G36*
G01*
X103340000Y35555000D02*
X103020000Y35555000D01*
G75*
G02*
X102885000Y35690000I0J135000D01*
G01*
X102885000Y35960000D01*
G75*
G02*
X103020000Y36095000I135000J0D01*
G01*
X103340000Y36095000D01*
G75*
G02*
X103475000Y35960000I0J-135000D01*
G01*
X103475000Y35690000D01*
G75*
G02*
X103340000Y35555000I-135000J0D01*
G01*
G37*
G36*
G01*
X106020000Y36095000D02*
X106340000Y36095000D01*
G75*
G02*
X106475000Y35960000I0J-135000D01*
G01*
X106475000Y35690000D01*
G75*
G02*
X106340000Y35555000I-135000J0D01*
G01*
X106020000Y35555000D01*
G75*
G02*
X105885000Y35690000I0J135000D01*
G01*
X105885000Y35960000D01*
G75*
G02*
X106020000Y36095000I135000J0D01*
G01*
G37*
G36*
G01*
X106020000Y35125000D02*
X106340000Y35125000D01*
G75*
G02*
X106475000Y34990000I0J-135000D01*
G01*
X106475000Y34720000D01*
G75*
G02*
X106340000Y34585000I-135000J0D01*
G01*
X106020000Y34585000D01*
G75*
G02*
X105885000Y34720000I0J135000D01*
G01*
X105885000Y34990000D01*
G75*
G02*
X106020000Y35125000I135000J0D01*
G01*
G37*
G36*
G01*
X101020000Y39900000D02*
X100700000Y39900000D01*
G75*
G02*
X100565000Y40035000I0J135000D01*
G01*
X100565000Y40305000D01*
G75*
G02*
X100700000Y40440000I135000J0D01*
G01*
X101020000Y40440000D01*
G75*
G02*
X101155000Y40305000I0J-135000D01*
G01*
X101155000Y40035000D01*
G75*
G02*
X101020000Y39900000I-135000J0D01*
G01*
G37*
G36*
G01*
X101020000Y40870000D02*
X100700000Y40870000D01*
G75*
G02*
X100565000Y41005000I0J135000D01*
G01*
X100565000Y41275000D01*
G75*
G02*
X100700000Y41410000I135000J0D01*
G01*
X101020000Y41410000D01*
G75*
G02*
X101155000Y41275000I0J-135000D01*
G01*
X101155000Y41005000D01*
G75*
G02*
X101020000Y40870000I-135000J0D01*
G01*
G37*
G36*
G01*
X94645000Y45445000D02*
X94965000Y45445000D01*
G75*
G02*
X95100000Y45310000I0J-135000D01*
G01*
X95100000Y45040000D01*
G75*
G02*
X94965000Y44905000I-135000J0D01*
G01*
X94645000Y44905000D01*
G75*
G02*
X94510000Y45040000I0J135000D01*
G01*
X94510000Y45310000D01*
G75*
G02*
X94645000Y45445000I135000J0D01*
G01*
G37*
G36*
G01*
X94645000Y44475000D02*
X94965000Y44475000D01*
G75*
G02*
X95100000Y44340000I0J-135000D01*
G01*
X95100000Y44070000D01*
G75*
G02*
X94965000Y43935000I-135000J0D01*
G01*
X94645000Y43935000D01*
G75*
G02*
X94510000Y44070000I0J135000D01*
G01*
X94510000Y44340000D01*
G75*
G02*
X94645000Y44475000I135000J0D01*
G01*
G37*
G36*
G01*
X96210000Y39170000D02*
X95890000Y39170000D01*
G75*
G02*
X95755000Y39305000I0J135000D01*
G01*
X95755000Y39575000D01*
G75*
G02*
X95890000Y39710000I135000J0D01*
G01*
X96210000Y39710000D01*
G75*
G02*
X96345000Y39575000I0J-135000D01*
G01*
X96345000Y39305000D01*
G75*
G02*
X96210000Y39170000I-135000J0D01*
G01*
G37*
G36*
G01*
X96210000Y40140000D02*
X95890000Y40140000D01*
G75*
G02*
X95755000Y40275000I0J135000D01*
G01*
X95755000Y40545000D01*
G75*
G02*
X95890000Y40680000I135000J0D01*
G01*
X96210000Y40680000D01*
G75*
G02*
X96345000Y40545000I0J-135000D01*
G01*
X96345000Y40275000D01*
G75*
G02*
X96210000Y40140000I-135000J0D01*
G01*
G37*
G36*
G01*
X97965000Y43935000D02*
X97645000Y43935000D01*
G75*
G02*
X97510000Y44070000I0J135000D01*
G01*
X97510000Y44340000D01*
G75*
G02*
X97645000Y44475000I135000J0D01*
G01*
X97965000Y44475000D01*
G75*
G02*
X98100000Y44340000I0J-135000D01*
G01*
X98100000Y44070000D01*
G75*
G02*
X97965000Y43935000I-135000J0D01*
G01*
G37*
G36*
G01*
X97965000Y44905000D02*
X97645000Y44905000D01*
G75*
G02*
X97510000Y45040000I0J135000D01*
G01*
X97510000Y45310000D01*
G75*
G02*
X97645000Y45445000I135000J0D01*
G01*
X97965000Y45445000D01*
G75*
G02*
X98100000Y45310000I0J-135000D01*
G01*
X98100000Y45040000D01*
G75*
G02*
X97965000Y44905000I-135000J0D01*
G01*
G37*
G36*
G01*
X100865000Y36935000D02*
X100545000Y36935000D01*
G75*
G02*
X100410000Y37070000I0J135000D01*
G01*
X100410000Y37340000D01*
G75*
G02*
X100545000Y37475000I135000J0D01*
G01*
X100865000Y37475000D01*
G75*
G02*
X101000000Y37340000I0J-135000D01*
G01*
X101000000Y37070000D01*
G75*
G02*
X100865000Y36935000I-135000J0D01*
G01*
G37*
G36*
G01*
X100865000Y37905000D02*
X100545000Y37905000D01*
G75*
G02*
X100410000Y38040000I0J135000D01*
G01*
X100410000Y38310000D01*
G75*
G02*
X100545000Y38445000I135000J0D01*
G01*
X100865000Y38445000D01*
G75*
G02*
X101000000Y38310000I0J-135000D01*
G01*
X101000000Y38040000D01*
G75*
G02*
X100865000Y37905000I-135000J0D01*
G01*
G37*
G36*
G01*
X96765000Y34535000D02*
X96445000Y34535000D01*
G75*
G02*
X96310000Y34670000I0J135000D01*
G01*
X96310000Y34940000D01*
G75*
G02*
X96445000Y35075000I135000J0D01*
G01*
X96765000Y35075000D01*
G75*
G02*
X96900000Y34940000I0J-135000D01*
G01*
X96900000Y34670000D01*
G75*
G02*
X96765000Y34535000I-135000J0D01*
G01*
G37*
G36*
G01*
X96765000Y35505000D02*
X96445000Y35505000D01*
G75*
G02*
X96310000Y35640000I0J135000D01*
G01*
X96310000Y35910000D01*
G75*
G02*
X96445000Y36045000I135000J0D01*
G01*
X96765000Y36045000D01*
G75*
G02*
X96900000Y35910000I0J-135000D01*
G01*
X96900000Y35640000D01*
G75*
G02*
X96765000Y35505000I-135000J0D01*
G01*
G37*
G36*
G01*
X99545000Y36060000D02*
X99865000Y36060000D01*
G75*
G02*
X100000000Y35925000I0J-135000D01*
G01*
X100000000Y35655000D01*
G75*
G02*
X99865000Y35520000I-135000J0D01*
G01*
X99545000Y35520000D01*
G75*
G02*
X99410000Y35655000I0J135000D01*
G01*
X99410000Y35925000D01*
G75*
G02*
X99545000Y36060000I135000J0D01*
G01*
G37*
G36*
G01*
X99545000Y35090000D02*
X99865000Y35090000D01*
G75*
G02*
X100000000Y34955000I0J-135000D01*
G01*
X100000000Y34685000D01*
G75*
G02*
X99865000Y34550000I-135000J0D01*
G01*
X99545000Y34550000D01*
G75*
G02*
X99410000Y34685000I0J135000D01*
G01*
X99410000Y34955000D01*
G75*
G02*
X99545000Y35090000I135000J0D01*
G01*
G37*
G36*
G01*
X116668750Y28200000D02*
X117131250Y28200000D01*
G75*
G02*
X117325000Y28006250I0J-193750D01*
G01*
X117325000Y27618750D01*
G75*
G02*
X117131250Y27425000I-193750J0D01*
G01*
X116668750Y27425000D01*
G75*
G02*
X116475000Y27618750I0J193750D01*
G01*
X116475000Y28006250D01*
G75*
G02*
X116668750Y28200000I193750J0D01*
G01*
G37*
G36*
G01*
X116668750Y29775000D02*
X117131250Y29775000D01*
G75*
G02*
X117325000Y29581250I0J-193750D01*
G01*
X117325000Y29193750D01*
G75*
G02*
X117131250Y29000000I-193750J0D01*
G01*
X116668750Y29000000D01*
G75*
G02*
X116475000Y29193750I0J193750D01*
G01*
X116475000Y29581250D01*
G75*
G02*
X116668750Y29775000I193750J0D01*
G01*
G37*
G36*
G01*
X114960000Y44745000D02*
X114640000Y44745000D01*
G75*
G02*
X114505000Y44880000I0J135000D01*
G01*
X114505000Y45150000D01*
G75*
G02*
X114640000Y45285000I135000J0D01*
G01*
X114960000Y45285000D01*
G75*
G02*
X115095000Y45150000I0J-135000D01*
G01*
X115095000Y44880000D01*
G75*
G02*
X114960000Y44745000I-135000J0D01*
G01*
G37*
G36*
G01*
X114960000Y45715000D02*
X114640000Y45715000D01*
G75*
G02*
X114505000Y45850000I0J135000D01*
G01*
X114505000Y46120000D01*
G75*
G02*
X114640000Y46255000I135000J0D01*
G01*
X114960000Y46255000D01*
G75*
G02*
X115095000Y46120000I0J-135000D01*
G01*
X115095000Y45850000D01*
G75*
G02*
X114960000Y45715000I-135000J0D01*
G01*
G37*
G36*
G01*
X46431250Y35650000D02*
X45968750Y35650000D01*
G75*
G02*
X45775000Y35843750I0J193750D01*
G01*
X45775000Y36231250D01*
G75*
G02*
X45968750Y36425000I193750J0D01*
G01*
X46431250Y36425000D01*
G75*
G02*
X46625000Y36231250I0J-193750D01*
G01*
X46625000Y35843750D01*
G75*
G02*
X46431250Y35650000I-193750J0D01*
G01*
G37*
G36*
G01*
X46431250Y34075000D02*
X45968750Y34075000D01*
G75*
G02*
X45775000Y34268750I0J193750D01*
G01*
X45775000Y34656250D01*
G75*
G02*
X45968750Y34850000I193750J0D01*
G01*
X46431250Y34850000D01*
G75*
G02*
X46625000Y34656250I0J-193750D01*
G01*
X46625000Y34268750D01*
G75*
G02*
X46431250Y34075000I-193750J0D01*
G01*
G37*
G36*
G01*
X44860000Y34495000D02*
X44540000Y34495000D01*
G75*
G02*
X44405000Y34630000I0J135000D01*
G01*
X44405000Y34900000D01*
G75*
G02*
X44540000Y35035000I135000J0D01*
G01*
X44860000Y35035000D01*
G75*
G02*
X44995000Y34900000I0J-135000D01*
G01*
X44995000Y34630000D01*
G75*
G02*
X44860000Y34495000I-135000J0D01*
G01*
G37*
G36*
G01*
X44860000Y35465000D02*
X44540000Y35465000D01*
G75*
G02*
X44405000Y35600000I0J135000D01*
G01*
X44405000Y35870000D01*
G75*
G02*
X44540000Y36005000I135000J0D01*
G01*
X44860000Y36005000D01*
G75*
G02*
X44995000Y35870000I0J-135000D01*
G01*
X44995000Y35600000D01*
G75*
G02*
X44860000Y35465000I-135000J0D01*
G01*
G37*
G36*
G01*
X28755000Y34910000D02*
X28755000Y34590000D01*
G75*
G02*
X28620000Y34455000I-135000J0D01*
G01*
X28350000Y34455000D01*
G75*
G02*
X28215000Y34590000I0J135000D01*
G01*
X28215000Y34910000D01*
G75*
G02*
X28350000Y35045000I135000J0D01*
G01*
X28620000Y35045000D01*
G75*
G02*
X28755000Y34910000I0J-135000D01*
G01*
G37*
G36*
G01*
X27785000Y34910000D02*
X27785000Y34590000D01*
G75*
G02*
X27650000Y34455000I-135000J0D01*
G01*
X27380000Y34455000D01*
G75*
G02*
X27245000Y34590000I0J135000D01*
G01*
X27245000Y34910000D01*
G75*
G02*
X27380000Y35045000I135000J0D01*
G01*
X27650000Y35045000D01*
G75*
G02*
X27785000Y34910000I0J-135000D01*
G01*
G37*
G36*
G01*
X28755000Y40160000D02*
X28755000Y39840000D01*
G75*
G02*
X28620000Y39705000I-135000J0D01*
G01*
X28350000Y39705000D01*
G75*
G02*
X28215000Y39840000I0J135000D01*
G01*
X28215000Y40160000D01*
G75*
G02*
X28350000Y40295000I135000J0D01*
G01*
X28620000Y40295000D01*
G75*
G02*
X28755000Y40160000I0J-135000D01*
G01*
G37*
G36*
G01*
X27785000Y40160000D02*
X27785000Y39840000D01*
G75*
G02*
X27650000Y39705000I-135000J0D01*
G01*
X27380000Y39705000D01*
G75*
G02*
X27245000Y39840000I0J135000D01*
G01*
X27245000Y40160000D01*
G75*
G02*
X27380000Y40295000I135000J0D01*
G01*
X27650000Y40295000D01*
G75*
G02*
X27785000Y40160000I0J-135000D01*
G01*
G37*
G36*
G01*
X50955000Y30810000D02*
X50955000Y30490000D01*
G75*
G02*
X50820000Y30355000I-135000J0D01*
G01*
X50550000Y30355000D01*
G75*
G02*
X50415000Y30490000I0J135000D01*
G01*
X50415000Y30810000D01*
G75*
G02*
X50550000Y30945000I135000J0D01*
G01*
X50820000Y30945000D01*
G75*
G02*
X50955000Y30810000I0J-135000D01*
G01*
G37*
G36*
G01*
X49985000Y30810000D02*
X49985000Y30490000D01*
G75*
G02*
X49850000Y30355000I-135000J0D01*
G01*
X49580000Y30355000D01*
G75*
G02*
X49445000Y30490000I0J135000D01*
G01*
X49445000Y30810000D01*
G75*
G02*
X49580000Y30945000I135000J0D01*
G01*
X49850000Y30945000D01*
G75*
G02*
X49985000Y30810000I0J-135000D01*
G01*
G37*
G36*
G01*
X51375000Y32781250D02*
X51375000Y31918750D01*
G75*
G02*
X51156250Y31700000I-218750J0D01*
G01*
X50718750Y31700000D01*
G75*
G02*
X50500000Y31918750I0J218750D01*
G01*
X50500000Y32781250D01*
G75*
G02*
X50718750Y33000000I218750J0D01*
G01*
X51156250Y33000000D01*
G75*
G02*
X51375000Y32781250I0J-218750D01*
G01*
G37*
G36*
G01*
X49500000Y32781250D02*
X49500000Y31918750D01*
G75*
G02*
X49281250Y31700000I-218750J0D01*
G01*
X48843750Y31700000D01*
G75*
G02*
X48625000Y31918750I0J218750D01*
G01*
X48625000Y32781250D01*
G75*
G02*
X48843750Y33000000I218750J0D01*
G01*
X49281250Y33000000D01*
G75*
G02*
X49500000Y32781250I0J-218750D01*
G01*
G37*
D16*
X46200000Y17000000D03*
X46200000Y2000000D03*
X26900000Y16900000D03*
X26900000Y1900000D03*
G36*
G01*
X42855000Y33310000D02*
X42855000Y32990000D01*
G75*
G02*
X42720000Y32855000I-135000J0D01*
G01*
X42450000Y32855000D01*
G75*
G02*
X42315000Y32990000I0J135000D01*
G01*
X42315000Y33310000D01*
G75*
G02*
X42450000Y33445000I135000J0D01*
G01*
X42720000Y33445000D01*
G75*
G02*
X42855000Y33310000I0J-135000D01*
G01*
G37*
G36*
G01*
X41885000Y33310000D02*
X41885000Y32990000D01*
G75*
G02*
X41750000Y32855000I-135000J0D01*
G01*
X41480000Y32855000D01*
G75*
G02*
X41345000Y32990000I0J135000D01*
G01*
X41345000Y33310000D01*
G75*
G02*
X41480000Y33445000I135000J0D01*
G01*
X41750000Y33445000D01*
G75*
G02*
X41885000Y33310000I0J-135000D01*
G01*
G37*
G36*
G01*
X43655000Y38210000D02*
X43655000Y37890000D01*
G75*
G02*
X43520000Y37755000I-135000J0D01*
G01*
X43250000Y37755000D01*
G75*
G02*
X43115000Y37890000I0J135000D01*
G01*
X43115000Y38210000D01*
G75*
G02*
X43250000Y38345000I135000J0D01*
G01*
X43520000Y38345000D01*
G75*
G02*
X43655000Y38210000I0J-135000D01*
G01*
G37*
G36*
G01*
X42685000Y38210000D02*
X42685000Y37890000D01*
G75*
G02*
X42550000Y37755000I-135000J0D01*
G01*
X42280000Y37755000D01*
G75*
G02*
X42145000Y37890000I0J135000D01*
G01*
X42145000Y38210000D01*
G75*
G02*
X42280000Y38345000I135000J0D01*
G01*
X42550000Y38345000D01*
G75*
G02*
X42685000Y38210000I0J-135000D01*
G01*
G37*
G36*
G01*
X30000000Y32368750D02*
X30000000Y32831250D01*
G75*
G02*
X30193750Y33025000I193750J0D01*
G01*
X30581250Y33025000D01*
G75*
G02*
X30775000Y32831250I0J-193750D01*
G01*
X30775000Y32368750D01*
G75*
G02*
X30581250Y32175000I-193750J0D01*
G01*
X30193750Y32175000D01*
G75*
G02*
X30000000Y32368750I0J193750D01*
G01*
G37*
G36*
G01*
X28425000Y32368750D02*
X28425000Y32831250D01*
G75*
G02*
X28618750Y33025000I193750J0D01*
G01*
X29006250Y33025000D01*
G75*
G02*
X29200000Y32831250I0J-193750D01*
G01*
X29200000Y32368750D01*
G75*
G02*
X29006250Y32175000I-193750J0D01*
G01*
X28618750Y32175000D01*
G75*
G02*
X28425000Y32368750I0J193750D01*
G01*
G37*
G36*
G01*
X39600000Y45768750D02*
X39600000Y46231250D01*
G75*
G02*
X39793750Y46425000I193750J0D01*
G01*
X40181250Y46425000D01*
G75*
G02*
X40375000Y46231250I0J-193750D01*
G01*
X40375000Y45768750D01*
G75*
G02*
X40181250Y45575000I-193750J0D01*
G01*
X39793750Y45575000D01*
G75*
G02*
X39600000Y45768750I0J193750D01*
G01*
G37*
G36*
G01*
X38025000Y45768750D02*
X38025000Y46231250D01*
G75*
G02*
X38218750Y46425000I193750J0D01*
G01*
X38606250Y46425000D01*
G75*
G02*
X38800000Y46231250I0J-193750D01*
G01*
X38800000Y45768750D01*
G75*
G02*
X38606250Y45575000I-193750J0D01*
G01*
X38218750Y45575000D01*
G75*
G02*
X38025000Y45768750I0J193750D01*
G01*
G37*
G36*
G01*
X42200000Y46231250D02*
X42200000Y45768750D01*
G75*
G02*
X42006250Y45575000I-193750J0D01*
G01*
X41618750Y45575000D01*
G75*
G02*
X41425000Y45768750I0J193750D01*
G01*
X41425000Y46231250D01*
G75*
G02*
X41618750Y46425000I193750J0D01*
G01*
X42006250Y46425000D01*
G75*
G02*
X42200000Y46231250I0J-193750D01*
G01*
G37*
G36*
G01*
X43775000Y46231250D02*
X43775000Y45768750D01*
G75*
G02*
X43581250Y45575000I-193750J0D01*
G01*
X43193750Y45575000D01*
G75*
G02*
X43000000Y45768750I0J193750D01*
G01*
X43000000Y46231250D01*
G75*
G02*
X43193750Y46425000I193750J0D01*
G01*
X43581250Y46425000D01*
G75*
G02*
X43775000Y46231250I0J-193750D01*
G01*
G37*
M02*
