G04 #@! TF.GenerationSoftware,KiCad,Pcbnew,(5.1.6)-1*
G04 #@! TF.CreationDate,2020-08-17T10:20:03+09:00*
G04 #@! TF.ProjectId,spot,73706f74-2e6b-4696-9361-645f70636258,rev?*
G04 #@! TF.SameCoordinates,PX1312d00PYb532b80*
G04 #@! TF.FileFunction,Legend,Top*
G04 #@! TF.FilePolarity,Positive*
%FSLAX46Y46*%
G04 Gerber Fmt 4.6, Leading zero omitted, Abs format (unit mm)*
G04 Created by KiCad (PCBNEW (5.1.6)-1) date 2020-08-17 10:20:03*
%MOMM*%
%LPD*%
G01*
G04 APERTURE LIST*
%ADD10C,0.160000*%
%ADD11C,0.100000*%
%ADD12C,0.150000*%
%ADD13C,0.120000*%
%ADD14C,0.180000*%
%ADD15C,0.200000*%
%ADD16C,0.500000*%
%ADD17C,3.800000*%
%ADD18C,0.700000*%
%ADD19C,1.100000*%
%ADD20C,1.300000*%
%ADD21C,1.800000*%
%ADD22C,3.000000*%
%ADD23C,1.900000*%
%ADD24C,1.050000*%
%ADD25C,0.550000*%
%ADD26O,1.500000X1.500000*%
%ADD27R,1.500000X1.500000*%
G04 APERTURE END LIST*
D10*
X2119047Y41397620D02*
X1642857Y41397620D01*
X1642857Y42397620D01*
X2595238Y41397620D02*
X2500000Y41445239D01*
X2452380Y41492858D01*
X2404761Y41588096D01*
X2404761Y41873810D01*
X2452380Y41969048D01*
X2500000Y42016667D01*
X2595238Y42064286D01*
X2738095Y42064286D01*
X2833333Y42016667D01*
X2880952Y41969048D01*
X2928571Y41873810D01*
X2928571Y41588096D01*
X2880952Y41492858D01*
X2833333Y41445239D01*
X2738095Y41397620D01*
X2595238Y41397620D01*
X3785714Y42064286D02*
X3785714Y41397620D01*
X3357142Y42064286D02*
X3357142Y41540477D01*
X3404761Y41445239D01*
X3500000Y41397620D01*
X3642857Y41397620D01*
X3738095Y41445239D01*
X3785714Y41492858D01*
X4119047Y42064286D02*
X4500000Y42064286D01*
X4261904Y42397620D02*
X4261904Y41540477D01*
X4309523Y41445239D01*
X4404761Y41397620D01*
X4500000Y41397620D01*
X1523809Y33497620D02*
X1523809Y34497620D01*
X2095238Y33497620D01*
X2095238Y34497620D01*
X2714285Y33497620D02*
X2619047Y33545239D01*
X2571428Y33592858D01*
X2523809Y33688096D01*
X2523809Y33973810D01*
X2571428Y34069048D01*
X2619047Y34116667D01*
X2714285Y34164286D01*
X2857142Y34164286D01*
X2952380Y34116667D01*
X3000000Y34069048D01*
X3047619Y33973810D01*
X3047619Y33688096D01*
X3000000Y33592858D01*
X2952380Y33545239D01*
X2857142Y33497620D01*
X2714285Y33497620D01*
X3904761Y34164286D02*
X3904761Y33497620D01*
X3476190Y34164286D02*
X3476190Y33640477D01*
X3523809Y33545239D01*
X3619047Y33497620D01*
X3761904Y33497620D01*
X3857142Y33545239D01*
X3904761Y33592858D01*
X4238095Y34164286D02*
X4619047Y34164286D01*
X4380952Y34497620D02*
X4380952Y33640477D01*
X4428571Y33545239D01*
X4523809Y33497620D01*
X4619047Y33497620D01*
X2569047Y23547620D02*
X2092857Y23547620D01*
X2092857Y24547620D01*
X2902380Y23547620D02*
X2902380Y24214286D01*
X2902380Y24547620D02*
X2854761Y24500000D01*
X2902380Y24452381D01*
X2950000Y24500000D01*
X2902380Y24547620D01*
X2902380Y24452381D01*
X3378571Y24214286D02*
X3378571Y23547620D01*
X3378571Y24119048D02*
X3426190Y24166667D01*
X3521428Y24214286D01*
X3664285Y24214286D01*
X3759523Y24166667D01*
X3807142Y24071429D01*
X3807142Y23547620D01*
X2023809Y14497620D02*
X2023809Y15497620D01*
X2595238Y14497620D01*
X2595238Y15497620D01*
X3071428Y14497620D02*
X3071428Y15164286D01*
X3071428Y15497620D02*
X3023809Y15450000D01*
X3071428Y15402381D01*
X3119047Y15450000D01*
X3071428Y15497620D01*
X3071428Y15402381D01*
X3547619Y15164286D02*
X3547619Y14497620D01*
X3547619Y15069048D02*
X3595238Y15116667D01*
X3690476Y15164286D01*
X3833333Y15164286D01*
X3928571Y15116667D01*
X3976190Y15021429D01*
X3976190Y14497620D01*
X91688095Y23400000D02*
X91592857Y23438096D01*
X91450000Y23438096D01*
X91307142Y23400000D01*
X91211904Y23323810D01*
X91164285Y23247620D01*
X91116666Y23095239D01*
X91116666Y22980953D01*
X91164285Y22828572D01*
X91211904Y22752381D01*
X91307142Y22676191D01*
X91450000Y22638096D01*
X91545238Y22638096D01*
X91688095Y22676191D01*
X91735714Y22714286D01*
X91735714Y22980953D01*
X91545238Y22980953D01*
X92164285Y22638096D02*
X92164285Y23438096D01*
X92735714Y22638096D01*
X92735714Y23438096D01*
X93211904Y22638096D02*
X93211904Y23438096D01*
X93450000Y23438096D01*
X93592857Y23400000D01*
X93688095Y23323810D01*
X93735714Y23247620D01*
X93783333Y23095239D01*
X93783333Y22980953D01*
X93735714Y22828572D01*
X93688095Y22752381D01*
X93592857Y22676191D01*
X93450000Y22638096D01*
X93211904Y22638096D01*
X113088095Y9200000D02*
X112992857Y9238096D01*
X112850000Y9238096D01*
X112707142Y9200000D01*
X112611904Y9123810D01*
X112564285Y9047620D01*
X112516666Y8895239D01*
X112516666Y8780953D01*
X112564285Y8628572D01*
X112611904Y8552381D01*
X112707142Y8476191D01*
X112850000Y8438096D01*
X112945238Y8438096D01*
X113088095Y8476191D01*
X113135714Y8514286D01*
X113135714Y8780953D01*
X112945238Y8780953D01*
X113564285Y8438096D02*
X113564285Y9238096D01*
X114135714Y8438096D01*
X114135714Y9238096D01*
X114611904Y8438096D02*
X114611904Y9238096D01*
X114850000Y9238096D01*
X114992857Y9200000D01*
X115088095Y9123810D01*
X115135714Y9047620D01*
X115183333Y8895239D01*
X115183333Y8780953D01*
X115135714Y8628572D01*
X115088095Y8552381D01*
X114992857Y8476191D01*
X114850000Y8438096D01*
X114611904Y8438096D01*
D11*
G36*
X50600000Y19000000D02*
G01*
X18600000Y19000000D01*
X18600000Y46000000D01*
X50600000Y46000000D01*
X50600000Y19000000D01*
G37*
X50600000Y19000000D02*
X18600000Y19000000D01*
X18600000Y46000000D01*
X50600000Y46000000D01*
X50600000Y19000000D01*
D10*
X91273809Y26388096D02*
X91273809Y27188096D01*
X91940476Y27188096D02*
X92130952Y27188096D01*
X92226190Y27150000D01*
X92321428Y27073810D01*
X92369047Y26921429D01*
X92369047Y26654762D01*
X92321428Y26502381D01*
X92226190Y26426191D01*
X92130952Y26388096D01*
X91940476Y26388096D01*
X91845238Y26426191D01*
X91750000Y26502381D01*
X91702380Y26654762D01*
X91702380Y26921429D01*
X91750000Y27073810D01*
X91845238Y27150000D01*
X91940476Y27188096D01*
X93321428Y26388096D02*
X92750000Y26388096D01*
X93035714Y26388096D02*
X93035714Y27188096D01*
X92940476Y27073810D01*
X92845238Y26997620D01*
X92750000Y26959524D01*
X93654761Y27188096D02*
X94273809Y27188096D01*
X93940476Y26883334D01*
X94083333Y26883334D01*
X94178571Y26845239D01*
X94226190Y26807143D01*
X94273809Y26730953D01*
X94273809Y26540477D01*
X94226190Y26464286D01*
X94178571Y26426191D01*
X94083333Y26388096D01*
X93797619Y26388096D01*
X93702380Y26426191D01*
X93654761Y26464286D01*
X96650000Y15150000D02*
X96650000Y14850000D01*
X97250000Y11950000D02*
X97250000Y12250000D01*
X99650000Y11950000D02*
X99650000Y12250000D01*
X99650000Y15550000D02*
X99650000Y15250000D01*
X97250000Y15550000D02*
X97250000Y15250000D01*
X99650000Y11950000D02*
X97250000Y11950000D01*
X97250000Y15550000D02*
X99650000Y15550000D01*
X97333772Y15550000D02*
G75*
G03*
X97333772Y15550000I-83772J0D01*
G01*
X107650000Y11210000D02*
X107650000Y11610000D01*
X104730000Y11210000D02*
X104730000Y11610000D01*
X106190000Y11860000D02*
X105790000Y11860000D01*
X106190000Y11860000D02*
X106590000Y11860000D01*
X107650000Y10560000D02*
X107650000Y11210000D01*
X104730000Y10560000D02*
X104730000Y11210000D01*
X105380000Y10560000D02*
X104730000Y10560000D01*
X104730000Y10560000D02*
X105380000Y10560000D01*
X107650000Y10560000D02*
X107000000Y10560000D01*
D12*
X92000000Y48800000D02*
X110000000Y48800000D01*
X92000000Y55000000D02*
X92000000Y48500000D01*
D10*
X92000000Y29500000D02*
X92000000Y30300000D01*
D12*
X110000000Y29500000D02*
X110000000Y30300000D01*
X110000000Y55000000D02*
X92000000Y55000000D01*
X110000000Y55000000D02*
X110000000Y48500000D01*
D10*
X92000000Y29500000D02*
X94500000Y29500000D01*
X110000000Y29500000D02*
X107500000Y29500000D01*
D12*
X95638516Y26650000D02*
G75*
G03*
X95638516Y26650000I-538516J0D01*
G01*
D13*
X87840000Y46737221D02*
X87840000Y47062779D01*
X88860000Y46737221D02*
X88860000Y47062779D01*
D12*
X85625000Y11050000D02*
X85425000Y11050000D01*
X85425000Y11550000D02*
X85625000Y11550000D01*
X114513516Y31950000D02*
G75*
G03*
X114513516Y31950000I-538516J0D01*
G01*
X94863516Y11675000D02*
G75*
G03*
X94863516Y11675000I-538516J0D01*
G01*
X90788516Y23000000D02*
G75*
G03*
X90788516Y23000000I-538516J0D01*
G01*
X90738516Y18200000D02*
G75*
G03*
X90738516Y18200000I-538516J0D01*
G01*
X113038516Y10000000D02*
G75*
G03*
X113038516Y10000000I-538516J0D01*
G01*
X90838516Y21125000D02*
G75*
G03*
X90838516Y21125000I-538516J0D01*
G01*
X118200000Y40500000D02*
X118200000Y41400000D01*
X118000000Y41500000D02*
X118400000Y41500000D01*
X118000000Y40500000D02*
X118000000Y41500000D01*
X118400000Y40500000D02*
X118000000Y40500000D01*
D10*
X121000000Y40500000D02*
X118400000Y40500000D01*
X121000000Y41500000D02*
X121000000Y40500000D01*
X118400000Y41500000D02*
X121000000Y41500000D01*
X118400000Y41500000D02*
X118400000Y40500000D01*
D12*
X118200000Y42800000D02*
X118200000Y43700000D01*
X118000000Y43800000D02*
X118400000Y43800000D01*
X118000000Y42800000D02*
X118000000Y43800000D01*
X118400000Y42800000D02*
X118000000Y42800000D01*
D10*
X121000000Y42800000D02*
X118400000Y42800000D01*
X121000000Y43800000D02*
X121000000Y42800000D01*
X118400000Y43800000D02*
X121000000Y43800000D01*
X118400000Y43800000D02*
X118400000Y42800000D01*
D12*
X94650000Y12975000D02*
X94450000Y12975000D01*
X94450000Y13475000D02*
X94650000Y13475000D01*
X102430000Y11585000D02*
X102230000Y11585000D01*
X102230000Y12085000D02*
X102430000Y12085000D01*
X102420000Y13150000D02*
X102220000Y13150000D01*
X102220000Y13650000D02*
X102420000Y13650000D01*
X102440000Y14550000D02*
X102240000Y14550000D01*
X102240000Y15050000D02*
X102440000Y15050000D01*
X102250000Y16530000D02*
X102450000Y16530000D01*
X102450000Y16030000D02*
X102250000Y16030000D01*
X109000000Y13950000D02*
X109200000Y13950000D01*
X109200000Y13450000D02*
X109000000Y13450000D01*
X105300000Y14025000D02*
X105500000Y14025000D01*
X105500000Y13525000D02*
X105300000Y13525000D01*
X108975000Y15075000D02*
X109175000Y15075000D01*
X109175000Y14575000D02*
X108975000Y14575000D01*
X105300000Y15125000D02*
X105500000Y15125000D01*
X105500000Y14625000D02*
X105300000Y14625000D01*
X89100000Y33750000D02*
X89300000Y33750000D01*
X89300000Y33250000D02*
X89100000Y33250000D01*
X89100000Y35050000D02*
X89300000Y35050000D01*
X89300000Y34550000D02*
X89100000Y34550000D01*
D13*
X114237779Y6740000D02*
X113912221Y6740000D01*
X114237779Y7760000D02*
X113912221Y7760000D01*
X114212779Y5140000D02*
X113887221Y5140000D01*
X114212779Y6160000D02*
X113887221Y6160000D01*
X89565000Y15427221D02*
X89565000Y15752779D01*
X90585000Y15427221D02*
X90585000Y15752779D01*
D10*
X110965000Y11220000D02*
X110965000Y11620000D01*
X108045000Y11220000D02*
X108045000Y11620000D01*
X109505000Y11870000D02*
X109105000Y11870000D01*
X109505000Y11870000D02*
X109905000Y11870000D01*
X110965000Y10570000D02*
X110965000Y11220000D01*
X108045000Y10570000D02*
X108045000Y11220000D01*
X108695000Y10570000D02*
X108045000Y10570000D01*
X108045000Y10570000D02*
X108695000Y10570000D01*
X110965000Y10570000D02*
X110315000Y10570000D01*
X113000000Y700000D02*
X113000000Y4200000D01*
X113000000Y4200000D02*
X107000000Y4200000D01*
X113000000Y700000D02*
X107000000Y700000D01*
D12*
X111500000Y500000D02*
X112000000Y0D01*
X112000000Y0D02*
X111000000Y0D01*
X111500000Y500000D02*
X111000000Y0D01*
D10*
X105500000Y700000D02*
X105500000Y4200000D01*
X107000000Y700000D02*
X105500000Y700000D01*
X107000000Y4200000D02*
X105500000Y4200000D01*
X96250000Y7600000D02*
X99150000Y7600000D01*
X99150000Y5700000D02*
X96250000Y5700000D01*
D14*
X97225000Y6650000D02*
X98325000Y5850000D01*
X98325000Y7450000D02*
X97225000Y6650000D01*
X98325000Y5850000D02*
X98325000Y7450000D01*
D10*
X111450000Y7050000D02*
X108550000Y7050000D01*
X108550000Y8950000D02*
X111450000Y8950000D01*
D14*
X110475000Y8000000D02*
X109375000Y8800000D01*
X109375000Y7200000D02*
X110475000Y8000000D01*
X109375000Y8800000D02*
X109375000Y7200000D01*
D10*
X111450000Y4550000D02*
X108550000Y4550000D01*
X108550000Y6450000D02*
X111450000Y6450000D01*
D14*
X110475000Y5500000D02*
X109375000Y6300000D01*
X109375000Y4700000D02*
X110475000Y5500000D01*
X109375000Y6300000D02*
X109375000Y4700000D01*
D13*
X98077064Y10835000D02*
X96872936Y10835000D01*
X98077064Y8115000D02*
X96872936Y8115000D01*
D12*
X94625000Y15675000D02*
X94425000Y15675000D01*
X94425000Y16175000D02*
X94625000Y16175000D01*
X94625000Y14375000D02*
X94425000Y14375000D01*
X94425000Y14875000D02*
X94625000Y14875000D01*
X116600000Y38450000D02*
X116800000Y38450000D01*
X116800000Y37950000D02*
X116600000Y37950000D01*
X117600000Y34200000D02*
X117100000Y34700000D01*
X117100000Y33700000D02*
X117100000Y34700000D01*
X117600000Y34200000D02*
X117100000Y33700000D01*
X117800000Y32700000D02*
X121300000Y32700000D01*
X117800000Y38700000D02*
X121300000Y38700000D01*
D10*
X117800000Y32700000D02*
X117800000Y38700000D01*
X121300000Y38700000D02*
X121300000Y32700000D01*
D13*
X88015000Y15412221D02*
X88015000Y15737779D01*
X89035000Y15412221D02*
X89035000Y15737779D01*
X86497936Y17540000D02*
X87702064Y17540000D01*
X86497936Y20260000D02*
X87702064Y20260000D01*
D12*
X42200000Y46900000D02*
X41700000Y46400000D01*
X42700000Y46400000D02*
X41700000Y46400000D01*
X42200000Y46900000D02*
X42700000Y46400000D01*
X43700000Y47100000D02*
X33200000Y47100000D01*
X33200000Y47100000D02*
X33200000Y50600000D01*
X43700000Y50600000D02*
X33200000Y50600000D01*
X43700000Y47100000D02*
X43700000Y50600000D01*
X117600000Y27700000D02*
X117100000Y28200000D01*
X117100000Y27200000D02*
X117100000Y28200000D01*
X117600000Y27700000D02*
X117100000Y27200000D01*
X117800000Y26200000D02*
X121300000Y26200000D01*
X117800000Y32200000D02*
X121300000Y32200000D01*
D10*
X117800000Y26200000D02*
X117800000Y32200000D01*
X121300000Y32200000D02*
X121300000Y26200000D01*
D12*
X12200000Y46800000D02*
X12200000Y37800000D01*
X9000000Y37800000D02*
X9000000Y46800000D01*
X12200000Y46800000D02*
X9000000Y46800000D01*
X9000000Y46800000D02*
X9000000Y37800000D01*
X9000000Y37800000D02*
X12200000Y37800000D01*
X9900000Y33750000D02*
X13600000Y33750000D01*
X13600000Y33750000D02*
X13600000Y15250000D01*
X13600000Y15250000D02*
X6200000Y15250000D01*
X6200000Y15250000D02*
X6200000Y33750000D01*
X6200000Y33750000D02*
X9900000Y33750000D01*
X20300000Y6300000D02*
G75*
G02*
X22300000Y4300000I0J-2000000D01*
G01*
X22300000Y4300000D02*
G75*
G02*
X20300000Y2300000I-2000000J0D01*
G01*
X14300000Y2300000D02*
G75*
G02*
X12300000Y4300000I0J2000000D01*
G01*
X12300000Y4300000D02*
G75*
G02*
X14300000Y6300000I2000000J0D01*
G01*
X20300000Y2300000D02*
X16200000Y2300000D01*
X14300000Y6300000D02*
X18400000Y6300000D01*
D13*
X50350000Y45950000D02*
X50350000Y19250000D01*
X18650000Y45950000D02*
X18650000Y19250000D01*
X50350000Y19250000D02*
X18650000Y19250000D01*
X50350000Y45950000D02*
X18650000Y45950000D01*
X18300000Y15350000D02*
X18300000Y39850000D01*
X13800000Y39850000D02*
X18300000Y39850000D01*
X13800000Y15350000D02*
X18300000Y15350000D01*
X13800000Y39850000D02*
X13800000Y15350000D01*
D12*
X22900000Y8450000D02*
X22900000Y12550000D01*
X22900000Y12550000D02*
X8900000Y12550000D01*
X8900000Y12550000D02*
X8900000Y8450000D01*
X8900000Y8450000D02*
X22900000Y8450000D01*
X15300000Y46050000D02*
X15800000Y46050000D01*
X15300000Y42350000D02*
X15800000Y42350000D01*
X17700000Y46050000D02*
X17200000Y46050000D01*
X17700000Y42350000D02*
X17200000Y42350000D01*
X15300000Y42350000D02*
X15300000Y46050000D01*
X17700000Y46050000D02*
X17700000Y42350000D01*
X112250000Y45750000D02*
X112700000Y45750000D01*
X112250000Y49650000D02*
X112700000Y49650000D01*
X115150000Y49650000D02*
X114700000Y49650000D01*
X115150000Y45750000D02*
X114700000Y45750000D01*
X112250000Y45750000D02*
X112250000Y49650000D01*
X115150000Y49650000D02*
X115150000Y45750000D01*
X116050000Y4250000D02*
X116050000Y3800000D01*
X119950000Y4250000D02*
X119950000Y3800000D01*
X119950000Y1350000D02*
X119950000Y1800000D01*
X116050000Y1350000D02*
X116050000Y1800000D01*
X116050000Y4250000D02*
X119950000Y4250000D01*
X119950000Y1350000D02*
X116050000Y1350000D01*
X85600000Y24550000D02*
X85400000Y24550000D01*
X85400000Y25050000D02*
X85600000Y25050000D01*
X85600000Y26050000D02*
X85400000Y26050000D01*
X85400000Y26550000D02*
X85600000Y26550000D01*
X116400000Y41250000D02*
X116600000Y41250000D01*
X116600000Y40750000D02*
X116400000Y40750000D01*
X116300000Y43550000D02*
X116500000Y43550000D01*
X116500000Y43050000D02*
X116300000Y43050000D01*
X99080000Y26810000D02*
X99080000Y27010000D01*
X99580000Y27010000D02*
X99580000Y26810000D01*
X89100000Y31250000D02*
X89300000Y31250000D01*
X89300000Y30750000D02*
X89100000Y30750000D01*
X89100000Y32450000D02*
X89300000Y32450000D01*
X89300000Y31950000D02*
X89100000Y31950000D01*
X116615000Y37350000D02*
X116815000Y37350000D01*
X116815000Y36850000D02*
X116615000Y36850000D01*
X89200000Y36275000D02*
X89400000Y36275000D01*
X89400000Y35775000D02*
X89200000Y35775000D01*
X89100000Y37450000D02*
X89300000Y37450000D01*
X89300000Y36950000D02*
X89100000Y36950000D01*
X112500000Y38950000D02*
X112700000Y38950000D01*
X112700000Y38450000D02*
X112500000Y38450000D01*
X89100000Y38750000D02*
X89300000Y38750000D01*
X89300000Y38250000D02*
X89100000Y38250000D01*
X112600000Y43950000D02*
X112800000Y43950000D01*
X112800000Y43450000D02*
X112600000Y43450000D01*
X89225000Y44350000D02*
X89025000Y44350000D01*
X89025000Y44850000D02*
X89225000Y44850000D01*
X85600000Y27550000D02*
X85400000Y27550000D01*
X85400000Y28050000D02*
X85600000Y28050000D01*
X85600000Y29050000D02*
X85400000Y29050000D01*
X85400000Y29550000D02*
X85600000Y29550000D01*
X85425000Y14825000D02*
X85625000Y14825000D01*
X85625000Y14325000D02*
X85425000Y14325000D01*
X85625000Y12125000D02*
X85425000Y12125000D01*
X85425000Y12625000D02*
X85625000Y12625000D01*
X85700000Y46150000D02*
X85500000Y46150000D01*
X85500000Y46650000D02*
X85700000Y46650000D01*
X85700000Y47250000D02*
X85500000Y47250000D01*
X85500000Y47750000D02*
X85700000Y47750000D01*
X85700000Y40050000D02*
X85500000Y40050000D01*
X85500000Y40550000D02*
X85700000Y40550000D01*
X85700000Y45050000D02*
X85500000Y45050000D01*
X85500000Y45550000D02*
X85700000Y45550000D01*
X85700000Y48250000D02*
X85500000Y48250000D01*
X85500000Y48750000D02*
X85700000Y48750000D01*
X122000000Y19500000D02*
G75*
G03*
X122000000Y19500000I-6300000J0D01*
G01*
X117114214Y17000000D02*
G75*
G03*
X117114214Y17000000I-1414214J0D01*
G01*
D13*
X105670000Y24900000D02*
X105670000Y26230000D01*
X105670000Y23630000D02*
X108330000Y23630000D01*
X105670000Y26230000D02*
X107000000Y26230000D01*
X105670000Y18490000D02*
X108330000Y18490000D01*
X108330000Y23630000D02*
X108330000Y18490000D01*
X105670000Y23630000D02*
X105670000Y18490000D01*
X95510000Y24900000D02*
X95510000Y26230000D01*
X95510000Y23630000D02*
X98170000Y23630000D01*
X95510000Y26230000D02*
X96840000Y26230000D01*
X95510000Y18490000D02*
X98170000Y18490000D01*
X98170000Y23630000D02*
X98170000Y18490000D01*
X95510000Y23630000D02*
X95510000Y18490000D01*
D10*
X100200000Y700000D02*
X100200000Y4200000D01*
X100200000Y4200000D02*
X94200000Y4200000D01*
X100200000Y700000D02*
X94200000Y700000D01*
D12*
X98700000Y500000D02*
X99200000Y0D01*
X99200000Y0D02*
X98200000Y0D01*
X98700000Y500000D02*
X98200000Y0D01*
D10*
X92700000Y700000D02*
X92700000Y4200000D01*
X94200000Y700000D02*
X92700000Y700000D01*
X94200000Y4200000D02*
X92700000Y4200000D01*
D12*
X84500000Y9000000D02*
X85000000Y8500000D01*
X85000000Y9500000D02*
X85000000Y8500000D01*
X84500000Y9000000D02*
X85000000Y9500000D01*
X84300000Y10500000D02*
X84300000Y0D01*
X84300000Y0D02*
X80800000Y0D01*
X80800000Y10500000D02*
X80800000Y0D01*
X84300000Y10500000D02*
X80800000Y10500000D01*
X84300000Y35300000D02*
X80800000Y35300000D01*
X80800000Y35300000D02*
X80800000Y24800000D01*
X84300000Y35300000D02*
X84300000Y24800000D01*
X84500000Y33800000D02*
X85000000Y34300000D01*
X85000000Y34300000D02*
X85000000Y33300000D01*
X84500000Y33800000D02*
X85000000Y33300000D01*
X84300000Y21800000D02*
X80800000Y21800000D01*
X84300000Y21800000D02*
X84300000Y24800000D01*
X80800000Y21800000D02*
X80800000Y24800000D01*
D10*
X84300000Y50900000D02*
X80800000Y50900000D01*
X80800000Y50900000D02*
X80800000Y44900000D01*
X84300000Y50900000D02*
X84300000Y44900000D01*
D12*
X84500000Y49400000D02*
X85000000Y49900000D01*
X85000000Y49900000D02*
X85000000Y48900000D01*
X84500000Y49400000D02*
X85000000Y48900000D01*
D10*
X84300000Y43400000D02*
X80800000Y43400000D01*
X84300000Y44900000D02*
X84300000Y43400000D01*
X80800000Y44900000D02*
X80800000Y43400000D01*
X84300000Y43100000D02*
X80800000Y43100000D01*
X80800000Y43100000D02*
X80800000Y37100000D01*
X84300000Y43100000D02*
X84300000Y37100000D01*
D12*
X84500000Y41600000D02*
X85000000Y42100000D01*
X85000000Y42100000D02*
X85000000Y41100000D01*
X84500000Y41600000D02*
X85000000Y41100000D01*
D10*
X84300000Y35600000D02*
X80800000Y35600000D01*
X84300000Y37100000D02*
X84300000Y35600000D01*
X80800000Y37100000D02*
X80800000Y35600000D01*
D12*
X84500000Y20000000D02*
X85000000Y19500000D01*
X85000000Y20500000D02*
X85000000Y19500000D01*
X84500000Y20000000D02*
X85000000Y20500000D01*
X84300000Y21500000D02*
X84300000Y11000000D01*
X84300000Y11000000D02*
X80800000Y11000000D01*
X80800000Y21500000D02*
X80800000Y11000000D01*
X84300000Y21500000D02*
X80800000Y21500000D01*
D10*
X84700000Y16800000D02*
X84700000Y16400000D01*
D12*
X85700000Y16800000D02*
X86500000Y16800000D01*
X85600000Y15600000D02*
X86600000Y15600000D01*
X85100000Y16300000D02*
X85100000Y16100000D01*
X87100000Y16300000D02*
X87100000Y16100000D01*
D15*
X31100000Y700000D02*
X31100000Y17700000D01*
X31100000Y17700000D02*
X42100000Y17700000D01*
X42100000Y17700000D02*
X42100000Y700000D01*
X42100000Y700000D02*
X31100000Y700000D01*
X30600000Y5200000D02*
X29600000Y6200000D01*
X29600000Y6200000D02*
X29600000Y4200000D01*
X29600000Y4200000D02*
X30600000Y5200000D01*
D16*
X31400000Y11200000D02*
G75*
G03*
X31400000Y11200000I-300000J0D01*
G01*
X31400000Y7200000D02*
G75*
G03*
X31400000Y7200000I-300000J0D01*
G01*
D12*
X99530000Y23900000D02*
X99530000Y23700000D01*
X99030000Y23700000D02*
X99030000Y23900000D01*
X99030000Y20200000D02*
X99030000Y20400000D01*
X99530000Y20400000D02*
X99530000Y20200000D01*
X104980000Y24490000D02*
X104980000Y24290000D01*
X104480000Y24290000D02*
X104480000Y24490000D01*
X104450000Y20170000D02*
X104450000Y20370000D01*
X104950000Y20370000D02*
X104950000Y20170000D01*
X89225000Y43350000D02*
X89025000Y43350000D01*
X89025000Y43850000D02*
X89225000Y43850000D01*
D13*
X117310000Y35162779D02*
X117310000Y34837221D01*
X116290000Y35162779D02*
X116290000Y34837221D01*
D12*
X89350000Y46900000D02*
X89350000Y47100000D01*
X89850000Y47100000D02*
X89850000Y46900000D01*
D13*
X85710000Y34862779D02*
X85710000Y34537221D01*
X84690000Y34862779D02*
X84690000Y34537221D01*
D12*
X85425000Y13725000D02*
X85625000Y13725000D01*
X85625000Y13225000D02*
X85425000Y13225000D01*
D13*
X86112779Y49190000D02*
X85787221Y49190000D01*
X86112779Y50210000D02*
X85787221Y50210000D01*
X85910000Y42462779D02*
X85910000Y42137221D01*
X84890000Y42462779D02*
X84890000Y42137221D01*
D12*
X46200000Y250000D02*
X42500000Y250000D01*
X42500000Y250000D02*
X42500000Y18750000D01*
X42500000Y18750000D02*
X49900000Y18750000D01*
X49900000Y18750000D02*
X49900000Y250000D01*
X49900000Y250000D02*
X46200000Y250000D01*
X26900000Y150000D02*
X23200000Y150000D01*
X23200000Y150000D02*
X23200000Y18650000D01*
X23200000Y18650000D02*
X30600000Y18650000D01*
X30600000Y18650000D02*
X30600000Y150000D01*
X30600000Y150000D02*
X26900000Y150000D01*
X96535714Y16688096D02*
X96535714Y16040477D01*
X96583333Y15964286D01*
X96630952Y15926191D01*
X96726190Y15888096D01*
X96916666Y15888096D01*
X97011904Y15926191D01*
X97059523Y15964286D01*
X97107142Y16040477D01*
X97107142Y16688096D01*
X97535714Y16611905D02*
X97583333Y16650000D01*
X97678571Y16688096D01*
X97916666Y16688096D01*
X98011904Y16650000D01*
X98059523Y16611905D01*
X98107142Y16535715D01*
X98107142Y16459524D01*
X98059523Y16345239D01*
X97488095Y15888096D01*
X98107142Y15888096D01*
X98726190Y16688096D02*
X98821428Y16688096D01*
X98916666Y16650000D01*
X98964285Y16611905D01*
X99011904Y16535715D01*
X99059523Y16383334D01*
X99059523Y16192858D01*
X99011904Y16040477D01*
X98964285Y15964286D01*
X98916666Y15926191D01*
X98821428Y15888096D01*
X98726190Y15888096D01*
X98630952Y15926191D01*
X98583333Y15964286D01*
X98535714Y16040477D01*
X98488095Y16192858D01*
X98488095Y16383334D01*
X98535714Y16535715D01*
X98583333Y16611905D01*
X98630952Y16650000D01*
X98726190Y16688096D01*
X99535714Y15888096D02*
X99726190Y15888096D01*
X99821428Y15926191D01*
X99869047Y15964286D01*
X99964285Y16078572D01*
X100011904Y16230953D01*
X100011904Y16535715D01*
X99964285Y16611905D01*
X99916666Y16650000D01*
X99821428Y16688096D01*
X99630952Y16688096D01*
X99535714Y16650000D01*
X99488095Y16611905D01*
X99440476Y16535715D01*
X99440476Y16345239D01*
X99488095Y16269048D01*
X99535714Y16230953D01*
X99630952Y16192858D01*
X99821428Y16192858D01*
X99916666Y16230953D01*
X99964285Y16269048D01*
X100011904Y16345239D01*
X105102380Y8861905D02*
X105007142Y8900000D01*
X104911904Y8976191D01*
X104769047Y9090477D01*
X104673809Y9128572D01*
X104578571Y9128572D01*
X104626190Y8938096D02*
X104530952Y8976191D01*
X104435714Y9052381D01*
X104388095Y9204762D01*
X104388095Y9471429D01*
X104435714Y9623810D01*
X104530952Y9700000D01*
X104626190Y9738096D01*
X104816666Y9738096D01*
X104911904Y9700000D01*
X105007142Y9623810D01*
X105054761Y9471429D01*
X105054761Y9204762D01*
X105007142Y9052381D01*
X104911904Y8976191D01*
X104816666Y8938096D01*
X104626190Y8938096D01*
X105435714Y9661905D02*
X105483333Y9700000D01*
X105578571Y9738096D01*
X105816666Y9738096D01*
X105911904Y9700000D01*
X105959523Y9661905D01*
X106007142Y9585715D01*
X106007142Y9509524D01*
X105959523Y9395239D01*
X105388095Y8938096D01*
X106007142Y8938096D01*
X106626190Y9738096D02*
X106721428Y9738096D01*
X106816666Y9700000D01*
X106864285Y9661905D01*
X106911904Y9585715D01*
X106959523Y9433334D01*
X106959523Y9242858D01*
X106911904Y9090477D01*
X106864285Y9014286D01*
X106816666Y8976191D01*
X106721428Y8938096D01*
X106626190Y8938096D01*
X106530952Y8976191D01*
X106483333Y9014286D01*
X106435714Y9090477D01*
X106388095Y9242858D01*
X106388095Y9433334D01*
X106435714Y9585715D01*
X106483333Y9661905D01*
X106530952Y9700000D01*
X106626190Y9738096D01*
X107340476Y9661905D02*
X107388095Y9700000D01*
X107483333Y9738096D01*
X107721428Y9738096D01*
X107816666Y9700000D01*
X107864285Y9661905D01*
X107911904Y9585715D01*
X107911904Y9509524D01*
X107864285Y9395239D01*
X107292857Y8938096D01*
X107911904Y8938096D01*
X109035714Y28938096D02*
X109035714Y28290477D01*
X109083333Y28214286D01*
X109130952Y28176191D01*
X109226190Y28138096D01*
X109416666Y28138096D01*
X109511904Y28176191D01*
X109559523Y28214286D01*
X109607142Y28290477D01*
X109607142Y28938096D01*
X110035714Y28861905D02*
X110083333Y28900000D01*
X110178571Y28938096D01*
X110416666Y28938096D01*
X110511904Y28900000D01*
X110559523Y28861905D01*
X110607142Y28785715D01*
X110607142Y28709524D01*
X110559523Y28595239D01*
X109988095Y28138096D01*
X110607142Y28138096D01*
X111226190Y28938096D02*
X111321428Y28938096D01*
X111416666Y28900000D01*
X111464285Y28861905D01*
X111511904Y28785715D01*
X111559523Y28633334D01*
X111559523Y28442858D01*
X111511904Y28290477D01*
X111464285Y28214286D01*
X111416666Y28176191D01*
X111321428Y28138096D01*
X111226190Y28138096D01*
X111130952Y28176191D01*
X111083333Y28214286D01*
X111035714Y28290477D01*
X110988095Y28442858D01*
X110988095Y28633334D01*
X111035714Y28785715D01*
X111083333Y28861905D01*
X111130952Y28900000D01*
X111226190Y28938096D01*
X111892857Y28938096D02*
X112511904Y28938096D01*
X112178571Y28633334D01*
X112321428Y28633334D01*
X112416666Y28595239D01*
X112464285Y28557143D01*
X112511904Y28480953D01*
X112511904Y28290477D01*
X112464285Y28214286D01*
X112416666Y28176191D01*
X112321428Y28138096D01*
X112035714Y28138096D01*
X111940476Y28176191D01*
X111892857Y28214286D01*
X85880952Y5138096D02*
X85547619Y5519048D01*
X85309523Y5138096D02*
X85309523Y5938096D01*
X85690476Y5938096D01*
X85785714Y5900000D01*
X85833333Y5861905D01*
X85880952Y5785715D01*
X85880952Y5671429D01*
X85833333Y5595239D01*
X85785714Y5557143D01*
X85690476Y5519048D01*
X85309523Y5519048D01*
X86261904Y5861905D02*
X86309523Y5900000D01*
X86404761Y5938096D01*
X86642857Y5938096D01*
X86738095Y5900000D01*
X86785714Y5861905D01*
X86833333Y5785715D01*
X86833333Y5709524D01*
X86785714Y5595239D01*
X86214285Y5138096D01*
X86833333Y5138096D01*
X87690476Y5938096D02*
X87500000Y5938096D01*
X87404761Y5900000D01*
X87357142Y5861905D01*
X87261904Y5747620D01*
X87214285Y5595239D01*
X87214285Y5290477D01*
X87261904Y5214286D01*
X87309523Y5176191D01*
X87404761Y5138096D01*
X87595238Y5138096D01*
X87690476Y5176191D01*
X87738095Y5214286D01*
X87785714Y5290477D01*
X87785714Y5480953D01*
X87738095Y5557143D01*
X87690476Y5595239D01*
X87595238Y5633334D01*
X87404761Y5633334D01*
X87309523Y5595239D01*
X87261904Y5557143D01*
X87214285Y5480953D01*
X88261904Y5138096D02*
X88452380Y5138096D01*
X88547619Y5176191D01*
X88595238Y5214286D01*
X88690476Y5328572D01*
X88738095Y5480953D01*
X88738095Y5785715D01*
X88690476Y5861905D01*
X88642857Y5900000D01*
X88547619Y5938096D01*
X88357142Y5938096D01*
X88261904Y5900000D01*
X88214285Y5861905D01*
X88166666Y5785715D01*
X88166666Y5595239D01*
X88214285Y5519048D01*
X88261904Y5480953D01*
X88357142Y5442858D01*
X88547619Y5442858D01*
X88642857Y5480953D01*
X88690476Y5519048D01*
X88738095Y5595239D01*
X118059523Y39388096D02*
X118059523Y40188096D01*
X118297619Y40188096D01*
X118440476Y40150000D01*
X118535714Y40073810D01*
X118583333Y39997620D01*
X118630952Y39845239D01*
X118630952Y39730953D01*
X118583333Y39578572D01*
X118535714Y39502381D01*
X118440476Y39426191D01*
X118297619Y39388096D01*
X118059523Y39388096D01*
X119011904Y40111905D02*
X119059523Y40150000D01*
X119154761Y40188096D01*
X119392857Y40188096D01*
X119488095Y40150000D01*
X119535714Y40111905D01*
X119583333Y40035715D01*
X119583333Y39959524D01*
X119535714Y39845239D01*
X118964285Y39388096D01*
X119583333Y39388096D01*
X120202380Y40188096D02*
X120297619Y40188096D01*
X120392857Y40150000D01*
X120440476Y40111905D01*
X120488095Y40035715D01*
X120535714Y39883334D01*
X120535714Y39692858D01*
X120488095Y39540477D01*
X120440476Y39464286D01*
X120392857Y39426191D01*
X120297619Y39388096D01*
X120202380Y39388096D01*
X120107142Y39426191D01*
X120059523Y39464286D01*
X120011904Y39540477D01*
X119964285Y39692858D01*
X119964285Y39883334D01*
X120011904Y40035715D01*
X120059523Y40111905D01*
X120107142Y40150000D01*
X120202380Y40188096D01*
X120869047Y40188096D02*
X121488095Y40188096D01*
X121154761Y39883334D01*
X121297619Y39883334D01*
X121392857Y39845239D01*
X121440476Y39807143D01*
X121488095Y39730953D01*
X121488095Y39540477D01*
X121440476Y39464286D01*
X121392857Y39426191D01*
X121297619Y39388096D01*
X121011904Y39388096D01*
X120916666Y39426191D01*
X120869047Y39464286D01*
X118034523Y41638096D02*
X118034523Y42438096D01*
X118272619Y42438096D01*
X118415476Y42400000D01*
X118510714Y42323810D01*
X118558333Y42247620D01*
X118605952Y42095239D01*
X118605952Y41980953D01*
X118558333Y41828572D01*
X118510714Y41752381D01*
X118415476Y41676191D01*
X118272619Y41638096D01*
X118034523Y41638096D01*
X118986904Y42361905D02*
X119034523Y42400000D01*
X119129761Y42438096D01*
X119367857Y42438096D01*
X119463095Y42400000D01*
X119510714Y42361905D01*
X119558333Y42285715D01*
X119558333Y42209524D01*
X119510714Y42095239D01*
X118939285Y41638096D01*
X119558333Y41638096D01*
X120177380Y42438096D02*
X120272619Y42438096D01*
X120367857Y42400000D01*
X120415476Y42361905D01*
X120463095Y42285715D01*
X120510714Y42133334D01*
X120510714Y41942858D01*
X120463095Y41790477D01*
X120415476Y41714286D01*
X120367857Y41676191D01*
X120272619Y41638096D01*
X120177380Y41638096D01*
X120082142Y41676191D01*
X120034523Y41714286D01*
X119986904Y41790477D01*
X119939285Y41942858D01*
X119939285Y42133334D01*
X119986904Y42285715D01*
X120034523Y42361905D01*
X120082142Y42400000D01*
X120177380Y42438096D01*
X120891666Y42361905D02*
X120939285Y42400000D01*
X121034523Y42438096D01*
X121272619Y42438096D01*
X121367857Y42400000D01*
X121415476Y42361905D01*
X121463095Y42285715D01*
X121463095Y42209524D01*
X121415476Y42095239D01*
X120844047Y41638096D01*
X121463095Y41638096D01*
X92130952Y16888096D02*
X91797619Y17269048D01*
X91559523Y16888096D02*
X91559523Y17688096D01*
X91940476Y17688096D01*
X92035714Y17650000D01*
X92083333Y17611905D01*
X92130952Y17535715D01*
X92130952Y17421429D01*
X92083333Y17345239D01*
X92035714Y17307143D01*
X91940476Y17269048D01*
X91559523Y17269048D01*
X92511904Y17611905D02*
X92559523Y17650000D01*
X92654761Y17688096D01*
X92892857Y17688096D01*
X92988095Y17650000D01*
X93035714Y17611905D01*
X93083333Y17535715D01*
X93083333Y17459524D01*
X93035714Y17345239D01*
X92464285Y16888096D01*
X93083333Y16888096D01*
X93940476Y17688096D02*
X93750000Y17688096D01*
X93654761Y17650000D01*
X93607142Y17611905D01*
X93511904Y17497620D01*
X93464285Y17345239D01*
X93464285Y17040477D01*
X93511904Y16964286D01*
X93559523Y16926191D01*
X93654761Y16888096D01*
X93845238Y16888096D01*
X93940476Y16926191D01*
X93988095Y16964286D01*
X94035714Y17040477D01*
X94035714Y17230953D01*
X93988095Y17307143D01*
X93940476Y17345239D01*
X93845238Y17383334D01*
X93654761Y17383334D01*
X93559523Y17345239D01*
X93511904Y17307143D01*
X93464285Y17230953D01*
X94607142Y17345239D02*
X94511904Y17383334D01*
X94464285Y17421429D01*
X94416666Y17497620D01*
X94416666Y17535715D01*
X94464285Y17611905D01*
X94511904Y17650000D01*
X94607142Y17688096D01*
X94797619Y17688096D01*
X94892857Y17650000D01*
X94940476Y17611905D01*
X94988095Y17535715D01*
X94988095Y17497620D01*
X94940476Y17421429D01*
X94892857Y17383334D01*
X94797619Y17345239D01*
X94607142Y17345239D01*
X94511904Y17307143D01*
X94464285Y17269048D01*
X94416666Y17192858D01*
X94416666Y17040477D01*
X94464285Y16964286D01*
X94511904Y16926191D01*
X94607142Y16888096D01*
X94797619Y16888096D01*
X94892857Y16926191D01*
X94940476Y16964286D01*
X94988095Y17040477D01*
X94988095Y17192858D01*
X94940476Y17269048D01*
X94892857Y17307143D01*
X94797619Y17345239D01*
X101130952Y7388096D02*
X100797619Y7769048D01*
X100559523Y7388096D02*
X100559523Y8188096D01*
X100940476Y8188096D01*
X101035714Y8150000D01*
X101083333Y8111905D01*
X101130952Y8035715D01*
X101130952Y7921429D01*
X101083333Y7845239D01*
X101035714Y7807143D01*
X100940476Y7769048D01*
X100559523Y7769048D01*
X101511904Y8111905D02*
X101559523Y8150000D01*
X101654761Y8188096D01*
X101892857Y8188096D01*
X101988095Y8150000D01*
X102035714Y8111905D01*
X102083333Y8035715D01*
X102083333Y7959524D01*
X102035714Y7845239D01*
X101464285Y7388096D01*
X102083333Y7388096D01*
X102940476Y8188096D02*
X102750000Y8188096D01*
X102654761Y8150000D01*
X102607142Y8111905D01*
X102511904Y7997620D01*
X102464285Y7845239D01*
X102464285Y7540477D01*
X102511904Y7464286D01*
X102559523Y7426191D01*
X102654761Y7388096D01*
X102845238Y7388096D01*
X102940476Y7426191D01*
X102988095Y7464286D01*
X103035714Y7540477D01*
X103035714Y7730953D01*
X102988095Y7807143D01*
X102940476Y7845239D01*
X102845238Y7883334D01*
X102654761Y7883334D01*
X102559523Y7845239D01*
X102511904Y7807143D01*
X102464285Y7730953D01*
X103369047Y8188096D02*
X104035714Y8188096D01*
X103607142Y7388096D01*
X101130952Y8388096D02*
X100797619Y8769048D01*
X100559523Y8388096D02*
X100559523Y9188096D01*
X100940476Y9188096D01*
X101035714Y9150000D01*
X101083333Y9111905D01*
X101130952Y9035715D01*
X101130952Y8921429D01*
X101083333Y8845239D01*
X101035714Y8807143D01*
X100940476Y8769048D01*
X100559523Y8769048D01*
X101511904Y9111905D02*
X101559523Y9150000D01*
X101654761Y9188096D01*
X101892857Y9188096D01*
X101988095Y9150000D01*
X102035714Y9111905D01*
X102083333Y9035715D01*
X102083333Y8959524D01*
X102035714Y8845239D01*
X101464285Y8388096D01*
X102083333Y8388096D01*
X102940476Y9188096D02*
X102750000Y9188096D01*
X102654761Y9150000D01*
X102607142Y9111905D01*
X102511904Y8997620D01*
X102464285Y8845239D01*
X102464285Y8540477D01*
X102511904Y8464286D01*
X102559523Y8426191D01*
X102654761Y8388096D01*
X102845238Y8388096D01*
X102940476Y8426191D01*
X102988095Y8464286D01*
X103035714Y8540477D01*
X103035714Y8730953D01*
X102988095Y8807143D01*
X102940476Y8845239D01*
X102845238Y8883334D01*
X102654761Y8883334D01*
X102559523Y8845239D01*
X102511904Y8807143D01*
X102464285Y8730953D01*
X103892857Y9188096D02*
X103702380Y9188096D01*
X103607142Y9150000D01*
X103559523Y9111905D01*
X103464285Y8997620D01*
X103416666Y8845239D01*
X103416666Y8540477D01*
X103464285Y8464286D01*
X103511904Y8426191D01*
X103607142Y8388096D01*
X103797619Y8388096D01*
X103892857Y8426191D01*
X103940476Y8464286D01*
X103988095Y8540477D01*
X103988095Y8730953D01*
X103940476Y8807143D01*
X103892857Y8845239D01*
X103797619Y8883334D01*
X103607142Y8883334D01*
X103511904Y8845239D01*
X103464285Y8807143D01*
X103416666Y8730953D01*
X101130952Y9388096D02*
X100797619Y9769048D01*
X100559523Y9388096D02*
X100559523Y10188096D01*
X100940476Y10188096D01*
X101035714Y10150000D01*
X101083333Y10111905D01*
X101130952Y10035715D01*
X101130952Y9921429D01*
X101083333Y9845239D01*
X101035714Y9807143D01*
X100940476Y9769048D01*
X100559523Y9769048D01*
X101511904Y10111905D02*
X101559523Y10150000D01*
X101654761Y10188096D01*
X101892857Y10188096D01*
X101988095Y10150000D01*
X102035714Y10111905D01*
X102083333Y10035715D01*
X102083333Y9959524D01*
X102035714Y9845239D01*
X101464285Y9388096D01*
X102083333Y9388096D01*
X102940476Y10188096D02*
X102750000Y10188096D01*
X102654761Y10150000D01*
X102607142Y10111905D01*
X102511904Y9997620D01*
X102464285Y9845239D01*
X102464285Y9540477D01*
X102511904Y9464286D01*
X102559523Y9426191D01*
X102654761Y9388096D01*
X102845238Y9388096D01*
X102940476Y9426191D01*
X102988095Y9464286D01*
X103035714Y9540477D01*
X103035714Y9730953D01*
X102988095Y9807143D01*
X102940476Y9845239D01*
X102845238Y9883334D01*
X102654761Y9883334D01*
X102559523Y9845239D01*
X102511904Y9807143D01*
X102464285Y9730953D01*
X103940476Y10188096D02*
X103464285Y10188096D01*
X103416666Y9807143D01*
X103464285Y9845239D01*
X103559523Y9883334D01*
X103797619Y9883334D01*
X103892857Y9845239D01*
X103940476Y9807143D01*
X103988095Y9730953D01*
X103988095Y9540477D01*
X103940476Y9464286D01*
X103892857Y9426191D01*
X103797619Y9388096D01*
X103559523Y9388096D01*
X103464285Y9426191D01*
X103416666Y9464286D01*
X101130952Y10388096D02*
X100797619Y10769048D01*
X100559523Y10388096D02*
X100559523Y11188096D01*
X100940476Y11188096D01*
X101035714Y11150000D01*
X101083333Y11111905D01*
X101130952Y11035715D01*
X101130952Y10921429D01*
X101083333Y10845239D01*
X101035714Y10807143D01*
X100940476Y10769048D01*
X100559523Y10769048D01*
X101511904Y11111905D02*
X101559523Y11150000D01*
X101654761Y11188096D01*
X101892857Y11188096D01*
X101988095Y11150000D01*
X102035714Y11111905D01*
X102083333Y11035715D01*
X102083333Y10959524D01*
X102035714Y10845239D01*
X101464285Y10388096D01*
X102083333Y10388096D01*
X102940476Y11188096D02*
X102750000Y11188096D01*
X102654761Y11150000D01*
X102607142Y11111905D01*
X102511904Y10997620D01*
X102464285Y10845239D01*
X102464285Y10540477D01*
X102511904Y10464286D01*
X102559523Y10426191D01*
X102654761Y10388096D01*
X102845238Y10388096D01*
X102940476Y10426191D01*
X102988095Y10464286D01*
X103035714Y10540477D01*
X103035714Y10730953D01*
X102988095Y10807143D01*
X102940476Y10845239D01*
X102845238Y10883334D01*
X102654761Y10883334D01*
X102559523Y10845239D01*
X102511904Y10807143D01*
X102464285Y10730953D01*
X103892857Y10921429D02*
X103892857Y10388096D01*
X103654761Y11226191D02*
X103416666Y10654762D01*
X104035714Y10654762D01*
X108130952Y15638096D02*
X107797619Y16019048D01*
X107559523Y15638096D02*
X107559523Y16438096D01*
X107940476Y16438096D01*
X108035714Y16400000D01*
X108083333Y16361905D01*
X108130952Y16285715D01*
X108130952Y16171429D01*
X108083333Y16095239D01*
X108035714Y16057143D01*
X107940476Y16019048D01*
X107559523Y16019048D01*
X108511904Y16361905D02*
X108559523Y16400000D01*
X108654761Y16438096D01*
X108892857Y16438096D01*
X108988095Y16400000D01*
X109035714Y16361905D01*
X109083333Y16285715D01*
X109083333Y16209524D01*
X109035714Y16095239D01*
X108464285Y15638096D01*
X109083333Y15638096D01*
X109940476Y16438096D02*
X109750000Y16438096D01*
X109654761Y16400000D01*
X109607142Y16361905D01*
X109511904Y16247620D01*
X109464285Y16095239D01*
X109464285Y15790477D01*
X109511904Y15714286D01*
X109559523Y15676191D01*
X109654761Y15638096D01*
X109845238Y15638096D01*
X109940476Y15676191D01*
X109988095Y15714286D01*
X110035714Y15790477D01*
X110035714Y15980953D01*
X109988095Y16057143D01*
X109940476Y16095239D01*
X109845238Y16133334D01*
X109654761Y16133334D01*
X109559523Y16095239D01*
X109511904Y16057143D01*
X109464285Y15980953D01*
X110369047Y16438096D02*
X110988095Y16438096D01*
X110654761Y16133334D01*
X110797619Y16133334D01*
X110892857Y16095239D01*
X110940476Y16057143D01*
X110988095Y15980953D01*
X110988095Y15790477D01*
X110940476Y15714286D01*
X110892857Y15676191D01*
X110797619Y15638096D01*
X110511904Y15638096D01*
X110416666Y15676191D01*
X110369047Y15714286D01*
X104130952Y15638096D02*
X103797619Y16019048D01*
X103559523Y15638096D02*
X103559523Y16438096D01*
X103940476Y16438096D01*
X104035714Y16400000D01*
X104083333Y16361905D01*
X104130952Y16285715D01*
X104130952Y16171429D01*
X104083333Y16095239D01*
X104035714Y16057143D01*
X103940476Y16019048D01*
X103559523Y16019048D01*
X104511904Y16361905D02*
X104559523Y16400000D01*
X104654761Y16438096D01*
X104892857Y16438096D01*
X104988095Y16400000D01*
X105035714Y16361905D01*
X105083333Y16285715D01*
X105083333Y16209524D01*
X105035714Y16095239D01*
X104464285Y15638096D01*
X105083333Y15638096D01*
X105940476Y16438096D02*
X105750000Y16438096D01*
X105654761Y16400000D01*
X105607142Y16361905D01*
X105511904Y16247620D01*
X105464285Y16095239D01*
X105464285Y15790477D01*
X105511904Y15714286D01*
X105559523Y15676191D01*
X105654761Y15638096D01*
X105845238Y15638096D01*
X105940476Y15676191D01*
X105988095Y15714286D01*
X106035714Y15790477D01*
X106035714Y15980953D01*
X105988095Y16057143D01*
X105940476Y16095239D01*
X105845238Y16133334D01*
X105654761Y16133334D01*
X105559523Y16095239D01*
X105511904Y16057143D01*
X105464285Y15980953D01*
X106416666Y16361905D02*
X106464285Y16400000D01*
X106559523Y16438096D01*
X106797619Y16438096D01*
X106892857Y16400000D01*
X106940476Y16361905D01*
X106988095Y16285715D01*
X106988095Y16209524D01*
X106940476Y16095239D01*
X106369047Y15638096D01*
X106988095Y15638096D01*
X108130952Y16638096D02*
X107797619Y17019048D01*
X107559523Y16638096D02*
X107559523Y17438096D01*
X107940476Y17438096D01*
X108035714Y17400000D01*
X108083333Y17361905D01*
X108130952Y17285715D01*
X108130952Y17171429D01*
X108083333Y17095239D01*
X108035714Y17057143D01*
X107940476Y17019048D01*
X107559523Y17019048D01*
X108511904Y17361905D02*
X108559523Y17400000D01*
X108654761Y17438096D01*
X108892857Y17438096D01*
X108988095Y17400000D01*
X109035714Y17361905D01*
X109083333Y17285715D01*
X109083333Y17209524D01*
X109035714Y17095239D01*
X108464285Y16638096D01*
X109083333Y16638096D01*
X109940476Y17438096D02*
X109750000Y17438096D01*
X109654761Y17400000D01*
X109607142Y17361905D01*
X109511904Y17247620D01*
X109464285Y17095239D01*
X109464285Y16790477D01*
X109511904Y16714286D01*
X109559523Y16676191D01*
X109654761Y16638096D01*
X109845238Y16638096D01*
X109940476Y16676191D01*
X109988095Y16714286D01*
X110035714Y16790477D01*
X110035714Y16980953D01*
X109988095Y17057143D01*
X109940476Y17095239D01*
X109845238Y17133334D01*
X109654761Y17133334D01*
X109559523Y17095239D01*
X109511904Y17057143D01*
X109464285Y16980953D01*
X110988095Y16638096D02*
X110416666Y16638096D01*
X110702380Y16638096D02*
X110702380Y17438096D01*
X110607142Y17323810D01*
X110511904Y17247620D01*
X110416666Y17209524D01*
X104130952Y16638096D02*
X103797619Y17019048D01*
X103559523Y16638096D02*
X103559523Y17438096D01*
X103940476Y17438096D01*
X104035714Y17400000D01*
X104083333Y17361905D01*
X104130952Y17285715D01*
X104130952Y17171429D01*
X104083333Y17095239D01*
X104035714Y17057143D01*
X103940476Y17019048D01*
X103559523Y17019048D01*
X104511904Y17361905D02*
X104559523Y17400000D01*
X104654761Y17438096D01*
X104892857Y17438096D01*
X104988095Y17400000D01*
X105035714Y17361905D01*
X105083333Y17285715D01*
X105083333Y17209524D01*
X105035714Y17095239D01*
X104464285Y16638096D01*
X105083333Y16638096D01*
X105940476Y17438096D02*
X105750000Y17438096D01*
X105654761Y17400000D01*
X105607142Y17361905D01*
X105511904Y17247620D01*
X105464285Y17095239D01*
X105464285Y16790477D01*
X105511904Y16714286D01*
X105559523Y16676191D01*
X105654761Y16638096D01*
X105845238Y16638096D01*
X105940476Y16676191D01*
X105988095Y16714286D01*
X106035714Y16790477D01*
X106035714Y16980953D01*
X105988095Y17057143D01*
X105940476Y17095239D01*
X105845238Y17133334D01*
X105654761Y17133334D01*
X105559523Y17095239D01*
X105511904Y17057143D01*
X105464285Y16980953D01*
X106654761Y17438096D02*
X106750000Y17438096D01*
X106845238Y17400000D01*
X106892857Y17361905D01*
X106940476Y17285715D01*
X106988095Y17133334D01*
X106988095Y16942858D01*
X106940476Y16790477D01*
X106892857Y16714286D01*
X106845238Y16676191D01*
X106750000Y16638096D01*
X106654761Y16638096D01*
X106559523Y16676191D01*
X106511904Y16714286D01*
X106464285Y16790477D01*
X106416666Y16942858D01*
X106416666Y17133334D01*
X106464285Y17285715D01*
X106511904Y17361905D01*
X106559523Y17400000D01*
X106654761Y17438096D01*
X113830952Y10838096D02*
X113497619Y11219048D01*
X113259523Y10838096D02*
X113259523Y11638096D01*
X113640476Y11638096D01*
X113735714Y11600000D01*
X113783333Y11561905D01*
X113830952Y11485715D01*
X113830952Y11371429D01*
X113783333Y11295239D01*
X113735714Y11257143D01*
X113640476Y11219048D01*
X113259523Y11219048D01*
X114211904Y11561905D02*
X114259523Y11600000D01*
X114354761Y11638096D01*
X114592857Y11638096D01*
X114688095Y11600000D01*
X114735714Y11561905D01*
X114783333Y11485715D01*
X114783333Y11409524D01*
X114735714Y11295239D01*
X114164285Y10838096D01*
X114783333Y10838096D01*
X115688095Y11638096D02*
X115211904Y11638096D01*
X115164285Y11257143D01*
X115211904Y11295239D01*
X115307142Y11333334D01*
X115545238Y11333334D01*
X115640476Y11295239D01*
X115688095Y11257143D01*
X115735714Y11180953D01*
X115735714Y10990477D01*
X115688095Y10914286D01*
X115640476Y10876191D01*
X115545238Y10838096D01*
X115307142Y10838096D01*
X115211904Y10876191D01*
X115164285Y10914286D01*
X116069047Y11638096D02*
X116735714Y11638096D01*
X116307142Y10838096D01*
X113830952Y9738096D02*
X113497619Y10119048D01*
X113259523Y9738096D02*
X113259523Y10538096D01*
X113640476Y10538096D01*
X113735714Y10500000D01*
X113783333Y10461905D01*
X113830952Y10385715D01*
X113830952Y10271429D01*
X113783333Y10195239D01*
X113735714Y10157143D01*
X113640476Y10119048D01*
X113259523Y10119048D01*
X114211904Y10461905D02*
X114259523Y10500000D01*
X114354761Y10538096D01*
X114592857Y10538096D01*
X114688095Y10500000D01*
X114735714Y10461905D01*
X114783333Y10385715D01*
X114783333Y10309524D01*
X114735714Y10195239D01*
X114164285Y9738096D01*
X114783333Y9738096D01*
X115688095Y10538096D02*
X115211904Y10538096D01*
X115164285Y10157143D01*
X115211904Y10195239D01*
X115307142Y10233334D01*
X115545238Y10233334D01*
X115640476Y10195239D01*
X115688095Y10157143D01*
X115735714Y10080953D01*
X115735714Y9890477D01*
X115688095Y9814286D01*
X115640476Y9776191D01*
X115545238Y9738096D01*
X115307142Y9738096D01*
X115211904Y9776191D01*
X115164285Y9814286D01*
X116592857Y10538096D02*
X116402380Y10538096D01*
X116307142Y10500000D01*
X116259523Y10461905D01*
X116164285Y10347620D01*
X116116666Y10195239D01*
X116116666Y9890477D01*
X116164285Y9814286D01*
X116211904Y9776191D01*
X116307142Y9738096D01*
X116497619Y9738096D01*
X116592857Y9776191D01*
X116640476Y9814286D01*
X116688095Y9890477D01*
X116688095Y10080953D01*
X116640476Y10157143D01*
X116592857Y10195239D01*
X116497619Y10233334D01*
X116307142Y10233334D01*
X116211904Y10195239D01*
X116164285Y10157143D01*
X116116666Y10080953D01*
X90611904Y11130953D02*
X90230952Y10797620D01*
X90611904Y10559524D02*
X89811904Y10559524D01*
X89811904Y10940477D01*
X89850000Y11035715D01*
X89888095Y11083334D01*
X89964285Y11130953D01*
X90078571Y11130953D01*
X90154761Y11083334D01*
X90192857Y11035715D01*
X90230952Y10940477D01*
X90230952Y10559524D01*
X89888095Y11511905D02*
X89850000Y11559524D01*
X89811904Y11654762D01*
X89811904Y11892858D01*
X89850000Y11988096D01*
X89888095Y12035715D01*
X89964285Y12083334D01*
X90040476Y12083334D01*
X90154761Y12035715D01*
X90611904Y11464286D01*
X90611904Y12083334D01*
X89811904Y12988096D02*
X89811904Y12511905D01*
X90192857Y12464286D01*
X90154761Y12511905D01*
X90116666Y12607143D01*
X90116666Y12845239D01*
X90154761Y12940477D01*
X90192857Y12988096D01*
X90269047Y13035715D01*
X90459523Y13035715D01*
X90535714Y12988096D01*
X90573809Y12940477D01*
X90611904Y12845239D01*
X90611904Y12607143D01*
X90573809Y12511905D01*
X90535714Y12464286D01*
X90078571Y13892858D02*
X90611904Y13892858D01*
X89773809Y13654762D02*
X90345238Y13416667D01*
X90345238Y14035715D01*
X112052380Y11961905D02*
X111957142Y12000000D01*
X111861904Y12076191D01*
X111719047Y12190477D01*
X111623809Y12228572D01*
X111528571Y12228572D01*
X111576190Y12038096D02*
X111480952Y12076191D01*
X111385714Y12152381D01*
X111338095Y12304762D01*
X111338095Y12571429D01*
X111385714Y12723810D01*
X111480952Y12800000D01*
X111576190Y12838096D01*
X111766666Y12838096D01*
X111861904Y12800000D01*
X111957142Y12723810D01*
X112004761Y12571429D01*
X112004761Y12304762D01*
X111957142Y12152381D01*
X111861904Y12076191D01*
X111766666Y12038096D01*
X111576190Y12038096D01*
X112385714Y12761905D02*
X112433333Y12800000D01*
X112528571Y12838096D01*
X112766666Y12838096D01*
X112861904Y12800000D01*
X112909523Y12761905D01*
X112957142Y12685715D01*
X112957142Y12609524D01*
X112909523Y12495239D01*
X112338095Y12038096D01*
X112957142Y12038096D01*
X113576190Y12838096D02*
X113671428Y12838096D01*
X113766666Y12800000D01*
X113814285Y12761905D01*
X113861904Y12685715D01*
X113909523Y12533334D01*
X113909523Y12342858D01*
X113861904Y12190477D01*
X113814285Y12114286D01*
X113766666Y12076191D01*
X113671428Y12038096D01*
X113576190Y12038096D01*
X113480952Y12076191D01*
X113433333Y12114286D01*
X113385714Y12190477D01*
X113338095Y12342858D01*
X113338095Y12533334D01*
X113385714Y12685715D01*
X113433333Y12761905D01*
X113480952Y12800000D01*
X113576190Y12838096D01*
X114242857Y12838096D02*
X114861904Y12838096D01*
X114528571Y12533334D01*
X114671428Y12533334D01*
X114766666Y12495239D01*
X114814285Y12457143D01*
X114861904Y12380953D01*
X114861904Y12190477D01*
X114814285Y12114286D01*
X114766666Y12076191D01*
X114671428Y12038096D01*
X114385714Y12038096D01*
X114290476Y12076191D01*
X114242857Y12114286D01*
X102214285Y4188096D02*
X102214285Y3616667D01*
X102166666Y3502381D01*
X102071428Y3426191D01*
X101928571Y3388096D01*
X101833333Y3388096D01*
X102642857Y4111905D02*
X102690476Y4150000D01*
X102785714Y4188096D01*
X103023809Y4188096D01*
X103119047Y4150000D01*
X103166666Y4111905D01*
X103214285Y4035715D01*
X103214285Y3959524D01*
X103166666Y3845239D01*
X102595238Y3388096D01*
X103214285Y3388096D01*
X104166666Y3388096D02*
X103595238Y3388096D01*
X103880952Y3388096D02*
X103880952Y4188096D01*
X103785714Y4073810D01*
X103690476Y3997620D01*
X103595238Y3959524D01*
X104547619Y4111905D02*
X104595238Y4150000D01*
X104690476Y4188096D01*
X104928571Y4188096D01*
X105023809Y4150000D01*
X105071428Y4111905D01*
X105119047Y4035715D01*
X105119047Y3959524D01*
X105071428Y3845239D01*
X104500000Y3388096D01*
X105119047Y3388096D01*
X91559523Y5388096D02*
X91559523Y6188096D01*
X91797619Y6188096D01*
X91940476Y6150000D01*
X92035714Y6073810D01*
X92083333Y5997620D01*
X92130952Y5845239D01*
X92130952Y5730953D01*
X92083333Y5578572D01*
X92035714Y5502381D01*
X91940476Y5426191D01*
X91797619Y5388096D01*
X91559523Y5388096D01*
X92511904Y6111905D02*
X92559523Y6150000D01*
X92654761Y6188096D01*
X92892857Y6188096D01*
X92988095Y6150000D01*
X93035714Y6111905D01*
X93083333Y6035715D01*
X93083333Y5959524D01*
X93035714Y5845239D01*
X92464285Y5388096D01*
X93083333Y5388096D01*
X93702380Y6188096D02*
X93797619Y6188096D01*
X93892857Y6150000D01*
X93940476Y6111905D01*
X93988095Y6035715D01*
X94035714Y5883334D01*
X94035714Y5692858D01*
X93988095Y5540477D01*
X93940476Y5464286D01*
X93892857Y5426191D01*
X93797619Y5388096D01*
X93702380Y5388096D01*
X93607142Y5426191D01*
X93559523Y5464286D01*
X93511904Y5540477D01*
X93464285Y5692858D01*
X93464285Y5883334D01*
X93511904Y6035715D01*
X93559523Y6111905D01*
X93607142Y6150000D01*
X93702380Y6188096D01*
X94892857Y6188096D02*
X94702380Y6188096D01*
X94607142Y6150000D01*
X94559523Y6111905D01*
X94464285Y5997620D01*
X94416666Y5845239D01*
X94416666Y5540477D01*
X94464285Y5464286D01*
X94511904Y5426191D01*
X94607142Y5388096D01*
X94797619Y5388096D01*
X94892857Y5426191D01*
X94940476Y5464286D01*
X94988095Y5540477D01*
X94988095Y5730953D01*
X94940476Y5807143D01*
X94892857Y5845239D01*
X94797619Y5883334D01*
X94607142Y5883334D01*
X94511904Y5845239D01*
X94464285Y5807143D01*
X94416666Y5730953D01*
X103809523Y5888096D02*
X103809523Y6688096D01*
X104047619Y6688096D01*
X104190476Y6650000D01*
X104285714Y6573810D01*
X104333333Y6497620D01*
X104380952Y6345239D01*
X104380952Y6230953D01*
X104333333Y6078572D01*
X104285714Y6002381D01*
X104190476Y5926191D01*
X104047619Y5888096D01*
X103809523Y5888096D01*
X104761904Y6611905D02*
X104809523Y6650000D01*
X104904761Y6688096D01*
X105142857Y6688096D01*
X105238095Y6650000D01*
X105285714Y6611905D01*
X105333333Y6535715D01*
X105333333Y6459524D01*
X105285714Y6345239D01*
X104714285Y5888096D01*
X105333333Y5888096D01*
X105952380Y6688096D02*
X106047619Y6688096D01*
X106142857Y6650000D01*
X106190476Y6611905D01*
X106238095Y6535715D01*
X106285714Y6383334D01*
X106285714Y6192858D01*
X106238095Y6040477D01*
X106190476Y5964286D01*
X106142857Y5926191D01*
X106047619Y5888096D01*
X105952380Y5888096D01*
X105857142Y5926191D01*
X105809523Y5964286D01*
X105761904Y6040477D01*
X105714285Y6192858D01*
X105714285Y6383334D01*
X105761904Y6535715D01*
X105809523Y6611905D01*
X105857142Y6650000D01*
X105952380Y6688096D01*
X107190476Y6688096D02*
X106714285Y6688096D01*
X106666666Y6307143D01*
X106714285Y6345239D01*
X106809523Y6383334D01*
X107047619Y6383334D01*
X107142857Y6345239D01*
X107190476Y6307143D01*
X107238095Y6230953D01*
X107238095Y6040477D01*
X107190476Y5964286D01*
X107142857Y5926191D01*
X107047619Y5888096D01*
X106809523Y5888096D01*
X106714285Y5926191D01*
X106666666Y5964286D01*
X103809523Y4888096D02*
X103809523Y5688096D01*
X104047619Y5688096D01*
X104190476Y5650000D01*
X104285714Y5573810D01*
X104333333Y5497620D01*
X104380952Y5345239D01*
X104380952Y5230953D01*
X104333333Y5078572D01*
X104285714Y5002381D01*
X104190476Y4926191D01*
X104047619Y4888096D01*
X103809523Y4888096D01*
X104761904Y5611905D02*
X104809523Y5650000D01*
X104904761Y5688096D01*
X105142857Y5688096D01*
X105238095Y5650000D01*
X105285714Y5611905D01*
X105333333Y5535715D01*
X105333333Y5459524D01*
X105285714Y5345239D01*
X104714285Y4888096D01*
X105333333Y4888096D01*
X105952380Y5688096D02*
X106047619Y5688096D01*
X106142857Y5650000D01*
X106190476Y5611905D01*
X106238095Y5535715D01*
X106285714Y5383334D01*
X106285714Y5192858D01*
X106238095Y5040477D01*
X106190476Y4964286D01*
X106142857Y4926191D01*
X106047619Y4888096D01*
X105952380Y4888096D01*
X105857142Y4926191D01*
X105809523Y4964286D01*
X105761904Y5040477D01*
X105714285Y5192858D01*
X105714285Y5383334D01*
X105761904Y5535715D01*
X105809523Y5611905D01*
X105857142Y5650000D01*
X105952380Y5688096D01*
X107142857Y5421429D02*
X107142857Y4888096D01*
X106904761Y5726191D02*
X106666666Y5154762D01*
X107285714Y5154762D01*
X91880952Y6714286D02*
X91833333Y6676191D01*
X91690476Y6638096D01*
X91595238Y6638096D01*
X91452380Y6676191D01*
X91357142Y6752381D01*
X91309523Y6828572D01*
X91261904Y6980953D01*
X91261904Y7095239D01*
X91309523Y7247620D01*
X91357142Y7323810D01*
X91452380Y7400000D01*
X91595238Y7438096D01*
X91690476Y7438096D01*
X91833333Y7400000D01*
X91880952Y7361905D01*
X92261904Y7361905D02*
X92309523Y7400000D01*
X92404761Y7438096D01*
X92642857Y7438096D01*
X92738095Y7400000D01*
X92785714Y7361905D01*
X92833333Y7285715D01*
X92833333Y7209524D01*
X92785714Y7095239D01*
X92214285Y6638096D01*
X92833333Y6638096D01*
X93166666Y7438096D02*
X93785714Y7438096D01*
X93452380Y7133334D01*
X93595238Y7133334D01*
X93690476Y7095239D01*
X93738095Y7057143D01*
X93785714Y6980953D01*
X93785714Y6790477D01*
X93738095Y6714286D01*
X93690476Y6676191D01*
X93595238Y6638096D01*
X93309523Y6638096D01*
X93214285Y6676191D01*
X93166666Y6714286D01*
X94357142Y7095239D02*
X94261904Y7133334D01*
X94214285Y7171429D01*
X94166666Y7247620D01*
X94166666Y7285715D01*
X94214285Y7361905D01*
X94261904Y7400000D01*
X94357142Y7438096D01*
X94547619Y7438096D01*
X94642857Y7400000D01*
X94690476Y7361905D01*
X94738095Y7285715D01*
X94738095Y7247620D01*
X94690476Y7171429D01*
X94642857Y7133334D01*
X94547619Y7095239D01*
X94357142Y7095239D01*
X94261904Y7057143D01*
X94214285Y7019048D01*
X94166666Y6942858D01*
X94166666Y6790477D01*
X94214285Y6714286D01*
X94261904Y6676191D01*
X94357142Y6638096D01*
X94547619Y6638096D01*
X94642857Y6676191D01*
X94690476Y6714286D01*
X94738095Y6790477D01*
X94738095Y6942858D01*
X94690476Y7019048D01*
X94642857Y7057143D01*
X94547619Y7095239D01*
X92130952Y18964286D02*
X92083333Y18926191D01*
X91940476Y18888096D01*
X91845238Y18888096D01*
X91702380Y18926191D01*
X91607142Y19002381D01*
X91559523Y19078572D01*
X91511904Y19230953D01*
X91511904Y19345239D01*
X91559523Y19497620D01*
X91607142Y19573810D01*
X91702380Y19650000D01*
X91845238Y19688096D01*
X91940476Y19688096D01*
X92083333Y19650000D01*
X92130952Y19611905D01*
X92511904Y19611905D02*
X92559523Y19650000D01*
X92654761Y19688096D01*
X92892857Y19688096D01*
X92988095Y19650000D01*
X93035714Y19611905D01*
X93083333Y19535715D01*
X93083333Y19459524D01*
X93035714Y19345239D01*
X92464285Y18888096D01*
X93083333Y18888096D01*
X93416666Y19688096D02*
X94035714Y19688096D01*
X93702380Y19383334D01*
X93845238Y19383334D01*
X93940476Y19345239D01*
X93988095Y19307143D01*
X94035714Y19230953D01*
X94035714Y19040477D01*
X93988095Y18964286D01*
X93940476Y18926191D01*
X93845238Y18888096D01*
X93559523Y18888096D01*
X93464285Y18926191D01*
X93416666Y18964286D01*
X94369047Y19688096D02*
X95035714Y19688096D01*
X94607142Y18888096D01*
X92130952Y17964286D02*
X92083333Y17926191D01*
X91940476Y17888096D01*
X91845238Y17888096D01*
X91702380Y17926191D01*
X91607142Y18002381D01*
X91559523Y18078572D01*
X91511904Y18230953D01*
X91511904Y18345239D01*
X91559523Y18497620D01*
X91607142Y18573810D01*
X91702380Y18650000D01*
X91845238Y18688096D01*
X91940476Y18688096D01*
X92083333Y18650000D01*
X92130952Y18611905D01*
X92511904Y18611905D02*
X92559523Y18650000D01*
X92654761Y18688096D01*
X92892857Y18688096D01*
X92988095Y18650000D01*
X93035714Y18611905D01*
X93083333Y18535715D01*
X93083333Y18459524D01*
X93035714Y18345239D01*
X92464285Y17888096D01*
X93083333Y17888096D01*
X93416666Y18688096D02*
X94035714Y18688096D01*
X93702380Y18383334D01*
X93845238Y18383334D01*
X93940476Y18345239D01*
X93988095Y18307143D01*
X94035714Y18230953D01*
X94035714Y18040477D01*
X93988095Y17964286D01*
X93940476Y17926191D01*
X93845238Y17888096D01*
X93559523Y17888096D01*
X93464285Y17926191D01*
X93416666Y17964286D01*
X94892857Y18688096D02*
X94702380Y18688096D01*
X94607142Y18650000D01*
X94559523Y18611905D01*
X94464285Y18497620D01*
X94416666Y18345239D01*
X94416666Y18040477D01*
X94464285Y17964286D01*
X94511904Y17926191D01*
X94607142Y17888096D01*
X94797619Y17888096D01*
X94892857Y17926191D01*
X94940476Y17964286D01*
X94988095Y18040477D01*
X94988095Y18230953D01*
X94940476Y18307143D01*
X94892857Y18345239D01*
X94797619Y18383334D01*
X94607142Y18383334D01*
X94511904Y18345239D01*
X94464285Y18307143D01*
X94416666Y18230953D01*
X112380952Y37464286D02*
X112333333Y37426191D01*
X112190476Y37388096D01*
X112095238Y37388096D01*
X111952380Y37426191D01*
X111857142Y37502381D01*
X111809523Y37578572D01*
X111761904Y37730953D01*
X111761904Y37845239D01*
X111809523Y37997620D01*
X111857142Y38073810D01*
X111952380Y38150000D01*
X112095238Y38188096D01*
X112190476Y38188096D01*
X112333333Y38150000D01*
X112380952Y38111905D01*
X112761904Y38111905D02*
X112809523Y38150000D01*
X112904761Y38188096D01*
X113142857Y38188096D01*
X113238095Y38150000D01*
X113285714Y38111905D01*
X113333333Y38035715D01*
X113333333Y37959524D01*
X113285714Y37845239D01*
X112714285Y37388096D01*
X113333333Y37388096D01*
X113666666Y38188096D02*
X114285714Y38188096D01*
X113952380Y37883334D01*
X114095238Y37883334D01*
X114190476Y37845239D01*
X114238095Y37807143D01*
X114285714Y37730953D01*
X114285714Y37540477D01*
X114238095Y37464286D01*
X114190476Y37426191D01*
X114095238Y37388096D01*
X113809523Y37388096D01*
X113714285Y37426191D01*
X113666666Y37464286D01*
X115190476Y38188096D02*
X114714285Y38188096D01*
X114666666Y37807143D01*
X114714285Y37845239D01*
X114809523Y37883334D01*
X115047619Y37883334D01*
X115142857Y37845239D01*
X115190476Y37807143D01*
X115238095Y37730953D01*
X115238095Y37540477D01*
X115190476Y37464286D01*
X115142857Y37426191D01*
X115047619Y37388096D01*
X114809523Y37388096D01*
X114714285Y37426191D01*
X114666666Y37464286D01*
X114811904Y33214286D02*
X115383333Y33214286D01*
X115497619Y33166667D01*
X115573809Y33071429D01*
X115611904Y32928572D01*
X115611904Y32833334D01*
X114888095Y33642858D02*
X114850000Y33690477D01*
X114811904Y33785715D01*
X114811904Y34023810D01*
X114850000Y34119048D01*
X114888095Y34166667D01*
X114964285Y34214286D01*
X115040476Y34214286D01*
X115154761Y34166667D01*
X115611904Y33595239D01*
X115611904Y34214286D01*
X114811904Y34833334D02*
X114811904Y34928572D01*
X114850000Y35023810D01*
X114888095Y35071429D01*
X114964285Y35119048D01*
X115116666Y35166667D01*
X115307142Y35166667D01*
X115459523Y35119048D01*
X115535714Y35071429D01*
X115573809Y35023810D01*
X115611904Y34928572D01*
X115611904Y34833334D01*
X115573809Y34738096D01*
X115535714Y34690477D01*
X115459523Y34642858D01*
X115307142Y34595239D01*
X115116666Y34595239D01*
X114964285Y34642858D01*
X114888095Y34690477D01*
X114850000Y34738096D01*
X114811904Y34833334D01*
X114811904Y36023810D02*
X114811904Y35833334D01*
X114850000Y35738096D01*
X114888095Y35690477D01*
X115002380Y35595239D01*
X115154761Y35547620D01*
X115459523Y35547620D01*
X115535714Y35595239D01*
X115573809Y35642858D01*
X115611904Y35738096D01*
X115611904Y35928572D01*
X115573809Y36023810D01*
X115535714Y36071429D01*
X115459523Y36119048D01*
X115269047Y36119048D01*
X115192857Y36071429D01*
X115154761Y36023810D01*
X115116666Y35928572D01*
X115116666Y35738096D01*
X115154761Y35642858D01*
X115192857Y35595239D01*
X115269047Y35547620D01*
X88785714Y11380953D02*
X88823809Y11333334D01*
X88861904Y11190477D01*
X88861904Y11095239D01*
X88823809Y10952381D01*
X88747619Y10857143D01*
X88671428Y10809524D01*
X88519047Y10761905D01*
X88404761Y10761905D01*
X88252380Y10809524D01*
X88176190Y10857143D01*
X88100000Y10952381D01*
X88061904Y11095239D01*
X88061904Y11190477D01*
X88100000Y11333334D01*
X88138095Y11380953D01*
X88138095Y11761905D02*
X88100000Y11809524D01*
X88061904Y11904762D01*
X88061904Y12142858D01*
X88100000Y12238096D01*
X88138095Y12285715D01*
X88214285Y12333334D01*
X88290476Y12333334D01*
X88404761Y12285715D01*
X88861904Y11714286D01*
X88861904Y12333334D01*
X88328571Y13190477D02*
X88861904Y13190477D01*
X88023809Y12952381D02*
X88595238Y12714286D01*
X88595238Y13333334D01*
X88061904Y13904762D02*
X88061904Y14000000D01*
X88100000Y14095239D01*
X88138095Y14142858D01*
X88214285Y14190477D01*
X88366666Y14238096D01*
X88557142Y14238096D01*
X88709523Y14190477D01*
X88785714Y14142858D01*
X88823809Y14095239D01*
X88861904Y14000000D01*
X88861904Y13904762D01*
X88823809Y13809524D01*
X88785714Y13761905D01*
X88709523Y13714286D01*
X88557142Y13666667D01*
X88366666Y13666667D01*
X88214285Y13714286D01*
X88138095Y13761905D01*
X88100000Y13809524D01*
X88061904Y13904762D01*
X86380952Y20714286D02*
X86333333Y20676191D01*
X86190476Y20638096D01*
X86095238Y20638096D01*
X85952380Y20676191D01*
X85857142Y20752381D01*
X85809523Y20828572D01*
X85761904Y20980953D01*
X85761904Y21095239D01*
X85809523Y21247620D01*
X85857142Y21323810D01*
X85952380Y21400000D01*
X86095238Y21438096D01*
X86190476Y21438096D01*
X86333333Y21400000D01*
X86380952Y21361905D01*
X86761904Y21361905D02*
X86809523Y21400000D01*
X86904761Y21438096D01*
X87142857Y21438096D01*
X87238095Y21400000D01*
X87285714Y21361905D01*
X87333333Y21285715D01*
X87333333Y21209524D01*
X87285714Y21095239D01*
X86714285Y20638096D01*
X87333333Y20638096D01*
X87666666Y21438096D02*
X88285714Y21438096D01*
X87952380Y21133334D01*
X88095238Y21133334D01*
X88190476Y21095239D01*
X88238095Y21057143D01*
X88285714Y20980953D01*
X88285714Y20790477D01*
X88238095Y20714286D01*
X88190476Y20676191D01*
X88095238Y20638096D01*
X87809523Y20638096D01*
X87714285Y20676191D01*
X87666666Y20714286D01*
X88761904Y20638096D02*
X88952380Y20638096D01*
X89047619Y20676191D01*
X89095238Y20714286D01*
X89190476Y20828572D01*
X89238095Y20980953D01*
X89238095Y21285715D01*
X89190476Y21361905D01*
X89142857Y21400000D01*
X89047619Y21438096D01*
X88857142Y21438096D01*
X88761904Y21400000D01*
X88714285Y21361905D01*
X88666666Y21285715D01*
X88666666Y21095239D01*
X88714285Y21019048D01*
X88761904Y20980953D01*
X88857142Y20942858D01*
X89047619Y20942858D01*
X89142857Y20980953D01*
X89190476Y21019048D01*
X89238095Y21095239D01*
X44414285Y50438096D02*
X44414285Y49866667D01*
X44366666Y49752381D01*
X44271428Y49676191D01*
X44128571Y49638096D01*
X44033333Y49638096D01*
X45414285Y49638096D02*
X44842857Y49638096D01*
X45128571Y49638096D02*
X45128571Y50438096D01*
X45033333Y50323810D01*
X44938095Y50247620D01*
X44842857Y50209524D01*
X46033333Y50438096D02*
X46128571Y50438096D01*
X46223809Y50400000D01*
X46271428Y50361905D01*
X46319047Y50285715D01*
X46366666Y50133334D01*
X46366666Y49942858D01*
X46319047Y49790477D01*
X46271428Y49714286D01*
X46223809Y49676191D01*
X46128571Y49638096D01*
X46033333Y49638096D01*
X45938095Y49676191D01*
X45890476Y49714286D01*
X45842857Y49790477D01*
X45795238Y49942858D01*
X45795238Y50133334D01*
X45842857Y50285715D01*
X45890476Y50361905D01*
X45938095Y50400000D01*
X46033333Y50438096D01*
X46747619Y50361905D02*
X46795238Y50400000D01*
X46890476Y50438096D01*
X47128571Y50438096D01*
X47223809Y50400000D01*
X47271428Y50361905D01*
X47319047Y50285715D01*
X47319047Y50209524D01*
X47271428Y50095239D01*
X46700000Y49638096D01*
X47319047Y49638096D01*
X116561904Y29214286D02*
X117133333Y29214286D01*
X117247619Y29166667D01*
X117323809Y29071429D01*
X117361904Y28928572D01*
X117361904Y28833334D01*
X116638095Y29642858D02*
X116600000Y29690477D01*
X116561904Y29785715D01*
X116561904Y30023810D01*
X116600000Y30119048D01*
X116638095Y30166667D01*
X116714285Y30214286D01*
X116790476Y30214286D01*
X116904761Y30166667D01*
X117361904Y29595239D01*
X117361904Y30214286D01*
X116561904Y30833334D02*
X116561904Y30928572D01*
X116600000Y31023810D01*
X116638095Y31071429D01*
X116714285Y31119048D01*
X116866666Y31166667D01*
X117057142Y31166667D01*
X117209523Y31119048D01*
X117285714Y31071429D01*
X117323809Y31023810D01*
X117361904Y30928572D01*
X117361904Y30833334D01*
X117323809Y30738096D01*
X117285714Y30690477D01*
X117209523Y30642858D01*
X117057142Y30595239D01*
X116866666Y30595239D01*
X116714285Y30642858D01*
X116638095Y30690477D01*
X116600000Y30738096D01*
X116561904Y30833334D01*
X116561904Y31500000D02*
X116561904Y32166667D01*
X117361904Y31738096D01*
X8761904Y41180953D02*
X8380952Y40847620D01*
X8761904Y40609524D02*
X7961904Y40609524D01*
X7961904Y40990477D01*
X8000000Y41085715D01*
X8038095Y41133334D01*
X8114285Y41180953D01*
X8228571Y41180953D01*
X8304761Y41133334D01*
X8342857Y41085715D01*
X8380952Y40990477D01*
X8380952Y40609524D01*
X8761904Y42133334D02*
X8761904Y41561905D01*
X8761904Y41847620D02*
X7961904Y41847620D01*
X8076190Y41752381D01*
X8152380Y41657143D01*
X8190476Y41561905D01*
X7961904Y42752381D02*
X7961904Y42847620D01*
X8000000Y42942858D01*
X8038095Y42990477D01*
X8114285Y43038096D01*
X8266666Y43085715D01*
X8457142Y43085715D01*
X8609523Y43038096D01*
X8685714Y42990477D01*
X8723809Y42942858D01*
X8761904Y42847620D01*
X8761904Y42752381D01*
X8723809Y42657143D01*
X8685714Y42609524D01*
X8609523Y42561905D01*
X8457142Y42514286D01*
X8266666Y42514286D01*
X8114285Y42561905D01*
X8038095Y42609524D01*
X8000000Y42657143D01*
X7961904Y42752381D01*
X8228571Y43942858D02*
X8761904Y43942858D01*
X7923809Y43704762D02*
X8495238Y43466667D01*
X8495238Y44085715D01*
X8830952Y14214286D02*
X8783333Y14176191D01*
X8640476Y14138096D01*
X8545238Y14138096D01*
X8402380Y14176191D01*
X8307142Y14252381D01*
X8259523Y14328572D01*
X8211904Y14480953D01*
X8211904Y14595239D01*
X8259523Y14747620D01*
X8307142Y14823810D01*
X8402380Y14900000D01*
X8545238Y14938096D01*
X8640476Y14938096D01*
X8783333Y14900000D01*
X8830952Y14861905D01*
X9783333Y14138096D02*
X9211904Y14138096D01*
X9497619Y14138096D02*
X9497619Y14938096D01*
X9402380Y14823810D01*
X9307142Y14747620D01*
X9211904Y14709524D01*
X10402380Y14938096D02*
X10497619Y14938096D01*
X10592857Y14900000D01*
X10640476Y14861905D01*
X10688095Y14785715D01*
X10735714Y14633334D01*
X10735714Y14442858D01*
X10688095Y14290477D01*
X10640476Y14214286D01*
X10592857Y14176191D01*
X10497619Y14138096D01*
X10402380Y14138096D01*
X10307142Y14176191D01*
X10259523Y14214286D01*
X10211904Y14290477D01*
X10164285Y14442858D01*
X10164285Y14633334D01*
X10211904Y14785715D01*
X10259523Y14861905D01*
X10307142Y14900000D01*
X10402380Y14938096D01*
X11640476Y14938096D02*
X11164285Y14938096D01*
X11116666Y14557143D01*
X11164285Y14595239D01*
X11259523Y14633334D01*
X11497619Y14633334D01*
X11592857Y14595239D01*
X11640476Y14557143D01*
X11688095Y14480953D01*
X11688095Y14290477D01*
X11640476Y14214286D01*
X11592857Y14176191D01*
X11497619Y14138096D01*
X11259523Y14138096D01*
X11164285Y14176191D01*
X11116666Y14214286D01*
X14214285Y1538096D02*
X14880952Y1538096D01*
X14214285Y738096D01*
X14880952Y738096D01*
X15261904Y738096D02*
X15261904Y1538096D01*
X15833333Y738096D01*
X15833333Y1538096D01*
X16880952Y738096D02*
X16547619Y1119048D01*
X16309523Y738096D02*
X16309523Y1538096D01*
X16690476Y1538096D01*
X16785714Y1500000D01*
X16833333Y1461905D01*
X16880952Y1385715D01*
X16880952Y1271429D01*
X16833333Y1195239D01*
X16785714Y1157143D01*
X16690476Y1119048D01*
X16309523Y1119048D01*
X17833333Y738096D02*
X17261904Y738096D01*
X17547619Y738096D02*
X17547619Y1538096D01*
X17452380Y1423810D01*
X17357142Y1347620D01*
X17261904Y1309524D01*
X18452380Y1538096D02*
X18547619Y1538096D01*
X18642857Y1500000D01*
X18690476Y1461905D01*
X18738095Y1385715D01*
X18785714Y1233334D01*
X18785714Y1042858D01*
X18738095Y890477D01*
X18690476Y814286D01*
X18642857Y776191D01*
X18547619Y738096D01*
X18452380Y738096D01*
X18357142Y776191D01*
X18309523Y814286D01*
X18261904Y890477D01*
X18214285Y1042858D01*
X18214285Y1233334D01*
X18261904Y1385715D01*
X18309523Y1461905D01*
X18357142Y1500000D01*
X18452380Y1538096D01*
X19166666Y1461905D02*
X19214285Y1500000D01*
X19309523Y1538096D01*
X19547619Y1538096D01*
X19642857Y1500000D01*
X19690476Y1461905D01*
X19738095Y1385715D01*
X19738095Y1309524D01*
X19690476Y1195239D01*
X19119047Y738096D01*
X19738095Y738096D01*
X51235714Y26397620D02*
X51235714Y25588096D01*
X51283333Y25492858D01*
X51330952Y25445239D01*
X51426190Y25397620D01*
X51616666Y25397620D01*
X51711904Y25445239D01*
X51759523Y25492858D01*
X51807142Y25588096D01*
X51807142Y26397620D01*
X52807142Y25397620D02*
X52235714Y25397620D01*
X52521428Y25397620D02*
X52521428Y26397620D01*
X52426190Y26254762D01*
X52330952Y26159524D01*
X52235714Y26111905D01*
X53426190Y26397620D02*
X53521428Y26397620D01*
X53616666Y26350000D01*
X53664285Y26302381D01*
X53711904Y26207143D01*
X53759523Y26016667D01*
X53759523Y25778572D01*
X53711904Y25588096D01*
X53664285Y25492858D01*
X53616666Y25445239D01*
X53521428Y25397620D01*
X53426190Y25397620D01*
X53330952Y25445239D01*
X53283333Y25492858D01*
X53235714Y25588096D01*
X53188095Y25778572D01*
X53188095Y26016667D01*
X53235714Y26207143D01*
X53283333Y26302381D01*
X53330952Y26350000D01*
X53426190Y26397620D01*
X54616666Y26064286D02*
X54616666Y25397620D01*
X54378571Y26445239D02*
X54140476Y25730953D01*
X54759523Y25730953D01*
X18552380Y15285715D02*
X19361904Y15285715D01*
X19457142Y15333334D01*
X19504761Y15380953D01*
X19552380Y15476191D01*
X19552380Y15666667D01*
X19504761Y15761905D01*
X19457142Y15809524D01*
X19361904Y15857143D01*
X18552380Y15857143D01*
X19552380Y16857143D02*
X19552380Y16285715D01*
X19552380Y16571429D02*
X18552380Y16571429D01*
X18695238Y16476191D01*
X18790476Y16380953D01*
X18838095Y16285715D01*
X18552380Y17476191D02*
X18552380Y17571429D01*
X18600000Y17666667D01*
X18647619Y17714286D01*
X18742857Y17761905D01*
X18933333Y17809524D01*
X19171428Y17809524D01*
X19361904Y17761905D01*
X19457142Y17714286D01*
X19504761Y17666667D01*
X19552380Y17571429D01*
X19552380Y17476191D01*
X19504761Y17380953D01*
X19457142Y17333334D01*
X19361904Y17285715D01*
X19171428Y17238096D01*
X18933333Y17238096D01*
X18742857Y17285715D01*
X18647619Y17333334D01*
X18600000Y17380953D01*
X18552380Y17476191D01*
X18552380Y18142858D02*
X18552380Y18761905D01*
X18933333Y18428572D01*
X18933333Y18571429D01*
X18980952Y18666667D01*
X19028571Y18714286D01*
X19123809Y18761905D01*
X19361904Y18761905D01*
X19457142Y18714286D01*
X19504761Y18666667D01*
X19552380Y18571429D01*
X19552380Y18285715D01*
X19504761Y18190477D01*
X19457142Y18142858D01*
X18061904Y8138096D02*
X18633333Y8138096D01*
X18347619Y7338096D02*
X18347619Y8138096D01*
X18966666Y7338096D02*
X18966666Y8138096D01*
X18966666Y7757143D02*
X19538095Y7757143D01*
X19538095Y7338096D02*
X19538095Y8138096D01*
X20538095Y7338096D02*
X19966666Y7338096D01*
X20252380Y7338096D02*
X20252380Y8138096D01*
X20157142Y8023810D01*
X20061904Y7947620D01*
X19966666Y7909524D01*
X21157142Y8138096D02*
X21252380Y8138096D01*
X21347619Y8100000D01*
X21395238Y8061905D01*
X21442857Y7985715D01*
X21490476Y7833334D01*
X21490476Y7642858D01*
X21442857Y7490477D01*
X21395238Y7414286D01*
X21347619Y7376191D01*
X21252380Y7338096D01*
X21157142Y7338096D01*
X21061904Y7376191D01*
X21014285Y7414286D01*
X20966666Y7490477D01*
X20919047Y7642858D01*
X20919047Y7833334D01*
X20966666Y7985715D01*
X21014285Y8061905D01*
X21061904Y8100000D01*
X21157142Y8138096D01*
X21823809Y8138096D02*
X22442857Y8138096D01*
X22109523Y7833334D01*
X22252380Y7833334D01*
X22347619Y7795239D01*
X22395238Y7757143D01*
X22442857Y7680953D01*
X22442857Y7490477D01*
X22395238Y7414286D01*
X22347619Y7376191D01*
X22252380Y7338096D01*
X21966666Y7338096D01*
X21871428Y7376191D01*
X21823809Y7414286D01*
X14261904Y41961905D02*
X14261904Y42533334D01*
X15061904Y42247620D02*
X14261904Y42247620D01*
X15061904Y42866667D02*
X14261904Y42866667D01*
X14642857Y42866667D02*
X14642857Y43438096D01*
X15061904Y43438096D02*
X14261904Y43438096D01*
X15061904Y44438096D02*
X15061904Y43866667D01*
X15061904Y44152381D02*
X14261904Y44152381D01*
X14376190Y44057143D01*
X14452380Y43961905D01*
X14490476Y43866667D01*
X14261904Y45057143D02*
X14261904Y45152381D01*
X14300000Y45247620D01*
X14338095Y45295239D01*
X14414285Y45342858D01*
X14566666Y45390477D01*
X14757142Y45390477D01*
X14909523Y45342858D01*
X14985714Y45295239D01*
X15023809Y45247620D01*
X15061904Y45152381D01*
X15061904Y45057143D01*
X15023809Y44961905D01*
X14985714Y44914286D01*
X14909523Y44866667D01*
X14757142Y44819048D01*
X14566666Y44819048D01*
X14414285Y44866667D01*
X14338095Y44914286D01*
X14300000Y44961905D01*
X14261904Y45057143D01*
X14338095Y45771429D02*
X14300000Y45819048D01*
X14261904Y45914286D01*
X14261904Y46152381D01*
X14300000Y46247620D01*
X14338095Y46295239D01*
X14414285Y46342858D01*
X14490476Y46342858D01*
X14604761Y46295239D01*
X15061904Y45723810D01*
X15061904Y46342858D01*
X112073809Y45964286D02*
X112111904Y46107143D01*
X112111904Y46345239D01*
X112073809Y46440477D01*
X112035714Y46488096D01*
X111959523Y46535715D01*
X111883333Y46535715D01*
X111807142Y46488096D01*
X111769047Y46440477D01*
X111730952Y46345239D01*
X111692857Y46154762D01*
X111654761Y46059524D01*
X111616666Y46011905D01*
X111540476Y45964286D01*
X111464285Y45964286D01*
X111388095Y46011905D01*
X111350000Y46059524D01*
X111311904Y46154762D01*
X111311904Y46392858D01*
X111350000Y46535715D01*
X111311904Y46869048D02*
X112111904Y47107143D01*
X111540476Y47297620D01*
X112111904Y47488096D01*
X111311904Y47726191D01*
X111388095Y48059524D02*
X111350000Y48107143D01*
X111311904Y48202381D01*
X111311904Y48440477D01*
X111350000Y48535715D01*
X111388095Y48583334D01*
X111464285Y48630953D01*
X111540476Y48630953D01*
X111654761Y48583334D01*
X112111904Y48011905D01*
X112111904Y48630953D01*
X111311904Y49250000D02*
X111311904Y49345239D01*
X111350000Y49440477D01*
X111388095Y49488096D01*
X111464285Y49535715D01*
X111616666Y49583334D01*
X111807142Y49583334D01*
X111959523Y49535715D01*
X112035714Y49488096D01*
X112073809Y49440477D01*
X112111904Y49345239D01*
X112111904Y49250000D01*
X112073809Y49154762D01*
X112035714Y49107143D01*
X111959523Y49059524D01*
X111807142Y49011905D01*
X111616666Y49011905D01*
X111464285Y49059524D01*
X111388095Y49107143D01*
X111350000Y49154762D01*
X111311904Y49250000D01*
X111311904Y49916667D02*
X111311904Y50535715D01*
X111616666Y50202381D01*
X111616666Y50345239D01*
X111654761Y50440477D01*
X111692857Y50488096D01*
X111769047Y50535715D01*
X111959523Y50535715D01*
X112035714Y50488096D01*
X112073809Y50440477D01*
X112111904Y50345239D01*
X112111904Y50059524D01*
X112073809Y49964286D01*
X112035714Y49916667D01*
X115714285Y4676191D02*
X115857142Y4638096D01*
X116095238Y4638096D01*
X116190476Y4676191D01*
X116238095Y4714286D01*
X116285714Y4790477D01*
X116285714Y4866667D01*
X116238095Y4942858D01*
X116190476Y4980953D01*
X116095238Y5019048D01*
X115904761Y5057143D01*
X115809523Y5095239D01*
X115761904Y5133334D01*
X115714285Y5209524D01*
X115714285Y5285715D01*
X115761904Y5361905D01*
X115809523Y5400000D01*
X115904761Y5438096D01*
X116142857Y5438096D01*
X116285714Y5400000D01*
X116619047Y5438096D02*
X116857142Y4638096D01*
X117047619Y5209524D01*
X117238095Y4638096D01*
X117476190Y5438096D01*
X117809523Y5361905D02*
X117857142Y5400000D01*
X117952380Y5438096D01*
X118190476Y5438096D01*
X118285714Y5400000D01*
X118333333Y5361905D01*
X118380952Y5285715D01*
X118380952Y5209524D01*
X118333333Y5095239D01*
X117761904Y4638096D01*
X118380952Y4638096D01*
X119000000Y5438096D02*
X119095238Y5438096D01*
X119190476Y5400000D01*
X119238095Y5361905D01*
X119285714Y5285715D01*
X119333333Y5133334D01*
X119333333Y4942858D01*
X119285714Y4790477D01*
X119238095Y4714286D01*
X119190476Y4676191D01*
X119095238Y4638096D01*
X119000000Y4638096D01*
X118904761Y4676191D01*
X118857142Y4714286D01*
X118809523Y4790477D01*
X118761904Y4942858D01*
X118761904Y5133334D01*
X118809523Y5285715D01*
X118857142Y5361905D01*
X118904761Y5400000D01*
X119000000Y5438096D01*
X119714285Y5361905D02*
X119761904Y5400000D01*
X119857142Y5438096D01*
X120095238Y5438096D01*
X120190476Y5400000D01*
X120238095Y5361905D01*
X120285714Y5285715D01*
X120285714Y5209524D01*
X120238095Y5095239D01*
X119666666Y4638096D01*
X120285714Y4638096D01*
X87380952Y24638096D02*
X87047619Y25019048D01*
X86809523Y24638096D02*
X86809523Y25438096D01*
X87190476Y25438096D01*
X87285714Y25400000D01*
X87333333Y25361905D01*
X87380952Y25285715D01*
X87380952Y25171429D01*
X87333333Y25095239D01*
X87285714Y25057143D01*
X87190476Y25019048D01*
X86809523Y25019048D01*
X87761904Y25361905D02*
X87809523Y25400000D01*
X87904761Y25438096D01*
X88142857Y25438096D01*
X88238095Y25400000D01*
X88285714Y25361905D01*
X88333333Y25285715D01*
X88333333Y25209524D01*
X88285714Y25095239D01*
X87714285Y24638096D01*
X88333333Y24638096D01*
X89238095Y25438096D02*
X88761904Y25438096D01*
X88714285Y25057143D01*
X88761904Y25095239D01*
X88857142Y25133334D01*
X89095238Y25133334D01*
X89190476Y25095239D01*
X89238095Y25057143D01*
X89285714Y24980953D01*
X89285714Y24790477D01*
X89238095Y24714286D01*
X89190476Y24676191D01*
X89095238Y24638096D01*
X88857142Y24638096D01*
X88761904Y24676191D01*
X88714285Y24714286D01*
X89619047Y25438096D02*
X90238095Y25438096D01*
X89904761Y25133334D01*
X90047619Y25133334D01*
X90142857Y25095239D01*
X90190476Y25057143D01*
X90238095Y24980953D01*
X90238095Y24790477D01*
X90190476Y24714286D01*
X90142857Y24676191D01*
X90047619Y24638096D01*
X89761904Y24638096D01*
X89666666Y24676191D01*
X89619047Y24714286D01*
X87380952Y25638096D02*
X87047619Y26019048D01*
X86809523Y25638096D02*
X86809523Y26438096D01*
X87190476Y26438096D01*
X87285714Y26400000D01*
X87333333Y26361905D01*
X87380952Y26285715D01*
X87380952Y26171429D01*
X87333333Y26095239D01*
X87285714Y26057143D01*
X87190476Y26019048D01*
X86809523Y26019048D01*
X87761904Y26361905D02*
X87809523Y26400000D01*
X87904761Y26438096D01*
X88142857Y26438096D01*
X88238095Y26400000D01*
X88285714Y26361905D01*
X88333333Y26285715D01*
X88333333Y26209524D01*
X88285714Y26095239D01*
X87714285Y25638096D01*
X88333333Y25638096D01*
X89238095Y26438096D02*
X88761904Y26438096D01*
X88714285Y26057143D01*
X88761904Y26095239D01*
X88857142Y26133334D01*
X89095238Y26133334D01*
X89190476Y26095239D01*
X89238095Y26057143D01*
X89285714Y25980953D01*
X89285714Y25790477D01*
X89238095Y25714286D01*
X89190476Y25676191D01*
X89095238Y25638096D01*
X88857142Y25638096D01*
X88761904Y25676191D01*
X88714285Y25714286D01*
X89666666Y26361905D02*
X89714285Y26400000D01*
X89809523Y26438096D01*
X90047619Y26438096D01*
X90142857Y26400000D01*
X90190476Y26361905D01*
X90238095Y26285715D01*
X90238095Y26209524D01*
X90190476Y26095239D01*
X89619047Y25638096D01*
X90238095Y25638096D01*
X114630952Y41638096D02*
X114297619Y42019048D01*
X114059523Y41638096D02*
X114059523Y42438096D01*
X114440476Y42438096D01*
X114535714Y42400000D01*
X114583333Y42361905D01*
X114630952Y42285715D01*
X114630952Y42171429D01*
X114583333Y42095239D01*
X114535714Y42057143D01*
X114440476Y42019048D01*
X114059523Y42019048D01*
X115011904Y42361905D02*
X115059523Y42400000D01*
X115154761Y42438096D01*
X115392857Y42438096D01*
X115488095Y42400000D01*
X115535714Y42361905D01*
X115583333Y42285715D01*
X115583333Y42209524D01*
X115535714Y42095239D01*
X114964285Y41638096D01*
X115583333Y41638096D01*
X116488095Y42438096D02*
X116011904Y42438096D01*
X115964285Y42057143D01*
X116011904Y42095239D01*
X116107142Y42133334D01*
X116345238Y42133334D01*
X116440476Y42095239D01*
X116488095Y42057143D01*
X116535714Y41980953D01*
X116535714Y41790477D01*
X116488095Y41714286D01*
X116440476Y41676191D01*
X116345238Y41638096D01*
X116107142Y41638096D01*
X116011904Y41676191D01*
X115964285Y41714286D01*
X117488095Y41638096D02*
X116916666Y41638096D01*
X117202380Y41638096D02*
X117202380Y42438096D01*
X117107142Y42323810D01*
X117011904Y42247620D01*
X116916666Y42209524D01*
X116130952Y43888096D02*
X115797619Y44269048D01*
X115559523Y43888096D02*
X115559523Y44688096D01*
X115940476Y44688096D01*
X116035714Y44650000D01*
X116083333Y44611905D01*
X116130952Y44535715D01*
X116130952Y44421429D01*
X116083333Y44345239D01*
X116035714Y44307143D01*
X115940476Y44269048D01*
X115559523Y44269048D01*
X116511904Y44611905D02*
X116559523Y44650000D01*
X116654761Y44688096D01*
X116892857Y44688096D01*
X116988095Y44650000D01*
X117035714Y44611905D01*
X117083333Y44535715D01*
X117083333Y44459524D01*
X117035714Y44345239D01*
X116464285Y43888096D01*
X117083333Y43888096D01*
X117988095Y44688096D02*
X117511904Y44688096D01*
X117464285Y44307143D01*
X117511904Y44345239D01*
X117607142Y44383334D01*
X117845238Y44383334D01*
X117940476Y44345239D01*
X117988095Y44307143D01*
X118035714Y44230953D01*
X118035714Y44040477D01*
X117988095Y43964286D01*
X117940476Y43926191D01*
X117845238Y43888096D01*
X117607142Y43888096D01*
X117511904Y43926191D01*
X117464285Y43964286D01*
X118654761Y44688096D02*
X118750000Y44688096D01*
X118845238Y44650000D01*
X118892857Y44611905D01*
X118940476Y44535715D01*
X118988095Y44383334D01*
X118988095Y44192858D01*
X118940476Y44040477D01*
X118892857Y43964286D01*
X118845238Y43926191D01*
X118750000Y43888096D01*
X118654761Y43888096D01*
X118559523Y43926191D01*
X118511904Y43964286D01*
X118464285Y44040477D01*
X118416666Y44192858D01*
X118416666Y44383334D01*
X118464285Y44535715D01*
X118511904Y44611905D01*
X118559523Y44650000D01*
X118654761Y44688096D01*
X102111904Y25130953D02*
X101730952Y24797620D01*
X102111904Y24559524D02*
X101311904Y24559524D01*
X101311904Y24940477D01*
X101350000Y25035715D01*
X101388095Y25083334D01*
X101464285Y25130953D01*
X101578571Y25130953D01*
X101654761Y25083334D01*
X101692857Y25035715D01*
X101730952Y24940477D01*
X101730952Y24559524D01*
X101388095Y25511905D02*
X101350000Y25559524D01*
X101311904Y25654762D01*
X101311904Y25892858D01*
X101350000Y25988096D01*
X101388095Y26035715D01*
X101464285Y26083334D01*
X101540476Y26083334D01*
X101654761Y26035715D01*
X102111904Y25464286D01*
X102111904Y26083334D01*
X101311904Y26416667D02*
X101311904Y27035715D01*
X101616666Y26702381D01*
X101616666Y26845239D01*
X101654761Y26940477D01*
X101692857Y26988096D01*
X101769047Y27035715D01*
X101959523Y27035715D01*
X102035714Y26988096D01*
X102073809Y26940477D01*
X102111904Y26845239D01*
X102111904Y26559524D01*
X102073809Y26464286D01*
X102035714Y26416667D01*
X101311904Y27369048D02*
X101311904Y27988096D01*
X101616666Y27654762D01*
X101616666Y27797620D01*
X101654761Y27892858D01*
X101692857Y27940477D01*
X101769047Y27988096D01*
X101959523Y27988096D01*
X102035714Y27940477D01*
X102073809Y27892858D01*
X102111904Y27797620D01*
X102111904Y27511905D01*
X102073809Y27416667D01*
X102035714Y27369048D01*
X112380952Y36388096D02*
X112047619Y36769048D01*
X111809523Y36388096D02*
X111809523Y37188096D01*
X112190476Y37188096D01*
X112285714Y37150000D01*
X112333333Y37111905D01*
X112380952Y37035715D01*
X112380952Y36921429D01*
X112333333Y36845239D01*
X112285714Y36807143D01*
X112190476Y36769048D01*
X111809523Y36769048D01*
X112761904Y37111905D02*
X112809523Y37150000D01*
X112904761Y37188096D01*
X113142857Y37188096D01*
X113238095Y37150000D01*
X113285714Y37111905D01*
X113333333Y37035715D01*
X113333333Y36959524D01*
X113285714Y36845239D01*
X112714285Y36388096D01*
X113333333Y36388096D01*
X114285714Y36388096D02*
X113714285Y36388096D01*
X114000000Y36388096D02*
X114000000Y37188096D01*
X113904761Y37073810D01*
X113809523Y36997620D01*
X113714285Y36959524D01*
X114761904Y36388096D02*
X114952380Y36388096D01*
X115047619Y36426191D01*
X115095238Y36464286D01*
X115190476Y36578572D01*
X115238095Y36730953D01*
X115238095Y37035715D01*
X115190476Y37111905D01*
X115142857Y37150000D01*
X115047619Y37188096D01*
X114857142Y37188096D01*
X114761904Y37150000D01*
X114714285Y37111905D01*
X114666666Y37035715D01*
X114666666Y36845239D01*
X114714285Y36769048D01*
X114761904Y36730953D01*
X114857142Y36692858D01*
X115047619Y36692858D01*
X115142857Y36730953D01*
X115190476Y36769048D01*
X115238095Y36845239D01*
X112380952Y39388096D02*
X112047619Y39769048D01*
X111809523Y39388096D02*
X111809523Y40188096D01*
X112190476Y40188096D01*
X112285714Y40150000D01*
X112333333Y40111905D01*
X112380952Y40035715D01*
X112380952Y39921429D01*
X112333333Y39845239D01*
X112285714Y39807143D01*
X112190476Y39769048D01*
X111809523Y39769048D01*
X112761904Y40111905D02*
X112809523Y40150000D01*
X112904761Y40188096D01*
X113142857Y40188096D01*
X113238095Y40150000D01*
X113285714Y40111905D01*
X113333333Y40035715D01*
X113333333Y39959524D01*
X113285714Y39845239D01*
X112714285Y39388096D01*
X113333333Y39388096D01*
X114285714Y39388096D02*
X113714285Y39388096D01*
X114000000Y39388096D02*
X114000000Y40188096D01*
X113904761Y40073810D01*
X113809523Y39997620D01*
X113714285Y39959524D01*
X115142857Y40188096D02*
X114952380Y40188096D01*
X114857142Y40150000D01*
X114809523Y40111905D01*
X114714285Y39997620D01*
X114666666Y39845239D01*
X114666666Y39540477D01*
X114714285Y39464286D01*
X114761904Y39426191D01*
X114857142Y39388096D01*
X115047619Y39388096D01*
X115142857Y39426191D01*
X115190476Y39464286D01*
X115238095Y39540477D01*
X115238095Y39730953D01*
X115190476Y39807143D01*
X115142857Y39845239D01*
X115047619Y39883334D01*
X114857142Y39883334D01*
X114761904Y39845239D01*
X114714285Y39807143D01*
X114666666Y39730953D01*
X111880952Y44138096D02*
X111547619Y44519048D01*
X111309523Y44138096D02*
X111309523Y44938096D01*
X111690476Y44938096D01*
X111785714Y44900000D01*
X111833333Y44861905D01*
X111880952Y44785715D01*
X111880952Y44671429D01*
X111833333Y44595239D01*
X111785714Y44557143D01*
X111690476Y44519048D01*
X111309523Y44519048D01*
X112261904Y44861905D02*
X112309523Y44900000D01*
X112404761Y44938096D01*
X112642857Y44938096D01*
X112738095Y44900000D01*
X112785714Y44861905D01*
X112833333Y44785715D01*
X112833333Y44709524D01*
X112785714Y44595239D01*
X112214285Y44138096D01*
X112833333Y44138096D01*
X113785714Y44138096D02*
X113214285Y44138096D01*
X113500000Y44138096D02*
X113500000Y44938096D01*
X113404761Y44823810D01*
X113309523Y44747620D01*
X113214285Y44709524D01*
X114119047Y44938096D02*
X114738095Y44938096D01*
X114404761Y44633334D01*
X114547619Y44633334D01*
X114642857Y44595239D01*
X114690476Y44557143D01*
X114738095Y44480953D01*
X114738095Y44290477D01*
X114690476Y44214286D01*
X114642857Y44176191D01*
X114547619Y44138096D01*
X114261904Y44138096D01*
X114166666Y44176191D01*
X114119047Y44214286D01*
X87380952Y26638096D02*
X87047619Y27019048D01*
X86809523Y26638096D02*
X86809523Y27438096D01*
X87190476Y27438096D01*
X87285714Y27400000D01*
X87333333Y27361905D01*
X87380952Y27285715D01*
X87380952Y27171429D01*
X87333333Y27095239D01*
X87285714Y27057143D01*
X87190476Y27019048D01*
X86809523Y27019048D01*
X87761904Y27361905D02*
X87809523Y27400000D01*
X87904761Y27438096D01*
X88142857Y27438096D01*
X88238095Y27400000D01*
X88285714Y27361905D01*
X88333333Y27285715D01*
X88333333Y27209524D01*
X88285714Y27095239D01*
X87714285Y26638096D01*
X88333333Y26638096D01*
X89285714Y26638096D02*
X88714285Y26638096D01*
X89000000Y26638096D02*
X89000000Y27438096D01*
X88904761Y27323810D01*
X88809523Y27247620D01*
X88714285Y27209524D01*
X90238095Y26638096D02*
X89666666Y26638096D01*
X89952380Y26638096D02*
X89952380Y27438096D01*
X89857142Y27323810D01*
X89761904Y27247620D01*
X89666666Y27209524D01*
X87380952Y27638096D02*
X87047619Y28019048D01*
X86809523Y27638096D02*
X86809523Y28438096D01*
X87190476Y28438096D01*
X87285714Y28400000D01*
X87333333Y28361905D01*
X87380952Y28285715D01*
X87380952Y28171429D01*
X87333333Y28095239D01*
X87285714Y28057143D01*
X87190476Y28019048D01*
X86809523Y28019048D01*
X87761904Y28361905D02*
X87809523Y28400000D01*
X87904761Y28438096D01*
X88142857Y28438096D01*
X88238095Y28400000D01*
X88285714Y28361905D01*
X88333333Y28285715D01*
X88333333Y28209524D01*
X88285714Y28095239D01*
X87714285Y27638096D01*
X88333333Y27638096D01*
X89285714Y27638096D02*
X88714285Y27638096D01*
X89000000Y27638096D02*
X89000000Y28438096D01*
X88904761Y28323810D01*
X88809523Y28247620D01*
X88714285Y28209524D01*
X89904761Y28438096D02*
X90000000Y28438096D01*
X90095238Y28400000D01*
X90142857Y28361905D01*
X90190476Y28285715D01*
X90238095Y28133334D01*
X90238095Y27942858D01*
X90190476Y27790477D01*
X90142857Y27714286D01*
X90095238Y27676191D01*
X90000000Y27638096D01*
X89904761Y27638096D01*
X89809523Y27676191D01*
X89761904Y27714286D01*
X89714285Y27790477D01*
X89666666Y27942858D01*
X89666666Y28133334D01*
X89714285Y28285715D01*
X89761904Y28361905D01*
X89809523Y28400000D01*
X89904761Y28438096D01*
X85880952Y8138096D02*
X85547619Y8519048D01*
X85309523Y8138096D02*
X85309523Y8938096D01*
X85690476Y8938096D01*
X85785714Y8900000D01*
X85833333Y8861905D01*
X85880952Y8785715D01*
X85880952Y8671429D01*
X85833333Y8595239D01*
X85785714Y8557143D01*
X85690476Y8519048D01*
X85309523Y8519048D01*
X86261904Y8861905D02*
X86309523Y8900000D01*
X86404761Y8938096D01*
X86642857Y8938096D01*
X86738095Y8900000D01*
X86785714Y8861905D01*
X86833333Y8785715D01*
X86833333Y8709524D01*
X86785714Y8595239D01*
X86214285Y8138096D01*
X86833333Y8138096D01*
X87452380Y8938096D02*
X87547619Y8938096D01*
X87642857Y8900000D01*
X87690476Y8861905D01*
X87738095Y8785715D01*
X87785714Y8633334D01*
X87785714Y8442858D01*
X87738095Y8290477D01*
X87690476Y8214286D01*
X87642857Y8176191D01*
X87547619Y8138096D01*
X87452380Y8138096D01*
X87357142Y8176191D01*
X87309523Y8214286D01*
X87261904Y8290477D01*
X87214285Y8442858D01*
X87214285Y8633334D01*
X87261904Y8785715D01*
X87309523Y8861905D01*
X87357142Y8900000D01*
X87452380Y8938096D01*
X88261904Y8138096D02*
X88452380Y8138096D01*
X88547619Y8176191D01*
X88595238Y8214286D01*
X88690476Y8328572D01*
X88738095Y8480953D01*
X88738095Y8785715D01*
X88690476Y8861905D01*
X88642857Y8900000D01*
X88547619Y8938096D01*
X88357142Y8938096D01*
X88261904Y8900000D01*
X88214285Y8861905D01*
X88166666Y8785715D01*
X88166666Y8595239D01*
X88214285Y8519048D01*
X88261904Y8480953D01*
X88357142Y8442858D01*
X88547619Y8442858D01*
X88642857Y8480953D01*
X88690476Y8519048D01*
X88738095Y8595239D01*
X85880952Y6138096D02*
X85547619Y6519048D01*
X85309523Y6138096D02*
X85309523Y6938096D01*
X85690476Y6938096D01*
X85785714Y6900000D01*
X85833333Y6861905D01*
X85880952Y6785715D01*
X85880952Y6671429D01*
X85833333Y6595239D01*
X85785714Y6557143D01*
X85690476Y6519048D01*
X85309523Y6519048D01*
X86261904Y6861905D02*
X86309523Y6900000D01*
X86404761Y6938096D01*
X86642857Y6938096D01*
X86738095Y6900000D01*
X86785714Y6861905D01*
X86833333Y6785715D01*
X86833333Y6709524D01*
X86785714Y6595239D01*
X86214285Y6138096D01*
X86833333Y6138096D01*
X87452380Y6938096D02*
X87547619Y6938096D01*
X87642857Y6900000D01*
X87690476Y6861905D01*
X87738095Y6785715D01*
X87785714Y6633334D01*
X87785714Y6442858D01*
X87738095Y6290477D01*
X87690476Y6214286D01*
X87642857Y6176191D01*
X87547619Y6138096D01*
X87452380Y6138096D01*
X87357142Y6176191D01*
X87309523Y6214286D01*
X87261904Y6290477D01*
X87214285Y6442858D01*
X87214285Y6633334D01*
X87261904Y6785715D01*
X87309523Y6861905D01*
X87357142Y6900000D01*
X87452380Y6938096D01*
X88357142Y6595239D02*
X88261904Y6633334D01*
X88214285Y6671429D01*
X88166666Y6747620D01*
X88166666Y6785715D01*
X88214285Y6861905D01*
X88261904Y6900000D01*
X88357142Y6938096D01*
X88547619Y6938096D01*
X88642857Y6900000D01*
X88690476Y6861905D01*
X88738095Y6785715D01*
X88738095Y6747620D01*
X88690476Y6671429D01*
X88642857Y6633334D01*
X88547619Y6595239D01*
X88357142Y6595239D01*
X88261904Y6557143D01*
X88214285Y6519048D01*
X88166666Y6442858D01*
X88166666Y6290477D01*
X88214285Y6214286D01*
X88261904Y6176191D01*
X88357142Y6138096D01*
X88547619Y6138096D01*
X88642857Y6176191D01*
X88690476Y6214286D01*
X88738095Y6290477D01*
X88738095Y6442858D01*
X88690476Y6519048D01*
X88642857Y6557143D01*
X88547619Y6595239D01*
X111654761Y26388096D02*
X111178571Y26388096D01*
X111178571Y27188096D01*
X111940476Y26426191D02*
X112083333Y26388096D01*
X112321428Y26388096D01*
X112416666Y26426191D01*
X112464285Y26464286D01*
X112511904Y26540477D01*
X112511904Y26616667D01*
X112464285Y26692858D01*
X112416666Y26730953D01*
X112321428Y26769048D01*
X112130952Y26807143D01*
X112035714Y26845239D01*
X111988095Y26883334D01*
X111940476Y26959524D01*
X111940476Y27035715D01*
X111988095Y27111905D01*
X112035714Y27150000D01*
X112130952Y27188096D01*
X112369047Y27188096D01*
X112511904Y27150000D01*
X112892857Y27111905D02*
X112940476Y27150000D01*
X113035714Y27188096D01*
X113273809Y27188096D01*
X113369047Y27150000D01*
X113416666Y27111905D01*
X113464285Y27035715D01*
X113464285Y26959524D01*
X113416666Y26845239D01*
X112845238Y26388096D01*
X113464285Y26388096D01*
X114083333Y27188096D02*
X114178571Y27188096D01*
X114273809Y27150000D01*
X114321428Y27111905D01*
X114369047Y27035715D01*
X114416666Y26883334D01*
X114416666Y26692858D01*
X114369047Y26540477D01*
X114321428Y26464286D01*
X114273809Y26426191D01*
X114178571Y26388096D01*
X114083333Y26388096D01*
X113988095Y26426191D01*
X113940476Y26464286D01*
X113892857Y26540477D01*
X113845238Y26692858D01*
X113845238Y26883334D01*
X113892857Y27035715D01*
X113940476Y27111905D01*
X113988095Y27150000D01*
X114083333Y27188096D01*
X114797619Y27111905D02*
X114845238Y27150000D01*
X114940476Y27188096D01*
X115178571Y27188096D01*
X115273809Y27150000D01*
X115321428Y27111905D01*
X115369047Y27035715D01*
X115369047Y26959524D01*
X115321428Y26845239D01*
X114750000Y26388096D01*
X115369047Y26388096D01*
X108561904Y22214286D02*
X109133333Y22214286D01*
X109247619Y22166667D01*
X109323809Y22071429D01*
X109361904Y21928572D01*
X109361904Y21833334D01*
X108638095Y22642858D02*
X108600000Y22690477D01*
X108561904Y22785715D01*
X108561904Y23023810D01*
X108600000Y23119048D01*
X108638095Y23166667D01*
X108714285Y23214286D01*
X108790476Y23214286D01*
X108904761Y23166667D01*
X109361904Y22595239D01*
X109361904Y23214286D01*
X109361904Y24166667D02*
X109361904Y23595239D01*
X109361904Y23880953D02*
X108561904Y23880953D01*
X108676190Y23785715D01*
X108752380Y23690477D01*
X108790476Y23595239D01*
X109361904Y25119048D02*
X109361904Y24547620D01*
X109361904Y24833334D02*
X108561904Y24833334D01*
X108676190Y24738096D01*
X108752380Y24642858D01*
X108790476Y24547620D01*
X94311904Y21714286D02*
X94883333Y21714286D01*
X94997619Y21666667D01*
X95073809Y21571429D01*
X95111904Y21428572D01*
X95111904Y21333334D01*
X94388095Y22142858D02*
X94350000Y22190477D01*
X94311904Y22285715D01*
X94311904Y22523810D01*
X94350000Y22619048D01*
X94388095Y22666667D01*
X94464285Y22714286D01*
X94540476Y22714286D01*
X94654761Y22666667D01*
X95111904Y22095239D01*
X95111904Y22714286D01*
X95111904Y23666667D02*
X95111904Y23095239D01*
X95111904Y23380953D02*
X94311904Y23380953D01*
X94426190Y23285715D01*
X94502380Y23190477D01*
X94540476Y23095239D01*
X94311904Y24285715D02*
X94311904Y24380953D01*
X94350000Y24476191D01*
X94388095Y24523810D01*
X94464285Y24571429D01*
X94616666Y24619048D01*
X94807142Y24619048D01*
X94959523Y24571429D01*
X95035714Y24523810D01*
X95073809Y24476191D01*
X95111904Y24380953D01*
X95111904Y24285715D01*
X95073809Y24190477D01*
X95035714Y24142858D01*
X94959523Y24095239D01*
X94807142Y24047620D01*
X94616666Y24047620D01*
X94464285Y24095239D01*
X94388095Y24142858D01*
X94350000Y24190477D01*
X94311904Y24285715D01*
X100964285Y1688096D02*
X100964285Y1116667D01*
X100916666Y1002381D01*
X100821428Y926191D01*
X100678571Y888096D01*
X100583333Y888096D01*
X101392857Y1611905D02*
X101440476Y1650000D01*
X101535714Y1688096D01*
X101773809Y1688096D01*
X101869047Y1650000D01*
X101916666Y1611905D01*
X101964285Y1535715D01*
X101964285Y1459524D01*
X101916666Y1345239D01*
X101345238Y888096D01*
X101964285Y888096D01*
X102583333Y1688096D02*
X102678571Y1688096D01*
X102773809Y1650000D01*
X102821428Y1611905D01*
X102869047Y1535715D01*
X102916666Y1383334D01*
X102916666Y1192858D01*
X102869047Y1040477D01*
X102821428Y964286D01*
X102773809Y926191D01*
X102678571Y888096D01*
X102583333Y888096D01*
X102488095Y926191D01*
X102440476Y964286D01*
X102392857Y1040477D01*
X102345238Y1192858D01*
X102345238Y1383334D01*
X102392857Y1535715D01*
X102440476Y1611905D01*
X102488095Y1650000D01*
X102583333Y1688096D01*
X103392857Y888096D02*
X103583333Y888096D01*
X103678571Y926191D01*
X103726190Y964286D01*
X103821428Y1078572D01*
X103869047Y1230953D01*
X103869047Y1535715D01*
X103821428Y1611905D01*
X103773809Y1650000D01*
X103678571Y1688096D01*
X103488095Y1688096D01*
X103392857Y1650000D01*
X103345238Y1611905D01*
X103297619Y1535715D01*
X103297619Y1345239D01*
X103345238Y1269048D01*
X103392857Y1230953D01*
X103488095Y1192858D01*
X103678571Y1192858D01*
X103773809Y1230953D01*
X103821428Y1269048D01*
X103869047Y1345239D01*
X84811904Y714286D02*
X85383333Y714286D01*
X85497619Y666667D01*
X85573809Y571429D01*
X85611904Y428572D01*
X85611904Y333334D01*
X84888095Y1142858D02*
X84850000Y1190477D01*
X84811904Y1285715D01*
X84811904Y1523810D01*
X84850000Y1619048D01*
X84888095Y1666667D01*
X84964285Y1714286D01*
X85040476Y1714286D01*
X85154761Y1666667D01*
X85611904Y1095239D01*
X85611904Y1714286D01*
X84811904Y2333334D02*
X84811904Y2428572D01*
X84850000Y2523810D01*
X84888095Y2571429D01*
X84964285Y2619048D01*
X85116666Y2666667D01*
X85307142Y2666667D01*
X85459523Y2619048D01*
X85535714Y2571429D01*
X85573809Y2523810D01*
X85611904Y2428572D01*
X85611904Y2333334D01*
X85573809Y2238096D01*
X85535714Y2190477D01*
X85459523Y2142858D01*
X85307142Y2095239D01*
X85116666Y2095239D01*
X84964285Y2142858D01*
X84888095Y2190477D01*
X84850000Y2238096D01*
X84811904Y2333334D01*
X85154761Y3238096D02*
X85116666Y3142858D01*
X85078571Y3095239D01*
X85002380Y3047620D01*
X84964285Y3047620D01*
X84888095Y3095239D01*
X84850000Y3142858D01*
X84811904Y3238096D01*
X84811904Y3428572D01*
X84850000Y3523810D01*
X84888095Y3571429D01*
X84964285Y3619048D01*
X85002380Y3619048D01*
X85078571Y3571429D01*
X85116666Y3523810D01*
X85154761Y3428572D01*
X85154761Y3238096D01*
X85192857Y3142858D01*
X85230952Y3095239D01*
X85307142Y3047620D01*
X85459523Y3047620D01*
X85535714Y3095239D01*
X85573809Y3142858D01*
X85611904Y3238096D01*
X85611904Y3428572D01*
X85573809Y3523810D01*
X85535714Y3571429D01*
X85459523Y3619048D01*
X85307142Y3619048D01*
X85230952Y3571429D01*
X85192857Y3523810D01*
X85154761Y3428572D01*
X81061904Y30714286D02*
X81633333Y30714286D01*
X81747619Y30666667D01*
X81823809Y30571429D01*
X81861904Y30428572D01*
X81861904Y30333334D01*
X81138095Y31142858D02*
X81100000Y31190477D01*
X81061904Y31285715D01*
X81061904Y31523810D01*
X81100000Y31619048D01*
X81138095Y31666667D01*
X81214285Y31714286D01*
X81290476Y31714286D01*
X81404761Y31666667D01*
X81861904Y31095239D01*
X81861904Y31714286D01*
X81061904Y32333334D02*
X81061904Y32428572D01*
X81100000Y32523810D01*
X81138095Y32571429D01*
X81214285Y32619048D01*
X81366666Y32666667D01*
X81557142Y32666667D01*
X81709523Y32619048D01*
X81785714Y32571429D01*
X81823809Y32523810D01*
X81861904Y32428572D01*
X81861904Y32333334D01*
X81823809Y32238096D01*
X81785714Y32190477D01*
X81709523Y32142858D01*
X81557142Y32095239D01*
X81366666Y32095239D01*
X81214285Y32142858D01*
X81138095Y32190477D01*
X81100000Y32238096D01*
X81061904Y32333334D01*
X81061904Y33571429D02*
X81061904Y33095239D01*
X81442857Y33047620D01*
X81404761Y33095239D01*
X81366666Y33190477D01*
X81366666Y33428572D01*
X81404761Y33523810D01*
X81442857Y33571429D01*
X81519047Y33619048D01*
X81709523Y33619048D01*
X81785714Y33571429D01*
X81823809Y33523810D01*
X81861904Y33428572D01*
X81861904Y33190477D01*
X81823809Y33095239D01*
X81785714Y33047620D01*
X84964285Y44688096D02*
X84964285Y44116667D01*
X84916666Y44002381D01*
X84821428Y43926191D01*
X84678571Y43888096D01*
X84583333Y43888096D01*
X85392857Y44611905D02*
X85440476Y44650000D01*
X85535714Y44688096D01*
X85773809Y44688096D01*
X85869047Y44650000D01*
X85916666Y44611905D01*
X85964285Y44535715D01*
X85964285Y44459524D01*
X85916666Y44345239D01*
X85345238Y43888096D01*
X85964285Y43888096D01*
X86583333Y44688096D02*
X86678571Y44688096D01*
X86773809Y44650000D01*
X86821428Y44611905D01*
X86869047Y44535715D01*
X86916666Y44383334D01*
X86916666Y44192858D01*
X86869047Y44040477D01*
X86821428Y43964286D01*
X86773809Y43926191D01*
X86678571Y43888096D01*
X86583333Y43888096D01*
X86488095Y43926191D01*
X86440476Y43964286D01*
X86392857Y44040477D01*
X86345238Y44192858D01*
X86345238Y44383334D01*
X86392857Y44535715D01*
X86440476Y44611905D01*
X86488095Y44650000D01*
X86583333Y44688096D01*
X87773809Y44421429D02*
X87773809Y43888096D01*
X87535714Y44726191D02*
X87297619Y44154762D01*
X87916666Y44154762D01*
X84811904Y36464286D02*
X85383333Y36464286D01*
X85497619Y36416667D01*
X85573809Y36321429D01*
X85611904Y36178572D01*
X85611904Y36083334D01*
X84888095Y36892858D02*
X84850000Y36940477D01*
X84811904Y37035715D01*
X84811904Y37273810D01*
X84850000Y37369048D01*
X84888095Y37416667D01*
X84964285Y37464286D01*
X85040476Y37464286D01*
X85154761Y37416667D01*
X85611904Y36845239D01*
X85611904Y37464286D01*
X84811904Y38083334D02*
X84811904Y38178572D01*
X84850000Y38273810D01*
X84888095Y38321429D01*
X84964285Y38369048D01*
X85116666Y38416667D01*
X85307142Y38416667D01*
X85459523Y38369048D01*
X85535714Y38321429D01*
X85573809Y38273810D01*
X85611904Y38178572D01*
X85611904Y38083334D01*
X85573809Y37988096D01*
X85535714Y37940477D01*
X85459523Y37892858D01*
X85307142Y37845239D01*
X85116666Y37845239D01*
X84964285Y37892858D01*
X84888095Y37940477D01*
X84850000Y37988096D01*
X84811904Y38083334D01*
X84811904Y38750000D02*
X84811904Y39369048D01*
X85116666Y39035715D01*
X85116666Y39178572D01*
X85154761Y39273810D01*
X85192857Y39321429D01*
X85269047Y39369048D01*
X85459523Y39369048D01*
X85535714Y39321429D01*
X85573809Y39273810D01*
X85611904Y39178572D01*
X85611904Y38892858D01*
X85573809Y38797620D01*
X85535714Y38750000D01*
X84781082Y21900643D02*
X85185143Y21496582D01*
X85232284Y21382098D01*
X85218815Y21260880D01*
X85144737Y21132927D01*
X85077394Y21065584D01*
X85138003Y22149814D02*
X85144737Y22210423D01*
X85185143Y22304704D01*
X85353502Y22473063D01*
X85447783Y22513469D01*
X85508392Y22520204D01*
X85595938Y22500000D01*
X85649813Y22446126D01*
X85696954Y22331642D01*
X85616142Y21604332D01*
X86053874Y22042065D01*
X85925922Y23045483D02*
X85993265Y23112826D01*
X86087546Y23153232D01*
X86148155Y23159967D01*
X86235702Y23139764D01*
X86377123Y23065686D01*
X86511810Y22930999D01*
X86585888Y22789578D01*
X86606091Y22702031D01*
X86599357Y22641422D01*
X86558951Y22547141D01*
X86491607Y22479797D01*
X86397326Y22439391D01*
X86336717Y22432657D01*
X86249170Y22452860D01*
X86107749Y22526938D01*
X85973062Y22661625D01*
X85898984Y22803046D01*
X85878781Y22890593D01*
X85885516Y22951202D01*
X85925922Y23045483D01*
X86484873Y23496684D02*
X86491607Y23557293D01*
X86532013Y23651574D01*
X86700372Y23819933D01*
X86794653Y23860339D01*
X86855262Y23867074D01*
X86942809Y23846871D01*
X86996683Y23792996D01*
X87043824Y23678512D01*
X86963012Y22951202D01*
X87400744Y23388935D01*
X85059523Y9807143D02*
X84726190Y9807143D01*
X84726190Y9388096D02*
X84726190Y10188096D01*
X85202380Y10188096D01*
X86059523Y9388096D02*
X85583333Y9388096D01*
X85583333Y10188096D01*
X86345238Y10111905D02*
X86392857Y10150000D01*
X86488095Y10188096D01*
X86726190Y10188096D01*
X86821428Y10150000D01*
X86869047Y10111905D01*
X86916666Y10035715D01*
X86916666Y9959524D01*
X86869047Y9845239D01*
X86297619Y9388096D01*
X86916666Y9388096D01*
X87535714Y10188096D02*
X87630952Y10188096D01*
X87726190Y10150000D01*
X87773809Y10111905D01*
X87821428Y10035715D01*
X87869047Y9883334D01*
X87869047Y9692858D01*
X87821428Y9540477D01*
X87773809Y9464286D01*
X87726190Y9426191D01*
X87630952Y9388096D01*
X87535714Y9388096D01*
X87440476Y9426191D01*
X87392857Y9464286D01*
X87345238Y9540477D01*
X87297619Y9692858D01*
X87297619Y9883334D01*
X87345238Y10035715D01*
X87392857Y10111905D01*
X87440476Y10150000D01*
X87535714Y10188096D01*
X88202380Y10188096D02*
X88821428Y10188096D01*
X88488095Y9883334D01*
X88630952Y9883334D01*
X88726190Y9845239D01*
X88773809Y9807143D01*
X88821428Y9730953D01*
X88821428Y9540477D01*
X88773809Y9464286D01*
X88726190Y9426191D01*
X88630952Y9388096D01*
X88345238Y9388096D01*
X88250000Y9426191D01*
X88202380Y9464286D01*
X35009523Y18357143D02*
X34676190Y18357143D01*
X34676190Y17938096D02*
X34676190Y18738096D01*
X35152380Y18738096D01*
X36009523Y17938096D02*
X35533333Y17938096D01*
X35533333Y18738096D01*
X36866666Y17938096D02*
X36295238Y17938096D01*
X36580952Y17938096D02*
X36580952Y18738096D01*
X36485714Y18623810D01*
X36390476Y18547620D01*
X36295238Y18509524D01*
X37485714Y18738096D02*
X37580952Y18738096D01*
X37676190Y18700000D01*
X37723809Y18661905D01*
X37771428Y18585715D01*
X37819047Y18433334D01*
X37819047Y18242858D01*
X37771428Y18090477D01*
X37723809Y18014286D01*
X37676190Y17976191D01*
X37580952Y17938096D01*
X37485714Y17938096D01*
X37390476Y17976191D01*
X37342857Y18014286D01*
X37295238Y18090477D01*
X37247619Y18242858D01*
X37247619Y18433334D01*
X37295238Y18585715D01*
X37342857Y18661905D01*
X37390476Y18700000D01*
X37485714Y18738096D01*
X38200000Y18661905D02*
X38247619Y18700000D01*
X38342857Y18738096D01*
X38580952Y18738096D01*
X38676190Y18700000D01*
X38723809Y18661905D01*
X38771428Y18585715D01*
X38771428Y18509524D01*
X38723809Y18395239D01*
X38152380Y17938096D01*
X38771428Y17938096D01*
X100785714Y22630953D02*
X100823809Y22583334D01*
X100861904Y22440477D01*
X100861904Y22345239D01*
X100823809Y22202381D01*
X100747619Y22107143D01*
X100671428Y22059524D01*
X100519047Y22011905D01*
X100404761Y22011905D01*
X100252380Y22059524D01*
X100176190Y22107143D01*
X100100000Y22202381D01*
X100061904Y22345239D01*
X100061904Y22440477D01*
X100100000Y22583334D01*
X100138095Y22630953D01*
X100138095Y23011905D02*
X100100000Y23059524D01*
X100061904Y23154762D01*
X100061904Y23392858D01*
X100100000Y23488096D01*
X100138095Y23535715D01*
X100214285Y23583334D01*
X100290476Y23583334D01*
X100404761Y23535715D01*
X100861904Y22964286D01*
X100861904Y23583334D01*
X100861904Y24535715D02*
X100861904Y23964286D01*
X100861904Y24250000D02*
X100061904Y24250000D01*
X100176190Y24154762D01*
X100252380Y24059524D01*
X100290476Y23964286D01*
X100061904Y25392858D02*
X100061904Y25202381D01*
X100100000Y25107143D01*
X100138095Y25059524D01*
X100252380Y24964286D01*
X100404761Y24916667D01*
X100709523Y24916667D01*
X100785714Y24964286D01*
X100823809Y25011905D01*
X100861904Y25107143D01*
X100861904Y25297620D01*
X100823809Y25392858D01*
X100785714Y25440477D01*
X100709523Y25488096D01*
X100519047Y25488096D01*
X100442857Y25440477D01*
X100404761Y25392858D01*
X100366666Y25297620D01*
X100366666Y25107143D01*
X100404761Y25011905D01*
X100442857Y24964286D01*
X100519047Y24916667D01*
X100785714Y18380953D02*
X100823809Y18333334D01*
X100861904Y18190477D01*
X100861904Y18095239D01*
X100823809Y17952381D01*
X100747619Y17857143D01*
X100671428Y17809524D01*
X100519047Y17761905D01*
X100404761Y17761905D01*
X100252380Y17809524D01*
X100176190Y17857143D01*
X100100000Y17952381D01*
X100061904Y18095239D01*
X100061904Y18190477D01*
X100100000Y18333334D01*
X100138095Y18380953D01*
X100138095Y18761905D02*
X100100000Y18809524D01*
X100061904Y18904762D01*
X100061904Y19142858D01*
X100100000Y19238096D01*
X100138095Y19285715D01*
X100214285Y19333334D01*
X100290476Y19333334D01*
X100404761Y19285715D01*
X100861904Y18714286D01*
X100861904Y19333334D01*
X100861904Y20285715D02*
X100861904Y19714286D01*
X100861904Y20000000D02*
X100061904Y20000000D01*
X100176190Y19904762D01*
X100252380Y19809524D01*
X100290476Y19714286D01*
X100061904Y21190477D02*
X100061904Y20714286D01*
X100442857Y20666667D01*
X100404761Y20714286D01*
X100366666Y20809524D01*
X100366666Y21047620D01*
X100404761Y21142858D01*
X100442857Y21190477D01*
X100519047Y21238096D01*
X100709523Y21238096D01*
X100785714Y21190477D01*
X100823809Y21142858D01*
X100861904Y21047620D01*
X100861904Y20809524D01*
X100823809Y20714286D01*
X100785714Y20666667D01*
X103785714Y24130953D02*
X103823809Y24083334D01*
X103861904Y23940477D01*
X103861904Y23845239D01*
X103823809Y23702381D01*
X103747619Y23607143D01*
X103671428Y23559524D01*
X103519047Y23511905D01*
X103404761Y23511905D01*
X103252380Y23559524D01*
X103176190Y23607143D01*
X103100000Y23702381D01*
X103061904Y23845239D01*
X103061904Y23940477D01*
X103100000Y24083334D01*
X103138095Y24130953D01*
X103138095Y24511905D02*
X103100000Y24559524D01*
X103061904Y24654762D01*
X103061904Y24892858D01*
X103100000Y24988096D01*
X103138095Y25035715D01*
X103214285Y25083334D01*
X103290476Y25083334D01*
X103404761Y25035715D01*
X103861904Y24464286D01*
X103861904Y25083334D01*
X103861904Y26035715D02*
X103861904Y25464286D01*
X103861904Y25750000D02*
X103061904Y25750000D01*
X103176190Y25654762D01*
X103252380Y25559524D01*
X103290476Y25464286D01*
X103328571Y26892858D02*
X103861904Y26892858D01*
X103023809Y26654762D02*
X103595238Y26416667D01*
X103595238Y27035715D01*
X103785714Y19880953D02*
X103823809Y19833334D01*
X103861904Y19690477D01*
X103861904Y19595239D01*
X103823809Y19452381D01*
X103747619Y19357143D01*
X103671428Y19309524D01*
X103519047Y19261905D01*
X103404761Y19261905D01*
X103252380Y19309524D01*
X103176190Y19357143D01*
X103100000Y19452381D01*
X103061904Y19595239D01*
X103061904Y19690477D01*
X103100000Y19833334D01*
X103138095Y19880953D01*
X103138095Y20261905D02*
X103100000Y20309524D01*
X103061904Y20404762D01*
X103061904Y20642858D01*
X103100000Y20738096D01*
X103138095Y20785715D01*
X103214285Y20833334D01*
X103290476Y20833334D01*
X103404761Y20785715D01*
X103861904Y20214286D01*
X103861904Y20833334D01*
X103861904Y21785715D02*
X103861904Y21214286D01*
X103861904Y21500000D02*
X103061904Y21500000D01*
X103176190Y21404762D01*
X103252380Y21309524D01*
X103290476Y21214286D01*
X103061904Y22119048D02*
X103061904Y22738096D01*
X103366666Y22404762D01*
X103366666Y22547620D01*
X103404761Y22642858D01*
X103442857Y22690477D01*
X103519047Y22738096D01*
X103709523Y22738096D01*
X103785714Y22690477D01*
X103823809Y22642858D01*
X103861904Y22547620D01*
X103861904Y22261905D01*
X103823809Y22166667D01*
X103785714Y22119048D01*
X114357142Y33380953D02*
X114404761Y33333334D01*
X114452380Y33190477D01*
X114452380Y33095239D01*
X114404761Y32952381D01*
X114309523Y32857143D01*
X114214285Y32809524D01*
X114023809Y32761905D01*
X113880952Y32761905D01*
X113690476Y32809524D01*
X113595238Y32857143D01*
X113500000Y32952381D01*
X113452380Y33095239D01*
X113452380Y33190477D01*
X113500000Y33333334D01*
X113547619Y33380953D01*
X113547619Y33761905D02*
X113500000Y33809524D01*
X113452380Y33904762D01*
X113452380Y34142858D01*
X113500000Y34238096D01*
X113547619Y34285715D01*
X113642857Y34333334D01*
X113738095Y34333334D01*
X113880952Y34285715D01*
X114452380Y33714286D01*
X114452380Y34333334D01*
X114452380Y35285715D02*
X114452380Y34714286D01*
X114452380Y35000000D02*
X113452380Y35000000D01*
X113595238Y34904762D01*
X113690476Y34809524D01*
X113738095Y34714286D01*
X114452380Y36238096D02*
X114452380Y35666667D01*
X114452380Y35952381D02*
X113452380Y35952381D01*
X113595238Y35857143D01*
X113690476Y35761905D01*
X113738095Y35666667D01*
X86785714Y33630953D02*
X86823809Y33583334D01*
X86861904Y33440477D01*
X86861904Y33345239D01*
X86823809Y33202381D01*
X86747619Y33107143D01*
X86671428Y33059524D01*
X86519047Y33011905D01*
X86404761Y33011905D01*
X86252380Y33059524D01*
X86176190Y33107143D01*
X86100000Y33202381D01*
X86061904Y33345239D01*
X86061904Y33440477D01*
X86100000Y33583334D01*
X86138095Y33630953D01*
X86138095Y34011905D02*
X86100000Y34059524D01*
X86061904Y34154762D01*
X86061904Y34392858D01*
X86100000Y34488096D01*
X86138095Y34535715D01*
X86214285Y34583334D01*
X86290476Y34583334D01*
X86404761Y34535715D01*
X86861904Y33964286D01*
X86861904Y34583334D01*
X86061904Y35202381D02*
X86061904Y35297620D01*
X86100000Y35392858D01*
X86138095Y35440477D01*
X86214285Y35488096D01*
X86366666Y35535715D01*
X86557142Y35535715D01*
X86709523Y35488096D01*
X86785714Y35440477D01*
X86823809Y35392858D01*
X86861904Y35297620D01*
X86861904Y35202381D01*
X86823809Y35107143D01*
X86785714Y35059524D01*
X86709523Y35011905D01*
X86557142Y34964286D01*
X86366666Y34964286D01*
X86214285Y35011905D01*
X86138095Y35059524D01*
X86100000Y35107143D01*
X86061904Y35202381D01*
X86861904Y36011905D02*
X86861904Y36202381D01*
X86823809Y36297620D01*
X86785714Y36345239D01*
X86671428Y36440477D01*
X86519047Y36488096D01*
X86214285Y36488096D01*
X86138095Y36440477D01*
X86100000Y36392858D01*
X86061904Y36297620D01*
X86061904Y36107143D01*
X86100000Y36011905D01*
X86138095Y35964286D01*
X86214285Y35916667D01*
X86404761Y35916667D01*
X86480952Y35964286D01*
X86519047Y36011905D01*
X86557142Y36107143D01*
X86557142Y36297620D01*
X86519047Y36392858D01*
X86480952Y36440477D01*
X86404761Y36488096D01*
X85880952Y7214286D02*
X85833333Y7176191D01*
X85690476Y7138096D01*
X85595238Y7138096D01*
X85452380Y7176191D01*
X85357142Y7252381D01*
X85309523Y7328572D01*
X85261904Y7480953D01*
X85261904Y7595239D01*
X85309523Y7747620D01*
X85357142Y7823810D01*
X85452380Y7900000D01*
X85595238Y7938096D01*
X85690476Y7938096D01*
X85833333Y7900000D01*
X85880952Y7861905D01*
X86261904Y7861905D02*
X86309523Y7900000D01*
X86404761Y7938096D01*
X86642857Y7938096D01*
X86738095Y7900000D01*
X86785714Y7861905D01*
X86833333Y7785715D01*
X86833333Y7709524D01*
X86785714Y7595239D01*
X86214285Y7138096D01*
X86833333Y7138096D01*
X87452380Y7938096D02*
X87547619Y7938096D01*
X87642857Y7900000D01*
X87690476Y7861905D01*
X87738095Y7785715D01*
X87785714Y7633334D01*
X87785714Y7442858D01*
X87738095Y7290477D01*
X87690476Y7214286D01*
X87642857Y7176191D01*
X87547619Y7138096D01*
X87452380Y7138096D01*
X87357142Y7176191D01*
X87309523Y7214286D01*
X87261904Y7290477D01*
X87214285Y7442858D01*
X87214285Y7633334D01*
X87261904Y7785715D01*
X87309523Y7861905D01*
X87357142Y7900000D01*
X87452380Y7938096D01*
X88357142Y7595239D02*
X88261904Y7633334D01*
X88214285Y7671429D01*
X88166666Y7747620D01*
X88166666Y7785715D01*
X88214285Y7861905D01*
X88261904Y7900000D01*
X88357142Y7938096D01*
X88547619Y7938096D01*
X88642857Y7900000D01*
X88690476Y7861905D01*
X88738095Y7785715D01*
X88738095Y7747620D01*
X88690476Y7671429D01*
X88642857Y7633334D01*
X88547619Y7595239D01*
X88357142Y7595239D01*
X88261904Y7557143D01*
X88214285Y7519048D01*
X88166666Y7442858D01*
X88166666Y7290477D01*
X88214285Y7214286D01*
X88261904Y7176191D01*
X88357142Y7138096D01*
X88547619Y7138096D01*
X88642857Y7176191D01*
X88690476Y7214286D01*
X88738095Y7290477D01*
X88738095Y7442858D01*
X88690476Y7519048D01*
X88642857Y7557143D01*
X88547619Y7595239D01*
X51085714Y15580953D02*
X51123809Y15533334D01*
X51161904Y15390477D01*
X51161904Y15295239D01*
X51123809Y15152381D01*
X51047619Y15057143D01*
X50971428Y15009524D01*
X50819047Y14961905D01*
X50704761Y14961905D01*
X50552380Y15009524D01*
X50476190Y15057143D01*
X50400000Y15152381D01*
X50361904Y15295239D01*
X50361904Y15390477D01*
X50400000Y15533334D01*
X50438095Y15580953D01*
X51161904Y16533334D02*
X51161904Y15961905D01*
X51161904Y16247620D02*
X50361904Y16247620D01*
X50476190Y16152381D01*
X50552380Y16057143D01*
X50590476Y15961905D01*
X51161904Y17485715D02*
X51161904Y16914286D01*
X51161904Y17200000D02*
X50361904Y17200000D01*
X50476190Y17104762D01*
X50552380Y17009524D01*
X50590476Y16914286D01*
X50438095Y17866667D02*
X50400000Y17914286D01*
X50361904Y18009524D01*
X50361904Y18247620D01*
X50400000Y18342858D01*
X50438095Y18390477D01*
X50514285Y18438096D01*
X50590476Y18438096D01*
X50704761Y18390477D01*
X51161904Y17819048D01*
X51161904Y18438096D01*
X22785714Y15780953D02*
X22823809Y15733334D01*
X22861904Y15590477D01*
X22861904Y15495239D01*
X22823809Y15352381D01*
X22747619Y15257143D01*
X22671428Y15209524D01*
X22519047Y15161905D01*
X22404761Y15161905D01*
X22252380Y15209524D01*
X22176190Y15257143D01*
X22100000Y15352381D01*
X22061904Y15495239D01*
X22061904Y15590477D01*
X22100000Y15733334D01*
X22138095Y15780953D01*
X22861904Y16733334D02*
X22861904Y16161905D01*
X22861904Y16447620D02*
X22061904Y16447620D01*
X22176190Y16352381D01*
X22252380Y16257143D01*
X22290476Y16161905D01*
X22861904Y17685715D02*
X22861904Y17114286D01*
X22861904Y17400000D02*
X22061904Y17400000D01*
X22176190Y17304762D01*
X22252380Y17209524D01*
X22290476Y17114286D01*
X22861904Y18638096D02*
X22861904Y18066667D01*
X22861904Y18352381D02*
X22061904Y18352381D01*
X22176190Y18257143D01*
X22252380Y18161905D01*
X22290476Y18066667D01*
%LPC*%
G36*
G01*
X97630000Y14557500D02*
X97630000Y14442500D01*
G75*
G02*
X97572500Y14385000I-57500J0D01*
G01*
X96927500Y14385000D01*
G75*
G02*
X96870000Y14442500I0J57500D01*
G01*
X96870000Y14557500D01*
G75*
G02*
X96927500Y14615000I57500J0D01*
G01*
X97572500Y14615000D01*
G75*
G02*
X97630000Y14557500I0J-57500D01*
G01*
G37*
G36*
G01*
X97630000Y15057500D02*
X97630000Y14942500D01*
G75*
G02*
X97572500Y14885000I-57500J0D01*
G01*
X96927500Y14885000D01*
G75*
G02*
X96870000Y14942500I0J57500D01*
G01*
X96870000Y15057500D01*
G75*
G02*
X96927500Y15115000I57500J0D01*
G01*
X97572500Y15115000D01*
G75*
G02*
X97630000Y15057500I0J-57500D01*
G01*
G37*
G36*
G01*
X97630000Y12557500D02*
X97630000Y12442500D01*
G75*
G02*
X97572500Y12385000I-57500J0D01*
G01*
X96927500Y12385000D01*
G75*
G02*
X96870000Y12442500I0J57500D01*
G01*
X96870000Y12557500D01*
G75*
G02*
X96927500Y12615000I57500J0D01*
G01*
X97572500Y12615000D01*
G75*
G02*
X97630000Y12557500I0J-57500D01*
G01*
G37*
G36*
G01*
X97630000Y14057500D02*
X97630000Y13942500D01*
G75*
G02*
X97572500Y13885000I-57500J0D01*
G01*
X96927500Y13885000D01*
G75*
G02*
X96870000Y13942500I0J57500D01*
G01*
X96870000Y14057500D01*
G75*
G02*
X96927500Y14115000I57500J0D01*
G01*
X97572500Y14115000D01*
G75*
G02*
X97630000Y14057500I0J-57500D01*
G01*
G37*
G36*
G01*
X97630000Y13557500D02*
X97630000Y13442500D01*
G75*
G02*
X97572500Y13385000I-57500J0D01*
G01*
X96927500Y13385000D01*
G75*
G02*
X96870000Y13442500I0J57500D01*
G01*
X96870000Y13557500D01*
G75*
G02*
X96927500Y13615000I57500J0D01*
G01*
X97572500Y13615000D01*
G75*
G02*
X97630000Y13557500I0J-57500D01*
G01*
G37*
G36*
G01*
X97630000Y13057500D02*
X97630000Y12942500D01*
G75*
G02*
X97572500Y12885000I-57500J0D01*
G01*
X96927500Y12885000D01*
G75*
G02*
X96870000Y12942500I0J57500D01*
G01*
X96870000Y13057500D01*
G75*
G02*
X96927500Y13115000I57500J0D01*
G01*
X97572500Y13115000D01*
G75*
G02*
X97630000Y13057500I0J-57500D01*
G01*
G37*
G36*
G01*
X100030000Y12557500D02*
X100030000Y12442500D01*
G75*
G02*
X99972500Y12385000I-57500J0D01*
G01*
X99327500Y12385000D01*
G75*
G02*
X99270000Y12442500I0J57500D01*
G01*
X99270000Y12557500D01*
G75*
G02*
X99327500Y12615000I57500J0D01*
G01*
X99972500Y12615000D01*
G75*
G02*
X100030000Y12557500I0J-57500D01*
G01*
G37*
G36*
G01*
X100030000Y14057500D02*
X100030000Y13942500D01*
G75*
G02*
X99972500Y13885000I-57500J0D01*
G01*
X99327500Y13885000D01*
G75*
G02*
X99270000Y13942500I0J57500D01*
G01*
X99270000Y14057500D01*
G75*
G02*
X99327500Y14115000I57500J0D01*
G01*
X99972500Y14115000D01*
G75*
G02*
X100030000Y14057500I0J-57500D01*
G01*
G37*
G36*
G01*
X100030000Y13057500D02*
X100030000Y12942500D01*
G75*
G02*
X99972500Y12885000I-57500J0D01*
G01*
X99327500Y12885000D01*
G75*
G02*
X99270000Y12942500I0J57500D01*
G01*
X99270000Y13057500D01*
G75*
G02*
X99327500Y13115000I57500J0D01*
G01*
X99972500Y13115000D01*
G75*
G02*
X100030000Y13057500I0J-57500D01*
G01*
G37*
G36*
G01*
X100030000Y14557500D02*
X100030000Y14442500D01*
G75*
G02*
X99972500Y14385000I-57500J0D01*
G01*
X99327500Y14385000D01*
G75*
G02*
X99270000Y14442500I0J57500D01*
G01*
X99270000Y14557500D01*
G75*
G02*
X99327500Y14615000I57500J0D01*
G01*
X99972500Y14615000D01*
G75*
G02*
X100030000Y14557500I0J-57500D01*
G01*
G37*
G36*
G01*
X100030000Y15057500D02*
X100030000Y14942500D01*
G75*
G02*
X99972500Y14885000I-57500J0D01*
G01*
X99327500Y14885000D01*
G75*
G02*
X99270000Y14942500I0J57500D01*
G01*
X99270000Y15057500D01*
G75*
G02*
X99327500Y15115000I57500J0D01*
G01*
X99972500Y15115000D01*
G75*
G02*
X100030000Y15057500I0J-57500D01*
G01*
G37*
G36*
G01*
X100030000Y13557500D02*
X100030000Y13442500D01*
G75*
G02*
X99972500Y13385000I-57500J0D01*
G01*
X99327500Y13385000D01*
G75*
G02*
X99270000Y13442500I0J57500D01*
G01*
X99270000Y13557500D01*
G75*
G02*
X99327500Y13615000I57500J0D01*
G01*
X99972500Y13615000D01*
G75*
G02*
X100030000Y13557500I0J-57500D01*
G01*
G37*
G36*
G01*
X105420000Y11660000D02*
X105060000Y11660000D01*
G75*
G02*
X104880000Y11840000I0J180000D01*
G01*
X104880000Y12350000D01*
G75*
G02*
X105060000Y12530000I180000J0D01*
G01*
X105420000Y12530000D01*
G75*
G02*
X105600000Y12350000I0J-180000D01*
G01*
X105600000Y11840000D01*
G75*
G02*
X105420000Y11660000I-180000J0D01*
G01*
G37*
G36*
G01*
X106370000Y9890000D02*
X106010000Y9890000D01*
G75*
G02*
X105830000Y10070000I0J180000D01*
G01*
X105830000Y10580000D01*
G75*
G02*
X106010000Y10760000I180000J0D01*
G01*
X106370000Y10760000D01*
G75*
G02*
X106550000Y10580000I0J-180000D01*
G01*
X106550000Y10070000D01*
G75*
G02*
X106370000Y9890000I-180000J0D01*
G01*
G37*
G36*
G01*
X107320000Y11660000D02*
X106960000Y11660000D01*
G75*
G02*
X106780000Y11840000I0J180000D01*
G01*
X106780000Y12350000D01*
G75*
G02*
X106960000Y12530000I180000J0D01*
G01*
X107320000Y12530000D01*
G75*
G02*
X107500000Y12350000I0J-180000D01*
G01*
X107500000Y11840000D01*
G75*
G02*
X107320000Y11660000I-180000J0D01*
G01*
G37*
D17*
X3000000Y31000000D03*
X3000000Y12000000D03*
X3000000Y39000000D03*
X3000000Y21000000D03*
G36*
G01*
X97595000Y30350000D02*
X98045000Y30350000D01*
G75*
G02*
X98270000Y30125000I0J-225000D01*
G01*
X98270000Y28675000D01*
G75*
G02*
X98045000Y28450000I-225000J0D01*
G01*
X97595000Y28450000D01*
G75*
G02*
X97370000Y28675000I0J225000D01*
G01*
X97370000Y30125000D01*
G75*
G02*
X97595000Y30350000I225000J0D01*
G01*
G37*
G36*
G01*
X105215000Y30350000D02*
X105665000Y30350000D01*
G75*
G02*
X105890000Y30125000I0J-225000D01*
G01*
X105890000Y28675000D01*
G75*
G02*
X105665000Y28450000I-225000J0D01*
G01*
X105215000Y28450000D01*
G75*
G02*
X104990000Y28675000I0J225000D01*
G01*
X104990000Y30125000D01*
G75*
G02*
X105215000Y30350000I225000J0D01*
G01*
G37*
G36*
G01*
X111050000Y31225000D02*
X111050000Y30775000D01*
G75*
G02*
X110825000Y30550000I-225000J0D01*
G01*
X109375000Y30550000D01*
G75*
G02*
X109150000Y30775000I0J225000D01*
G01*
X109150000Y31225000D01*
G75*
G02*
X109375000Y31450000I225000J0D01*
G01*
X110825000Y31450000D01*
G75*
G02*
X111050000Y31225000I0J-225000D01*
G01*
G37*
G36*
G01*
X111050000Y36305000D02*
X111050000Y35855000D01*
G75*
G02*
X110825000Y35630000I-225000J0D01*
G01*
X109375000Y35630000D01*
G75*
G02*
X109150000Y35855000I0J225000D01*
G01*
X109150000Y36305000D01*
G75*
G02*
X109375000Y36530000I225000J0D01*
G01*
X110825000Y36530000D01*
G75*
G02*
X111050000Y36305000I0J-225000D01*
G01*
G37*
G36*
G01*
X92800000Y41385000D02*
X92800000Y40935000D01*
G75*
G02*
X92575000Y40710000I-225000J0D01*
G01*
X91125000Y40710000D01*
G75*
G02*
X90900000Y40935000I0J225000D01*
G01*
X90900000Y41385000D01*
G75*
G02*
X91125000Y41610000I225000J0D01*
G01*
X92575000Y41610000D01*
G75*
G02*
X92800000Y41385000I0J-225000D01*
G01*
G37*
G36*
G01*
X92800000Y40115000D02*
X92800000Y39665000D01*
G75*
G02*
X92575000Y39440000I-225000J0D01*
G01*
X91125000Y39440000D01*
G75*
G02*
X90900000Y39665000I0J225000D01*
G01*
X90900000Y40115000D01*
G75*
G02*
X91125000Y40340000I225000J0D01*
G01*
X92575000Y40340000D01*
G75*
G02*
X92800000Y40115000I0J-225000D01*
G01*
G37*
G36*
G01*
X111050000Y38845000D02*
X111050000Y38395000D01*
G75*
G02*
X110825000Y38170000I-225000J0D01*
G01*
X109375000Y38170000D01*
G75*
G02*
X109150000Y38395000I0J225000D01*
G01*
X109150000Y38845000D01*
G75*
G02*
X109375000Y39070000I225000J0D01*
G01*
X110825000Y39070000D01*
G75*
G02*
X111050000Y38845000I0J-225000D01*
G01*
G37*
G36*
G01*
X92800000Y32495000D02*
X92800000Y32045000D01*
G75*
G02*
X92575000Y31820000I-225000J0D01*
G01*
X91125000Y31820000D01*
G75*
G02*
X90900000Y32045000I0J225000D01*
G01*
X90900000Y32495000D01*
G75*
G02*
X91125000Y32720000I225000J0D01*
G01*
X92575000Y32720000D01*
G75*
G02*
X92800000Y32495000I0J-225000D01*
G01*
G37*
G36*
G01*
X111050000Y43925000D02*
X111050000Y43475000D01*
G75*
G02*
X110825000Y43250000I-225000J0D01*
G01*
X109375000Y43250000D01*
G75*
G02*
X109150000Y43475000I0J225000D01*
G01*
X109150000Y43925000D01*
G75*
G02*
X109375000Y44150000I225000J0D01*
G01*
X110825000Y44150000D01*
G75*
G02*
X111050000Y43925000I0J-225000D01*
G01*
G37*
G36*
G01*
X111050000Y37575000D02*
X111050000Y37125000D01*
G75*
G02*
X110825000Y36900000I-225000J0D01*
G01*
X109375000Y36900000D01*
G75*
G02*
X109150000Y37125000I0J225000D01*
G01*
X109150000Y37575000D01*
G75*
G02*
X109375000Y37800000I225000J0D01*
G01*
X110825000Y37800000D01*
G75*
G02*
X111050000Y37575000I0J-225000D01*
G01*
G37*
G36*
G01*
X103945000Y30350000D02*
X104395000Y30350000D01*
G75*
G02*
X104620000Y30125000I0J-225000D01*
G01*
X104620000Y28675000D01*
G75*
G02*
X104395000Y28450000I-225000J0D01*
G01*
X103945000Y28450000D01*
G75*
G02*
X103720000Y28675000I0J225000D01*
G01*
X103720000Y30125000D01*
G75*
G02*
X103945000Y30350000I225000J0D01*
G01*
G37*
G36*
G01*
X95055000Y30350000D02*
X95505000Y30350000D01*
G75*
G02*
X95730000Y30125000I0J-225000D01*
G01*
X95730000Y28675000D01*
G75*
G02*
X95505000Y28450000I-225000J0D01*
G01*
X95055000Y28450000D01*
G75*
G02*
X94830000Y28675000I0J225000D01*
G01*
X94830000Y30125000D01*
G75*
G02*
X95055000Y30350000I225000J0D01*
G01*
G37*
G36*
G01*
X101405000Y30350000D02*
X101855000Y30350000D01*
G75*
G02*
X102080000Y30125000I0J-225000D01*
G01*
X102080000Y28675000D01*
G75*
G02*
X101855000Y28450000I-225000J0D01*
G01*
X101405000Y28450000D01*
G75*
G02*
X101180000Y28675000I0J225000D01*
G01*
X101180000Y30125000D01*
G75*
G02*
X101405000Y30350000I225000J0D01*
G01*
G37*
G36*
G01*
X92800000Y31225000D02*
X92800000Y30775000D01*
G75*
G02*
X92575000Y30550000I-225000J0D01*
G01*
X91125000Y30550000D01*
G75*
G02*
X90900000Y30775000I0J225000D01*
G01*
X90900000Y31225000D01*
G75*
G02*
X91125000Y31450000I225000J0D01*
G01*
X92575000Y31450000D01*
G75*
G02*
X92800000Y31225000I0J-225000D01*
G01*
G37*
G36*
G01*
X111050000Y47735000D02*
X111050000Y47285000D01*
G75*
G02*
X110825000Y47060000I-225000J0D01*
G01*
X109375000Y47060000D01*
G75*
G02*
X109150000Y47285000I0J225000D01*
G01*
X109150000Y47735000D01*
G75*
G02*
X109375000Y47960000I225000J0D01*
G01*
X110825000Y47960000D01*
G75*
G02*
X111050000Y47735000I0J-225000D01*
G01*
G37*
G36*
G01*
X92800000Y37575000D02*
X92800000Y37125000D01*
G75*
G02*
X92575000Y36900000I-225000J0D01*
G01*
X91125000Y36900000D01*
G75*
G02*
X90900000Y37125000I0J225000D01*
G01*
X90900000Y37575000D01*
G75*
G02*
X91125000Y37800000I225000J0D01*
G01*
X92575000Y37800000D01*
G75*
G02*
X92800000Y37575000I0J-225000D01*
G01*
G37*
G36*
G01*
X92850000Y47735000D02*
X92850000Y47285000D01*
G75*
G02*
X92625000Y47060000I-225000J0D01*
G01*
X91175000Y47060000D01*
G75*
G02*
X90950000Y47285000I0J225000D01*
G01*
X90950000Y47735000D01*
G75*
G02*
X91175000Y47960000I225000J0D01*
G01*
X92625000Y47960000D01*
G75*
G02*
X92850000Y47735000I0J-225000D01*
G01*
G37*
G36*
G01*
X111050000Y45195000D02*
X111050000Y44745000D01*
G75*
G02*
X110825000Y44520000I-225000J0D01*
G01*
X109375000Y44520000D01*
G75*
G02*
X109150000Y44745000I0J225000D01*
G01*
X109150000Y45195000D01*
G75*
G02*
X109375000Y45420000I225000J0D01*
G01*
X110825000Y45420000D01*
G75*
G02*
X111050000Y45195000I0J-225000D01*
G01*
G37*
G36*
G01*
X92800000Y43925000D02*
X92800000Y43475000D01*
G75*
G02*
X92575000Y43250000I-225000J0D01*
G01*
X91125000Y43250000D01*
G75*
G02*
X90900000Y43475000I0J225000D01*
G01*
X90900000Y43925000D01*
G75*
G02*
X91125000Y44150000I225000J0D01*
G01*
X92575000Y44150000D01*
G75*
G02*
X92800000Y43925000I0J-225000D01*
G01*
G37*
G36*
G01*
X92800000Y42655000D02*
X92800000Y42205000D01*
G75*
G02*
X92575000Y41980000I-225000J0D01*
G01*
X91125000Y41980000D01*
G75*
G02*
X90900000Y42205000I0J225000D01*
G01*
X90900000Y42655000D01*
G75*
G02*
X91125000Y42880000I225000J0D01*
G01*
X92575000Y42880000D01*
G75*
G02*
X92800000Y42655000I0J-225000D01*
G01*
G37*
G36*
G01*
X102675000Y30350000D02*
X103125000Y30350000D01*
G75*
G02*
X103350000Y30125000I0J-225000D01*
G01*
X103350000Y28675000D01*
G75*
G02*
X103125000Y28450000I-225000J0D01*
G01*
X102675000Y28450000D01*
G75*
G02*
X102450000Y28675000I0J225000D01*
G01*
X102450000Y30125000D01*
G75*
G02*
X102675000Y30350000I225000J0D01*
G01*
G37*
G36*
G01*
X92800000Y36305000D02*
X92800000Y35855000D01*
G75*
G02*
X92575000Y35630000I-225000J0D01*
G01*
X91125000Y35630000D01*
G75*
G02*
X90900000Y35855000I0J225000D01*
G01*
X90900000Y36305000D01*
G75*
G02*
X91125000Y36530000I225000J0D01*
G01*
X92575000Y36530000D01*
G75*
G02*
X92800000Y36305000I0J-225000D01*
G01*
G37*
G36*
G01*
X111050000Y42655000D02*
X111050000Y42205000D01*
G75*
G02*
X110825000Y41980000I-225000J0D01*
G01*
X109375000Y41980000D01*
G75*
G02*
X109150000Y42205000I0J225000D01*
G01*
X109150000Y42655000D01*
G75*
G02*
X109375000Y42880000I225000J0D01*
G01*
X110825000Y42880000D01*
G75*
G02*
X111050000Y42655000I0J-225000D01*
G01*
G37*
G36*
G01*
X92800000Y45195000D02*
X92800000Y44745000D01*
G75*
G02*
X92575000Y44520000I-225000J0D01*
G01*
X91125000Y44520000D01*
G75*
G02*
X90900000Y44745000I0J225000D01*
G01*
X90900000Y45195000D01*
G75*
G02*
X91125000Y45420000I225000J0D01*
G01*
X92575000Y45420000D01*
G75*
G02*
X92800000Y45195000I0J-225000D01*
G01*
G37*
G36*
G01*
X92800000Y38845000D02*
X92800000Y38395000D01*
G75*
G02*
X92575000Y38170000I-225000J0D01*
G01*
X91125000Y38170000D01*
G75*
G02*
X90900000Y38395000I0J225000D01*
G01*
X90900000Y38845000D01*
G75*
G02*
X91125000Y39070000I225000J0D01*
G01*
X92575000Y39070000D01*
G75*
G02*
X92800000Y38845000I0J-225000D01*
G01*
G37*
G36*
G01*
X111050000Y40115000D02*
X111050000Y39665000D01*
G75*
G02*
X110825000Y39440000I-225000J0D01*
G01*
X109375000Y39440000D01*
G75*
G02*
X109150000Y39665000I0J225000D01*
G01*
X109150000Y40115000D01*
G75*
G02*
X109375000Y40340000I225000J0D01*
G01*
X110825000Y40340000D01*
G75*
G02*
X111050000Y40115000I0J-225000D01*
G01*
G37*
G36*
G01*
X100135000Y30350000D02*
X100585000Y30350000D01*
G75*
G02*
X100810000Y30125000I0J-225000D01*
G01*
X100810000Y28675000D01*
G75*
G02*
X100585000Y28450000I-225000J0D01*
G01*
X100135000Y28450000D01*
G75*
G02*
X99910000Y28675000I0J225000D01*
G01*
X99910000Y30125000D01*
G75*
G02*
X100135000Y30350000I225000J0D01*
G01*
G37*
G36*
G01*
X111050000Y32495000D02*
X111050000Y32045000D01*
G75*
G02*
X110825000Y31820000I-225000J0D01*
G01*
X109375000Y31820000D01*
G75*
G02*
X109150000Y32045000I0J225000D01*
G01*
X109150000Y32495000D01*
G75*
G02*
X109375000Y32720000I225000J0D01*
G01*
X110825000Y32720000D01*
G75*
G02*
X111050000Y32495000I0J-225000D01*
G01*
G37*
G36*
G01*
X92800000Y33765000D02*
X92800000Y33315000D01*
G75*
G02*
X92575000Y33090000I-225000J0D01*
G01*
X91125000Y33090000D01*
G75*
G02*
X90900000Y33315000I0J225000D01*
G01*
X90900000Y33765000D01*
G75*
G02*
X91125000Y33990000I225000J0D01*
G01*
X92575000Y33990000D01*
G75*
G02*
X92800000Y33765000I0J-225000D01*
G01*
G37*
G36*
G01*
X111050000Y35035000D02*
X111050000Y34585000D01*
G75*
G02*
X110825000Y34360000I-225000J0D01*
G01*
X109375000Y34360000D01*
G75*
G02*
X109150000Y34585000I0J225000D01*
G01*
X109150000Y35035000D01*
G75*
G02*
X109375000Y35260000I225000J0D01*
G01*
X110825000Y35260000D01*
G75*
G02*
X111050000Y35035000I0J-225000D01*
G01*
G37*
G36*
G01*
X111050000Y33765000D02*
X111050000Y33315000D01*
G75*
G02*
X110825000Y33090000I-225000J0D01*
G01*
X109375000Y33090000D01*
G75*
G02*
X109150000Y33315000I0J225000D01*
G01*
X109150000Y33765000D01*
G75*
G02*
X109375000Y33990000I225000J0D01*
G01*
X110825000Y33990000D01*
G75*
G02*
X111050000Y33765000I0J-225000D01*
G01*
G37*
G36*
G01*
X111050000Y46465000D02*
X111050000Y46015000D01*
G75*
G02*
X110825000Y45790000I-225000J0D01*
G01*
X109375000Y45790000D01*
G75*
G02*
X109150000Y46015000I0J225000D01*
G01*
X109150000Y46465000D01*
G75*
G02*
X109375000Y46690000I225000J0D01*
G01*
X110825000Y46690000D01*
G75*
G02*
X111050000Y46465000I0J-225000D01*
G01*
G37*
G36*
G01*
X98865000Y30350000D02*
X99315000Y30350000D01*
G75*
G02*
X99540000Y30125000I0J-225000D01*
G01*
X99540000Y28675000D01*
G75*
G02*
X99315000Y28450000I-225000J0D01*
G01*
X98865000Y28450000D01*
G75*
G02*
X98640000Y28675000I0J225000D01*
G01*
X98640000Y30125000D01*
G75*
G02*
X98865000Y30350000I225000J0D01*
G01*
G37*
G36*
G01*
X106485000Y30350000D02*
X106935000Y30350000D01*
G75*
G02*
X107160000Y30125000I0J-225000D01*
G01*
X107160000Y28675000D01*
G75*
G02*
X106935000Y28450000I-225000J0D01*
G01*
X106485000Y28450000D01*
G75*
G02*
X106260000Y28675000I0J225000D01*
G01*
X106260000Y30125000D01*
G75*
G02*
X106485000Y30350000I225000J0D01*
G01*
G37*
G36*
G01*
X92800000Y35035000D02*
X92800000Y34585000D01*
G75*
G02*
X92575000Y34360000I-225000J0D01*
G01*
X91125000Y34360000D01*
G75*
G02*
X90900000Y34585000I0J225000D01*
G01*
X90900000Y35035000D01*
G75*
G02*
X91125000Y35260000I225000J0D01*
G01*
X92575000Y35260000D01*
G75*
G02*
X92800000Y35035000I0J-225000D01*
G01*
G37*
G36*
G01*
X92800000Y46465000D02*
X92800000Y46015000D01*
G75*
G02*
X92575000Y45790000I-225000J0D01*
G01*
X91125000Y45790000D01*
G75*
G02*
X90900000Y46015000I0J225000D01*
G01*
X90900000Y46465000D01*
G75*
G02*
X91125000Y46690000I225000J0D01*
G01*
X92575000Y46690000D01*
G75*
G02*
X92800000Y46465000I0J-225000D01*
G01*
G37*
G36*
G01*
X96325000Y30350000D02*
X96775000Y30350000D01*
G75*
G02*
X97000000Y30125000I0J-225000D01*
G01*
X97000000Y28675000D01*
G75*
G02*
X96775000Y28450000I-225000J0D01*
G01*
X96325000Y28450000D01*
G75*
G02*
X96100000Y28675000I0J225000D01*
G01*
X96100000Y30125000D01*
G75*
G02*
X96325000Y30350000I225000J0D01*
G01*
G37*
G36*
G01*
X111050000Y41385000D02*
X111050000Y40935000D01*
G75*
G02*
X110825000Y40710000I-225000J0D01*
G01*
X109375000Y40710000D01*
G75*
G02*
X109150000Y40935000I0J225000D01*
G01*
X109150000Y41385000D01*
G75*
G02*
X109375000Y41610000I225000J0D01*
G01*
X110825000Y41610000D01*
G75*
G02*
X111050000Y41385000I0J-225000D01*
G01*
G37*
D18*
X95100000Y26650000D03*
G36*
G01*
X88581250Y47300000D02*
X88118750Y47300000D01*
G75*
G02*
X87925000Y47493750I0J193750D01*
G01*
X87925000Y47881250D01*
G75*
G02*
X88118750Y48075000I193750J0D01*
G01*
X88581250Y48075000D01*
G75*
G02*
X88775000Y47881250I0J-193750D01*
G01*
X88775000Y47493750D01*
G75*
G02*
X88581250Y47300000I-193750J0D01*
G01*
G37*
G36*
G01*
X88581250Y45725000D02*
X88118750Y45725000D01*
G75*
G02*
X87925000Y45918750I0J193750D01*
G01*
X87925000Y46306250D01*
G75*
G02*
X88118750Y46500000I193750J0D01*
G01*
X88581250Y46500000D01*
G75*
G02*
X88775000Y46306250I0J-193750D01*
G01*
X88775000Y45918750D01*
G75*
G02*
X88581250Y45725000I-193750J0D01*
G01*
G37*
G36*
G01*
X86280000Y11460000D02*
X86280000Y11140000D01*
G75*
G02*
X86145000Y11005000I-135000J0D01*
G01*
X85875000Y11005000D01*
G75*
G02*
X85740000Y11140000I0J135000D01*
G01*
X85740000Y11460000D01*
G75*
G02*
X85875000Y11595000I135000J0D01*
G01*
X86145000Y11595000D01*
G75*
G02*
X86280000Y11460000I0J-135000D01*
G01*
G37*
G36*
G01*
X85310000Y11460000D02*
X85310000Y11140000D01*
G75*
G02*
X85175000Y11005000I-135000J0D01*
G01*
X84905000Y11005000D01*
G75*
G02*
X84770000Y11140000I0J135000D01*
G01*
X84770000Y11460000D01*
G75*
G02*
X84905000Y11595000I135000J0D01*
G01*
X85175000Y11595000D01*
G75*
G02*
X85310000Y11460000I0J-135000D01*
G01*
G37*
X113975000Y31950000D03*
X94325000Y11675000D03*
X90250000Y23000000D03*
X90200000Y18200000D03*
X112500000Y10000000D03*
X90300000Y21125000D03*
G36*
G01*
X119300000Y41231250D02*
X119300000Y40768750D01*
G75*
G02*
X119106250Y40575000I-193750J0D01*
G01*
X118718750Y40575000D01*
G75*
G02*
X118525000Y40768750I0J193750D01*
G01*
X118525000Y41231250D01*
G75*
G02*
X118718750Y41425000I193750J0D01*
G01*
X119106250Y41425000D01*
G75*
G02*
X119300000Y41231250I0J-193750D01*
G01*
G37*
G36*
G01*
X120875000Y41231250D02*
X120875000Y40768750D01*
G75*
G02*
X120681250Y40575000I-193750J0D01*
G01*
X120293750Y40575000D01*
G75*
G02*
X120100000Y40768750I0J193750D01*
G01*
X120100000Y41231250D01*
G75*
G02*
X120293750Y41425000I193750J0D01*
G01*
X120681250Y41425000D01*
G75*
G02*
X120875000Y41231250I0J-193750D01*
G01*
G37*
G36*
G01*
X119300000Y43531250D02*
X119300000Y43068750D01*
G75*
G02*
X119106250Y42875000I-193750J0D01*
G01*
X118718750Y42875000D01*
G75*
G02*
X118525000Y43068750I0J193750D01*
G01*
X118525000Y43531250D01*
G75*
G02*
X118718750Y43725000I193750J0D01*
G01*
X119106250Y43725000D01*
G75*
G02*
X119300000Y43531250I0J-193750D01*
G01*
G37*
G36*
G01*
X120875000Y43531250D02*
X120875000Y43068750D01*
G75*
G02*
X120681250Y42875000I-193750J0D01*
G01*
X120293750Y42875000D01*
G75*
G02*
X120100000Y43068750I0J193750D01*
G01*
X120100000Y43531250D01*
G75*
G02*
X120293750Y43725000I193750J0D01*
G01*
X120681250Y43725000D01*
G75*
G02*
X120875000Y43531250I0J-193750D01*
G01*
G37*
G36*
G01*
X95305000Y13385000D02*
X95305000Y13065000D01*
G75*
G02*
X95170000Y12930000I-135000J0D01*
G01*
X94900000Y12930000D01*
G75*
G02*
X94765000Y13065000I0J135000D01*
G01*
X94765000Y13385000D01*
G75*
G02*
X94900000Y13520000I135000J0D01*
G01*
X95170000Y13520000D01*
G75*
G02*
X95305000Y13385000I0J-135000D01*
G01*
G37*
G36*
G01*
X94335000Y13385000D02*
X94335000Y13065000D01*
G75*
G02*
X94200000Y12930000I-135000J0D01*
G01*
X93930000Y12930000D01*
G75*
G02*
X93795000Y13065000I0J135000D01*
G01*
X93795000Y13385000D01*
G75*
G02*
X93930000Y13520000I135000J0D01*
G01*
X94200000Y13520000D01*
G75*
G02*
X94335000Y13385000I0J-135000D01*
G01*
G37*
G36*
G01*
X103085000Y11995000D02*
X103085000Y11675000D01*
G75*
G02*
X102950000Y11540000I-135000J0D01*
G01*
X102680000Y11540000D01*
G75*
G02*
X102545000Y11675000I0J135000D01*
G01*
X102545000Y11995000D01*
G75*
G02*
X102680000Y12130000I135000J0D01*
G01*
X102950000Y12130000D01*
G75*
G02*
X103085000Y11995000I0J-135000D01*
G01*
G37*
G36*
G01*
X102115000Y11995000D02*
X102115000Y11675000D01*
G75*
G02*
X101980000Y11540000I-135000J0D01*
G01*
X101710000Y11540000D01*
G75*
G02*
X101575000Y11675000I0J135000D01*
G01*
X101575000Y11995000D01*
G75*
G02*
X101710000Y12130000I135000J0D01*
G01*
X101980000Y12130000D01*
G75*
G02*
X102115000Y11995000I0J-135000D01*
G01*
G37*
G36*
G01*
X103075000Y13560000D02*
X103075000Y13240000D01*
G75*
G02*
X102940000Y13105000I-135000J0D01*
G01*
X102670000Y13105000D01*
G75*
G02*
X102535000Y13240000I0J135000D01*
G01*
X102535000Y13560000D01*
G75*
G02*
X102670000Y13695000I135000J0D01*
G01*
X102940000Y13695000D01*
G75*
G02*
X103075000Y13560000I0J-135000D01*
G01*
G37*
G36*
G01*
X102105000Y13560000D02*
X102105000Y13240000D01*
G75*
G02*
X101970000Y13105000I-135000J0D01*
G01*
X101700000Y13105000D01*
G75*
G02*
X101565000Y13240000I0J135000D01*
G01*
X101565000Y13560000D01*
G75*
G02*
X101700000Y13695000I135000J0D01*
G01*
X101970000Y13695000D01*
G75*
G02*
X102105000Y13560000I0J-135000D01*
G01*
G37*
G36*
G01*
X103095000Y14960000D02*
X103095000Y14640000D01*
G75*
G02*
X102960000Y14505000I-135000J0D01*
G01*
X102690000Y14505000D01*
G75*
G02*
X102555000Y14640000I0J135000D01*
G01*
X102555000Y14960000D01*
G75*
G02*
X102690000Y15095000I135000J0D01*
G01*
X102960000Y15095000D01*
G75*
G02*
X103095000Y14960000I0J-135000D01*
G01*
G37*
G36*
G01*
X102125000Y14960000D02*
X102125000Y14640000D01*
G75*
G02*
X101990000Y14505000I-135000J0D01*
G01*
X101720000Y14505000D01*
G75*
G02*
X101585000Y14640000I0J135000D01*
G01*
X101585000Y14960000D01*
G75*
G02*
X101720000Y15095000I135000J0D01*
G01*
X101990000Y15095000D01*
G75*
G02*
X102125000Y14960000I0J-135000D01*
G01*
G37*
G36*
G01*
X101595000Y16120000D02*
X101595000Y16440000D01*
G75*
G02*
X101730000Y16575000I135000J0D01*
G01*
X102000000Y16575000D01*
G75*
G02*
X102135000Y16440000I0J-135000D01*
G01*
X102135000Y16120000D01*
G75*
G02*
X102000000Y15985000I-135000J0D01*
G01*
X101730000Y15985000D01*
G75*
G02*
X101595000Y16120000I0J135000D01*
G01*
G37*
G36*
G01*
X102565000Y16120000D02*
X102565000Y16440000D01*
G75*
G02*
X102700000Y16575000I135000J0D01*
G01*
X102970000Y16575000D01*
G75*
G02*
X103105000Y16440000I0J-135000D01*
G01*
X103105000Y16120000D01*
G75*
G02*
X102970000Y15985000I-135000J0D01*
G01*
X102700000Y15985000D01*
G75*
G02*
X102565000Y16120000I0J135000D01*
G01*
G37*
G36*
G01*
X108345000Y13540000D02*
X108345000Y13860000D01*
G75*
G02*
X108480000Y13995000I135000J0D01*
G01*
X108750000Y13995000D01*
G75*
G02*
X108885000Y13860000I0J-135000D01*
G01*
X108885000Y13540000D01*
G75*
G02*
X108750000Y13405000I-135000J0D01*
G01*
X108480000Y13405000D01*
G75*
G02*
X108345000Y13540000I0J135000D01*
G01*
G37*
G36*
G01*
X109315000Y13540000D02*
X109315000Y13860000D01*
G75*
G02*
X109450000Y13995000I135000J0D01*
G01*
X109720000Y13995000D01*
G75*
G02*
X109855000Y13860000I0J-135000D01*
G01*
X109855000Y13540000D01*
G75*
G02*
X109720000Y13405000I-135000J0D01*
G01*
X109450000Y13405000D01*
G75*
G02*
X109315000Y13540000I0J135000D01*
G01*
G37*
G36*
G01*
X104645000Y13615000D02*
X104645000Y13935000D01*
G75*
G02*
X104780000Y14070000I135000J0D01*
G01*
X105050000Y14070000D01*
G75*
G02*
X105185000Y13935000I0J-135000D01*
G01*
X105185000Y13615000D01*
G75*
G02*
X105050000Y13480000I-135000J0D01*
G01*
X104780000Y13480000D01*
G75*
G02*
X104645000Y13615000I0J135000D01*
G01*
G37*
G36*
G01*
X105615000Y13615000D02*
X105615000Y13935000D01*
G75*
G02*
X105750000Y14070000I135000J0D01*
G01*
X106020000Y14070000D01*
G75*
G02*
X106155000Y13935000I0J-135000D01*
G01*
X106155000Y13615000D01*
G75*
G02*
X106020000Y13480000I-135000J0D01*
G01*
X105750000Y13480000D01*
G75*
G02*
X105615000Y13615000I0J135000D01*
G01*
G37*
G36*
G01*
X108320000Y14665000D02*
X108320000Y14985000D01*
G75*
G02*
X108455000Y15120000I135000J0D01*
G01*
X108725000Y15120000D01*
G75*
G02*
X108860000Y14985000I0J-135000D01*
G01*
X108860000Y14665000D01*
G75*
G02*
X108725000Y14530000I-135000J0D01*
G01*
X108455000Y14530000D01*
G75*
G02*
X108320000Y14665000I0J135000D01*
G01*
G37*
G36*
G01*
X109290000Y14665000D02*
X109290000Y14985000D01*
G75*
G02*
X109425000Y15120000I135000J0D01*
G01*
X109695000Y15120000D01*
G75*
G02*
X109830000Y14985000I0J-135000D01*
G01*
X109830000Y14665000D01*
G75*
G02*
X109695000Y14530000I-135000J0D01*
G01*
X109425000Y14530000D01*
G75*
G02*
X109290000Y14665000I0J135000D01*
G01*
G37*
G36*
G01*
X104645000Y14715000D02*
X104645000Y15035000D01*
G75*
G02*
X104780000Y15170000I135000J0D01*
G01*
X105050000Y15170000D01*
G75*
G02*
X105185000Y15035000I0J-135000D01*
G01*
X105185000Y14715000D01*
G75*
G02*
X105050000Y14580000I-135000J0D01*
G01*
X104780000Y14580000D01*
G75*
G02*
X104645000Y14715000I0J135000D01*
G01*
G37*
G36*
G01*
X105615000Y14715000D02*
X105615000Y15035000D01*
G75*
G02*
X105750000Y15170000I135000J0D01*
G01*
X106020000Y15170000D01*
G75*
G02*
X106155000Y15035000I0J-135000D01*
G01*
X106155000Y14715000D01*
G75*
G02*
X106020000Y14580000I-135000J0D01*
G01*
X105750000Y14580000D01*
G75*
G02*
X105615000Y14715000I0J135000D01*
G01*
G37*
G36*
G01*
X88445000Y33340000D02*
X88445000Y33660000D01*
G75*
G02*
X88580000Y33795000I135000J0D01*
G01*
X88850000Y33795000D01*
G75*
G02*
X88985000Y33660000I0J-135000D01*
G01*
X88985000Y33340000D01*
G75*
G02*
X88850000Y33205000I-135000J0D01*
G01*
X88580000Y33205000D01*
G75*
G02*
X88445000Y33340000I0J135000D01*
G01*
G37*
G36*
G01*
X89415000Y33340000D02*
X89415000Y33660000D01*
G75*
G02*
X89550000Y33795000I135000J0D01*
G01*
X89820000Y33795000D01*
G75*
G02*
X89955000Y33660000I0J-135000D01*
G01*
X89955000Y33340000D01*
G75*
G02*
X89820000Y33205000I-135000J0D01*
G01*
X89550000Y33205000D01*
G75*
G02*
X89415000Y33340000I0J135000D01*
G01*
G37*
G36*
G01*
X88445000Y34640000D02*
X88445000Y34960000D01*
G75*
G02*
X88580000Y35095000I135000J0D01*
G01*
X88850000Y35095000D01*
G75*
G02*
X88985000Y34960000I0J-135000D01*
G01*
X88985000Y34640000D01*
G75*
G02*
X88850000Y34505000I-135000J0D01*
G01*
X88580000Y34505000D01*
G75*
G02*
X88445000Y34640000I0J135000D01*
G01*
G37*
G36*
G01*
X89415000Y34640000D02*
X89415000Y34960000D01*
G75*
G02*
X89550000Y35095000I135000J0D01*
G01*
X89820000Y35095000D01*
G75*
G02*
X89955000Y34960000I0J-135000D01*
G01*
X89955000Y34640000D01*
G75*
G02*
X89820000Y34505000I-135000J0D01*
G01*
X89550000Y34505000D01*
G75*
G02*
X89415000Y34640000I0J135000D01*
G01*
G37*
G36*
G01*
X113675000Y7481250D02*
X113675000Y7018750D01*
G75*
G02*
X113481250Y6825000I-193750J0D01*
G01*
X113093750Y6825000D01*
G75*
G02*
X112900000Y7018750I0J193750D01*
G01*
X112900000Y7481250D01*
G75*
G02*
X113093750Y7675000I193750J0D01*
G01*
X113481250Y7675000D01*
G75*
G02*
X113675000Y7481250I0J-193750D01*
G01*
G37*
G36*
G01*
X115250000Y7481250D02*
X115250000Y7018750D01*
G75*
G02*
X115056250Y6825000I-193750J0D01*
G01*
X114668750Y6825000D01*
G75*
G02*
X114475000Y7018750I0J193750D01*
G01*
X114475000Y7481250D01*
G75*
G02*
X114668750Y7675000I193750J0D01*
G01*
X115056250Y7675000D01*
G75*
G02*
X115250000Y7481250I0J-193750D01*
G01*
G37*
G36*
G01*
X113650000Y5881250D02*
X113650000Y5418750D01*
G75*
G02*
X113456250Y5225000I-193750J0D01*
G01*
X113068750Y5225000D01*
G75*
G02*
X112875000Y5418750I0J193750D01*
G01*
X112875000Y5881250D01*
G75*
G02*
X113068750Y6075000I193750J0D01*
G01*
X113456250Y6075000D01*
G75*
G02*
X113650000Y5881250I0J-193750D01*
G01*
G37*
G36*
G01*
X115225000Y5881250D02*
X115225000Y5418750D01*
G75*
G02*
X115031250Y5225000I-193750J0D01*
G01*
X114643750Y5225000D01*
G75*
G02*
X114450000Y5418750I0J193750D01*
G01*
X114450000Y5881250D01*
G75*
G02*
X114643750Y6075000I193750J0D01*
G01*
X115031250Y6075000D01*
G75*
G02*
X115225000Y5881250I0J-193750D01*
G01*
G37*
G36*
G01*
X90306250Y15990000D02*
X89843750Y15990000D01*
G75*
G02*
X89650000Y16183750I0J193750D01*
G01*
X89650000Y16571250D01*
G75*
G02*
X89843750Y16765000I193750J0D01*
G01*
X90306250Y16765000D01*
G75*
G02*
X90500000Y16571250I0J-193750D01*
G01*
X90500000Y16183750D01*
G75*
G02*
X90306250Y15990000I-193750J0D01*
G01*
G37*
G36*
G01*
X90306250Y14415000D02*
X89843750Y14415000D01*
G75*
G02*
X89650000Y14608750I0J193750D01*
G01*
X89650000Y14996250D01*
G75*
G02*
X89843750Y15190000I193750J0D01*
G01*
X90306250Y15190000D01*
G75*
G02*
X90500000Y14996250I0J-193750D01*
G01*
X90500000Y14608750D01*
G75*
G02*
X90306250Y14415000I-193750J0D01*
G01*
G37*
G36*
G01*
X108735000Y11670000D02*
X108375000Y11670000D01*
G75*
G02*
X108195000Y11850000I0J180000D01*
G01*
X108195000Y12360000D01*
G75*
G02*
X108375000Y12540000I180000J0D01*
G01*
X108735000Y12540000D01*
G75*
G02*
X108915000Y12360000I0J-180000D01*
G01*
X108915000Y11850000D01*
G75*
G02*
X108735000Y11670000I-180000J0D01*
G01*
G37*
G36*
G01*
X109685000Y9900000D02*
X109325000Y9900000D01*
G75*
G02*
X109145000Y10080000I0J180000D01*
G01*
X109145000Y10590000D01*
G75*
G02*
X109325000Y10770000I180000J0D01*
G01*
X109685000Y10770000D01*
G75*
G02*
X109865000Y10590000I0J-180000D01*
G01*
X109865000Y10080000D01*
G75*
G02*
X109685000Y9900000I-180000J0D01*
G01*
G37*
G36*
G01*
X110635000Y11670000D02*
X110275000Y11670000D01*
G75*
G02*
X110095000Y11850000I0J180000D01*
G01*
X110095000Y12360000D01*
G75*
G02*
X110275000Y12540000I180000J0D01*
G01*
X110635000Y12540000D01*
G75*
G02*
X110815000Y12360000I0J-180000D01*
G01*
X110815000Y11850000D01*
G75*
G02*
X110635000Y11670000I-180000J0D01*
G01*
G37*
D19*
X107000000Y2000000D03*
G36*
G01*
X112050000Y2275000D02*
X112050000Y1725000D01*
G75*
G02*
X111775000Y1450000I-275000J0D01*
G01*
X111225000Y1450000D01*
G75*
G02*
X110950000Y1725000I0J275000D01*
G01*
X110950000Y2275000D01*
G75*
G02*
X111225000Y2550000I275000J0D01*
G01*
X111775000Y2550000D01*
G75*
G02*
X112050000Y2275000I0J-275000D01*
G01*
G37*
X110000000Y2000000D03*
X108500000Y2000000D03*
G36*
G01*
X96137500Y6100000D02*
X95762500Y6100000D01*
G75*
G02*
X95575000Y6287500I0J187500D01*
G01*
X95575000Y7012500D01*
G75*
G02*
X95762500Y7200000I187500J0D01*
G01*
X96137500Y7200000D01*
G75*
G02*
X96325000Y7012500I0J-187500D01*
G01*
X96325000Y6287500D01*
G75*
G02*
X96137500Y6100000I-187500J0D01*
G01*
G37*
G36*
G01*
X99262500Y7200000D02*
X99637500Y7200000D01*
G75*
G02*
X99825000Y7012500I0J-187500D01*
G01*
X99825000Y6287500D01*
G75*
G02*
X99637500Y6100000I-187500J0D01*
G01*
X99262500Y6100000D01*
G75*
G02*
X99075000Y6287500I0J187500D01*
G01*
X99075000Y7012500D01*
G75*
G02*
X99262500Y7200000I187500J0D01*
G01*
G37*
G36*
G01*
X111562500Y8550000D02*
X111937500Y8550000D01*
G75*
G02*
X112125000Y8362500I0J-187500D01*
G01*
X112125000Y7637500D01*
G75*
G02*
X111937500Y7450000I-187500J0D01*
G01*
X111562500Y7450000D01*
G75*
G02*
X111375000Y7637500I0J187500D01*
G01*
X111375000Y8362500D01*
G75*
G02*
X111562500Y8550000I187500J0D01*
G01*
G37*
G36*
G01*
X108437500Y7450000D02*
X108062500Y7450000D01*
G75*
G02*
X107875000Y7637500I0J187500D01*
G01*
X107875000Y8362500D01*
G75*
G02*
X108062500Y8550000I187500J0D01*
G01*
X108437500Y8550000D01*
G75*
G02*
X108625000Y8362500I0J-187500D01*
G01*
X108625000Y7637500D01*
G75*
G02*
X108437500Y7450000I-187500J0D01*
G01*
G37*
G36*
G01*
X111562500Y6050000D02*
X111937500Y6050000D01*
G75*
G02*
X112125000Y5862500I0J-187500D01*
G01*
X112125000Y5137500D01*
G75*
G02*
X111937500Y4950000I-187500J0D01*
G01*
X111562500Y4950000D01*
G75*
G02*
X111375000Y5137500I0J187500D01*
G01*
X111375000Y5862500D01*
G75*
G02*
X111562500Y6050000I187500J0D01*
G01*
G37*
G36*
G01*
X108437500Y4950000D02*
X108062500Y4950000D01*
G75*
G02*
X107875000Y5137500I0J187500D01*
G01*
X107875000Y5862500D01*
G75*
G02*
X108062500Y6050000I187500J0D01*
G01*
X108437500Y6050000D01*
G75*
G02*
X108625000Y5862500I0J-187500D01*
G01*
X108625000Y5137500D01*
G75*
G02*
X108437500Y4950000I-187500J0D01*
G01*
G37*
G36*
G01*
X99450000Y10520000D02*
X99450000Y8430000D01*
G75*
G02*
X99220000Y8200000I-230000J0D01*
G01*
X98530000Y8200000D01*
G75*
G02*
X98300000Y8430000I0J230000D01*
G01*
X98300000Y10520000D01*
G75*
G02*
X98530000Y10750000I230000J0D01*
G01*
X99220000Y10750000D01*
G75*
G02*
X99450000Y10520000I0J-230000D01*
G01*
G37*
G36*
G01*
X96650000Y10520000D02*
X96650000Y8430000D01*
G75*
G02*
X96420000Y8200000I-230000J0D01*
G01*
X95730000Y8200000D01*
G75*
G02*
X95500000Y8430000I0J230000D01*
G01*
X95500000Y10520000D01*
G75*
G02*
X95730000Y10750000I230000J0D01*
G01*
X96420000Y10750000D01*
G75*
G02*
X96650000Y10520000I0J-230000D01*
G01*
G37*
G36*
G01*
X95280000Y16085000D02*
X95280000Y15765000D01*
G75*
G02*
X95145000Y15630000I-135000J0D01*
G01*
X94875000Y15630000D01*
G75*
G02*
X94740000Y15765000I0J135000D01*
G01*
X94740000Y16085000D01*
G75*
G02*
X94875000Y16220000I135000J0D01*
G01*
X95145000Y16220000D01*
G75*
G02*
X95280000Y16085000I0J-135000D01*
G01*
G37*
G36*
G01*
X94310000Y16085000D02*
X94310000Y15765000D01*
G75*
G02*
X94175000Y15630000I-135000J0D01*
G01*
X93905000Y15630000D01*
G75*
G02*
X93770000Y15765000I0J135000D01*
G01*
X93770000Y16085000D01*
G75*
G02*
X93905000Y16220000I135000J0D01*
G01*
X94175000Y16220000D01*
G75*
G02*
X94310000Y16085000I0J-135000D01*
G01*
G37*
G36*
G01*
X95280000Y14785000D02*
X95280000Y14465000D01*
G75*
G02*
X95145000Y14330000I-135000J0D01*
G01*
X94875000Y14330000D01*
G75*
G02*
X94740000Y14465000I0J135000D01*
G01*
X94740000Y14785000D01*
G75*
G02*
X94875000Y14920000I135000J0D01*
G01*
X95145000Y14920000D01*
G75*
G02*
X95280000Y14785000I0J-135000D01*
G01*
G37*
G36*
G01*
X94310000Y14785000D02*
X94310000Y14465000D01*
G75*
G02*
X94175000Y14330000I-135000J0D01*
G01*
X93905000Y14330000D01*
G75*
G02*
X93770000Y14465000I0J135000D01*
G01*
X93770000Y14785000D01*
G75*
G02*
X93905000Y14920000I135000J0D01*
G01*
X94175000Y14920000D01*
G75*
G02*
X94310000Y14785000I0J-135000D01*
G01*
G37*
G36*
G01*
X115945000Y38040000D02*
X115945000Y38360000D01*
G75*
G02*
X116080000Y38495000I135000J0D01*
G01*
X116350000Y38495000D01*
G75*
G02*
X116485000Y38360000I0J-135000D01*
G01*
X116485000Y38040000D01*
G75*
G02*
X116350000Y37905000I-135000J0D01*
G01*
X116080000Y37905000D01*
G75*
G02*
X115945000Y38040000I0J135000D01*
G01*
G37*
G36*
G01*
X116915000Y38040000D02*
X116915000Y38360000D01*
G75*
G02*
X117050000Y38495000I135000J0D01*
G01*
X117320000Y38495000D01*
G75*
G02*
X117455000Y38360000I0J-135000D01*
G01*
X117455000Y38040000D01*
G75*
G02*
X117320000Y37905000I-135000J0D01*
G01*
X117050000Y37905000D01*
G75*
G02*
X116915000Y38040000I0J135000D01*
G01*
G37*
X119100000Y37200000D03*
X119100000Y35700000D03*
G36*
G01*
X119375000Y33650000D02*
X118825000Y33650000D01*
G75*
G02*
X118550000Y33925000I0J275000D01*
G01*
X118550000Y34475000D01*
G75*
G02*
X118825000Y34750000I275000J0D01*
G01*
X119375000Y34750000D01*
G75*
G02*
X119650000Y34475000I0J-275000D01*
G01*
X119650000Y33925000D01*
G75*
G02*
X119375000Y33650000I-275000J0D01*
G01*
G37*
G36*
G01*
X88756250Y15975000D02*
X88293750Y15975000D01*
G75*
G02*
X88100000Y16168750I0J193750D01*
G01*
X88100000Y16556250D01*
G75*
G02*
X88293750Y16750000I193750J0D01*
G01*
X88756250Y16750000D01*
G75*
G02*
X88950000Y16556250I0J-193750D01*
G01*
X88950000Y16168750D01*
G75*
G02*
X88756250Y15975000I-193750J0D01*
G01*
G37*
G36*
G01*
X88756250Y14400000D02*
X88293750Y14400000D01*
G75*
G02*
X88100000Y14593750I0J193750D01*
G01*
X88100000Y14981250D01*
G75*
G02*
X88293750Y15175000I193750J0D01*
G01*
X88756250Y15175000D01*
G75*
G02*
X88950000Y14981250I0J-193750D01*
G01*
X88950000Y14593750D01*
G75*
G02*
X88756250Y14400000I-193750J0D01*
G01*
G37*
G36*
G01*
X85125000Y17855000D02*
X85125000Y19945000D01*
G75*
G02*
X85355000Y20175000I230000J0D01*
G01*
X86045000Y20175000D01*
G75*
G02*
X86275000Y19945000I0J-230000D01*
G01*
X86275000Y17855000D01*
G75*
G02*
X86045000Y17625000I-230000J0D01*
G01*
X85355000Y17625000D01*
G75*
G02*
X85125000Y17855000I0J230000D01*
G01*
G37*
G36*
G01*
X87925000Y17855000D02*
X87925000Y19945000D01*
G75*
G02*
X88155000Y20175000I230000J0D01*
G01*
X88845000Y20175000D01*
G75*
G02*
X89075000Y19945000I0J-230000D01*
G01*
X89075000Y17855000D01*
G75*
G02*
X88845000Y17625000I-230000J0D01*
G01*
X88155000Y17625000D01*
G75*
G02*
X87925000Y17855000I0J230000D01*
G01*
G37*
X34700000Y48400000D03*
X36200000Y48400000D03*
X37700000Y48400000D03*
G36*
G01*
X42750000Y48675000D02*
X42750000Y48125000D01*
G75*
G02*
X42475000Y47850000I-275000J0D01*
G01*
X41925000Y47850000D01*
G75*
G02*
X41650000Y48125000I0J275000D01*
G01*
X41650000Y48675000D01*
G75*
G02*
X41925000Y48950000I275000J0D01*
G01*
X42475000Y48950000D01*
G75*
G02*
X42750000Y48675000I0J-275000D01*
G01*
G37*
X40700000Y48400000D03*
X39200000Y48400000D03*
X119100000Y30700000D03*
X119100000Y29200000D03*
G36*
G01*
X119375000Y27150000D02*
X118825000Y27150000D01*
G75*
G02*
X118550000Y27425000I0J275000D01*
G01*
X118550000Y27975000D01*
G75*
G02*
X118825000Y28250000I275000J0D01*
G01*
X119375000Y28250000D01*
G75*
G02*
X119650000Y27975000I0J-275000D01*
G01*
X119650000Y27425000D01*
G75*
G02*
X119375000Y27150000I-275000J0D01*
G01*
G37*
D20*
X10600000Y35950000D03*
X10600000Y48650000D03*
D21*
X9900000Y17000000D03*
X9900000Y32000000D03*
D22*
X119000000Y48000000D03*
X119000000Y8000000D03*
X54000000Y5500000D03*
X4000000Y45500000D03*
X54000000Y45500000D03*
X4000000Y5500000D03*
D20*
X19300000Y5800000D03*
X15300000Y2800000D03*
D21*
X24500000Y42600000D03*
X44500000Y42600000D03*
X24500000Y22600000D03*
X39500000Y42600000D03*
X29500000Y42600000D03*
X44500000Y22600000D03*
X17100000Y37750000D03*
X17100000Y35210000D03*
X17100000Y25050000D03*
X17100000Y17430000D03*
D23*
X19400000Y10500000D03*
X12400000Y10500000D03*
D24*
X16500000Y42930000D03*
X16500000Y45470000D03*
D25*
X112800000Y47700000D03*
G36*
G01*
X112950000Y49687500D02*
X112950000Y50162500D01*
G75*
G02*
X113187500Y50400000I237500J0D01*
G01*
X114212500Y50400000D01*
G75*
G02*
X114450000Y50162500I0J-237500D01*
G01*
X114450000Y49687500D01*
G75*
G02*
X114212500Y49450000I-237500J0D01*
G01*
X113187500Y49450000D01*
G75*
G02*
X112950000Y49687500I0J237500D01*
G01*
G37*
X114600000Y47700000D03*
G36*
G01*
X112925000Y45225000D02*
X112925000Y45725000D01*
G75*
G02*
X113175000Y45975000I250000J0D01*
G01*
X114225000Y45975000D01*
G75*
G02*
X114475000Y45725000I0J-250000D01*
G01*
X114475000Y45225000D01*
G75*
G02*
X114225000Y44975000I-250000J0D01*
G01*
X113175000Y44975000D01*
G75*
G02*
X112925000Y45225000I0J250000D01*
G01*
G37*
X118000000Y3700000D03*
G36*
G01*
X119987500Y3550000D02*
X120462500Y3550000D01*
G75*
G02*
X120700000Y3312500I0J-237500D01*
G01*
X120700000Y2287500D01*
G75*
G02*
X120462500Y2050000I-237500J0D01*
G01*
X119987500Y2050000D01*
G75*
G02*
X119750000Y2287500I0J237500D01*
G01*
X119750000Y3312500D01*
G75*
G02*
X119987500Y3550000I237500J0D01*
G01*
G37*
X118000000Y1900000D03*
G36*
G01*
X115525000Y3575000D02*
X116025000Y3575000D01*
G75*
G02*
X116275000Y3325000I0J-250000D01*
G01*
X116275000Y2275000D01*
G75*
G02*
X116025000Y2025000I-250000J0D01*
G01*
X115525000Y2025000D01*
G75*
G02*
X115275000Y2275000I0J250000D01*
G01*
X115275000Y3325000D01*
G75*
G02*
X115525000Y3575000I250000J0D01*
G01*
G37*
G36*
G01*
X86255000Y24960000D02*
X86255000Y24640000D01*
G75*
G02*
X86120000Y24505000I-135000J0D01*
G01*
X85850000Y24505000D01*
G75*
G02*
X85715000Y24640000I0J135000D01*
G01*
X85715000Y24960000D01*
G75*
G02*
X85850000Y25095000I135000J0D01*
G01*
X86120000Y25095000D01*
G75*
G02*
X86255000Y24960000I0J-135000D01*
G01*
G37*
G36*
G01*
X85285000Y24960000D02*
X85285000Y24640000D01*
G75*
G02*
X85150000Y24505000I-135000J0D01*
G01*
X84880000Y24505000D01*
G75*
G02*
X84745000Y24640000I0J135000D01*
G01*
X84745000Y24960000D01*
G75*
G02*
X84880000Y25095000I135000J0D01*
G01*
X85150000Y25095000D01*
G75*
G02*
X85285000Y24960000I0J-135000D01*
G01*
G37*
G36*
G01*
X86255000Y26460000D02*
X86255000Y26140000D01*
G75*
G02*
X86120000Y26005000I-135000J0D01*
G01*
X85850000Y26005000D01*
G75*
G02*
X85715000Y26140000I0J135000D01*
G01*
X85715000Y26460000D01*
G75*
G02*
X85850000Y26595000I135000J0D01*
G01*
X86120000Y26595000D01*
G75*
G02*
X86255000Y26460000I0J-135000D01*
G01*
G37*
G36*
G01*
X85285000Y26460000D02*
X85285000Y26140000D01*
G75*
G02*
X85150000Y26005000I-135000J0D01*
G01*
X84880000Y26005000D01*
G75*
G02*
X84745000Y26140000I0J135000D01*
G01*
X84745000Y26460000D01*
G75*
G02*
X84880000Y26595000I135000J0D01*
G01*
X85150000Y26595000D01*
G75*
G02*
X85285000Y26460000I0J-135000D01*
G01*
G37*
G36*
G01*
X115745000Y40840000D02*
X115745000Y41160000D01*
G75*
G02*
X115880000Y41295000I135000J0D01*
G01*
X116150000Y41295000D01*
G75*
G02*
X116285000Y41160000I0J-135000D01*
G01*
X116285000Y40840000D01*
G75*
G02*
X116150000Y40705000I-135000J0D01*
G01*
X115880000Y40705000D01*
G75*
G02*
X115745000Y40840000I0J135000D01*
G01*
G37*
G36*
G01*
X116715000Y40840000D02*
X116715000Y41160000D01*
G75*
G02*
X116850000Y41295000I135000J0D01*
G01*
X117120000Y41295000D01*
G75*
G02*
X117255000Y41160000I0J-135000D01*
G01*
X117255000Y40840000D01*
G75*
G02*
X117120000Y40705000I-135000J0D01*
G01*
X116850000Y40705000D01*
G75*
G02*
X116715000Y40840000I0J135000D01*
G01*
G37*
G36*
G01*
X115645000Y43140000D02*
X115645000Y43460000D01*
G75*
G02*
X115780000Y43595000I135000J0D01*
G01*
X116050000Y43595000D01*
G75*
G02*
X116185000Y43460000I0J-135000D01*
G01*
X116185000Y43140000D01*
G75*
G02*
X116050000Y43005000I-135000J0D01*
G01*
X115780000Y43005000D01*
G75*
G02*
X115645000Y43140000I0J135000D01*
G01*
G37*
G36*
G01*
X116615000Y43140000D02*
X116615000Y43460000D01*
G75*
G02*
X116750000Y43595000I135000J0D01*
G01*
X117020000Y43595000D01*
G75*
G02*
X117155000Y43460000I0J-135000D01*
G01*
X117155000Y43140000D01*
G75*
G02*
X117020000Y43005000I-135000J0D01*
G01*
X116750000Y43005000D01*
G75*
G02*
X116615000Y43140000I0J135000D01*
G01*
G37*
G36*
G01*
X99490000Y26155000D02*
X99170000Y26155000D01*
G75*
G02*
X99035000Y26290000I0J135000D01*
G01*
X99035000Y26560000D01*
G75*
G02*
X99170000Y26695000I135000J0D01*
G01*
X99490000Y26695000D01*
G75*
G02*
X99625000Y26560000I0J-135000D01*
G01*
X99625000Y26290000D01*
G75*
G02*
X99490000Y26155000I-135000J0D01*
G01*
G37*
G36*
G01*
X99490000Y27125000D02*
X99170000Y27125000D01*
G75*
G02*
X99035000Y27260000I0J135000D01*
G01*
X99035000Y27530000D01*
G75*
G02*
X99170000Y27665000I135000J0D01*
G01*
X99490000Y27665000D01*
G75*
G02*
X99625000Y27530000I0J-135000D01*
G01*
X99625000Y27260000D01*
G75*
G02*
X99490000Y27125000I-135000J0D01*
G01*
G37*
G36*
G01*
X88445000Y30840000D02*
X88445000Y31160000D01*
G75*
G02*
X88580000Y31295000I135000J0D01*
G01*
X88850000Y31295000D01*
G75*
G02*
X88985000Y31160000I0J-135000D01*
G01*
X88985000Y30840000D01*
G75*
G02*
X88850000Y30705000I-135000J0D01*
G01*
X88580000Y30705000D01*
G75*
G02*
X88445000Y30840000I0J135000D01*
G01*
G37*
G36*
G01*
X89415000Y30840000D02*
X89415000Y31160000D01*
G75*
G02*
X89550000Y31295000I135000J0D01*
G01*
X89820000Y31295000D01*
G75*
G02*
X89955000Y31160000I0J-135000D01*
G01*
X89955000Y30840000D01*
G75*
G02*
X89820000Y30705000I-135000J0D01*
G01*
X89550000Y30705000D01*
G75*
G02*
X89415000Y30840000I0J135000D01*
G01*
G37*
G36*
G01*
X88445000Y32040000D02*
X88445000Y32360000D01*
G75*
G02*
X88580000Y32495000I135000J0D01*
G01*
X88850000Y32495000D01*
G75*
G02*
X88985000Y32360000I0J-135000D01*
G01*
X88985000Y32040000D01*
G75*
G02*
X88850000Y31905000I-135000J0D01*
G01*
X88580000Y31905000D01*
G75*
G02*
X88445000Y32040000I0J135000D01*
G01*
G37*
G36*
G01*
X89415000Y32040000D02*
X89415000Y32360000D01*
G75*
G02*
X89550000Y32495000I135000J0D01*
G01*
X89820000Y32495000D01*
G75*
G02*
X89955000Y32360000I0J-135000D01*
G01*
X89955000Y32040000D01*
G75*
G02*
X89820000Y31905000I-135000J0D01*
G01*
X89550000Y31905000D01*
G75*
G02*
X89415000Y32040000I0J135000D01*
G01*
G37*
G36*
G01*
X115960000Y36940000D02*
X115960000Y37260000D01*
G75*
G02*
X116095000Y37395000I135000J0D01*
G01*
X116365000Y37395000D01*
G75*
G02*
X116500000Y37260000I0J-135000D01*
G01*
X116500000Y36940000D01*
G75*
G02*
X116365000Y36805000I-135000J0D01*
G01*
X116095000Y36805000D01*
G75*
G02*
X115960000Y36940000I0J135000D01*
G01*
G37*
G36*
G01*
X116930000Y36940000D02*
X116930000Y37260000D01*
G75*
G02*
X117065000Y37395000I135000J0D01*
G01*
X117335000Y37395000D01*
G75*
G02*
X117470000Y37260000I0J-135000D01*
G01*
X117470000Y36940000D01*
G75*
G02*
X117335000Y36805000I-135000J0D01*
G01*
X117065000Y36805000D01*
G75*
G02*
X116930000Y36940000I0J135000D01*
G01*
G37*
G36*
G01*
X88545000Y35865000D02*
X88545000Y36185000D01*
G75*
G02*
X88680000Y36320000I135000J0D01*
G01*
X88950000Y36320000D01*
G75*
G02*
X89085000Y36185000I0J-135000D01*
G01*
X89085000Y35865000D01*
G75*
G02*
X88950000Y35730000I-135000J0D01*
G01*
X88680000Y35730000D01*
G75*
G02*
X88545000Y35865000I0J135000D01*
G01*
G37*
G36*
G01*
X89515000Y35865000D02*
X89515000Y36185000D01*
G75*
G02*
X89650000Y36320000I135000J0D01*
G01*
X89920000Y36320000D01*
G75*
G02*
X90055000Y36185000I0J-135000D01*
G01*
X90055000Y35865000D01*
G75*
G02*
X89920000Y35730000I-135000J0D01*
G01*
X89650000Y35730000D01*
G75*
G02*
X89515000Y35865000I0J135000D01*
G01*
G37*
G36*
G01*
X88445000Y37040000D02*
X88445000Y37360000D01*
G75*
G02*
X88580000Y37495000I135000J0D01*
G01*
X88850000Y37495000D01*
G75*
G02*
X88985000Y37360000I0J-135000D01*
G01*
X88985000Y37040000D01*
G75*
G02*
X88850000Y36905000I-135000J0D01*
G01*
X88580000Y36905000D01*
G75*
G02*
X88445000Y37040000I0J135000D01*
G01*
G37*
G36*
G01*
X89415000Y37040000D02*
X89415000Y37360000D01*
G75*
G02*
X89550000Y37495000I135000J0D01*
G01*
X89820000Y37495000D01*
G75*
G02*
X89955000Y37360000I0J-135000D01*
G01*
X89955000Y37040000D01*
G75*
G02*
X89820000Y36905000I-135000J0D01*
G01*
X89550000Y36905000D01*
G75*
G02*
X89415000Y37040000I0J135000D01*
G01*
G37*
G36*
G01*
X111845000Y38540000D02*
X111845000Y38860000D01*
G75*
G02*
X111980000Y38995000I135000J0D01*
G01*
X112250000Y38995000D01*
G75*
G02*
X112385000Y38860000I0J-135000D01*
G01*
X112385000Y38540000D01*
G75*
G02*
X112250000Y38405000I-135000J0D01*
G01*
X111980000Y38405000D01*
G75*
G02*
X111845000Y38540000I0J135000D01*
G01*
G37*
G36*
G01*
X112815000Y38540000D02*
X112815000Y38860000D01*
G75*
G02*
X112950000Y38995000I135000J0D01*
G01*
X113220000Y38995000D01*
G75*
G02*
X113355000Y38860000I0J-135000D01*
G01*
X113355000Y38540000D01*
G75*
G02*
X113220000Y38405000I-135000J0D01*
G01*
X112950000Y38405000D01*
G75*
G02*
X112815000Y38540000I0J135000D01*
G01*
G37*
G36*
G01*
X88445000Y38340000D02*
X88445000Y38660000D01*
G75*
G02*
X88580000Y38795000I135000J0D01*
G01*
X88850000Y38795000D01*
G75*
G02*
X88985000Y38660000I0J-135000D01*
G01*
X88985000Y38340000D01*
G75*
G02*
X88850000Y38205000I-135000J0D01*
G01*
X88580000Y38205000D01*
G75*
G02*
X88445000Y38340000I0J135000D01*
G01*
G37*
G36*
G01*
X89415000Y38340000D02*
X89415000Y38660000D01*
G75*
G02*
X89550000Y38795000I135000J0D01*
G01*
X89820000Y38795000D01*
G75*
G02*
X89955000Y38660000I0J-135000D01*
G01*
X89955000Y38340000D01*
G75*
G02*
X89820000Y38205000I-135000J0D01*
G01*
X89550000Y38205000D01*
G75*
G02*
X89415000Y38340000I0J135000D01*
G01*
G37*
G36*
G01*
X111945000Y43540000D02*
X111945000Y43860000D01*
G75*
G02*
X112080000Y43995000I135000J0D01*
G01*
X112350000Y43995000D01*
G75*
G02*
X112485000Y43860000I0J-135000D01*
G01*
X112485000Y43540000D01*
G75*
G02*
X112350000Y43405000I-135000J0D01*
G01*
X112080000Y43405000D01*
G75*
G02*
X111945000Y43540000I0J135000D01*
G01*
G37*
G36*
G01*
X112915000Y43540000D02*
X112915000Y43860000D01*
G75*
G02*
X113050000Y43995000I135000J0D01*
G01*
X113320000Y43995000D01*
G75*
G02*
X113455000Y43860000I0J-135000D01*
G01*
X113455000Y43540000D01*
G75*
G02*
X113320000Y43405000I-135000J0D01*
G01*
X113050000Y43405000D01*
G75*
G02*
X112915000Y43540000I0J135000D01*
G01*
G37*
G36*
G01*
X89880000Y44760000D02*
X89880000Y44440000D01*
G75*
G02*
X89745000Y44305000I-135000J0D01*
G01*
X89475000Y44305000D01*
G75*
G02*
X89340000Y44440000I0J135000D01*
G01*
X89340000Y44760000D01*
G75*
G02*
X89475000Y44895000I135000J0D01*
G01*
X89745000Y44895000D01*
G75*
G02*
X89880000Y44760000I0J-135000D01*
G01*
G37*
G36*
G01*
X88910000Y44760000D02*
X88910000Y44440000D01*
G75*
G02*
X88775000Y44305000I-135000J0D01*
G01*
X88505000Y44305000D01*
G75*
G02*
X88370000Y44440000I0J135000D01*
G01*
X88370000Y44760000D01*
G75*
G02*
X88505000Y44895000I135000J0D01*
G01*
X88775000Y44895000D01*
G75*
G02*
X88910000Y44760000I0J-135000D01*
G01*
G37*
G36*
G01*
X86255000Y27960000D02*
X86255000Y27640000D01*
G75*
G02*
X86120000Y27505000I-135000J0D01*
G01*
X85850000Y27505000D01*
G75*
G02*
X85715000Y27640000I0J135000D01*
G01*
X85715000Y27960000D01*
G75*
G02*
X85850000Y28095000I135000J0D01*
G01*
X86120000Y28095000D01*
G75*
G02*
X86255000Y27960000I0J-135000D01*
G01*
G37*
G36*
G01*
X85285000Y27960000D02*
X85285000Y27640000D01*
G75*
G02*
X85150000Y27505000I-135000J0D01*
G01*
X84880000Y27505000D01*
G75*
G02*
X84745000Y27640000I0J135000D01*
G01*
X84745000Y27960000D01*
G75*
G02*
X84880000Y28095000I135000J0D01*
G01*
X85150000Y28095000D01*
G75*
G02*
X85285000Y27960000I0J-135000D01*
G01*
G37*
G36*
G01*
X86255000Y29460000D02*
X86255000Y29140000D01*
G75*
G02*
X86120000Y29005000I-135000J0D01*
G01*
X85850000Y29005000D01*
G75*
G02*
X85715000Y29140000I0J135000D01*
G01*
X85715000Y29460000D01*
G75*
G02*
X85850000Y29595000I135000J0D01*
G01*
X86120000Y29595000D01*
G75*
G02*
X86255000Y29460000I0J-135000D01*
G01*
G37*
G36*
G01*
X85285000Y29460000D02*
X85285000Y29140000D01*
G75*
G02*
X85150000Y29005000I-135000J0D01*
G01*
X84880000Y29005000D01*
G75*
G02*
X84745000Y29140000I0J135000D01*
G01*
X84745000Y29460000D01*
G75*
G02*
X84880000Y29595000I135000J0D01*
G01*
X85150000Y29595000D01*
G75*
G02*
X85285000Y29460000I0J-135000D01*
G01*
G37*
G36*
G01*
X84770000Y14415000D02*
X84770000Y14735000D01*
G75*
G02*
X84905000Y14870000I135000J0D01*
G01*
X85175000Y14870000D01*
G75*
G02*
X85310000Y14735000I0J-135000D01*
G01*
X85310000Y14415000D01*
G75*
G02*
X85175000Y14280000I-135000J0D01*
G01*
X84905000Y14280000D01*
G75*
G02*
X84770000Y14415000I0J135000D01*
G01*
G37*
G36*
G01*
X85740000Y14415000D02*
X85740000Y14735000D01*
G75*
G02*
X85875000Y14870000I135000J0D01*
G01*
X86145000Y14870000D01*
G75*
G02*
X86280000Y14735000I0J-135000D01*
G01*
X86280000Y14415000D01*
G75*
G02*
X86145000Y14280000I-135000J0D01*
G01*
X85875000Y14280000D01*
G75*
G02*
X85740000Y14415000I0J135000D01*
G01*
G37*
G36*
G01*
X86280000Y12535000D02*
X86280000Y12215000D01*
G75*
G02*
X86145000Y12080000I-135000J0D01*
G01*
X85875000Y12080000D01*
G75*
G02*
X85740000Y12215000I0J135000D01*
G01*
X85740000Y12535000D01*
G75*
G02*
X85875000Y12670000I135000J0D01*
G01*
X86145000Y12670000D01*
G75*
G02*
X86280000Y12535000I0J-135000D01*
G01*
G37*
G36*
G01*
X85310000Y12535000D02*
X85310000Y12215000D01*
G75*
G02*
X85175000Y12080000I-135000J0D01*
G01*
X84905000Y12080000D01*
G75*
G02*
X84770000Y12215000I0J135000D01*
G01*
X84770000Y12535000D01*
G75*
G02*
X84905000Y12670000I135000J0D01*
G01*
X85175000Y12670000D01*
G75*
G02*
X85310000Y12535000I0J-135000D01*
G01*
G37*
G36*
G01*
X86355000Y46560000D02*
X86355000Y46240000D01*
G75*
G02*
X86220000Y46105000I-135000J0D01*
G01*
X85950000Y46105000D01*
G75*
G02*
X85815000Y46240000I0J135000D01*
G01*
X85815000Y46560000D01*
G75*
G02*
X85950000Y46695000I135000J0D01*
G01*
X86220000Y46695000D01*
G75*
G02*
X86355000Y46560000I0J-135000D01*
G01*
G37*
G36*
G01*
X85385000Y46560000D02*
X85385000Y46240000D01*
G75*
G02*
X85250000Y46105000I-135000J0D01*
G01*
X84980000Y46105000D01*
G75*
G02*
X84845000Y46240000I0J135000D01*
G01*
X84845000Y46560000D01*
G75*
G02*
X84980000Y46695000I135000J0D01*
G01*
X85250000Y46695000D01*
G75*
G02*
X85385000Y46560000I0J-135000D01*
G01*
G37*
G36*
G01*
X86355000Y47660000D02*
X86355000Y47340000D01*
G75*
G02*
X86220000Y47205000I-135000J0D01*
G01*
X85950000Y47205000D01*
G75*
G02*
X85815000Y47340000I0J135000D01*
G01*
X85815000Y47660000D01*
G75*
G02*
X85950000Y47795000I135000J0D01*
G01*
X86220000Y47795000D01*
G75*
G02*
X86355000Y47660000I0J-135000D01*
G01*
G37*
G36*
G01*
X85385000Y47660000D02*
X85385000Y47340000D01*
G75*
G02*
X85250000Y47205000I-135000J0D01*
G01*
X84980000Y47205000D01*
G75*
G02*
X84845000Y47340000I0J135000D01*
G01*
X84845000Y47660000D01*
G75*
G02*
X84980000Y47795000I135000J0D01*
G01*
X85250000Y47795000D01*
G75*
G02*
X85385000Y47660000I0J-135000D01*
G01*
G37*
G36*
G01*
X86355000Y40460000D02*
X86355000Y40140000D01*
G75*
G02*
X86220000Y40005000I-135000J0D01*
G01*
X85950000Y40005000D01*
G75*
G02*
X85815000Y40140000I0J135000D01*
G01*
X85815000Y40460000D01*
G75*
G02*
X85950000Y40595000I135000J0D01*
G01*
X86220000Y40595000D01*
G75*
G02*
X86355000Y40460000I0J-135000D01*
G01*
G37*
G36*
G01*
X85385000Y40460000D02*
X85385000Y40140000D01*
G75*
G02*
X85250000Y40005000I-135000J0D01*
G01*
X84980000Y40005000D01*
G75*
G02*
X84845000Y40140000I0J135000D01*
G01*
X84845000Y40460000D01*
G75*
G02*
X84980000Y40595000I135000J0D01*
G01*
X85250000Y40595000D01*
G75*
G02*
X85385000Y40460000I0J-135000D01*
G01*
G37*
G36*
G01*
X86355000Y45460000D02*
X86355000Y45140000D01*
G75*
G02*
X86220000Y45005000I-135000J0D01*
G01*
X85950000Y45005000D01*
G75*
G02*
X85815000Y45140000I0J135000D01*
G01*
X85815000Y45460000D01*
G75*
G02*
X85950000Y45595000I135000J0D01*
G01*
X86220000Y45595000D01*
G75*
G02*
X86355000Y45460000I0J-135000D01*
G01*
G37*
G36*
G01*
X85385000Y45460000D02*
X85385000Y45140000D01*
G75*
G02*
X85250000Y45005000I-135000J0D01*
G01*
X84980000Y45005000D01*
G75*
G02*
X84845000Y45140000I0J135000D01*
G01*
X84845000Y45460000D01*
G75*
G02*
X84980000Y45595000I135000J0D01*
G01*
X85250000Y45595000D01*
G75*
G02*
X85385000Y45460000I0J-135000D01*
G01*
G37*
G36*
G01*
X86355000Y48660000D02*
X86355000Y48340000D01*
G75*
G02*
X86220000Y48205000I-135000J0D01*
G01*
X85950000Y48205000D01*
G75*
G02*
X85815000Y48340000I0J135000D01*
G01*
X85815000Y48660000D01*
G75*
G02*
X85950000Y48795000I135000J0D01*
G01*
X86220000Y48795000D01*
G75*
G02*
X86355000Y48660000I0J-135000D01*
G01*
G37*
G36*
G01*
X85385000Y48660000D02*
X85385000Y48340000D01*
G75*
G02*
X85250000Y48205000I-135000J0D01*
G01*
X84980000Y48205000D01*
G75*
G02*
X84845000Y48340000I0J135000D01*
G01*
X84845000Y48660000D01*
G75*
G02*
X84980000Y48795000I135000J0D01*
G01*
X85250000Y48795000D01*
G75*
G02*
X85385000Y48660000I0J-135000D01*
G01*
G37*
D20*
X115700000Y22000000D03*
X115700000Y17000000D03*
D26*
X107000000Y22360000D03*
D27*
X107000000Y24900000D03*
D26*
X107000000Y19820000D03*
X96840000Y22360000D03*
D27*
X96840000Y24900000D03*
D26*
X96840000Y19820000D03*
D19*
X94200000Y2000000D03*
G36*
G01*
X99250000Y2275000D02*
X99250000Y1725000D01*
G75*
G02*
X98975000Y1450000I-275000J0D01*
G01*
X98425000Y1450000D01*
G75*
G02*
X98150000Y1725000I0J275000D01*
G01*
X98150000Y2275000D01*
G75*
G02*
X98425000Y2550000I275000J0D01*
G01*
X98975000Y2550000D01*
G75*
G02*
X99250000Y2275000I0J-275000D01*
G01*
G37*
X97200000Y2000000D03*
X95700000Y2000000D03*
X83000000Y1500000D03*
X83000000Y3000000D03*
X83000000Y4500000D03*
G36*
G01*
X82725000Y9550000D02*
X83275000Y9550000D01*
G75*
G02*
X83550000Y9275000I0J-275000D01*
G01*
X83550000Y8725000D01*
G75*
G02*
X83275000Y8450000I-275000J0D01*
G01*
X82725000Y8450000D01*
G75*
G02*
X82450000Y8725000I0J275000D01*
G01*
X82450000Y9275000D01*
G75*
G02*
X82725000Y9550000I275000J0D01*
G01*
G37*
X83000000Y7500000D03*
X83000000Y6000000D03*
X83000000Y24800000D03*
X83000000Y23300000D03*
X83000000Y26300000D03*
X83000000Y27800000D03*
X83000000Y29300000D03*
G36*
G01*
X82725000Y34350000D02*
X83275000Y34350000D01*
G75*
G02*
X83550000Y34075000I0J-275000D01*
G01*
X83550000Y33525000D01*
G75*
G02*
X83275000Y33250000I-275000J0D01*
G01*
X82725000Y33250000D01*
G75*
G02*
X82450000Y33525000I0J275000D01*
G01*
X82450000Y34075000D01*
G75*
G02*
X82725000Y34350000I275000J0D01*
G01*
G37*
X83000000Y32300000D03*
X83000000Y30800000D03*
X83000000Y44900000D03*
G36*
G01*
X82725000Y49950000D02*
X83275000Y49950000D01*
G75*
G02*
X83550000Y49675000I0J-275000D01*
G01*
X83550000Y49125000D01*
G75*
G02*
X83275000Y48850000I-275000J0D01*
G01*
X82725000Y48850000D01*
G75*
G02*
X82450000Y49125000I0J275000D01*
G01*
X82450000Y49675000D01*
G75*
G02*
X82725000Y49950000I275000J0D01*
G01*
G37*
X83000000Y47900000D03*
X83000000Y46400000D03*
X83000000Y37100000D03*
G36*
G01*
X82725000Y42150000D02*
X83275000Y42150000D01*
G75*
G02*
X83550000Y41875000I0J-275000D01*
G01*
X83550000Y41325000D01*
G75*
G02*
X83275000Y41050000I-275000J0D01*
G01*
X82725000Y41050000D01*
G75*
G02*
X82450000Y41325000I0J275000D01*
G01*
X82450000Y41875000D01*
G75*
G02*
X82725000Y42150000I275000J0D01*
G01*
G37*
X83000000Y40100000D03*
X83000000Y38600000D03*
X83000000Y12500000D03*
X83000000Y14000000D03*
X83000000Y15500000D03*
G36*
G01*
X82725000Y20550000D02*
X83275000Y20550000D01*
G75*
G02*
X83550000Y20275000I0J-275000D01*
G01*
X83550000Y19725000D01*
G75*
G02*
X83275000Y19450000I-275000J0D01*
G01*
X82725000Y19450000D01*
G75*
G02*
X82450000Y19725000I0J275000D01*
G01*
X82450000Y20275000D01*
G75*
G02*
X82725000Y20550000I275000J0D01*
G01*
G37*
X83000000Y18500000D03*
X83000000Y17000000D03*
G36*
G01*
X84912500Y16775000D02*
X85437500Y16775000D01*
G75*
G02*
X85525000Y16687500I0J-87500D01*
G01*
X85525000Y16512500D01*
G75*
G02*
X85437500Y16425000I-87500J0D01*
G01*
X84912500Y16425000D01*
G75*
G02*
X84825000Y16512500I0J87500D01*
G01*
X84825000Y16687500D01*
G75*
G02*
X84912500Y16775000I87500J0D01*
G01*
G37*
G36*
G01*
X84912500Y15975000D02*
X85437500Y15975000D01*
G75*
G02*
X85525000Y15887500I0J-87500D01*
G01*
X85525000Y15712500D01*
G75*
G02*
X85437500Y15625000I-87500J0D01*
G01*
X84912500Y15625000D01*
G75*
G02*
X84825000Y15712500I0J87500D01*
G01*
X84825000Y15887500D01*
G75*
G02*
X84912500Y15975000I87500J0D01*
G01*
G37*
G36*
G01*
X86762500Y16775000D02*
X87287500Y16775000D01*
G75*
G02*
X87375000Y16687500I0J-87500D01*
G01*
X87375000Y16512500D01*
G75*
G02*
X87287500Y16425000I-87500J0D01*
G01*
X86762500Y16425000D01*
G75*
G02*
X86675000Y16512500I0J87500D01*
G01*
X86675000Y16687500D01*
G75*
G02*
X86762500Y16775000I87500J0D01*
G01*
G37*
G36*
G01*
X86762500Y15975000D02*
X87287500Y15975000D01*
G75*
G02*
X87375000Y15887500I0J-87500D01*
G01*
X87375000Y15712500D01*
G75*
G02*
X87287500Y15625000I-87500J0D01*
G01*
X86762500Y15625000D01*
G75*
G02*
X86675000Y15712500I0J87500D01*
G01*
X86675000Y15887500D01*
G75*
G02*
X86762500Y15975000I87500J0D01*
G01*
G37*
G36*
G01*
X33425000Y4550000D02*
X32775000Y4550000D01*
G75*
G02*
X32450000Y4875000I0J325000D01*
G01*
X32450000Y5525000D01*
G75*
G02*
X32775000Y5850000I325000J0D01*
G01*
X33425000Y5850000D01*
G75*
G02*
X33750000Y5525000I0J-325000D01*
G01*
X33750000Y4875000D01*
G75*
G02*
X33425000Y4550000I-325000J0D01*
G01*
G37*
D20*
X40100000Y5200000D03*
X33100000Y13200000D03*
X40100000Y13200000D03*
G36*
G01*
X99120000Y24555000D02*
X99440000Y24555000D01*
G75*
G02*
X99575000Y24420000I0J-135000D01*
G01*
X99575000Y24150000D01*
G75*
G02*
X99440000Y24015000I-135000J0D01*
G01*
X99120000Y24015000D01*
G75*
G02*
X98985000Y24150000I0J135000D01*
G01*
X98985000Y24420000D01*
G75*
G02*
X99120000Y24555000I135000J0D01*
G01*
G37*
G36*
G01*
X99120000Y23585000D02*
X99440000Y23585000D01*
G75*
G02*
X99575000Y23450000I0J-135000D01*
G01*
X99575000Y23180000D01*
G75*
G02*
X99440000Y23045000I-135000J0D01*
G01*
X99120000Y23045000D01*
G75*
G02*
X98985000Y23180000I0J135000D01*
G01*
X98985000Y23450000D01*
G75*
G02*
X99120000Y23585000I135000J0D01*
G01*
G37*
G36*
G01*
X99440000Y19545000D02*
X99120000Y19545000D01*
G75*
G02*
X98985000Y19680000I0J135000D01*
G01*
X98985000Y19950000D01*
G75*
G02*
X99120000Y20085000I135000J0D01*
G01*
X99440000Y20085000D01*
G75*
G02*
X99575000Y19950000I0J-135000D01*
G01*
X99575000Y19680000D01*
G75*
G02*
X99440000Y19545000I-135000J0D01*
G01*
G37*
G36*
G01*
X99440000Y20515000D02*
X99120000Y20515000D01*
G75*
G02*
X98985000Y20650000I0J135000D01*
G01*
X98985000Y20920000D01*
G75*
G02*
X99120000Y21055000I135000J0D01*
G01*
X99440000Y21055000D01*
G75*
G02*
X99575000Y20920000I0J-135000D01*
G01*
X99575000Y20650000D01*
G75*
G02*
X99440000Y20515000I-135000J0D01*
G01*
G37*
G36*
G01*
X104570000Y25145000D02*
X104890000Y25145000D01*
G75*
G02*
X105025000Y25010000I0J-135000D01*
G01*
X105025000Y24740000D01*
G75*
G02*
X104890000Y24605000I-135000J0D01*
G01*
X104570000Y24605000D01*
G75*
G02*
X104435000Y24740000I0J135000D01*
G01*
X104435000Y25010000D01*
G75*
G02*
X104570000Y25145000I135000J0D01*
G01*
G37*
G36*
G01*
X104570000Y24175000D02*
X104890000Y24175000D01*
G75*
G02*
X105025000Y24040000I0J-135000D01*
G01*
X105025000Y23770000D01*
G75*
G02*
X104890000Y23635000I-135000J0D01*
G01*
X104570000Y23635000D01*
G75*
G02*
X104435000Y23770000I0J135000D01*
G01*
X104435000Y24040000D01*
G75*
G02*
X104570000Y24175000I135000J0D01*
G01*
G37*
G36*
G01*
X104860000Y19515000D02*
X104540000Y19515000D01*
G75*
G02*
X104405000Y19650000I0J135000D01*
G01*
X104405000Y19920000D01*
G75*
G02*
X104540000Y20055000I135000J0D01*
G01*
X104860000Y20055000D01*
G75*
G02*
X104995000Y19920000I0J-135000D01*
G01*
X104995000Y19650000D01*
G75*
G02*
X104860000Y19515000I-135000J0D01*
G01*
G37*
G36*
G01*
X104860000Y20485000D02*
X104540000Y20485000D01*
G75*
G02*
X104405000Y20620000I0J135000D01*
G01*
X104405000Y20890000D01*
G75*
G02*
X104540000Y21025000I135000J0D01*
G01*
X104860000Y21025000D01*
G75*
G02*
X104995000Y20890000I0J-135000D01*
G01*
X104995000Y20620000D01*
G75*
G02*
X104860000Y20485000I-135000J0D01*
G01*
G37*
G36*
G01*
X89880000Y43760000D02*
X89880000Y43440000D01*
G75*
G02*
X89745000Y43305000I-135000J0D01*
G01*
X89475000Y43305000D01*
G75*
G02*
X89340000Y43440000I0J135000D01*
G01*
X89340000Y43760000D01*
G75*
G02*
X89475000Y43895000I135000J0D01*
G01*
X89745000Y43895000D01*
G75*
G02*
X89880000Y43760000I0J-135000D01*
G01*
G37*
G36*
G01*
X88910000Y43760000D02*
X88910000Y43440000D01*
G75*
G02*
X88775000Y43305000I-135000J0D01*
G01*
X88505000Y43305000D01*
G75*
G02*
X88370000Y43440000I0J135000D01*
G01*
X88370000Y43760000D01*
G75*
G02*
X88505000Y43895000I135000J0D01*
G01*
X88775000Y43895000D01*
G75*
G02*
X88910000Y43760000I0J-135000D01*
G01*
G37*
G36*
G01*
X116568750Y34600000D02*
X117031250Y34600000D01*
G75*
G02*
X117225000Y34406250I0J-193750D01*
G01*
X117225000Y34018750D01*
G75*
G02*
X117031250Y33825000I-193750J0D01*
G01*
X116568750Y33825000D01*
G75*
G02*
X116375000Y34018750I0J193750D01*
G01*
X116375000Y34406250D01*
G75*
G02*
X116568750Y34600000I193750J0D01*
G01*
G37*
G36*
G01*
X116568750Y36175000D02*
X117031250Y36175000D01*
G75*
G02*
X117225000Y35981250I0J-193750D01*
G01*
X117225000Y35593750D01*
G75*
G02*
X117031250Y35400000I-193750J0D01*
G01*
X116568750Y35400000D01*
G75*
G02*
X116375000Y35593750I0J193750D01*
G01*
X116375000Y35981250D01*
G75*
G02*
X116568750Y36175000I193750J0D01*
G01*
G37*
G36*
G01*
X89760000Y46245000D02*
X89440000Y46245000D01*
G75*
G02*
X89305000Y46380000I0J135000D01*
G01*
X89305000Y46650000D01*
G75*
G02*
X89440000Y46785000I135000J0D01*
G01*
X89760000Y46785000D01*
G75*
G02*
X89895000Y46650000I0J-135000D01*
G01*
X89895000Y46380000D01*
G75*
G02*
X89760000Y46245000I-135000J0D01*
G01*
G37*
G36*
G01*
X89760000Y47215000D02*
X89440000Y47215000D01*
G75*
G02*
X89305000Y47350000I0J135000D01*
G01*
X89305000Y47620000D01*
G75*
G02*
X89440000Y47755000I135000J0D01*
G01*
X89760000Y47755000D01*
G75*
G02*
X89895000Y47620000I0J-135000D01*
G01*
X89895000Y47350000D01*
G75*
G02*
X89760000Y47215000I-135000J0D01*
G01*
G37*
G36*
G01*
X84968750Y34300000D02*
X85431250Y34300000D01*
G75*
G02*
X85625000Y34106250I0J-193750D01*
G01*
X85625000Y33718750D01*
G75*
G02*
X85431250Y33525000I-193750J0D01*
G01*
X84968750Y33525000D01*
G75*
G02*
X84775000Y33718750I0J193750D01*
G01*
X84775000Y34106250D01*
G75*
G02*
X84968750Y34300000I193750J0D01*
G01*
G37*
G36*
G01*
X84968750Y35875000D02*
X85431250Y35875000D01*
G75*
G02*
X85625000Y35681250I0J-193750D01*
G01*
X85625000Y35293750D01*
G75*
G02*
X85431250Y35100000I-193750J0D01*
G01*
X84968750Y35100000D01*
G75*
G02*
X84775000Y35293750I0J193750D01*
G01*
X84775000Y35681250D01*
G75*
G02*
X84968750Y35875000I193750J0D01*
G01*
G37*
G36*
G01*
X84770000Y13315000D02*
X84770000Y13635000D01*
G75*
G02*
X84905000Y13770000I135000J0D01*
G01*
X85175000Y13770000D01*
G75*
G02*
X85310000Y13635000I0J-135000D01*
G01*
X85310000Y13315000D01*
G75*
G02*
X85175000Y13180000I-135000J0D01*
G01*
X84905000Y13180000D01*
G75*
G02*
X84770000Y13315000I0J135000D01*
G01*
G37*
G36*
G01*
X85740000Y13315000D02*
X85740000Y13635000D01*
G75*
G02*
X85875000Y13770000I135000J0D01*
G01*
X86145000Y13770000D01*
G75*
G02*
X86280000Y13635000I0J-135000D01*
G01*
X86280000Y13315000D01*
G75*
G02*
X86145000Y13180000I-135000J0D01*
G01*
X85875000Y13180000D01*
G75*
G02*
X85740000Y13315000I0J135000D01*
G01*
G37*
G36*
G01*
X85550000Y49931250D02*
X85550000Y49468750D01*
G75*
G02*
X85356250Y49275000I-193750J0D01*
G01*
X84968750Y49275000D01*
G75*
G02*
X84775000Y49468750I0J193750D01*
G01*
X84775000Y49931250D01*
G75*
G02*
X84968750Y50125000I193750J0D01*
G01*
X85356250Y50125000D01*
G75*
G02*
X85550000Y49931250I0J-193750D01*
G01*
G37*
G36*
G01*
X87125000Y49931250D02*
X87125000Y49468750D01*
G75*
G02*
X86931250Y49275000I-193750J0D01*
G01*
X86543750Y49275000D01*
G75*
G02*
X86350000Y49468750I0J193750D01*
G01*
X86350000Y49931250D01*
G75*
G02*
X86543750Y50125000I193750J0D01*
G01*
X86931250Y50125000D01*
G75*
G02*
X87125000Y49931250I0J-193750D01*
G01*
G37*
G36*
G01*
X85168750Y41900000D02*
X85631250Y41900000D01*
G75*
G02*
X85825000Y41706250I0J-193750D01*
G01*
X85825000Y41318750D01*
G75*
G02*
X85631250Y41125000I-193750J0D01*
G01*
X85168750Y41125000D01*
G75*
G02*
X84975000Y41318750I0J193750D01*
G01*
X84975000Y41706250D01*
G75*
G02*
X85168750Y41900000I193750J0D01*
G01*
G37*
G36*
G01*
X85168750Y43475000D02*
X85631250Y43475000D01*
G75*
G02*
X85825000Y43281250I0J-193750D01*
G01*
X85825000Y42893750D01*
G75*
G02*
X85631250Y42700000I-193750J0D01*
G01*
X85168750Y42700000D01*
G75*
G02*
X84975000Y42893750I0J193750D01*
G01*
X84975000Y43281250D01*
G75*
G02*
X85168750Y43475000I193750J0D01*
G01*
G37*
D21*
X46200000Y17000000D03*
X46200000Y2000000D03*
X26900000Y16900000D03*
X26900000Y1900000D03*
M02*
