M48
; DRILL file {KiCad (5.1.6)-1} date 12/26/20 11:55:33
; FORMAT={-:-/ absolute / metric / decimal}
; #@! TF.CreationDate,2020-12-26T11:55:33+09:00
; #@! TF.GenerationSoftware,Kicad,Pcbnew,(5.1.6)-1
FMAT,2
METRIC
T1C0.700
T2C0.800
T3C0.950
T4C1.000
%
G90
G05
T1
X83.2Y-130.45
X83.25Y-133.2
X89.0Y-132.7
X90.9Y-127.06
X90.91Y-125.21
X91.0Y-135.95
X99.24Y-128.68
X99.32Y-130.54
X114.05Y-127.06
X114.08Y-128.82
X114.1Y-125.21
X114.1Y-130.7
X116.55Y-121.76
X116.55Y-141.91
X118.75Y-121.66
X118.75Y-136.94
X86.0Y-139.25
X86.0Y-140.75
X86.0Y-142.25
X86.0Y-143.75
X86.0Y-145.25
X86.0Y-146.75
T2
X80.64Y-115.39
X80.64Y-123.01
X83.18Y-115.39
X83.18Y-123.01
X108.44Y-115.29
X108.44Y-122.91
X110.98Y-115.29
X110.98Y-122.91
X94.54Y-115.29
X94.54Y-122.91
X97.08Y-115.29
X97.08Y-122.91
T3
X88.9Y-107.95
X91.4Y-107.95
X93.9Y-107.95
X96.4Y-107.95
X98.9Y-107.95
X101.4Y-107.95
X103.9Y-107.95
X106.4Y-107.95
X108.9Y-107.95
X111.4Y-107.95
T4
X75.87Y-111.43
X75.87Y-113.97
X75.87Y-116.51
X75.87Y-119.05
X75.87Y-121.59
X75.87Y-124.13
X75.87Y-126.67
X75.87Y-129.21
X75.87Y-134.29
X75.87Y-136.83
X75.87Y-139.37
X75.87Y-141.91
X75.87Y-144.45
X75.87Y-146.99
X124.13Y-107.37
X124.13Y-109.91
X124.13Y-112.45
X124.13Y-114.99
X124.13Y-117.53
X124.13Y-120.07
X124.13Y-122.61
X124.13Y-125.15
X124.13Y-129.21
X124.13Y-131.75
X124.13Y-134.29
X124.13Y-136.83
X124.13Y-139.37
X124.13Y-141.91
X124.13Y-144.45
X124.13Y-146.99
T0
M30
