G04 #@! TF.GenerationSoftware,KiCad,Pcbnew,(5.1.7)-1*
G04 #@! TF.CreationDate,2020-12-25T11:30:47+09:00*
G04 #@! TF.ProjectId,SolenoidProtectionCircuit,536f6c65-6e6f-4696-9450-726f74656374,rev?*
G04 #@! TF.SameCoordinates,Original*
G04 #@! TF.FileFunction,Soldermask,Top*
G04 #@! TF.FilePolarity,Negative*
%FSLAX46Y46*%
G04 Gerber Fmt 4.6, Leading zero omitted, Abs format (unit mm)*
G04 Created by KiCad (PCBNEW (5.1.7)-1) date 2020-12-25 11:30:47*
%MOMM*%
%LPD*%
G01*
G04 APERTURE LIST*
%ADD10O,1.700000X1.950000*%
%ADD11C,5.000000*%
%ADD12R,1.905000X2.000000*%
%ADD13O,1.905000X2.000000*%
%ADD14R,12.700000X14.000000*%
%ADD15R,1.500000X1.050000*%
%ADD16O,1.500000X1.050000*%
%ADD17O,2.200000X2.200000*%
%ADD18R,2.200000X2.200000*%
G04 APERTURE END LIST*
D10*
X106100000Y-99700000D03*
X103600000Y-99700000D03*
X101100000Y-99700000D03*
X98600000Y-99700000D03*
X96100000Y-99700000D03*
G36*
G01*
X92750000Y-100425000D02*
X92750000Y-98975000D01*
G75*
G02*
X93000000Y-98725000I250000J0D01*
G01*
X94200000Y-98725000D01*
G75*
G02*
X94450000Y-98975000I0J-250000D01*
G01*
X94450000Y-100425000D01*
G75*
G02*
X94200000Y-100675000I-250000J0D01*
G01*
X93000000Y-100675000D01*
G75*
G02*
X92750000Y-100425000I0J250000D01*
G01*
G37*
D11*
X92700000Y-70700000D03*
D12*
X90160000Y-87100000D03*
D13*
X95240000Y-87100000D03*
X92700000Y-87100000D03*
D14*
X92700000Y-73700000D03*
D11*
X107300000Y-70700000D03*
D12*
X104760000Y-87100000D03*
D13*
X109840000Y-87100000D03*
X107300000Y-87100000D03*
D14*
X107200000Y-73800000D03*
G36*
G01*
X110625000Y-90875000D02*
X111175000Y-90875000D01*
G75*
G02*
X111375000Y-91075000I0J-200000D01*
G01*
X111375000Y-91475000D01*
G75*
G02*
X111175000Y-91675000I-200000J0D01*
G01*
X110625000Y-91675000D01*
G75*
G02*
X110425000Y-91475000I0J200000D01*
G01*
X110425000Y-91075000D01*
G75*
G02*
X110625000Y-90875000I200000J0D01*
G01*
G37*
G36*
G01*
X110625000Y-92525000D02*
X111175000Y-92525000D01*
G75*
G02*
X111375000Y-92725000I0J-200000D01*
G01*
X111375000Y-93125000D01*
G75*
G02*
X111175000Y-93325000I-200000J0D01*
G01*
X110625000Y-93325000D01*
G75*
G02*
X110425000Y-93125000I0J200000D01*
G01*
X110425000Y-92725000D01*
G75*
G02*
X110625000Y-92525000I200000J0D01*
G01*
G37*
G36*
G01*
X109025000Y-92525000D02*
X109575000Y-92525000D01*
G75*
G02*
X109775000Y-92725000I0J-200000D01*
G01*
X109775000Y-93125000D01*
G75*
G02*
X109575000Y-93325000I-200000J0D01*
G01*
X109025000Y-93325000D01*
G75*
G02*
X108825000Y-93125000I0J200000D01*
G01*
X108825000Y-92725000D01*
G75*
G02*
X109025000Y-92525000I200000J0D01*
G01*
G37*
G36*
G01*
X109025000Y-90875000D02*
X109575000Y-90875000D01*
G75*
G02*
X109775000Y-91075000I0J-200000D01*
G01*
X109775000Y-91475000D01*
G75*
G02*
X109575000Y-91675000I-200000J0D01*
G01*
X109025000Y-91675000D01*
G75*
G02*
X108825000Y-91475000I0J200000D01*
G01*
X108825000Y-91075000D01*
G75*
G02*
X109025000Y-90875000I200000J0D01*
G01*
G37*
G36*
G01*
X103075000Y-94875000D02*
X102525000Y-94875000D01*
G75*
G02*
X102325000Y-94675000I0J200000D01*
G01*
X102325000Y-94275000D01*
G75*
G02*
X102525000Y-94075000I200000J0D01*
G01*
X103075000Y-94075000D01*
G75*
G02*
X103275000Y-94275000I0J-200000D01*
G01*
X103275000Y-94675000D01*
G75*
G02*
X103075000Y-94875000I-200000J0D01*
G01*
G37*
G36*
G01*
X103075000Y-96525000D02*
X102525000Y-96525000D01*
G75*
G02*
X102325000Y-96325000I0J200000D01*
G01*
X102325000Y-95925000D01*
G75*
G02*
X102525000Y-95725000I200000J0D01*
G01*
X103075000Y-95725000D01*
G75*
G02*
X103275000Y-95925000I0J-200000D01*
G01*
X103275000Y-96325000D01*
G75*
G02*
X103075000Y-96525000I-200000J0D01*
G01*
G37*
G36*
G01*
X100825000Y-95725000D02*
X101375000Y-95725000D01*
G75*
G02*
X101575000Y-95925000I0J-200000D01*
G01*
X101575000Y-96325000D01*
G75*
G02*
X101375000Y-96525000I-200000J0D01*
G01*
X100825000Y-96525000D01*
G75*
G02*
X100625000Y-96325000I0J200000D01*
G01*
X100625000Y-95925000D01*
G75*
G02*
X100825000Y-95725000I200000J0D01*
G01*
G37*
G36*
G01*
X100825000Y-94075000D02*
X101375000Y-94075000D01*
G75*
G02*
X101575000Y-94275000I0J-200000D01*
G01*
X101575000Y-94675000D01*
G75*
G02*
X101375000Y-94875000I-200000J0D01*
G01*
X100825000Y-94875000D01*
G75*
G02*
X100625000Y-94675000I0J200000D01*
G01*
X100625000Y-94275000D01*
G75*
G02*
X100825000Y-94075000I200000J0D01*
G01*
G37*
D15*
X106400000Y-93200000D03*
D16*
X106400000Y-90660000D03*
X106400000Y-91930000D03*
D17*
X111700000Y-95140000D03*
D18*
X111700000Y-105300000D03*
G36*
G01*
X89025000Y-91725000D02*
X89575000Y-91725000D01*
G75*
G02*
X89775000Y-91925000I0J-200000D01*
G01*
X89775000Y-92325000D01*
G75*
G02*
X89575000Y-92525000I-200000J0D01*
G01*
X89025000Y-92525000D01*
G75*
G02*
X88825000Y-92325000I0J200000D01*
G01*
X88825000Y-91925000D01*
G75*
G02*
X89025000Y-91725000I200000J0D01*
G01*
G37*
G36*
G01*
X89025000Y-90075000D02*
X89575000Y-90075000D01*
G75*
G02*
X89775000Y-90275000I0J-200000D01*
G01*
X89775000Y-90675000D01*
G75*
G02*
X89575000Y-90875000I-200000J0D01*
G01*
X89025000Y-90875000D01*
G75*
G02*
X88825000Y-90675000I0J200000D01*
G01*
X88825000Y-90275000D01*
G75*
G02*
X89025000Y-90075000I200000J0D01*
G01*
G37*
G36*
G01*
X90625000Y-91725000D02*
X91175000Y-91725000D01*
G75*
G02*
X91375000Y-91925000I0J-200000D01*
G01*
X91375000Y-92325000D01*
G75*
G02*
X91175000Y-92525000I-200000J0D01*
G01*
X90625000Y-92525000D01*
G75*
G02*
X90425000Y-92325000I0J200000D01*
G01*
X90425000Y-91925000D01*
G75*
G02*
X90625000Y-91725000I200000J0D01*
G01*
G37*
G36*
G01*
X90625000Y-90075000D02*
X91175000Y-90075000D01*
G75*
G02*
X91375000Y-90275000I0J-200000D01*
G01*
X91375000Y-90675000D01*
G75*
G02*
X91175000Y-90875000I-200000J0D01*
G01*
X90625000Y-90875000D01*
G75*
G02*
X90425000Y-90675000I0J200000D01*
G01*
X90425000Y-90275000D01*
G75*
G02*
X90625000Y-90075000I200000J0D01*
G01*
G37*
G36*
G01*
X98175000Y-94875000D02*
X97625000Y-94875000D01*
G75*
G02*
X97425000Y-94675000I0J200000D01*
G01*
X97425000Y-94275000D01*
G75*
G02*
X97625000Y-94075000I200000J0D01*
G01*
X98175000Y-94075000D01*
G75*
G02*
X98375000Y-94275000I0J-200000D01*
G01*
X98375000Y-94675000D01*
G75*
G02*
X98175000Y-94875000I-200000J0D01*
G01*
G37*
G36*
G01*
X98175000Y-96525000D02*
X97625000Y-96525000D01*
G75*
G02*
X97425000Y-96325000I0J200000D01*
G01*
X97425000Y-95925000D01*
G75*
G02*
X97625000Y-95725000I200000J0D01*
G01*
X98175000Y-95725000D01*
G75*
G02*
X98375000Y-95925000I0J-200000D01*
G01*
X98375000Y-96325000D01*
G75*
G02*
X98175000Y-96525000I-200000J0D01*
G01*
G37*
G36*
G01*
X99225000Y-95725000D02*
X99775000Y-95725000D01*
G75*
G02*
X99975000Y-95925000I0J-200000D01*
G01*
X99975000Y-96325000D01*
G75*
G02*
X99775000Y-96525000I-200000J0D01*
G01*
X99225000Y-96525000D01*
G75*
G02*
X99025000Y-96325000I0J200000D01*
G01*
X99025000Y-95925000D01*
G75*
G02*
X99225000Y-95725000I200000J0D01*
G01*
G37*
G36*
G01*
X99225000Y-94075000D02*
X99775000Y-94075000D01*
G75*
G02*
X99975000Y-94275000I0J-200000D01*
G01*
X99975000Y-94675000D01*
G75*
G02*
X99775000Y-94875000I-200000J0D01*
G01*
X99225000Y-94875000D01*
G75*
G02*
X99025000Y-94675000I0J200000D01*
G01*
X99025000Y-94275000D01*
G75*
G02*
X99225000Y-94075000I200000J0D01*
G01*
G37*
D15*
X94800000Y-93000000D03*
D16*
X94800000Y-90460000D03*
X94800000Y-91730000D03*
D17*
X88200000Y-95140000D03*
D18*
X88200000Y-105300000D03*
M02*
