G04 #@! TF.GenerationSoftware,KiCad,Pcbnew,(5.1.7)-1*
G04 #@! TF.CreationDate,2020-12-25T11:30:47+09:00*
G04 #@! TF.ProjectId,SolenoidProtectionCircuit,536f6c65-6e6f-4696-9450-726f74656374,rev?*
G04 #@! TF.SameCoordinates,Original*
G04 #@! TF.FileFunction,Legend,Top*
G04 #@! TF.FilePolarity,Positive*
%FSLAX46Y46*%
G04 Gerber Fmt 4.6, Leading zero omitted, Abs format (unit mm)*
G04 Created by KiCad (PCBNEW (5.1.7)-1) date 2020-12-25 11:30:47*
%MOMM*%
%LPD*%
G01*
G04 APERTURE LIST*
%ADD10C,0.200000*%
%ADD11C,0.120000*%
%ADD12C,0.150000*%
%ADD13O,1.700000X1.950000*%
%ADD14C,5.000000*%
%ADD15R,1.905000X2.000000*%
%ADD16O,1.905000X2.000000*%
%ADD17R,12.700000X14.000000*%
%ADD18R,1.500000X1.050000*%
%ADD19O,1.500000X1.050000*%
%ADD20O,2.200000X2.200000*%
%ADD21R,2.200000X2.200000*%
G04 APERTURE END LIST*
D10*
X114478571Y-76800000D02*
X113478571Y-76800000D01*
X113764285Y-76800000D02*
X113621428Y-76728571D01*
X113550000Y-76657142D01*
X113478571Y-76514285D01*
X113478571Y-76371428D01*
X114478571Y-75085714D02*
X114478571Y-75942857D01*
X114478571Y-75514285D02*
X112978571Y-75514285D01*
X113192857Y-75657142D01*
X113335714Y-75800000D01*
X113407142Y-75942857D01*
X114335714Y-74442857D02*
X114407142Y-74371428D01*
X114478571Y-74442857D01*
X114407142Y-74514285D01*
X114335714Y-74442857D01*
X114478571Y-74442857D01*
X112978571Y-73442857D02*
X112978571Y-73300000D01*
X113050000Y-73157142D01*
X113121428Y-73085714D01*
X113264285Y-73014285D01*
X113550000Y-72942857D01*
X113907142Y-72942857D01*
X114192857Y-73014285D01*
X114335714Y-73085714D01*
X114407142Y-73157142D01*
X114478571Y-73300000D01*
X114478571Y-73442857D01*
X114407142Y-73585714D01*
X114335714Y-73657142D01*
X114192857Y-73728571D01*
X113907142Y-73800000D01*
X113550000Y-73800000D01*
X113264285Y-73728571D01*
X113121428Y-73657142D01*
X113050000Y-73585714D01*
X112978571Y-73442857D01*
X113121428Y-71228571D02*
X113050000Y-71157142D01*
X112978571Y-71014285D01*
X112978571Y-70657142D01*
X113050000Y-70514285D01*
X113121428Y-70442857D01*
X113264285Y-70371428D01*
X113407142Y-70371428D01*
X113621428Y-70442857D01*
X114478571Y-71300000D01*
X114478571Y-70371428D01*
X112978571Y-69442857D02*
X112978571Y-69300000D01*
X113050000Y-69157142D01*
X113121428Y-69085714D01*
X113264285Y-69014285D01*
X113550000Y-68942857D01*
X113907142Y-68942857D01*
X114192857Y-69014285D01*
X114335714Y-69085714D01*
X114407142Y-69157142D01*
X114478571Y-69300000D01*
X114478571Y-69442857D01*
X114407142Y-69585714D01*
X114335714Y-69657142D01*
X114192857Y-69728571D01*
X113907142Y-69800000D01*
X113550000Y-69800000D01*
X113264285Y-69728571D01*
X113121428Y-69657142D01*
X113050000Y-69585714D01*
X112978571Y-69442857D01*
X114478571Y-67585714D02*
X114478571Y-68300000D01*
X112978571Y-68300000D01*
X86978571Y-83514285D02*
X85478571Y-83514285D01*
X85478571Y-82942857D01*
X85550000Y-82800000D01*
X85621428Y-82728571D01*
X85764285Y-82657142D01*
X85978571Y-82657142D01*
X86121428Y-82728571D01*
X86192857Y-82800000D01*
X86264285Y-82942857D01*
X86264285Y-83514285D01*
X86978571Y-81800000D02*
X86907142Y-81942857D01*
X86835714Y-82014285D01*
X86692857Y-82085714D01*
X86264285Y-82085714D01*
X86121428Y-82014285D01*
X86050000Y-81942857D01*
X85978571Y-81800000D01*
X85978571Y-81585714D01*
X86050000Y-81442857D01*
X86121428Y-81371428D01*
X86264285Y-81300000D01*
X86692857Y-81300000D01*
X86835714Y-81371428D01*
X86907142Y-81442857D01*
X86978571Y-81585714D01*
X86978571Y-81800000D01*
X86978571Y-80657142D02*
X85978571Y-80657142D01*
X86264285Y-80657142D02*
X86121428Y-80585714D01*
X86050000Y-80514285D01*
X85978571Y-80371428D01*
X85978571Y-80228571D01*
X85978571Y-79942857D02*
X85978571Y-79371428D01*
X85478571Y-79728571D02*
X86764285Y-79728571D01*
X86907142Y-79657142D01*
X86978571Y-79514285D01*
X86978571Y-79371428D01*
X85978571Y-77728571D02*
X87478571Y-77728571D01*
X86050000Y-77728571D02*
X85978571Y-77585714D01*
X85978571Y-77300000D01*
X86050000Y-77157142D01*
X86121428Y-77085714D01*
X86264285Y-77014285D01*
X86692857Y-77014285D01*
X86835714Y-77085714D01*
X86907142Y-77157142D01*
X86978571Y-77300000D01*
X86978571Y-77585714D01*
X86907142Y-77728571D01*
X86978571Y-76371428D02*
X85978571Y-76371428D01*
X86264285Y-76371428D02*
X86121428Y-76300000D01*
X86050000Y-76228571D01*
X85978571Y-76085714D01*
X85978571Y-75942857D01*
X86978571Y-75228571D02*
X86907142Y-75371428D01*
X86835714Y-75442857D01*
X86692857Y-75514285D01*
X86264285Y-75514285D01*
X86121428Y-75442857D01*
X86050000Y-75371428D01*
X85978571Y-75228571D01*
X85978571Y-75014285D01*
X86050000Y-74871428D01*
X86121428Y-74800000D01*
X86264285Y-74728571D01*
X86692857Y-74728571D01*
X86835714Y-74800000D01*
X86907142Y-74871428D01*
X86978571Y-75014285D01*
X86978571Y-75228571D01*
X85978571Y-74300000D02*
X85978571Y-73728571D01*
X85478571Y-74085714D02*
X86764285Y-74085714D01*
X86907142Y-74014285D01*
X86978571Y-73871428D01*
X86978571Y-73728571D01*
X86907142Y-72657142D02*
X86978571Y-72800000D01*
X86978571Y-73085714D01*
X86907142Y-73228571D01*
X86764285Y-73300000D01*
X86192857Y-73300000D01*
X86050000Y-73228571D01*
X85978571Y-73085714D01*
X85978571Y-72800000D01*
X86050000Y-72657142D01*
X86192857Y-72585714D01*
X86335714Y-72585714D01*
X86478571Y-73300000D01*
X86907142Y-71300000D02*
X86978571Y-71442857D01*
X86978571Y-71728571D01*
X86907142Y-71871428D01*
X86835714Y-71942857D01*
X86692857Y-72014285D01*
X86264285Y-72014285D01*
X86121428Y-71942857D01*
X86050000Y-71871428D01*
X85978571Y-71728571D01*
X85978571Y-71442857D01*
X86050000Y-71300000D01*
X85978571Y-70871428D02*
X85978571Y-70300000D01*
X85478571Y-70657142D02*
X86764285Y-70657142D01*
X86907142Y-70585714D01*
X86978571Y-70442857D01*
X86978571Y-70300000D01*
X86978571Y-69800000D02*
X85978571Y-69800000D01*
X85478571Y-69800000D02*
X85550000Y-69871428D01*
X85621428Y-69800000D01*
X85550000Y-69728571D01*
X85478571Y-69800000D01*
X85621428Y-69800000D01*
X86978571Y-68871428D02*
X86907142Y-69014285D01*
X86835714Y-69085714D01*
X86692857Y-69157142D01*
X86264285Y-69157142D01*
X86121428Y-69085714D01*
X86050000Y-69014285D01*
X85978571Y-68871428D01*
X85978571Y-68657142D01*
X86050000Y-68514285D01*
X86121428Y-68442857D01*
X86264285Y-68371428D01*
X86692857Y-68371428D01*
X86835714Y-68442857D01*
X86907142Y-68514285D01*
X86978571Y-68657142D01*
X86978571Y-68871428D01*
X85978571Y-67728571D02*
X86978571Y-67728571D01*
X86121428Y-67728571D02*
X86050000Y-67657142D01*
X85978571Y-67514285D01*
X85978571Y-67300000D01*
X86050000Y-67157142D01*
X86192857Y-67085714D01*
X86978571Y-67085714D01*
X102600000Y-89100000D02*
X109900000Y-89100000D01*
X90300000Y-96700000D02*
X90300000Y-93500000D01*
X104700000Y-95100000D02*
X96100000Y-95100000D01*
X109600000Y-99600000D02*
X109600000Y-105300000D01*
D11*
X93900000Y-97600000D02*
X93600000Y-98200000D01*
X93300000Y-97600000D02*
X93900000Y-97600000D01*
X93600000Y-98200000D02*
X93300000Y-97600000D01*
X106350000Y-102900000D02*
X105850000Y-102900000D01*
X106350000Y-108400000D02*
X106350000Y-102900000D01*
X105850000Y-108400000D02*
X106350000Y-108400000D01*
X105850000Y-102900000D02*
X105850000Y-108400000D01*
X103850000Y-102900000D02*
X103350000Y-102900000D01*
X103850000Y-108400000D02*
X103850000Y-102900000D01*
X103350000Y-108400000D02*
X103850000Y-108400000D01*
X103350000Y-102900000D02*
X103350000Y-108400000D01*
X101350000Y-102900000D02*
X100850000Y-102900000D01*
X101350000Y-108400000D02*
X101350000Y-102900000D01*
X100850000Y-108400000D02*
X101350000Y-108400000D01*
X100850000Y-102900000D02*
X100850000Y-108400000D01*
X98850000Y-102900000D02*
X98350000Y-102900000D01*
X98850000Y-108400000D02*
X98850000Y-102900000D01*
X98350000Y-108400000D02*
X98850000Y-108400000D01*
X98350000Y-102900000D02*
X98350000Y-108400000D01*
X96350000Y-102900000D02*
X95850000Y-102900000D01*
X96350000Y-108400000D02*
X96350000Y-102900000D01*
X95850000Y-108400000D02*
X96350000Y-108400000D01*
X95850000Y-102900000D02*
X95850000Y-108400000D01*
X93850000Y-102900000D02*
X93350000Y-102900000D01*
X93850000Y-108400000D02*
X93850000Y-102900000D01*
X93350000Y-108400000D02*
X93850000Y-108400000D01*
X93350000Y-102900000D02*
X93350000Y-108400000D01*
X107240000Y-101790000D02*
X99850000Y-101790000D01*
X107240000Y-97290000D02*
X107240000Y-101790000D01*
X108660000Y-97290000D02*
X107240000Y-97290000D01*
X108660000Y-109010000D02*
X108660000Y-97290000D01*
X99850000Y-109010000D02*
X108660000Y-109010000D01*
X92460000Y-101790000D02*
X99850000Y-101790000D01*
X92460000Y-97290000D02*
X92460000Y-101790000D01*
X91040000Y-97290000D02*
X92460000Y-97290000D01*
X91040000Y-109010000D02*
X91040000Y-97290000D01*
X99850000Y-109010000D02*
X91040000Y-109010000D01*
D10*
X97700000Y-67700000D02*
X87700000Y-67700000D01*
X92700000Y-83100000D02*
X87700000Y-83100000D01*
X92700000Y-83100000D02*
X97700000Y-83100000D01*
X87700000Y-83100000D02*
X87700000Y-67700000D01*
X97700000Y-83100000D02*
X97700000Y-67700000D01*
X97700000Y-74400000D02*
X87700000Y-74400000D01*
X112300000Y-67700000D02*
X102300000Y-67700000D01*
X107300000Y-83100000D02*
X102300000Y-83100000D01*
X107300000Y-83100000D02*
X112300000Y-83100000D01*
X102300000Y-83100000D02*
X102300000Y-67700000D01*
X112300000Y-83100000D02*
X112300000Y-67700000D01*
X112300000Y-74400000D02*
X102300000Y-74400000D01*
D11*
X110377500Y-91862742D02*
X110377500Y-92337258D01*
X111422500Y-91862742D02*
X111422500Y-92337258D01*
X109822500Y-91862742D02*
X109822500Y-92337258D01*
X108777500Y-91862742D02*
X108777500Y-92337258D01*
X102277500Y-95537258D02*
X102277500Y-95062742D01*
X103322500Y-95537258D02*
X103322500Y-95062742D01*
X101622500Y-95062742D02*
X101622500Y-95537258D01*
X100577500Y-95062742D02*
X100577500Y-95537258D01*
X108250000Y-93730000D02*
X108250000Y-90130000D01*
X108238478Y-90091522D02*
G75*
G03*
X103800000Y-91930000I-1838478J-1838478D01*
G01*
X108238478Y-93768478D02*
G75*
G02*
X103800000Y-91930000I-1838478J1838478D01*
G01*
X110230000Y-102940000D02*
X113170000Y-102940000D01*
X113170000Y-102940000D02*
X113170000Y-97500000D01*
X113170000Y-97500000D02*
X110230000Y-97500000D01*
X110230000Y-97500000D02*
X110230000Y-102940000D01*
X111700000Y-103960000D02*
X111700000Y-102940000D01*
X111700000Y-96480000D02*
X111700000Y-97500000D01*
X110230000Y-102040000D02*
X113170000Y-102040000D01*
X110230000Y-101920000D02*
X113170000Y-101920000D01*
X110230000Y-102160000D02*
X113170000Y-102160000D01*
X89822500Y-91062742D02*
X89822500Y-91537258D01*
X88777500Y-91062742D02*
X88777500Y-91537258D01*
X91422500Y-91062742D02*
X91422500Y-91537258D01*
X90377500Y-91062742D02*
X90377500Y-91537258D01*
X97377500Y-95537258D02*
X97377500Y-95062742D01*
X98422500Y-95537258D02*
X98422500Y-95062742D01*
X100022500Y-95062742D02*
X100022500Y-95537258D01*
X98977500Y-95062742D02*
X98977500Y-95537258D01*
X96650000Y-93530000D02*
X96650000Y-89930000D01*
X96638478Y-89891522D02*
G75*
G03*
X92200000Y-91730000I-1838478J-1838478D01*
G01*
X96638478Y-93568478D02*
G75*
G02*
X92200000Y-91730000I-1838478J1838478D01*
G01*
X86730000Y-102940000D02*
X89670000Y-102940000D01*
X89670000Y-102940000D02*
X89670000Y-97500000D01*
X89670000Y-97500000D02*
X86730000Y-97500000D01*
X86730000Y-97500000D02*
X86730000Y-102940000D01*
X88200000Y-103960000D02*
X88200000Y-102940000D01*
X88200000Y-96480000D02*
X88200000Y-97500000D01*
X86730000Y-102040000D02*
X89670000Y-102040000D01*
X86730000Y-101920000D02*
X89670000Y-101920000D01*
X86730000Y-102160000D02*
X89670000Y-102160000D01*
D12*
X91290476Y-95752380D02*
X91290476Y-96466666D01*
X91242857Y-96609523D01*
X91147619Y-96704761D01*
X91004761Y-96752380D01*
X90909523Y-96752380D01*
X92290476Y-96752380D02*
X91719047Y-96752380D01*
X92004761Y-96752380D02*
X92004761Y-95752380D01*
X91909523Y-95895238D01*
X91814285Y-95990476D01*
X91719047Y-96038095D01*
X93242857Y-96752380D02*
X92671428Y-96752380D01*
X92957142Y-96752380D02*
X92957142Y-95752380D01*
X92861904Y-95895238D01*
X92766666Y-95990476D01*
X92671428Y-96038095D01*
X97428571Y-87747619D02*
X97333333Y-87700000D01*
X97238095Y-87604761D01*
X97095238Y-87461904D01*
X97000000Y-87414285D01*
X96904761Y-87414285D01*
X96952380Y-87652380D02*
X96857142Y-87604761D01*
X96761904Y-87509523D01*
X96714285Y-87319047D01*
X96714285Y-86985714D01*
X96761904Y-86795238D01*
X96857142Y-86700000D01*
X96952380Y-86652380D01*
X97142857Y-86652380D01*
X97238095Y-86700000D01*
X97333333Y-86795238D01*
X97380952Y-86985714D01*
X97380952Y-87319047D01*
X97333333Y-87509523D01*
X97238095Y-87604761D01*
X97142857Y-87652380D01*
X96952380Y-87652380D01*
X98333333Y-87652380D02*
X97761904Y-87652380D01*
X98047619Y-87652380D02*
X98047619Y-86652380D01*
X97952380Y-86795238D01*
X97857142Y-86890476D01*
X97761904Y-86938095D01*
X98666666Y-86652380D02*
X99285714Y-86652380D01*
X98952380Y-87033333D01*
X99095238Y-87033333D01*
X99190476Y-87080952D01*
X99238095Y-87128571D01*
X99285714Y-87223809D01*
X99285714Y-87461904D01*
X99238095Y-87557142D01*
X99190476Y-87604761D01*
X99095238Y-87652380D01*
X98809523Y-87652380D01*
X98714285Y-87604761D01*
X98666666Y-87557142D01*
X102104761Y-87747619D02*
X102009523Y-87700000D01*
X101914285Y-87604761D01*
X101771428Y-87461904D01*
X101676190Y-87414285D01*
X101580952Y-87414285D01*
X101628571Y-87652380D02*
X101533333Y-87604761D01*
X101438095Y-87509523D01*
X101390476Y-87319047D01*
X101390476Y-86985714D01*
X101438095Y-86795238D01*
X101533333Y-86700000D01*
X101628571Y-86652380D01*
X101819047Y-86652380D01*
X101914285Y-86700000D01*
X102009523Y-86795238D01*
X102057142Y-86985714D01*
X102057142Y-87319047D01*
X102009523Y-87509523D01*
X101914285Y-87604761D01*
X101819047Y-87652380D01*
X101628571Y-87652380D01*
X102438095Y-86747619D02*
X102485714Y-86700000D01*
X102580952Y-86652380D01*
X102819047Y-86652380D01*
X102914285Y-86700000D01*
X102961904Y-86747619D01*
X103009523Y-86842857D01*
X103009523Y-86938095D01*
X102961904Y-87080952D01*
X102390476Y-87652380D01*
X103009523Y-87652380D01*
X114552380Y-92366666D02*
X114076190Y-92700000D01*
X114552380Y-92938095D02*
X113552380Y-92938095D01*
X113552380Y-92557142D01*
X113600000Y-92461904D01*
X113647619Y-92414285D01*
X113742857Y-92366666D01*
X113885714Y-92366666D01*
X113980952Y-92414285D01*
X114028571Y-92461904D01*
X114076190Y-92557142D01*
X114076190Y-92938095D01*
X113885714Y-91509523D02*
X114552380Y-91509523D01*
X113504761Y-91747619D02*
X114219047Y-91985714D01*
X114219047Y-91366666D01*
X113052380Y-92366666D02*
X112576190Y-92700000D01*
X113052380Y-92938095D02*
X112052380Y-92938095D01*
X112052380Y-92557142D01*
X112100000Y-92461904D01*
X112147619Y-92414285D01*
X112242857Y-92366666D01*
X112385714Y-92366666D01*
X112480952Y-92414285D01*
X112528571Y-92461904D01*
X112576190Y-92557142D01*
X112576190Y-92938095D01*
X112052380Y-92033333D02*
X112052380Y-91414285D01*
X112433333Y-91747619D01*
X112433333Y-91604761D01*
X112480952Y-91509523D01*
X112528571Y-91461904D01*
X112623809Y-91414285D01*
X112861904Y-91414285D01*
X112957142Y-91461904D01*
X113004761Y-91509523D01*
X113052380Y-91604761D01*
X113052380Y-91890476D01*
X113004761Y-91985714D01*
X112957142Y-92033333D01*
X103352380Y-92866666D02*
X102876190Y-93200000D01*
X103352380Y-93438095D02*
X102352380Y-93438095D01*
X102352380Y-93057142D01*
X102400000Y-92961904D01*
X102447619Y-92914285D01*
X102542857Y-92866666D01*
X102685714Y-92866666D01*
X102780952Y-92914285D01*
X102828571Y-92961904D01*
X102876190Y-93057142D01*
X102876190Y-93438095D01*
X102447619Y-92485714D02*
X102400000Y-92438095D01*
X102352380Y-92342857D01*
X102352380Y-92104761D01*
X102400000Y-92009523D01*
X102447619Y-91961904D01*
X102542857Y-91914285D01*
X102638095Y-91914285D01*
X102780952Y-91961904D01*
X103352380Y-92533333D01*
X103352380Y-91914285D01*
X101852380Y-92866666D02*
X101376190Y-93200000D01*
X101852380Y-93438095D02*
X100852380Y-93438095D01*
X100852380Y-93057142D01*
X100900000Y-92961904D01*
X100947619Y-92914285D01*
X101042857Y-92866666D01*
X101185714Y-92866666D01*
X101280952Y-92914285D01*
X101328571Y-92961904D01*
X101376190Y-93057142D01*
X101376190Y-93438095D01*
X101852380Y-91914285D02*
X101852380Y-92485714D01*
X101852380Y-92200000D02*
X100852380Y-92200000D01*
X100995238Y-92295238D01*
X101090476Y-92390476D01*
X101138095Y-92485714D01*
X108347619Y-95295238D02*
X108300000Y-95390476D01*
X108204761Y-95485714D01*
X108061904Y-95628571D01*
X108014285Y-95723809D01*
X108014285Y-95819047D01*
X108252380Y-95771428D02*
X108204761Y-95866666D01*
X108109523Y-95961904D01*
X107919047Y-96009523D01*
X107585714Y-96009523D01*
X107395238Y-95961904D01*
X107300000Y-95866666D01*
X107252380Y-95771428D01*
X107252380Y-95580952D01*
X107300000Y-95485714D01*
X107395238Y-95390476D01*
X107585714Y-95342857D01*
X107919047Y-95342857D01*
X108109523Y-95390476D01*
X108204761Y-95485714D01*
X108252380Y-95580952D01*
X108252380Y-95771428D01*
X108252380Y-94390476D02*
X108252380Y-94961904D01*
X108252380Y-94676190D02*
X107252380Y-94676190D01*
X107395238Y-94771428D01*
X107490476Y-94866666D01*
X107538095Y-94961904D01*
X114352380Y-100838095D02*
X113352380Y-100838095D01*
X113352380Y-100600000D01*
X113400000Y-100457142D01*
X113495238Y-100361904D01*
X113590476Y-100314285D01*
X113780952Y-100266666D01*
X113923809Y-100266666D01*
X114114285Y-100314285D01*
X114209523Y-100361904D01*
X114304761Y-100457142D01*
X114352380Y-100600000D01*
X114352380Y-100838095D01*
X114352380Y-99314285D02*
X114352380Y-99885714D01*
X114352380Y-99600000D02*
X113352380Y-99600000D01*
X113495238Y-99695238D01*
X113590476Y-99790476D01*
X113638095Y-99885714D01*
X86652380Y-91842857D02*
X86176190Y-92176190D01*
X86652380Y-92414285D02*
X85652380Y-92414285D01*
X85652380Y-92033333D01*
X85700000Y-91938095D01*
X85747619Y-91890476D01*
X85842857Y-91842857D01*
X85985714Y-91842857D01*
X86080952Y-91890476D01*
X86128571Y-91938095D01*
X86176190Y-92033333D01*
X86176190Y-92414285D01*
X86652380Y-90890476D02*
X86652380Y-91461904D01*
X86652380Y-91176190D02*
X85652380Y-91176190D01*
X85795238Y-91271428D01*
X85890476Y-91366666D01*
X85938095Y-91461904D01*
X85652380Y-89985714D02*
X85652380Y-90461904D01*
X86128571Y-90509523D01*
X86080952Y-90461904D01*
X86033333Y-90366666D01*
X86033333Y-90128571D01*
X86080952Y-90033333D01*
X86128571Y-89985714D01*
X86223809Y-89938095D01*
X86461904Y-89938095D01*
X86557142Y-89985714D01*
X86604761Y-90033333D01*
X86652380Y-90128571D01*
X86652380Y-90366666D01*
X86604761Y-90461904D01*
X86557142Y-90509523D01*
X88052380Y-91842857D02*
X87576190Y-92176190D01*
X88052380Y-92414285D02*
X87052380Y-92414285D01*
X87052380Y-92033333D01*
X87100000Y-91938095D01*
X87147619Y-91890476D01*
X87242857Y-91842857D01*
X87385714Y-91842857D01*
X87480952Y-91890476D01*
X87528571Y-91938095D01*
X87576190Y-92033333D01*
X87576190Y-92414285D01*
X88052380Y-90890476D02*
X88052380Y-91461904D01*
X88052380Y-91176190D02*
X87052380Y-91176190D01*
X87195238Y-91271428D01*
X87290476Y-91366666D01*
X87338095Y-91461904D01*
X87385714Y-90033333D02*
X88052380Y-90033333D01*
X87004761Y-90271428D02*
X87719047Y-90509523D01*
X87719047Y-89890476D01*
X98352380Y-92842857D02*
X97876190Y-93176190D01*
X98352380Y-93414285D02*
X97352380Y-93414285D01*
X97352380Y-93033333D01*
X97400000Y-92938095D01*
X97447619Y-92890476D01*
X97542857Y-92842857D01*
X97685714Y-92842857D01*
X97780952Y-92890476D01*
X97828571Y-92938095D01*
X97876190Y-93033333D01*
X97876190Y-93414285D01*
X98352380Y-91890476D02*
X98352380Y-92461904D01*
X98352380Y-92176190D02*
X97352380Y-92176190D01*
X97495238Y-92271428D01*
X97590476Y-92366666D01*
X97638095Y-92461904D01*
X97352380Y-91557142D02*
X97352380Y-90938095D01*
X97733333Y-91271428D01*
X97733333Y-91128571D01*
X97780952Y-91033333D01*
X97828571Y-90985714D01*
X97923809Y-90938095D01*
X98161904Y-90938095D01*
X98257142Y-90985714D01*
X98304761Y-91033333D01*
X98352380Y-91128571D01*
X98352380Y-91414285D01*
X98304761Y-91509523D01*
X98257142Y-91557142D01*
X99752380Y-92842857D02*
X99276190Y-93176190D01*
X99752380Y-93414285D02*
X98752380Y-93414285D01*
X98752380Y-93033333D01*
X98800000Y-92938095D01*
X98847619Y-92890476D01*
X98942857Y-92842857D01*
X99085714Y-92842857D01*
X99180952Y-92890476D01*
X99228571Y-92938095D01*
X99276190Y-93033333D01*
X99276190Y-93414285D01*
X99752380Y-91890476D02*
X99752380Y-92461904D01*
X99752380Y-92176190D02*
X98752380Y-92176190D01*
X98895238Y-92271428D01*
X98990476Y-92366666D01*
X99038095Y-92461904D01*
X98847619Y-91509523D02*
X98800000Y-91461904D01*
X98752380Y-91366666D01*
X98752380Y-91128571D01*
X98800000Y-91033333D01*
X98847619Y-90985714D01*
X98942857Y-90938095D01*
X99038095Y-90938095D01*
X99180952Y-90985714D01*
X99752380Y-91557142D01*
X99752380Y-90938095D01*
X92347619Y-94771428D02*
X92300000Y-94866666D01*
X92204761Y-94961904D01*
X92061904Y-95104761D01*
X92014285Y-95200000D01*
X92014285Y-95295238D01*
X92252380Y-95247619D02*
X92204761Y-95342857D01*
X92109523Y-95438095D01*
X91919047Y-95485714D01*
X91585714Y-95485714D01*
X91395238Y-95438095D01*
X91300000Y-95342857D01*
X91252380Y-95247619D01*
X91252380Y-95057142D01*
X91300000Y-94961904D01*
X91395238Y-94866666D01*
X91585714Y-94819047D01*
X91919047Y-94819047D01*
X92109523Y-94866666D01*
X92204761Y-94961904D01*
X92252380Y-95057142D01*
X92252380Y-95247619D01*
X92252380Y-93866666D02*
X92252380Y-94438095D01*
X92252380Y-94152380D02*
X91252380Y-94152380D01*
X91395238Y-94247619D01*
X91490476Y-94342857D01*
X91538095Y-94438095D01*
X91347619Y-93485714D02*
X91300000Y-93438095D01*
X91252380Y-93342857D01*
X91252380Y-93104761D01*
X91300000Y-93009523D01*
X91347619Y-92961904D01*
X91442857Y-92914285D01*
X91538095Y-92914285D01*
X91680952Y-92961904D01*
X92252380Y-93533333D01*
X92252380Y-92914285D01*
X86452380Y-101434285D02*
X85452380Y-101434285D01*
X85452380Y-101196190D01*
X85500000Y-101053333D01*
X85595238Y-100958095D01*
X85690476Y-100910476D01*
X85880952Y-100862857D01*
X86023809Y-100862857D01*
X86214285Y-100910476D01*
X86309523Y-100958095D01*
X86404761Y-101053333D01*
X86452380Y-101196190D01*
X86452380Y-101434285D01*
X86452380Y-99910476D02*
X86452380Y-100481904D01*
X86452380Y-100196190D02*
X85452380Y-100196190D01*
X85595238Y-100291428D01*
X85690476Y-100386666D01*
X85738095Y-100481904D01*
X85547619Y-99529523D02*
X85500000Y-99481904D01*
X85452380Y-99386666D01*
X85452380Y-99148571D01*
X85500000Y-99053333D01*
X85547619Y-99005714D01*
X85642857Y-98958095D01*
X85738095Y-98958095D01*
X85880952Y-99005714D01*
X86452380Y-99577142D01*
X86452380Y-98958095D01*
%LPC*%
D13*
X106100000Y-99700000D03*
X103600000Y-99700000D03*
X101100000Y-99700000D03*
X98600000Y-99700000D03*
X96100000Y-99700000D03*
G36*
G01*
X92750000Y-100425000D02*
X92750000Y-98975000D01*
G75*
G02*
X93000000Y-98725000I250000J0D01*
G01*
X94200000Y-98725000D01*
G75*
G02*
X94450000Y-98975000I0J-250000D01*
G01*
X94450000Y-100425000D01*
G75*
G02*
X94200000Y-100675000I-250000J0D01*
G01*
X93000000Y-100675000D01*
G75*
G02*
X92750000Y-100425000I0J250000D01*
G01*
G37*
D14*
X92700000Y-70700000D03*
D15*
X90160000Y-87100000D03*
D16*
X95240000Y-87100000D03*
X92700000Y-87100000D03*
D17*
X92700000Y-73700000D03*
D14*
X107300000Y-70700000D03*
D15*
X104760000Y-87100000D03*
D16*
X109840000Y-87100000D03*
X107300000Y-87100000D03*
D17*
X107200000Y-73800000D03*
G36*
G01*
X110625000Y-90875000D02*
X111175000Y-90875000D01*
G75*
G02*
X111375000Y-91075000I0J-200000D01*
G01*
X111375000Y-91475000D01*
G75*
G02*
X111175000Y-91675000I-200000J0D01*
G01*
X110625000Y-91675000D01*
G75*
G02*
X110425000Y-91475000I0J200000D01*
G01*
X110425000Y-91075000D01*
G75*
G02*
X110625000Y-90875000I200000J0D01*
G01*
G37*
G36*
G01*
X110625000Y-92525000D02*
X111175000Y-92525000D01*
G75*
G02*
X111375000Y-92725000I0J-200000D01*
G01*
X111375000Y-93125000D01*
G75*
G02*
X111175000Y-93325000I-200000J0D01*
G01*
X110625000Y-93325000D01*
G75*
G02*
X110425000Y-93125000I0J200000D01*
G01*
X110425000Y-92725000D01*
G75*
G02*
X110625000Y-92525000I200000J0D01*
G01*
G37*
G36*
G01*
X109025000Y-92525000D02*
X109575000Y-92525000D01*
G75*
G02*
X109775000Y-92725000I0J-200000D01*
G01*
X109775000Y-93125000D01*
G75*
G02*
X109575000Y-93325000I-200000J0D01*
G01*
X109025000Y-93325000D01*
G75*
G02*
X108825000Y-93125000I0J200000D01*
G01*
X108825000Y-92725000D01*
G75*
G02*
X109025000Y-92525000I200000J0D01*
G01*
G37*
G36*
G01*
X109025000Y-90875000D02*
X109575000Y-90875000D01*
G75*
G02*
X109775000Y-91075000I0J-200000D01*
G01*
X109775000Y-91475000D01*
G75*
G02*
X109575000Y-91675000I-200000J0D01*
G01*
X109025000Y-91675000D01*
G75*
G02*
X108825000Y-91475000I0J200000D01*
G01*
X108825000Y-91075000D01*
G75*
G02*
X109025000Y-90875000I200000J0D01*
G01*
G37*
G36*
G01*
X103075000Y-94875000D02*
X102525000Y-94875000D01*
G75*
G02*
X102325000Y-94675000I0J200000D01*
G01*
X102325000Y-94275000D01*
G75*
G02*
X102525000Y-94075000I200000J0D01*
G01*
X103075000Y-94075000D01*
G75*
G02*
X103275000Y-94275000I0J-200000D01*
G01*
X103275000Y-94675000D01*
G75*
G02*
X103075000Y-94875000I-200000J0D01*
G01*
G37*
G36*
G01*
X103075000Y-96525000D02*
X102525000Y-96525000D01*
G75*
G02*
X102325000Y-96325000I0J200000D01*
G01*
X102325000Y-95925000D01*
G75*
G02*
X102525000Y-95725000I200000J0D01*
G01*
X103075000Y-95725000D01*
G75*
G02*
X103275000Y-95925000I0J-200000D01*
G01*
X103275000Y-96325000D01*
G75*
G02*
X103075000Y-96525000I-200000J0D01*
G01*
G37*
G36*
G01*
X100825000Y-95725000D02*
X101375000Y-95725000D01*
G75*
G02*
X101575000Y-95925000I0J-200000D01*
G01*
X101575000Y-96325000D01*
G75*
G02*
X101375000Y-96525000I-200000J0D01*
G01*
X100825000Y-96525000D01*
G75*
G02*
X100625000Y-96325000I0J200000D01*
G01*
X100625000Y-95925000D01*
G75*
G02*
X100825000Y-95725000I200000J0D01*
G01*
G37*
G36*
G01*
X100825000Y-94075000D02*
X101375000Y-94075000D01*
G75*
G02*
X101575000Y-94275000I0J-200000D01*
G01*
X101575000Y-94675000D01*
G75*
G02*
X101375000Y-94875000I-200000J0D01*
G01*
X100825000Y-94875000D01*
G75*
G02*
X100625000Y-94675000I0J200000D01*
G01*
X100625000Y-94275000D01*
G75*
G02*
X100825000Y-94075000I200000J0D01*
G01*
G37*
D18*
X106400000Y-93200000D03*
D19*
X106400000Y-90660000D03*
X106400000Y-91930000D03*
D20*
X111700000Y-95140000D03*
D21*
X111700000Y-105300000D03*
G36*
G01*
X89025000Y-91725000D02*
X89575000Y-91725000D01*
G75*
G02*
X89775000Y-91925000I0J-200000D01*
G01*
X89775000Y-92325000D01*
G75*
G02*
X89575000Y-92525000I-200000J0D01*
G01*
X89025000Y-92525000D01*
G75*
G02*
X88825000Y-92325000I0J200000D01*
G01*
X88825000Y-91925000D01*
G75*
G02*
X89025000Y-91725000I200000J0D01*
G01*
G37*
G36*
G01*
X89025000Y-90075000D02*
X89575000Y-90075000D01*
G75*
G02*
X89775000Y-90275000I0J-200000D01*
G01*
X89775000Y-90675000D01*
G75*
G02*
X89575000Y-90875000I-200000J0D01*
G01*
X89025000Y-90875000D01*
G75*
G02*
X88825000Y-90675000I0J200000D01*
G01*
X88825000Y-90275000D01*
G75*
G02*
X89025000Y-90075000I200000J0D01*
G01*
G37*
G36*
G01*
X90625000Y-91725000D02*
X91175000Y-91725000D01*
G75*
G02*
X91375000Y-91925000I0J-200000D01*
G01*
X91375000Y-92325000D01*
G75*
G02*
X91175000Y-92525000I-200000J0D01*
G01*
X90625000Y-92525000D01*
G75*
G02*
X90425000Y-92325000I0J200000D01*
G01*
X90425000Y-91925000D01*
G75*
G02*
X90625000Y-91725000I200000J0D01*
G01*
G37*
G36*
G01*
X90625000Y-90075000D02*
X91175000Y-90075000D01*
G75*
G02*
X91375000Y-90275000I0J-200000D01*
G01*
X91375000Y-90675000D01*
G75*
G02*
X91175000Y-90875000I-200000J0D01*
G01*
X90625000Y-90875000D01*
G75*
G02*
X90425000Y-90675000I0J200000D01*
G01*
X90425000Y-90275000D01*
G75*
G02*
X90625000Y-90075000I200000J0D01*
G01*
G37*
G36*
G01*
X98175000Y-94875000D02*
X97625000Y-94875000D01*
G75*
G02*
X97425000Y-94675000I0J200000D01*
G01*
X97425000Y-94275000D01*
G75*
G02*
X97625000Y-94075000I200000J0D01*
G01*
X98175000Y-94075000D01*
G75*
G02*
X98375000Y-94275000I0J-200000D01*
G01*
X98375000Y-94675000D01*
G75*
G02*
X98175000Y-94875000I-200000J0D01*
G01*
G37*
G36*
G01*
X98175000Y-96525000D02*
X97625000Y-96525000D01*
G75*
G02*
X97425000Y-96325000I0J200000D01*
G01*
X97425000Y-95925000D01*
G75*
G02*
X97625000Y-95725000I200000J0D01*
G01*
X98175000Y-95725000D01*
G75*
G02*
X98375000Y-95925000I0J-200000D01*
G01*
X98375000Y-96325000D01*
G75*
G02*
X98175000Y-96525000I-200000J0D01*
G01*
G37*
G36*
G01*
X99225000Y-95725000D02*
X99775000Y-95725000D01*
G75*
G02*
X99975000Y-95925000I0J-200000D01*
G01*
X99975000Y-96325000D01*
G75*
G02*
X99775000Y-96525000I-200000J0D01*
G01*
X99225000Y-96525000D01*
G75*
G02*
X99025000Y-96325000I0J200000D01*
G01*
X99025000Y-95925000D01*
G75*
G02*
X99225000Y-95725000I200000J0D01*
G01*
G37*
G36*
G01*
X99225000Y-94075000D02*
X99775000Y-94075000D01*
G75*
G02*
X99975000Y-94275000I0J-200000D01*
G01*
X99975000Y-94675000D01*
G75*
G02*
X99775000Y-94875000I-200000J0D01*
G01*
X99225000Y-94875000D01*
G75*
G02*
X99025000Y-94675000I0J200000D01*
G01*
X99025000Y-94275000D01*
G75*
G02*
X99225000Y-94075000I200000J0D01*
G01*
G37*
D18*
X94800000Y-93000000D03*
D19*
X94800000Y-90460000D03*
X94800000Y-91730000D03*
D20*
X88200000Y-95140000D03*
D21*
X88200000Y-105300000D03*
M02*
